<svg xmlns="http://www.w3.org/2000/svg" width="720" height="1080" viewBox="0 0 720 1080" role="img" aria-label="Original Tome Stoa painting for The Divine Comedy: concentric gold rings and rising steps around a small lantern inside a stone arch medallion.">
  <title>Original Tome Stoa painting for The Divine Comedy: concentric gold rings and rising steps around a small lantern inside a stone arch medallion.</title>
  <defs>
    <linearGradient id="wall-divine-comedy" x1="0" y1="0" x2="0" y2="1">
      <stop offset="0" stop-color="#2A1E3F"/>
      <stop offset="1" stop-color="#7C6BA8"/>
    </linearGradient>
    <linearGradient id="archSky-divine-comedy" x1="0" y1="0" x2="0" y2="1">
      <stop offset="0" stop-color="#7C6BA8"/>
      <stop offset="1" stop-color="#2A1E3F"/>
    </linearGradient>
    <linearGradient id="field-divine-comedy" x1="0" y1="0" x2="0" y2="1">
      <stop offset="0" stop-color="#2A1E3F"/>
      <stop offset="1" stop-color="#7C6BA8"/>
    </linearGradient>
    <linearGradient id="stoneShaft-divine-comedy" x1="0" y1="0" x2="1" y2="0">
      <stop offset="0" stop-color="#EDE4D0" stop-opacity="0.55"/>
      <stop offset="0.5" stop-color="#EDE4D0" stop-opacity="0.9"/>
      <stop offset="1" stop-color="#EDE4D0" stop-opacity="0.55"/>
    </linearGradient>
  </defs>
  <rect width="720" height="1080" fill="url(#wall-divine-comedy)"/>
  
  <!-- entablature -->
  <rect x="56" y="92" width="608" height="52" rx="4" fill="#EDE4D0" opacity="0.16"/>
  <line x1="56" y1="92" x2="664" y2="92" stroke="#E8B23C" stroke-width="2" opacity="0.8"/>
  <line x1="56" y1="144" x2="664" y2="144" stroke="#E8B23C" stroke-width="1" opacity="0.5"/>
  <!-- arch opening -->
  <path d="M 150 900 L 150 480 A 210 210 0 0 1 570 480 L 570 900 Z" fill="url(#archSky-divine-comedy)"/>
  <path d="M 150 900 L 150 480 A 210 210 0 0 1 570 480 L 570 900 Z" fill="none" stroke="#E8B23C" stroke-width="2.5" opacity="0.9"/>
  <path d="M 138 910 L 138 468 A 222 222 0 0 1 582 468 L 582 910 Z" fill="none" stroke="#EDE4D0" stroke-width="6" opacity="0.35"/>
  <!-- columns -->
  
  <g>
    <rect x="87" y="152" width="56" height="18" rx="3" fill="#EDE4D0" opacity="0.92"/>
    <rect x="92" y="170" width="46" height="714" fill="url(#stoneShaft-divine-comedy)"/>
    <line x1="102" y1="178" x2="102" y2="876" stroke="#C9BEA6" stroke-width="2" opacity="0.55"/><line x1="115" y1="178" x2="115" y2="876" stroke="#C9BEA6" stroke-width="2" opacity="0.55"/><line x1="128" y1="178" x2="128" y2="876" stroke="#C9BEA6" stroke-width="2" opacity="0.55"/>
    <rect x="86" y="884" width="58" height="16" rx="2" fill="#EDE4D0" opacity="0.92"/>
  </g>
  
  <g>
    <rect x="577" y="152" width="56" height="18" rx="3" fill="#EDE4D0" opacity="0.92"/>
    <rect x="582" y="170" width="46" height="714" fill="url(#stoneShaft-divine-comedy)"/>
    <line x1="592" y1="178" x2="592" y2="876" stroke="#C9BEA6" stroke-width="2" opacity="0.55"/><line x1="605" y1="178" x2="605" y2="876" stroke="#C9BEA6" stroke-width="2" opacity="0.55"/><line x1="618" y1="178" x2="618" y2="876" stroke="#C9BEA6" stroke-width="2" opacity="0.55"/>
    <rect x="576" y="884" width="58" height="16" rx="2" fill="#EDE4D0" opacity="0.92"/>
  </g>
  <!-- floor -->
  <rect x="0" y="900" width="720" height="180" fill="#EDE4D0" opacity="0.10"/>
  <line x1="0" y1="900" x2="720" y2="900" stroke="#E8B23C" stroke-width="1.5" opacity="0.45"/>
  
  <g>
    <rect x="252" y="836" width="216" height="22" rx="3" fill="#EDE4D0" opacity="0.9"/>
    <rect x="230" y="858" width="260" height="20" rx="3" fill="#EDE4D0" opacity="0.78"/>
    <rect x="206" y="878" width="308" height="22" rx="3" fill="#EDE4D0" opacity="0.66"/>
  </g>
  
  <circle cx="360" cy="520" r="200" fill="none" stroke="#E8B23C" stroke-width="1.5" opacity="0.35"/>
  <circle cx="360" cy="520" r="190" fill="url(#field-divine-comedy)" stroke="#E8B23C" stroke-width="3"/>
  <circle cx="360" cy="520" r="168" fill="none" stroke="#E8B23C" stroke-width="1" opacity="0.6"/>
  <clipPath id="medClip-divine-comedy"><circle cx="360" cy="520" r="168"/></clipPath>
  <g clip-path="url(#medClip-divine-comedy)">
    <g transform="translate(360 520)">
      
    <circle cx="0" cy="0" r="128" fill="none" stroke="#E8B23C" stroke-width="2.5" opacity="0.45"/>
    <circle cx="0" cy="0" r="92" fill="none" stroke="#E8B23C" stroke-width="3" opacity="0.65"/>
    <circle cx="0" cy="0" r="56" fill="none" stroke="#E8B23C" stroke-width="3.5" opacity="0.9"/>
    <rect x="-118" y="86" width="42" height="14" rx="2" fill="#9FD8E8" opacity="0.45"/>
    <rect x="-92" y="62" width="42" height="14" rx="2" fill="#9FD8E8" opacity="0.6"/>
    <rect x="-66" y="38" width="42" height="14" rx="2" fill="#9FD8E8" opacity="0.75"/>
    <circle cx="0" cy="0" r="14" fill="#E8B23C"/>
    <circle cx="0" cy="0" r="26" fill="#E8B23C" opacity="0.25"/>
    <line x1="0" y1="-14" x2="0" y2="-34" stroke="#E8B23C" stroke-width="3"/>
    <path d="M -14,44 Q 0,60 14,44" fill="none" stroke="#9FD8E8" stroke-width="3" opacity="0.8"/>
    <circle cx="98" cy="-98" r="3" fill="#9FD8E8" opacity="0.8"/>
    </g>
  </g>
  <circle cx="658.6" cy="819.1" r="0.90" fill="#9FD8E8" opacity="0.063"/><circle cx="688.4" cy="1063.8" r="1.89" fill="#9FD8E8" opacity="0.032"/><circle cx="321.3" cy="109.2" r="1.89" fill="#9FD8E8" opacity="0.055"/><circle cx="528.6" cy="503.6" r="0.60" fill="#9FD8E8" opacity="0.053"/><circle cx="380.7" cy="604.8" r="2.10" fill="#9FD8E8" opacity="0.067"/><circle cx="5.7" cy="1059.1" r="0.67" fill="#9FD8E8" opacity="0.081"/><circle cx="209.9" cy="775.6" r="2.14" fill="#9FD8E8" opacity="0.074"/><circle cx="300.5" cy="30.0" r="1.60" fill="#9FD8E8" opacity="0.084"/><circle cx="535.6" cy="191.3" r="2.13" fill="#9FD8E8" opacity="0.043"/><circle cx="579.8" cy="7.2" r="2.08" fill="#9FD8E8" opacity="0.060"/><circle cx="484.2" cy="903.3" r="1.40" fill="#9FD8E8" opacity="0.045"/><circle cx="318.5" cy="118.2" r="2.06" fill="#9FD8E8" opacity="0.043"/><circle cx="395.4" cy="946.5" r="1.57" fill="#9FD8E8" opacity="0.046"/><circle cx="564.1" cy="343.2" r="1.81" fill="#9FD8E8" opacity="0.064"/><circle cx="477.8" cy="39.3" r="0.70" fill="#9FD8E8" opacity="0.090"/><circle cx="154.3" cy="249.4" r="2.17" fill="#9FD8E8" opacity="0.071"/><circle cx="718.7" cy="208.8" r="1.24" fill="#9FD8E8" opacity="0.082"/><circle cx="403.7" cy="920.8" r="0.88" fill="#9FD8E8" opacity="0.052"/><circle cx="283.6" cy="925.8" r="1.74" fill="#9FD8E8" opacity="0.086"/><circle cx="685.9" cy="80.0" r="0.91" fill="#9FD8E8" opacity="0.065"/><circle cx="518.6" cy="524.3" r="1.58" fill="#9FD8E8" opacity="0.041"/><circle cx="207.8" cy="1043.4" r="1.54" fill="#9FD8E8" opacity="0.033"/><circle cx="60.6" cy="750.5" r="1.24" fill="#9FD8E8" opacity="0.035"/><circle cx="236.9" cy="148.0" r="1.83" fill="#9FD8E8" opacity="0.069"/><circle cx="39.2" cy="363.7" r="0.79" fill="#9FD8E8" opacity="0.071"/><circle cx="378.9" cy="610.9" r="2.09" fill="#9FD8E8" opacity="0.036"/><circle cx="215.2" cy="727.5" r="1.34" fill="#9FD8E8" opacity="0.041"/><circle cx="545.3" cy="335.1" r="1.44" fill="#9FD8E8" opacity="0.086"/><circle cx="106.7" cy="486.8" r="1.34" fill="#9FD8E8" opacity="0.049"/><circle cx="486.2" cy="135.6" r="1.67" fill="#9FD8E8" opacity="0.071"/><circle cx="228.8" cy="767.4" r="0.92" fill="#9FD8E8" opacity="0.037"/><circle cx="608.2" cy="765.6" r="0.79" fill="#9FD8E8" opacity="0.036"/><circle cx="538.0" cy="211.2" r="0.92" fill="#9FD8E8" opacity="0.085"/><circle cx="270.2" cy="743.7" r="1.07" fill="#9FD8E8" opacity="0.039"/><circle cx="53.7" cy="16.8" r="1.28" fill="#9FD8E8" opacity="0.070"/><circle cx="45.1" cy="775.5" r="0.91" fill="#9FD8E8" opacity="0.033"/><circle cx="561.0" cy="830.0" r="1.89" fill="#9FD8E8" opacity="0.082"/><circle cx="519.1" cy="412.2" r="0.64" fill="#9FD8E8" opacity="0.032"/><circle cx="668.7" cy="738.6" r="1.03" fill="#9FD8E8" opacity="0.052"/><circle cx="674.6" cy="717.5" r="1.02" fill="#9FD8E8" opacity="0.045"/><circle cx="74.8" cy="940.7" r="1.13" fill="#9FD8E8" opacity="0.050"/><circle cx="639.8" cy="879.4" r="2.14" fill="#9FD8E8" opacity="0.049"/><circle cx="305.9" cy="646.1" r="1.44" fill="#9FD8E8" opacity="0.074"/><circle cx="185.6" cy="745.2" r="1.44" fill="#9FD8E8" opacity="0.030"/><circle cx="22.5" cy="219.0" r="1.43" fill="#9FD8E8" opacity="0.054"/><circle cx="532.9" cy="271.6" r="2.16" fill="#9FD8E8" opacity="0.053"/><circle cx="48.5" cy="188.6" r="1.33" fill="#9FD8E8" opacity="0.081"/><circle cx="94.1" cy="891.6" r="1.08" fill="#9FD8E8" opacity="0.048"/><circle cx="231.5" cy="918.5" r="1.48" fill="#9FD8E8" opacity="0.040"/><circle cx="358.2" cy="707.2" r="1.00" fill="#9FD8E8" opacity="0.070"/><circle cx="664.9" cy="386.9" r="1.49" fill="#9FD8E8" opacity="0.063"/><circle cx="212.1" cy="478.8" r="1.30" fill="#9FD8E8" opacity="0.054"/><circle cx="48.4" cy="523.1" r="1.19" fill="#9FD8E8" opacity="0.058"/><circle cx="154.8" cy="1023.0" r="2.06" fill="#9FD8E8" opacity="0.081"/><circle cx="498.9" cy="989.9" r="0.88" fill="#9FD8E8" opacity="0.044"/><circle cx="279.5" cy="287.7" r="0.90" fill="#9FD8E8" opacity="0.075"/><circle cx="543.5" cy="986.4" r="1.15" fill="#9FD8E8" opacity="0.044"/><circle cx="289.4" cy="39.0" r="2.16" fill="#9FD8E8" opacity="0.031"/><circle cx="327.0" cy="62.1" r="1.17" fill="#9FD8E8" opacity="0.033"/><circle cx="597.3" cy="763.9" r="1.39" fill="#9FD8E8" opacity="0.072"/><circle cx="615.6" cy="638.2" r="1.06" fill="#9FD8E8" opacity="0.035"/><circle cx="648.9" cy="885.8" r="1.32" fill="#9FD8E8" opacity="0.082"/><circle cx="655.3" cy="251.0" r="1.00" fill="#9FD8E8" opacity="0.074"/><circle cx="481.7" cy="705.9" r="1.07" fill="#9FD8E8" opacity="0.082"/><circle cx="569.8" cy="33.7" r="0.88" fill="#9FD8E8" opacity="0.065"/><circle cx="157.3" cy="977.0" r="1.93" fill="#9FD8E8" opacity="0.066"/><circle cx="241.7" cy="932.3" r="0.95" fill="#9FD8E8" opacity="0.060"/><circle cx="460.6" cy="238.5" r="1.17" fill="#9FD8E8" opacity="0.042"/><circle cx="231.3" cy="826.4" r="2.06" fill="#9FD8E8" opacity="0.070"/><circle cx="258.2" cy="410.8" r="0.80" fill="#9FD8E8" opacity="0.080"/><circle cx="258.3" cy="1044.9" r="1.21" fill="#9FD8E8" opacity="0.051"/><circle cx="577.5" cy="990.0" r="1.57" fill="#9FD8E8" opacity="0.065"/><circle cx="666.9" cy="68.1" r="1.94" fill="#9FD8E8" opacity="0.057"/><circle cx="292.0" cy="617.1" r="1.60" fill="#9FD8E8" opacity="0.078"/><circle cx="219.7" cy="885.1" r="1.40" fill="#9FD8E8" opacity="0.039"/><circle cx="443.5" cy="861.4" r="1.02" fill="#9FD8E8" opacity="0.059"/><circle cx="104.0" cy="381.8" r="1.79" fill="#9FD8E8" opacity="0.085"/><circle cx="486.7" cy="359.7" r="0.68" fill="#9FD8E8" opacity="0.068"/><circle cx="392.7" cy="136.1" r="1.56" fill="#9FD8E8" opacity="0.041"/><circle cx="409.6" cy="151.8" r="0.99" fill="#9FD8E8" opacity="0.087"/><circle cx="142.9" cy="298.7" r="1.91" fill="#9FD8E8" opacity="0.030"/><circle cx="282.6" cy="556.8" r="2.04" fill="#9FD8E8" opacity="0.089"/><circle cx="411.1" cy="479.5" r="2.13" fill="#9FD8E8" opacity="0.066"/><circle cx="140.7" cy="419.0" r="1.57" fill="#9FD8E8" opacity="0.073"/><circle cx="147.9" cy="5.5" r="0.76" fill="#9FD8E8" opacity="0.034"/><circle cx="197.2" cy="750.1" r="2.09" fill="#9FD8E8" opacity="0.087"/><circle cx="335.7" cy="418.4" r="1.55" fill="#9FD8E8" opacity="0.048"/><circle cx="101.7" cy="1041.2" r="1.66" fill="#9FD8E8" opacity="0.052"/><circle cx="590.6" cy="388.6" r="1.18" fill="#9FD8E8" opacity="0.046"/><circle cx="515.2" cy="639.8" r="1.92" fill="#9FD8E8" opacity="0.056"/>
</svg>
