<svg xmlns="http://www.w3.org/2000/svg" width="720" height="1080" viewBox="0 0 720 1080" role="img" aria-label="Original Tome Stoa painting for Frankenstein: an alpine ridge inside a stone arch medallion, split by a single cyan spark line under a pale moon.">
  <title>Original Tome Stoa painting for Frankenstein: an alpine ridge inside a stone arch medallion, split by a single cyan spark line under a pale moon.</title>
  <defs>
    <linearGradient id="wall-frankenstein" x1="0" y1="0" x2="0" y2="1">
      <stop offset="0" stop-color="#1E2A33"/>
      <stop offset="1" stop-color="#4A6070"/>
    </linearGradient>
    <linearGradient id="archSky-frankenstein" x1="0" y1="0" x2="0" y2="1">
      <stop offset="0" stop-color="#4A6070"/>
      <stop offset="1" stop-color="#1E2A33"/>
    </linearGradient>
    <linearGradient id="field-frankenstein" x1="0" y1="0" x2="0" y2="1">
      <stop offset="0" stop-color="#1E2A33"/>
      <stop offset="1" stop-color="#4A6070"/>
    </linearGradient>
    <linearGradient id="stoneShaft-frankenstein" x1="0" y1="0" x2="1" y2="0">
      <stop offset="0" stop-color="#EDE4D0" stop-opacity="0.55"/>
      <stop offset="0.5" stop-color="#EDE4D0" stop-opacity="0.9"/>
      <stop offset="1" stop-color="#EDE4D0" stop-opacity="0.55"/>
    </linearGradient>
  </defs>
  <rect width="720" height="1080" fill="url(#wall-frankenstein)"/>
  
  <!-- entablature -->
  <rect x="56" y="92" width="608" height="52" rx="4" fill="#EDE4D0" opacity="0.16"/>
  <line x1="56" y1="92" x2="664" y2="92" stroke="#63C7E0" stroke-width="2" opacity="0.8"/>
  <line x1="56" y1="144" x2="664" y2="144" stroke="#63C7E0" stroke-width="1" opacity="0.5"/>
  <!-- arch opening -->
  <path d="M 150 900 L 150 480 A 210 210 0 0 1 570 480 L 570 900 Z" fill="url(#archSky-frankenstein)"/>
  <path d="M 150 900 L 150 480 A 210 210 0 0 1 570 480 L 570 900 Z" fill="none" stroke="#63C7E0" stroke-width="2.5" opacity="0.9"/>
  <path d="M 138 910 L 138 468 A 222 222 0 0 1 582 468 L 582 910 Z" fill="none" stroke="#EDE4D0" stroke-width="6" opacity="0.35"/>
  <!-- columns -->
  
  <g>
    <rect x="87" y="152" width="56" height="18" rx="3" fill="#EDE4D0" opacity="0.92"/>
    <rect x="92" y="170" width="46" height="714" fill="url(#stoneShaft-frankenstein)"/>
    <line x1="102" y1="178" x2="102" y2="876" stroke="#C9BEA6" stroke-width="2" opacity="0.55"/><line x1="115" y1="178" x2="115" y2="876" stroke="#C9BEA6" stroke-width="2" opacity="0.55"/><line x1="128" y1="178" x2="128" y2="876" stroke="#C9BEA6" stroke-width="2" opacity="0.55"/>
    <rect x="86" y="884" width="58" height="16" rx="2" fill="#EDE4D0" opacity="0.92"/>
  </g>
  
  <g>
    <rect x="577" y="152" width="56" height="18" rx="3" fill="#EDE4D0" opacity="0.92"/>
    <rect x="582" y="170" width="46" height="714" fill="url(#stoneShaft-frankenstein)"/>
    <line x1="592" y1="178" x2="592" y2="876" stroke="#C9BEA6" stroke-width="2" opacity="0.55"/><line x1="605" y1="178" x2="605" y2="876" stroke="#C9BEA6" stroke-width="2" opacity="0.55"/><line x1="618" y1="178" x2="618" y2="876" stroke="#C9BEA6" stroke-width="2" opacity="0.55"/>
    <rect x="576" y="884" width="58" height="16" rx="2" fill="#EDE4D0" opacity="0.92"/>
  </g>
  <!-- floor -->
  <rect x="0" y="900" width="720" height="180" fill="#EDE4D0" opacity="0.10"/>
  <line x1="0" y1="900" x2="720" y2="900" stroke="#63C7E0" stroke-width="1.5" opacity="0.45"/>
  
  <g>
    <rect x="252" y="836" width="216" height="22" rx="3" fill="#EDE4D0" opacity="0.9"/>
    <rect x="230" y="858" width="260" height="20" rx="3" fill="#EDE4D0" opacity="0.78"/>
    <rect x="206" y="878" width="308" height="22" rx="3" fill="#EDE4D0" opacity="0.66"/>
  </g>
  
  <circle cx="360" cy="520" r="200" fill="none" stroke="#63C7E0" stroke-width="1.5" opacity="0.35"/>
  <circle cx="360" cy="520" r="190" fill="url(#field-frankenstein)" stroke="#63C7E0" stroke-width="3"/>
  <circle cx="360" cy="520" r="168" fill="none" stroke="#63C7E0" stroke-width="1" opacity="0.6"/>
  <clipPath id="medClip-frankenstein"><circle cx="360" cy="520" r="168"/></clipPath>
  <g clip-path="url(#medClip-frankenstein)">
    <g transform="translate(360 520)">
      
    <circle cx="92" cy="-104" r="26" fill="#A8E4F0" opacity="0.9"/>
    <circle cx="92" cy="-104" r="38" fill="#A8E4F0" opacity="0.18"/>
    <polyline points="-150,96 -102,10 -64,58 -18,-30 22,44 66,-8 118,66 150,30" fill="none" stroke="#A8E4F0" stroke-width="6" stroke-linejoin="round"/>
    <polyline points="-140,-52 -96,-38 -104,-14 -60,-24 -52,4 -8,-8 4,22 44,10" fill="none" stroke="#63C7E0" stroke-width="5" stroke-linejoin="round" stroke-linecap="round"/>
    <circle cx="44" cy="10" r="7" fill="#63C7E0"/>
    <circle cx="-112" cy="-88" r="2" fill="#A8E4F0" opacity="0.7"/>
    <circle cx="-30" cy="-116" r="2.5" fill="#A8E4F0" opacity="0.6"/>
    </g>
  </g>
  <circle cx="420.4" cy="647.0" r="1.77" fill="#A8E4F0" opacity="0.041"/><circle cx="81.0" cy="674.3" r="1.67" fill="#A8E4F0" opacity="0.058"/><circle cx="599.9" cy="915.4" r="1.46" fill="#A8E4F0" opacity="0.050"/><circle cx="84.2" cy="572.4" r="0.61" fill="#A8E4F0" opacity="0.035"/><circle cx="326.0" cy="285.4" r="0.98" fill="#A8E4F0" opacity="0.070"/><circle cx="251.7" cy="37.9" r="1.92" fill="#A8E4F0" opacity="0.055"/><circle cx="281.1" cy="76.0" r="0.94" fill="#A8E4F0" opacity="0.041"/><circle cx="288.9" cy="729.0" r="1.69" fill="#A8E4F0" opacity="0.034"/><circle cx="136.5" cy="338.9" r="0.80" fill="#A8E4F0" opacity="0.033"/><circle cx="569.9" cy="794.9" r="0.68" fill="#A8E4F0" opacity="0.086"/><circle cx="190.6" cy="228.6" r="1.70" fill="#A8E4F0" opacity="0.039"/><circle cx="239.6" cy="298.6" r="1.69" fill="#A8E4F0" opacity="0.063"/><circle cx="642.0" cy="124.2" r="1.07" fill="#A8E4F0" opacity="0.081"/><circle cx="566.2" cy="541.9" r="1.91" fill="#A8E4F0" opacity="0.074"/><circle cx="84.5" cy="430.8" r="1.21" fill="#A8E4F0" opacity="0.079"/><circle cx="566.9" cy="689.2" r="0.77" fill="#A8E4F0" opacity="0.057"/><circle cx="163.2" cy="1025.2" r="1.43" fill="#A8E4F0" opacity="0.030"/><circle cx="604.3" cy="383.5" r="1.36" fill="#A8E4F0" opacity="0.085"/><circle cx="320.8" cy="41.7" r="0.78" fill="#A8E4F0" opacity="0.078"/><circle cx="682.1" cy="885.2" r="1.05" fill="#A8E4F0" opacity="0.038"/><circle cx="163.8" cy="15.0" r="0.61" fill="#A8E4F0" opacity="0.061"/><circle cx="300.6" cy="786.8" r="0.87" fill="#A8E4F0" opacity="0.068"/><circle cx="211.3" cy="748.6" r="1.89" fill="#A8E4F0" opacity="0.083"/><circle cx="486.2" cy="815.7" r="0.61" fill="#A8E4F0" opacity="0.030"/><circle cx="456.8" cy="4.5" r="1.47" fill="#A8E4F0" opacity="0.076"/><circle cx="114.6" cy="797.2" r="1.65" fill="#A8E4F0" opacity="0.078"/><circle cx="159.5" cy="487.1" r="1.00" fill="#A8E4F0" opacity="0.077"/><circle cx="98.6" cy="986.8" r="1.84" fill="#A8E4F0" opacity="0.039"/><circle cx="548.6" cy="24.2" r="1.26" fill="#A8E4F0" opacity="0.068"/><circle cx="234.7" cy="446.7" r="2.03" fill="#A8E4F0" opacity="0.078"/><circle cx="543.9" cy="188.5" r="1.99" fill="#A8E4F0" opacity="0.069"/><circle cx="353.9" cy="331.0" r="0.71" fill="#A8E4F0" opacity="0.049"/><circle cx="419.1" cy="763.9" r="1.38" fill="#A8E4F0" opacity="0.033"/><circle cx="562.9" cy="989.7" r="2.04" fill="#A8E4F0" opacity="0.043"/><circle cx="706.1" cy="233.8" r="1.47" fill="#A8E4F0" opacity="0.072"/><circle cx="672.4" cy="867.2" r="1.12" fill="#A8E4F0" opacity="0.058"/><circle cx="452.7" cy="1023.4" r="1.31" fill="#A8E4F0" opacity="0.052"/><circle cx="261.6" cy="975.9" r="1.68" fill="#A8E4F0" opacity="0.083"/><circle cx="368.2" cy="691.0" r="1.41" fill="#A8E4F0" opacity="0.057"/><circle cx="396.9" cy="521.6" r="0.69" fill="#A8E4F0" opacity="0.083"/><circle cx="72.5" cy="31.8" r="1.76" fill="#A8E4F0" opacity="0.068"/><circle cx="22.4" cy="254.4" r="2.17" fill="#A8E4F0" opacity="0.081"/><circle cx="131.2" cy="962.0" r="0.81" fill="#A8E4F0" opacity="0.064"/><circle cx="579.0" cy="989.0" r="2.20" fill="#A8E4F0" opacity="0.053"/><circle cx="501.4" cy="481.7" r="2.06" fill="#A8E4F0" opacity="0.085"/><circle cx="151.5" cy="238.7" r="1.98" fill="#A8E4F0" opacity="0.073"/><circle cx="226.8" cy="345.6" r="1.18" fill="#A8E4F0" opacity="0.051"/><circle cx="176.2" cy="378.1" r="1.17" fill="#A8E4F0" opacity="0.069"/><circle cx="54.2" cy="490.3" r="1.58" fill="#A8E4F0" opacity="0.063"/><circle cx="417.7" cy="1074.4" r="0.65" fill="#A8E4F0" opacity="0.060"/><circle cx="54.0" cy="944.0" r="1.03" fill="#A8E4F0" opacity="0.083"/><circle cx="78.5" cy="1036.8" r="1.24" fill="#A8E4F0" opacity="0.045"/><circle cx="707.7" cy="347.5" r="0.75" fill="#A8E4F0" opacity="0.035"/><circle cx="357.0" cy="520.7" r="1.31" fill="#A8E4F0" opacity="0.081"/><circle cx="39.7" cy="454.1" r="1.11" fill="#A8E4F0" opacity="0.090"/><circle cx="555.9" cy="176.9" r="1.42" fill="#A8E4F0" opacity="0.082"/><circle cx="103.1" cy="875.4" r="1.02" fill="#A8E4F0" opacity="0.089"/><circle cx="443.1" cy="1033.2" r="1.61" fill="#A8E4F0" opacity="0.069"/><circle cx="227.8" cy="76.4" r="1.59" fill="#A8E4F0" opacity="0.040"/><circle cx="338.7" cy="169.1" r="1.70" fill="#A8E4F0" opacity="0.035"/><circle cx="62.3" cy="233.7" r="0.99" fill="#A8E4F0" opacity="0.057"/><circle cx="53.2" cy="690.6" r="1.96" fill="#A8E4F0" opacity="0.065"/><circle cx="258.6" cy="765.1" r="1.58" fill="#A8E4F0" opacity="0.068"/><circle cx="373.6" cy="154.8" r="1.74" fill="#A8E4F0" opacity="0.068"/><circle cx="388.4" cy="37.7" r="1.07" fill="#A8E4F0" opacity="0.082"/><circle cx="244.4" cy="239.1" r="1.61" fill="#A8E4F0" opacity="0.040"/><circle cx="432.7" cy="144.6" r="1.10" fill="#A8E4F0" opacity="0.060"/><circle cx="230.7" cy="283.6" r="0.63" fill="#A8E4F0" opacity="0.088"/><circle cx="648.4" cy="260.2" r="1.19" fill="#A8E4F0" opacity="0.088"/><circle cx="302.3" cy="940.1" r="1.49" fill="#A8E4F0" opacity="0.044"/><circle cx="40.9" cy="77.2" r="0.74" fill="#A8E4F0" opacity="0.058"/><circle cx="153.3" cy="40.0" r="1.58" fill="#A8E4F0" opacity="0.035"/><circle cx="627.1" cy="981.6" r="2.05" fill="#A8E4F0" opacity="0.082"/><circle cx="425.1" cy="96.9" r="0.89" fill="#A8E4F0" opacity="0.070"/><circle cx="379.7" cy="740.6" r="1.56" fill="#A8E4F0" opacity="0.064"/><circle cx="120.3" cy="782.1" r="1.35" fill="#A8E4F0" opacity="0.054"/><circle cx="531.1" cy="1005.2" r="1.40" fill="#A8E4F0" opacity="0.031"/><circle cx="114.9" cy="1047.9" r="2.13" fill="#A8E4F0" opacity="0.039"/><circle cx="213.1" cy="328.7" r="1.76" fill="#A8E4F0" opacity="0.078"/><circle cx="75.7" cy="1053.0" r="1.16" fill="#A8E4F0" opacity="0.034"/><circle cx="635.8" cy="976.8" r="1.73" fill="#A8E4F0" opacity="0.061"/><circle cx="115.2" cy="645.3" r="1.09" fill="#A8E4F0" opacity="0.046"/><circle cx="190.7" cy="208.5" r="1.00" fill="#A8E4F0" opacity="0.077"/><circle cx="29.6" cy="485.1" r="1.08" fill="#A8E4F0" opacity="0.062"/><circle cx="452.7" cy="423.5" r="1.26" fill="#A8E4F0" opacity="0.079"/><circle cx="189.4" cy="712.0" r="0.75" fill="#A8E4F0" opacity="0.079"/><circle cx="579.4" cy="942.4" r="1.76" fill="#A8E4F0" opacity="0.067"/><circle cx="161.7" cy="971.9" r="1.06" fill="#A8E4F0" opacity="0.081"/><circle cx="414.7" cy="580.0" r="1.20" fill="#A8E4F0" opacity="0.088"/><circle cx="77.9" cy="978.2" r="1.14" fill="#A8E4F0" opacity="0.077"/>
</svg>
