<svg xmlns="http://www.w3.org/2000/svg" width="720" height="1080" viewBox="0 0 720 1080" role="img" aria-label="Original Tome Stoa painting for Meditations: a wax tablet and stylus inside a stone arch medallion, backed by a quiet dawn band.">
  <title>Original Tome Stoa painting for Meditations: a wax tablet and stylus inside a stone arch medallion, backed by a quiet dawn band.</title>
  <defs>
    <linearGradient id="wall-meditations" x1="0" y1="0" x2="0" y2="1">
      <stop offset="0" stop-color="#3A2E24"/>
      <stop offset="1" stop-color="#B8895A"/>
    </linearGradient>
    <linearGradient id="archSky-meditations" x1="0" y1="0" x2="0" y2="1">
      <stop offset="0" stop-color="#B8895A"/>
      <stop offset="1" stop-color="#3A2E24"/>
    </linearGradient>
    <linearGradient id="field-meditations" x1="0" y1="0" x2="0" y2="1">
      <stop offset="0" stop-color="#3A2E24"/>
      <stop offset="1" stop-color="#B8895A"/>
    </linearGradient>
    <linearGradient id="stoneShaft-meditations" x1="0" y1="0" x2="1" y2="0">
      <stop offset="0" stop-color="#EDE4D0" stop-opacity="0.55"/>
      <stop offset="0.5" stop-color="#EDE4D0" stop-opacity="0.9"/>
      <stop offset="1" stop-color="#EDE4D0" stop-opacity="0.55"/>
    </linearGradient>
  </defs>
  <rect width="720" height="1080" fill="url(#wall-meditations)"/>
  
  <!-- entablature -->
  <rect x="56" y="92" width="608" height="52" rx="4" fill="#EDE4D0" opacity="0.16"/>
  <line x1="56" y1="92" x2="664" y2="92" stroke="#A03A30" stroke-width="2" opacity="0.8"/>
  <line x1="56" y1="144" x2="664" y2="144" stroke="#A03A30" stroke-width="1" opacity="0.5"/>
  <!-- arch opening -->
  <path d="M 150 900 L 150 480 A 210 210 0 0 1 570 480 L 570 900 Z" fill="url(#archSky-meditations)"/>
  <path d="M 150 900 L 150 480 A 210 210 0 0 1 570 480 L 570 900 Z" fill="none" stroke="#A03A30" stroke-width="2.5" opacity="0.9"/>
  <path d="M 138 910 L 138 468 A 222 222 0 0 1 582 468 L 582 910 Z" fill="none" stroke="#EDE4D0" stroke-width="6" opacity="0.35"/>
  <!-- columns -->
  
  <g>
    <rect x="87" y="152" width="56" height="18" rx="3" fill="#EDE4D0" opacity="0.92"/>
    <rect x="92" y="170" width="46" height="714" fill="url(#stoneShaft-meditations)"/>
    <line x1="102" y1="178" x2="102" y2="876" stroke="#C9BEA6" stroke-width="2" opacity="0.55"/><line x1="115" y1="178" x2="115" y2="876" stroke="#C9BEA6" stroke-width="2" opacity="0.55"/><line x1="128" y1="178" x2="128" y2="876" stroke="#C9BEA6" stroke-width="2" opacity="0.55"/>
    <rect x="86" y="884" width="58" height="16" rx="2" fill="#EDE4D0" opacity="0.92"/>
  </g>
  
  <g>
    <rect x="577" y="152" width="56" height="18" rx="3" fill="#EDE4D0" opacity="0.92"/>
    <rect x="582" y="170" width="46" height="714" fill="url(#stoneShaft-meditations)"/>
    <line x1="592" y1="178" x2="592" y2="876" stroke="#C9BEA6" stroke-width="2" opacity="0.55"/><line x1="605" y1="178" x2="605" y2="876" stroke="#C9BEA6" stroke-width="2" opacity="0.55"/><line x1="618" y1="178" x2="618" y2="876" stroke="#C9BEA6" stroke-width="2" opacity="0.55"/>
    <rect x="576" y="884" width="58" height="16" rx="2" fill="#EDE4D0" opacity="0.92"/>
  </g>
  <!-- floor -->
  <rect x="0" y="900" width="720" height="180" fill="#EDE4D0" opacity="0.10"/>
  <line x1="0" y1="900" x2="720" y2="900" stroke="#A03A30" stroke-width="1.5" opacity="0.45"/>
  
  <g>
    <rect x="252" y="836" width="216" height="22" rx="3" fill="#EDE4D0" opacity="0.9"/>
    <rect x="230" y="858" width="260" height="20" rx="3" fill="#EDE4D0" opacity="0.78"/>
    <rect x="206" y="878" width="308" height="22" rx="3" fill="#EDE4D0" opacity="0.66"/>
  </g>
  
  <circle cx="360" cy="520" r="200" fill="none" stroke="#A03A30" stroke-width="1.5" opacity="0.35"/>
  <circle cx="360" cy="520" r="190" fill="url(#field-meditations)" stroke="#A03A30" stroke-width="3"/>
  <circle cx="360" cy="520" r="168" fill="none" stroke="#A03A30" stroke-width="1" opacity="0.6"/>
  <clipPath id="medClip-meditations"><circle cx="360" cy="520" r="168"/></clipPath>
  <g clip-path="url(#medClip-meditations)">
    <g transform="translate(360 520)">
      
    <rect x="-150" y="34" width="300" height="46" fill="#A03A30" opacity="0.35"/>
    <rect x="-150" y="80" width="300" height="26" fill="#A03A30" opacity="0.18"/>
    <g transform="rotate(-3)">
      <rect x="-58" y="-104" width="116" height="142" rx="12" fill="#F0D9B5" opacity="0.28" stroke="#F0D9B5" stroke-width="4"/>
      <line x1="-36" y1="-74" x2="36" y2="-74" stroke="#F0D9B5" stroke-width="3" opacity="0.6"/>
      <line x1="-36" y1="-50" x2="36" y2="-50" stroke="#F0D9B5" stroke-width="3" opacity="0.5"/>
      <line x1="-36" y1="-26" x2="16" y2="-26" stroke="#F0D9B5" stroke-width="3" opacity="0.4"/>
    </g>
    <line x1="18" y1="92" x2="86" y2="-40" stroke="#3A2E24" stroke-width="8" stroke-linecap="round"/>
    <line x1="18" y1="92" x2="86" y2="-40" stroke="#A03A30" stroke-width="3" stroke-linecap="round"/>
    <polygon points="86,-40 78,-18 96,-26" fill="#A03A30"/>
    </g>
  </g>
  <circle cx="250.0" cy="1060.7" r="1.81" fill="#F0D9B5" opacity="0.049"/><circle cx="123.2" cy="633.4" r="0.68" fill="#F0D9B5" opacity="0.031"/><circle cx="21.2" cy="590.2" r="1.49" fill="#F0D9B5" opacity="0.059"/><circle cx="699.1" cy="424.6" r="0.62" fill="#F0D9B5" opacity="0.073"/><circle cx="81.2" cy="1065.9" r="1.39" fill="#F0D9B5" opacity="0.080"/><circle cx="333.8" cy="643.2" r="0.83" fill="#F0D9B5" opacity="0.077"/><circle cx="123.4" cy="694.3" r="0.84" fill="#F0D9B5" opacity="0.063"/><circle cx="482.9" cy="837.7" r="1.29" fill="#F0D9B5" opacity="0.076"/><circle cx="43.8" cy="367.3" r="1.37" fill="#F0D9B5" opacity="0.037"/><circle cx="677.1" cy="48.3" r="1.99" fill="#F0D9B5" opacity="0.052"/><circle cx="133.4" cy="442.4" r="1.33" fill="#F0D9B5" opacity="0.038"/><circle cx="72.3" cy="848.0" r="1.51" fill="#F0D9B5" opacity="0.032"/><circle cx="589.3" cy="1028.6" r="1.83" fill="#F0D9B5" opacity="0.032"/><circle cx="261.4" cy="196.3" r="1.10" fill="#F0D9B5" opacity="0.053"/><circle cx="466.2" cy="247.7" r="1.44" fill="#F0D9B5" opacity="0.057"/><circle cx="98.9" cy="24.9" r="0.67" fill="#F0D9B5" opacity="0.048"/><circle cx="346.2" cy="267.9" r="0.95" fill="#F0D9B5" opacity="0.070"/><circle cx="364.2" cy="419.8" r="2.05" fill="#F0D9B5" opacity="0.069"/><circle cx="500.2" cy="59.9" r="0.81" fill="#F0D9B5" opacity="0.068"/><circle cx="609.6" cy="1000.4" r="1.82" fill="#F0D9B5" opacity="0.071"/><circle cx="58.6" cy="351.8" r="1.46" fill="#F0D9B5" opacity="0.078"/><circle cx="135.1" cy="228.1" r="0.87" fill="#F0D9B5" opacity="0.069"/><circle cx="328.7" cy="706.1" r="1.96" fill="#F0D9B5" opacity="0.083"/><circle cx="548.2" cy="762.6" r="0.92" fill="#F0D9B5" opacity="0.083"/><circle cx="572.0" cy="613.0" r="1.69" fill="#F0D9B5" opacity="0.046"/><circle cx="522.8" cy="952.4" r="1.43" fill="#F0D9B5" opacity="0.043"/><circle cx="153.1" cy="261.3" r="1.56" fill="#F0D9B5" opacity="0.088"/><circle cx="126.8" cy="876.3" r="1.39" fill="#F0D9B5" opacity="0.067"/><circle cx="320.5" cy="405.1" r="1.28" fill="#F0D9B5" opacity="0.060"/><circle cx="579.1" cy="656.4" r="0.81" fill="#F0D9B5" opacity="0.031"/><circle cx="692.3" cy="1014.0" r="1.88" fill="#F0D9B5" opacity="0.031"/><circle cx="674.3" cy="86.4" r="1.59" fill="#F0D9B5" opacity="0.047"/><circle cx="213.2" cy="213.2" r="1.90" fill="#F0D9B5" opacity="0.073"/><circle cx="716.8" cy="446.3" r="0.97" fill="#F0D9B5" opacity="0.070"/><circle cx="711.3" cy="137.0" r="2.19" fill="#F0D9B5" opacity="0.032"/><circle cx="571.4" cy="920.1" r="0.90" fill="#F0D9B5" opacity="0.066"/><circle cx="74.2" cy="1028.4" r="0.62" fill="#F0D9B5" opacity="0.039"/><circle cx="425.9" cy="374.0" r="1.71" fill="#F0D9B5" opacity="0.045"/><circle cx="127.2" cy="1074.7" r="2.17" fill="#F0D9B5" opacity="0.074"/><circle cx="621.7" cy="853.1" r="2.13" fill="#F0D9B5" opacity="0.083"/><circle cx="176.4" cy="414.6" r="1.99" fill="#F0D9B5" opacity="0.064"/><circle cx="49.4" cy="889.5" r="1.51" fill="#F0D9B5" opacity="0.069"/><circle cx="538.1" cy="1067.5" r="1.85" fill="#F0D9B5" opacity="0.055"/><circle cx="177.7" cy="660.0" r="1.28" fill="#F0D9B5" opacity="0.059"/><circle cx="633.7" cy="101.8" r="1.42" fill="#F0D9B5" opacity="0.080"/><circle cx="275.0" cy="774.1" r="0.61" fill="#F0D9B5" opacity="0.076"/><circle cx="380.4" cy="823.6" r="0.94" fill="#F0D9B5" opacity="0.048"/><circle cx="584.3" cy="777.7" r="0.87" fill="#F0D9B5" opacity="0.077"/><circle cx="19.5" cy="1078.1" r="0.81" fill="#F0D9B5" opacity="0.084"/><circle cx="1.6" cy="262.8" r="0.64" fill="#F0D9B5" opacity="0.061"/><circle cx="469.5" cy="1074.8" r="1.65" fill="#F0D9B5" opacity="0.079"/><circle cx="611.1" cy="142.9" r="1.08" fill="#F0D9B5" opacity="0.072"/><circle cx="719.4" cy="170.7" r="1.86" fill="#F0D9B5" opacity="0.039"/><circle cx="19.9" cy="615.0" r="1.52" fill="#F0D9B5" opacity="0.043"/><circle cx="115.6" cy="875.3" r="0.73" fill="#F0D9B5" opacity="0.053"/><circle cx="575.4" cy="288.5" r="1.38" fill="#F0D9B5" opacity="0.030"/><circle cx="194.0" cy="385.8" r="1.18" fill="#F0D9B5" opacity="0.085"/><circle cx="41.5" cy="843.6" r="2.00" fill="#F0D9B5" opacity="0.064"/><circle cx="364.9" cy="950.1" r="0.82" fill="#F0D9B5" opacity="0.053"/><circle cx="550.7" cy="607.7" r="1.89" fill="#F0D9B5" opacity="0.082"/><circle cx="216.2" cy="37.2" r="2.06" fill="#F0D9B5" opacity="0.071"/><circle cx="699.4" cy="552.6" r="0.80" fill="#F0D9B5" opacity="0.078"/><circle cx="645.6" cy="952.7" r="1.68" fill="#F0D9B5" opacity="0.058"/><circle cx="70.5" cy="993.9" r="1.79" fill="#F0D9B5" opacity="0.060"/><circle cx="472.6" cy="336.3" r="1.03" fill="#F0D9B5" opacity="0.083"/><circle cx="259.5" cy="535.5" r="1.38" fill="#F0D9B5" opacity="0.083"/><circle cx="597.1" cy="850.1" r="1.54" fill="#F0D9B5" opacity="0.088"/><circle cx="622.6" cy="353.8" r="1.65" fill="#F0D9B5" opacity="0.048"/><circle cx="117.3" cy="182.0" r="0.77" fill="#F0D9B5" opacity="0.064"/><circle cx="700.9" cy="827.8" r="1.59" fill="#F0D9B5" opacity="0.044"/><circle cx="409.8" cy="816.5" r="2.12" fill="#F0D9B5" opacity="0.039"/><circle cx="213.1" cy="494.6" r="2.06" fill="#F0D9B5" opacity="0.030"/><circle cx="53.6" cy="231.0" r="1.86" fill="#F0D9B5" opacity="0.058"/><circle cx="436.9" cy="995.5" r="1.80" fill="#F0D9B5" opacity="0.065"/><circle cx="643.6" cy="727.0" r="1.68" fill="#F0D9B5" opacity="0.033"/><circle cx="142.3" cy="90.7" r="1.61" fill="#F0D9B5" opacity="0.064"/><circle cx="170.9" cy="167.5" r="1.82" fill="#F0D9B5" opacity="0.063"/><circle cx="612.4" cy="709.7" r="1.61" fill="#F0D9B5" opacity="0.051"/><circle cx="195.9" cy="847.1" r="1.69" fill="#F0D9B5" opacity="0.053"/><circle cx="554.5" cy="89.2" r="1.38" fill="#F0D9B5" opacity="0.070"/><circle cx="53.2" cy="1024.3" r="0.99" fill="#F0D9B5" opacity="0.034"/><circle cx="595.7" cy="1003.4" r="1.65" fill="#F0D9B5" opacity="0.038"/><circle cx="151.1" cy="1073.0" r="1.80" fill="#F0D9B5" opacity="0.053"/><circle cx="571.2" cy="433.7" r="1.48" fill="#F0D9B5" opacity="0.039"/><circle cx="437.6" cy="994.2" r="0.62" fill="#F0D9B5" opacity="0.065"/><circle cx="96.5" cy="1039.0" r="1.24" fill="#F0D9B5" opacity="0.074"/><circle cx="192.9" cy="418.2" r="1.23" fill="#F0D9B5" opacity="0.058"/><circle cx="530.5" cy="369.1" r="1.55" fill="#F0D9B5" opacity="0.051"/><circle cx="144.6" cy="194.6" r="2.06" fill="#F0D9B5" opacity="0.044"/><circle cx="705.9" cy="46.8" r="0.98" fill="#F0D9B5" opacity="0.041"/>
</svg>
