<svg xmlns="http://www.w3.org/2000/svg" width="720" height="1080" viewBox="0 0 720 1080" role="img" aria-label="Original Tome Stoa painting for Moby-Dick: a pale whale curve breaching a horizon line inside a stone arch medallion, a gold compass star above.">
  <title>Original Tome Stoa painting for Moby-Dick: a pale whale curve breaching a horizon line inside a stone arch medallion, a gold compass star above.</title>
  <defs>
    <linearGradient id="wall-moby-dick" x1="0" y1="0" x2="0" y2="1">
      <stop offset="0" stop-color="#12303F"/>
      <stop offset="1" stop-color="#2F6E8F"/>
    </linearGradient>
    <linearGradient id="archSky-moby-dick" x1="0" y1="0" x2="0" y2="1">
      <stop offset="0" stop-color="#2F6E8F"/>
      <stop offset="1" stop-color="#12303F"/>
    </linearGradient>
    <linearGradient id="field-moby-dick" x1="0" y1="0" x2="0" y2="1">
      <stop offset="0" stop-color="#12303F"/>
      <stop offset="1" stop-color="#2F6E8F"/>
    </linearGradient>
    <linearGradient id="stoneShaft-moby-dick" x1="0" y1="0" x2="1" y2="0">
      <stop offset="0" stop-color="#EDE4D0" stop-opacity="0.55"/>
      <stop offset="0.5" stop-color="#EDE4D0" stop-opacity="0.9"/>
      <stop offset="1" stop-color="#EDE4D0" stop-opacity="0.55"/>
    </linearGradient>
  </defs>
  <rect width="720" height="1080" fill="url(#wall-moby-dick)"/>
  
  <!-- entablature -->
  <rect x="56" y="92" width="608" height="52" rx="4" fill="#EDE4D0" opacity="0.16"/>
  <line x1="56" y1="92" x2="664" y2="92" stroke="#E8D9B5" stroke-width="2" opacity="0.8"/>
  <line x1="56" y1="144" x2="664" y2="144" stroke="#E8D9B5" stroke-width="1" opacity="0.5"/>
  <!-- arch opening -->
  <path d="M 150 900 L 150 480 A 210 210 0 0 1 570 480 L 570 900 Z" fill="url(#archSky-moby-dick)"/>
  <path d="M 150 900 L 150 480 A 210 210 0 0 1 570 480 L 570 900 Z" fill="none" stroke="#E8D9B5" stroke-width="2.5" opacity="0.9"/>
  <path d="M 138 910 L 138 468 A 222 222 0 0 1 582 468 L 582 910 Z" fill="none" stroke="#EDE4D0" stroke-width="6" opacity="0.35"/>
  <!-- columns -->
  
  <g>
    <rect x="87" y="152" width="56" height="18" rx="3" fill="#EDE4D0" opacity="0.92"/>
    <rect x="92" y="170" width="46" height="714" fill="url(#stoneShaft-moby-dick)"/>
    <line x1="102" y1="178" x2="102" y2="876" stroke="#C9BEA6" stroke-width="2" opacity="0.55"/><line x1="115" y1="178" x2="115" y2="876" stroke="#C9BEA6" stroke-width="2" opacity="0.55"/><line x1="128" y1="178" x2="128" y2="876" stroke="#C9BEA6" stroke-width="2" opacity="0.55"/>
    <rect x="86" y="884" width="58" height="16" rx="2" fill="#EDE4D0" opacity="0.92"/>
  </g>
  
  <g>
    <rect x="577" y="152" width="56" height="18" rx="3" fill="#EDE4D0" opacity="0.92"/>
    <rect x="582" y="170" width="46" height="714" fill="url(#stoneShaft-moby-dick)"/>
    <line x1="592" y1="178" x2="592" y2="876" stroke="#C9BEA6" stroke-width="2" opacity="0.55"/><line x1="605" y1="178" x2="605" y2="876" stroke="#C9BEA6" stroke-width="2" opacity="0.55"/><line x1="618" y1="178" x2="618" y2="876" stroke="#C9BEA6" stroke-width="2" opacity="0.55"/>
    <rect x="576" y="884" width="58" height="16" rx="2" fill="#EDE4D0" opacity="0.92"/>
  </g>
  <!-- floor -->
  <rect x="0" y="900" width="720" height="180" fill="#EDE4D0" opacity="0.10"/>
  <line x1="0" y1="900" x2="720" y2="900" stroke="#E8D9B5" stroke-width="1.5" opacity="0.45"/>
  
  <g>
    <rect x="252" y="836" width="216" height="22" rx="3" fill="#EDE4D0" opacity="0.9"/>
    <rect x="230" y="858" width="260" height="20" rx="3" fill="#EDE4D0" opacity="0.78"/>
    <rect x="206" y="878" width="308" height="22" rx="3" fill="#EDE4D0" opacity="0.66"/>
  </g>
  
  <circle cx="360" cy="520" r="200" fill="none" stroke="#E8D9B5" stroke-width="1.5" opacity="0.35"/>
  <circle cx="360" cy="520" r="190" fill="url(#field-moby-dick)" stroke="#E8D9B5" stroke-width="3"/>
  <circle cx="360" cy="520" r="168" fill="none" stroke="#E8D9B5" stroke-width="1" opacity="0.6"/>
  <clipPath id="medClip-moby-dick"><circle cx="360" cy="520" r="168"/></clipPath>
  <g clip-path="url(#medClip-moby-dick)">
    <g transform="translate(360 520)">
      
    <circle cx="62" cy="-108" r="5" fill="#E8D9B5"/>
    <polygon points="62,-128 68,-112 84,-108 68,-104 62,-88 56,-104 40,-108 56,-112" fill="#E8D9B5"/>
    <circle cx="-96" cy="-96" r="2.5" fill="#7FC4D9" opacity="0.8"/>
    <circle cx="-34" cy="-124" r="2" fill="#7FC4D9" opacity="0.6"/>
    <circle cx="128" cy="-52" r="2.5" fill="#7FC4D9" opacity="0.7"/>
    <path d="M -150,44 Q -96,-64 -18,-34 Q 66,-2 132,40" fill="none" stroke="#E8D9B5" stroke-width="14" stroke-linecap="round"/>
    <polygon points="-150,44 -186,18 -178,52 -190,74" fill="#E8D9B5"/>
    <line x1="-150" y1="60" x2="150" y2="60" stroke="#7FC4D9" stroke-width="3" opacity="0.85"/>
    <path d="M -110,60 q 10,-12 20,0 M -60,60 q 10,-12 20,0 M 10,60 q 10,-12 20,0 M 70,60 q 10,-12 20,0" fill="none" stroke="#7FC4D9" stroke-width="3" opacity="0.6"/>
    </g>
  </g>
  <circle cx="641.3" cy="570.2" r="1.71" fill="#7FC4D9" opacity="0.085"/><circle cx="369.6" cy="179.5" r="0.63" fill="#7FC4D9" opacity="0.086"/><circle cx="45.4" cy="117.5" r="0.71" fill="#7FC4D9" opacity="0.066"/><circle cx="165.3" cy="410.5" r="1.39" fill="#7FC4D9" opacity="0.073"/><circle cx="677.6" cy="119.2" r="1.88" fill="#7FC4D9" opacity="0.041"/><circle cx="520.3" cy="1012.9" r="1.30" fill="#7FC4D9" opacity="0.065"/><circle cx="248.5" cy="340.7" r="2.01" fill="#7FC4D9" opacity="0.039"/><circle cx="274.3" cy="780.4" r="0.96" fill="#7FC4D9" opacity="0.042"/><circle cx="317.5" cy="335.4" r="2.11" fill="#7FC4D9" opacity="0.064"/><circle cx="577.1" cy="669.7" r="1.47" fill="#7FC4D9" opacity="0.058"/><circle cx="516.0" cy="1037.1" r="2.08" fill="#7FC4D9" opacity="0.067"/><circle cx="517.4" cy="487.5" r="2.03" fill="#7FC4D9" opacity="0.078"/><circle cx="169.0" cy="865.7" r="0.70" fill="#7FC4D9" opacity="0.055"/><circle cx="292.0" cy="48.0" r="1.24" fill="#7FC4D9" opacity="0.042"/><circle cx="13.6" cy="127.8" r="1.59" fill="#7FC4D9" opacity="0.079"/><circle cx="406.8" cy="807.6" r="1.69" fill="#7FC4D9" opacity="0.076"/><circle cx="89.4" cy="967.6" r="1.94" fill="#7FC4D9" opacity="0.040"/><circle cx="706.6" cy="111.8" r="1.62" fill="#7FC4D9" opacity="0.082"/><circle cx="593.8" cy="811.5" r="1.26" fill="#7FC4D9" opacity="0.068"/><circle cx="59.7" cy="775.9" r="1.25" fill="#7FC4D9" opacity="0.070"/><circle cx="402.6" cy="915.0" r="1.43" fill="#7FC4D9" opacity="0.089"/><circle cx="303.8" cy="249.5" r="2.02" fill="#7FC4D9" opacity="0.038"/><circle cx="596.0" cy="944.5" r="0.70" fill="#7FC4D9" opacity="0.087"/><circle cx="407.6" cy="933.1" r="1.14" fill="#7FC4D9" opacity="0.041"/><circle cx="637.5" cy="817.0" r="2.17" fill="#7FC4D9" opacity="0.034"/><circle cx="85.1" cy="650.9" r="1.56" fill="#7FC4D9" opacity="0.036"/><circle cx="595.1" cy="179.6" r="1.16" fill="#7FC4D9" opacity="0.079"/><circle cx="600.3" cy="1069.0" r="1.23" fill="#7FC4D9" opacity="0.068"/><circle cx="628.0" cy="386.0" r="1.17" fill="#7FC4D9" opacity="0.079"/><circle cx="79.6" cy="762.7" r="1.38" fill="#7FC4D9" opacity="0.067"/><circle cx="203.8" cy="630.1" r="0.97" fill="#7FC4D9" opacity="0.033"/><circle cx="80.5" cy="920.3" r="1.07" fill="#7FC4D9" opacity="0.087"/><circle cx="627.8" cy="828.2" r="0.72" fill="#7FC4D9" opacity="0.038"/><circle cx="515.6" cy="886.8" r="1.63" fill="#7FC4D9" opacity="0.056"/><circle cx="359.4" cy="415.0" r="0.97" fill="#7FC4D9" opacity="0.058"/><circle cx="629.6" cy="193.3" r="2.09" fill="#7FC4D9" opacity="0.039"/><circle cx="446.5" cy="342.3" r="2.07" fill="#7FC4D9" opacity="0.081"/><circle cx="677.2" cy="292.9" r="0.84" fill="#7FC4D9" opacity="0.030"/><circle cx="15.9" cy="1010.4" r="2.19" fill="#7FC4D9" opacity="0.053"/><circle cx="260.3" cy="609.9" r="1.71" fill="#7FC4D9" opacity="0.037"/><circle cx="690.3" cy="615.7" r="1.89" fill="#7FC4D9" opacity="0.033"/><circle cx="653.9" cy="50.8" r="2.04" fill="#7FC4D9" opacity="0.077"/><circle cx="696.0" cy="936.0" r="0.83" fill="#7FC4D9" opacity="0.032"/><circle cx="641.2" cy="176.0" r="0.77" fill="#7FC4D9" opacity="0.073"/><circle cx="285.1" cy="603.3" r="1.78" fill="#7FC4D9" opacity="0.049"/><circle cx="220.3" cy="639.9" r="1.93" fill="#7FC4D9" opacity="0.037"/><circle cx="216.3" cy="403.1" r="1.29" fill="#7FC4D9" opacity="0.074"/><circle cx="96.8" cy="160.5" r="0.74" fill="#7FC4D9" opacity="0.055"/><circle cx="518.2" cy="94.1" r="1.69" fill="#7FC4D9" opacity="0.039"/><circle cx="249.5" cy="357.8" r="1.53" fill="#7FC4D9" opacity="0.044"/><circle cx="229.1" cy="592.6" r="0.95" fill="#7FC4D9" opacity="0.038"/><circle cx="21.3" cy="905.1" r="1.81" fill="#7FC4D9" opacity="0.078"/><circle cx="671.1" cy="230.4" r="1.79" fill="#7FC4D9" opacity="0.084"/><circle cx="82.0" cy="727.8" r="1.18" fill="#7FC4D9" opacity="0.089"/><circle cx="248.4" cy="682.3" r="1.02" fill="#7FC4D9" opacity="0.038"/><circle cx="114.9" cy="139.8" r="2.10" fill="#7FC4D9" opacity="0.072"/><circle cx="503.1" cy="852.4" r="1.16" fill="#7FC4D9" opacity="0.088"/><circle cx="392.5" cy="1005.0" r="1.89" fill="#7FC4D9" opacity="0.064"/><circle cx="33.8" cy="247.8" r="1.12" fill="#7FC4D9" opacity="0.065"/><circle cx="544.8" cy="848.3" r="1.66" fill="#7FC4D9" opacity="0.083"/><circle cx="251.2" cy="416.4" r="1.52" fill="#7FC4D9" opacity="0.084"/><circle cx="699.7" cy="586.7" r="1.66" fill="#7FC4D9" opacity="0.086"/><circle cx="0.6" cy="1041.2" r="0.77" fill="#7FC4D9" opacity="0.039"/><circle cx="217.0" cy="996.2" r="1.83" fill="#7FC4D9" opacity="0.032"/><circle cx="47.5" cy="515.0" r="1.25" fill="#7FC4D9" opacity="0.067"/><circle cx="644.2" cy="443.9" r="1.36" fill="#7FC4D9" opacity="0.068"/><circle cx="556.2" cy="265.1" r="1.83" fill="#7FC4D9" opacity="0.055"/><circle cx="453.7" cy="761.6" r="0.90" fill="#7FC4D9" opacity="0.074"/><circle cx="106.8" cy="448.6" r="1.88" fill="#7FC4D9" opacity="0.067"/><circle cx="337.9" cy="1014.8" r="1.39" fill="#7FC4D9" opacity="0.051"/><circle cx="243.8" cy="423.9" r="1.74" fill="#7FC4D9" opacity="0.074"/><circle cx="512.1" cy="1001.4" r="2.17" fill="#7FC4D9" opacity="0.054"/><circle cx="641.1" cy="382.0" r="1.78" fill="#7FC4D9" opacity="0.037"/><circle cx="125.4" cy="514.9" r="2.19" fill="#7FC4D9" opacity="0.044"/><circle cx="349.2" cy="84.7" r="0.88" fill="#7FC4D9" opacity="0.090"/><circle cx="225.2" cy="379.0" r="0.79" fill="#7FC4D9" opacity="0.057"/><circle cx="120.5" cy="778.9" r="1.23" fill="#7FC4D9" opacity="0.032"/><circle cx="197.0" cy="681.3" r="1.47" fill="#7FC4D9" opacity="0.041"/><circle cx="498.2" cy="881.5" r="2.13" fill="#7FC4D9" opacity="0.076"/><circle cx="629.1" cy="325.3" r="0.72" fill="#7FC4D9" opacity="0.087"/><circle cx="178.5" cy="712.7" r="0.63" fill="#7FC4D9" opacity="0.050"/><circle cx="169.0" cy="798.7" r="1.39" fill="#7FC4D9" opacity="0.088"/><circle cx="31.0" cy="681.0" r="1.66" fill="#7FC4D9" opacity="0.078"/><circle cx="448.4" cy="1024.0" r="0.64" fill="#7FC4D9" opacity="0.065"/><circle cx="511.2" cy="414.2" r="1.24" fill="#7FC4D9" opacity="0.085"/><circle cx="358.7" cy="507.0" r="1.01" fill="#7FC4D9" opacity="0.048"/><circle cx="473.2" cy="822.0" r="1.79" fill="#7FC4D9" opacity="0.053"/><circle cx="465.5" cy="431.5" r="1.96" fill="#7FC4D9" opacity="0.079"/><circle cx="322.3" cy="966.5" r="1.33" fill="#7FC4D9" opacity="0.078"/><circle cx="361.1" cy="354.6" r="1.04" fill="#7FC4D9" opacity="0.034"/>
</svg>
