<svg xmlns="http://www.w3.org/2000/svg" width="720" height="1080" viewBox="0 0 720 1080" role="img" aria-label="Original Tome Stoa painting for The Odyssey: a dotted gold voyage path between small islands inside a stone arch medallion, a mast under stars.">
  <title>Original Tome Stoa painting for The Odyssey: a dotted gold voyage path between small islands inside a stone arch medallion, a mast under stars.</title>
  <defs>
    <linearGradient id="wall-odyssey" x1="0" y1="0" x2="0" y2="1">
      <stop offset="0" stop-color="#14233C"/>
      <stop offset="1" stop-color="#2C4E7C"/>
    </linearGradient>
    <linearGradient id="archSky-odyssey" x1="0" y1="0" x2="0" y2="1">
      <stop offset="0" stop-color="#2C4E7C"/>
      <stop offset="1" stop-color="#14233C"/>
    </linearGradient>
    <linearGradient id="field-odyssey" x1="0" y1="0" x2="0" y2="1">
      <stop offset="0" stop-color="#14233C"/>
      <stop offset="1" stop-color="#2C4E7C"/>
    </linearGradient>
    <linearGradient id="stoneShaft-odyssey" x1="0" y1="0" x2="1" y2="0">
      <stop offset="0" stop-color="#EDE4D0" stop-opacity="0.55"/>
      <stop offset="0.5" stop-color="#EDE4D0" stop-opacity="0.9"/>
      <stop offset="1" stop-color="#EDE4D0" stop-opacity="0.55"/>
    </linearGradient>
  </defs>
  <rect width="720" height="1080" fill="url(#wall-odyssey)"/>
  
  <!-- entablature -->
  <rect x="56" y="92" width="608" height="52" rx="4" fill="#EDE4D0" opacity="0.16"/>
  <line x1="56" y1="92" x2="664" y2="92" stroke="#D9C08A" stroke-width="2" opacity="0.8"/>
  <line x1="56" y1="144" x2="664" y2="144" stroke="#D9C08A" stroke-width="1" opacity="0.5"/>
  <!-- arch opening -->
  <path d="M 150 900 L 150 480 A 210 210 0 0 1 570 480 L 570 900 Z" fill="url(#archSky-odyssey)"/>
  <path d="M 150 900 L 150 480 A 210 210 0 0 1 570 480 L 570 900 Z" fill="none" stroke="#D9C08A" stroke-width="2.5" opacity="0.9"/>
  <path d="M 138 910 L 138 468 A 222 222 0 0 1 582 468 L 582 910 Z" fill="none" stroke="#EDE4D0" stroke-width="6" opacity="0.35"/>
  <!-- columns -->
  
  <g>
    <rect x="87" y="152" width="56" height="18" rx="3" fill="#EDE4D0" opacity="0.92"/>
    <rect x="92" y="170" width="46" height="714" fill="url(#stoneShaft-odyssey)"/>
    <line x1="102" y1="178" x2="102" y2="876" stroke="#C9BEA6" stroke-width="2" opacity="0.55"/><line x1="115" y1="178" x2="115" y2="876" stroke="#C9BEA6" stroke-width="2" opacity="0.55"/><line x1="128" y1="178" x2="128" y2="876" stroke="#C9BEA6" stroke-width="2" opacity="0.55"/>
    <rect x="86" y="884" width="58" height="16" rx="2" fill="#EDE4D0" opacity="0.92"/>
  </g>
  
  <g>
    <rect x="577" y="152" width="56" height="18" rx="3" fill="#EDE4D0" opacity="0.92"/>
    <rect x="582" y="170" width="46" height="714" fill="url(#stoneShaft-odyssey)"/>
    <line x1="592" y1="178" x2="592" y2="876" stroke="#C9BEA6" stroke-width="2" opacity="0.55"/><line x1="605" y1="178" x2="605" y2="876" stroke="#C9BEA6" stroke-width="2" opacity="0.55"/><line x1="618" y1="178" x2="618" y2="876" stroke="#C9BEA6" stroke-width="2" opacity="0.55"/>
    <rect x="576" y="884" width="58" height="16" rx="2" fill="#EDE4D0" opacity="0.92"/>
  </g>
  <!-- floor -->
  <rect x="0" y="900" width="720" height="180" fill="#EDE4D0" opacity="0.10"/>
  <line x1="0" y1="900" x2="720" y2="900" stroke="#D9C08A" stroke-width="1.5" opacity="0.45"/>
  
  <g>
    <rect x="252" y="836" width="216" height="22" rx="3" fill="#EDE4D0" opacity="0.9"/>
    <rect x="230" y="858" width="260" height="20" rx="3" fill="#EDE4D0" opacity="0.78"/>
    <rect x="206" y="878" width="308" height="22" rx="3" fill="#EDE4D0" opacity="0.66"/>
  </g>
  
  <circle cx="360" cy="520" r="200" fill="none" stroke="#D9C08A" stroke-width="1.5" opacity="0.35"/>
  <circle cx="360" cy="520" r="190" fill="url(#field-odyssey)" stroke="#D9C08A" stroke-width="3"/>
  <circle cx="360" cy="520" r="168" fill="none" stroke="#D9C08A" stroke-width="1" opacity="0.6"/>
  <clipPath id="medClip-odyssey"><circle cx="360" cy="520" r="168"/></clipPath>
  <g clip-path="url(#medClip-odyssey)">
    <g transform="translate(360 520)">
      
    <circle cx="-112" cy="-118" r="2.5" fill="#6FA8D8"/>
    <circle cx="-40" cy="-136" r="3" fill="#6FA8D8"/>
    <circle cx="52" cy="-110" r="2.5" fill="#6FA8D8"/>
    <circle cx="118" cy="-66" r="3" fill="#6FA8D8"/>
    <circle cx="-128" cy="-40" r="2" fill="#6FA8D8" opacity="0.7"/>
    <path d="M -120,96 Q -60,20 0,44 T 120,-24" fill="none" stroke="#D9C08A" stroke-width="4" stroke-dasharray="1 12" stroke-linecap="round"/>
    <path d="M -120,96 a 20 20 0 0 1 40 0 Z" fill="#6FA8D8" opacity="0.85"/>
    <path d="M 60,30 a 16 16 0 0 1 32 0 Z" fill="#6FA8D8" opacity="0.7"/>
    <path d="M 96,-60 a 13 13 0 0 1 26 0 Z" fill="#6FA8D8" opacity="0.85"/>
    <line x1="0" y1="44" x2="0" y2="-56" stroke="#D9C08A" stroke-width="5"/>
    <polygon points="0,-56 34,8 0,8" fill="#D9C08A" opacity="0.9"/>
    <line x1="-26" y1="70" x2="26" y2="70" stroke="#6FA8D8" stroke-width="3" opacity="0.6"/>
    </g>
  </g>
  <circle cx="205.2" cy="596.1" r="1.71" fill="#6FA8D8" opacity="0.082"/><circle cx="648.7" cy="522.5" r="1.66" fill="#6FA8D8" opacity="0.088"/><circle cx="539.7" cy="570.0" r="1.66" fill="#6FA8D8" opacity="0.056"/><circle cx="643.5" cy="548.5" r="1.30" fill="#6FA8D8" opacity="0.053"/><circle cx="376.6" cy="284.9" r="1.76" fill="#6FA8D8" opacity="0.031"/><circle cx="519.8" cy="452.2" r="1.77" fill="#6FA8D8" opacity="0.066"/><circle cx="388.0" cy="509.1" r="1.64" fill="#6FA8D8" opacity="0.082"/><circle cx="136.0" cy="486.5" r="1.01" fill="#6FA8D8" opacity="0.071"/><circle cx="202.7" cy="1075.7" r="0.99" fill="#6FA8D8" opacity="0.038"/><circle cx="419.6" cy="484.5" r="1.21" fill="#6FA8D8" opacity="0.047"/><circle cx="214.4" cy="796.6" r="0.92" fill="#6FA8D8" opacity="0.051"/><circle cx="286.2" cy="181.0" r="0.64" fill="#6FA8D8" opacity="0.057"/><circle cx="458.2" cy="282.4" r="1.49" fill="#6FA8D8" opacity="0.069"/><circle cx="122.6" cy="342.2" r="1.08" fill="#6FA8D8" opacity="0.076"/><circle cx="10.3" cy="298.6" r="0.97" fill="#6FA8D8" opacity="0.090"/><circle cx="366.0" cy="129.5" r="0.68" fill="#6FA8D8" opacity="0.037"/><circle cx="258.3" cy="356.4" r="1.76" fill="#6FA8D8" opacity="0.033"/><circle cx="66.8" cy="697.3" r="1.86" fill="#6FA8D8" opacity="0.072"/><circle cx="686.9" cy="618.6" r="1.92" fill="#6FA8D8" opacity="0.062"/><circle cx="43.6" cy="226.9" r="0.73" fill="#6FA8D8" opacity="0.042"/><circle cx="129.3" cy="1058.8" r="1.51" fill="#6FA8D8" opacity="0.080"/><circle cx="25.0" cy="511.2" r="1.84" fill="#6FA8D8" opacity="0.053"/><circle cx="344.1" cy="882.0" r="0.69" fill="#6FA8D8" opacity="0.045"/><circle cx="324.1" cy="1003.1" r="1.50" fill="#6FA8D8" opacity="0.073"/><circle cx="146.9" cy="179.8" r="1.43" fill="#6FA8D8" opacity="0.060"/><circle cx="363.9" cy="436.7" r="1.65" fill="#6FA8D8" opacity="0.062"/><circle cx="230.5" cy="602.7" r="2.15" fill="#6FA8D8" opacity="0.084"/><circle cx="621.4" cy="736.5" r="1.04" fill="#6FA8D8" opacity="0.047"/><circle cx="109.9" cy="664.5" r="2.12" fill="#6FA8D8" opacity="0.047"/><circle cx="76.6" cy="135.9" r="1.85" fill="#6FA8D8" opacity="0.053"/><circle cx="257.0" cy="361.8" r="2.15" fill="#6FA8D8" opacity="0.045"/><circle cx="238.4" cy="146.0" r="1.01" fill="#6FA8D8" opacity="0.058"/><circle cx="153.4" cy="427.2" r="2.00" fill="#6FA8D8" opacity="0.063"/><circle cx="677.5" cy="408.9" r="1.47" fill="#6FA8D8" opacity="0.037"/><circle cx="315.7" cy="89.8" r="1.96" fill="#6FA8D8" opacity="0.085"/><circle cx="361.8" cy="458.7" r="1.73" fill="#6FA8D8" opacity="0.040"/><circle cx="220.3" cy="1046.6" r="1.74" fill="#6FA8D8" opacity="0.063"/><circle cx="362.9" cy="554.4" r="1.67" fill="#6FA8D8" opacity="0.060"/><circle cx="273.8" cy="600.1" r="1.24" fill="#6FA8D8" opacity="0.079"/><circle cx="330.4" cy="46.2" r="1.37" fill="#6FA8D8" opacity="0.081"/><circle cx="192.6" cy="756.7" r="1.29" fill="#6FA8D8" opacity="0.073"/><circle cx="30.3" cy="34.1" r="0.70" fill="#6FA8D8" opacity="0.041"/><circle cx="637.8" cy="307.2" r="2.07" fill="#6FA8D8" opacity="0.075"/><circle cx="139.3" cy="977.8" r="1.74" fill="#6FA8D8" opacity="0.030"/><circle cx="716.1" cy="815.1" r="1.83" fill="#6FA8D8" opacity="0.063"/><circle cx="334.4" cy="164.7" r="0.99" fill="#6FA8D8" opacity="0.053"/><circle cx="597.5" cy="173.8" r="1.45" fill="#6FA8D8" opacity="0.068"/><circle cx="507.6" cy="441.4" r="0.65" fill="#6FA8D8" opacity="0.045"/><circle cx="339.8" cy="200.9" r="2.10" fill="#6FA8D8" opacity="0.037"/><circle cx="182.0" cy="606.8" r="0.95" fill="#6FA8D8" opacity="0.050"/><circle cx="711.7" cy="229.5" r="1.28" fill="#6FA8D8" opacity="0.057"/><circle cx="565.9" cy="309.8" r="0.91" fill="#6FA8D8" opacity="0.087"/><circle cx="131.4" cy="161.0" r="1.67" fill="#6FA8D8" opacity="0.046"/><circle cx="20.7" cy="324.4" r="1.41" fill="#6FA8D8" opacity="0.045"/><circle cx="555.7" cy="943.5" r="1.88" fill="#6FA8D8" opacity="0.071"/><circle cx="307.4" cy="565.8" r="0.88" fill="#6FA8D8" opacity="0.039"/><circle cx="359.7" cy="102.2" r="1.71" fill="#6FA8D8" opacity="0.088"/><circle cx="314.6" cy="789.4" r="1.53" fill="#6FA8D8" opacity="0.065"/><circle cx="506.6" cy="1049.1" r="1.10" fill="#6FA8D8" opacity="0.032"/><circle cx="181.3" cy="6.1" r="1.50" fill="#6FA8D8" opacity="0.062"/><circle cx="241.0" cy="65.6" r="2.05" fill="#6FA8D8" opacity="0.059"/><circle cx="483.0" cy="808.8" r="1.36" fill="#6FA8D8" opacity="0.089"/><circle cx="264.5" cy="390.6" r="1.76" fill="#6FA8D8" opacity="0.069"/><circle cx="418.6" cy="238.0" r="0.72" fill="#6FA8D8" opacity="0.078"/><circle cx="210.0" cy="1015.8" r="0.96" fill="#6FA8D8" opacity="0.084"/><circle cx="460.8" cy="737.6" r="1.39" fill="#6FA8D8" opacity="0.081"/><circle cx="463.7" cy="995.7" r="1.70" fill="#6FA8D8" opacity="0.074"/><circle cx="274.6" cy="897.3" r="2.20" fill="#6FA8D8" opacity="0.060"/><circle cx="247.8" cy="267.8" r="1.98" fill="#6FA8D8" opacity="0.085"/><circle cx="667.1" cy="34.3" r="0.88" fill="#6FA8D8" opacity="0.074"/><circle cx="212.5" cy="206.5" r="1.97" fill="#6FA8D8" opacity="0.069"/><circle cx="11.5" cy="110.1" r="1.05" fill="#6FA8D8" opacity="0.035"/><circle cx="305.3" cy="952.8" r="1.58" fill="#6FA8D8" opacity="0.069"/><circle cx="680.7" cy="634.6" r="1.64" fill="#6FA8D8" opacity="0.039"/><circle cx="549.9" cy="396.8" r="1.34" fill="#6FA8D8" opacity="0.066"/><circle cx="432.2" cy="964.7" r="2.19" fill="#6FA8D8" opacity="0.077"/><circle cx="670.4" cy="441.1" r="1.88" fill="#6FA8D8" opacity="0.035"/><circle cx="527.1" cy="786.3" r="1.13" fill="#6FA8D8" opacity="0.038"/><circle cx="527.7" cy="40.7" r="1.24" fill="#6FA8D8" opacity="0.059"/><circle cx="151.8" cy="84.0" r="0.96" fill="#6FA8D8" opacity="0.034"/><circle cx="642.4" cy="222.5" r="1.89" fill="#6FA8D8" opacity="0.037"/><circle cx="450.2" cy="614.6" r="1.32" fill="#6FA8D8" opacity="0.062"/><circle cx="93.3" cy="175.2" r="1.07" fill="#6FA8D8" opacity="0.042"/><circle cx="422.1" cy="790.3" r="2.13" fill="#6FA8D8" opacity="0.057"/><circle cx="177.0" cy="343.0" r="1.01" fill="#6FA8D8" opacity="0.090"/><circle cx="235.4" cy="1030.8" r="0.73" fill="#6FA8D8" opacity="0.067"/><circle cx="118.2" cy="474.3" r="1.00" fill="#6FA8D8" opacity="0.035"/><circle cx="192.4" cy="654.6" r="0.98" fill="#6FA8D8" opacity="0.079"/><circle cx="305.8" cy="394.7" r="1.62" fill="#6FA8D8" opacity="0.042"/><circle cx="697.0" cy="1054.6" r="1.75" fill="#6FA8D8" opacity="0.068"/>
</svg>
