<svg xmlns="http://www.w3.org/2000/svg" width="720" height="1080" viewBox="0 0 720 1080" role="img" aria-label="Original Tome Stoa painting for The Republic: a gold sun over a geometric city inside a stone arch medallion, rising from a cave opening.">
  <title>Original Tome Stoa painting for The Republic: a gold sun over a geometric city inside a stone arch medallion, rising from a cave opening.</title>
  <defs>
    <linearGradient id="wall-republic" x1="0" y1="0" x2="0" y2="1">
      <stop offset="0" stop-color="#1A2340"/>
      <stop offset="1" stop-color="#2E5BE6"/>
    </linearGradient>
    <linearGradient id="archSky-republic" x1="0" y1="0" x2="0" y2="1">
      <stop offset="0" stop-color="#2E5BE6"/>
      <stop offset="1" stop-color="#1A2340"/>
    </linearGradient>
    <linearGradient id="field-republic" x1="0" y1="0" x2="0" y2="1">
      <stop offset="0" stop-color="#1A2340"/>
      <stop offset="1" stop-color="#2E5BE6"/>
    </linearGradient>
    <linearGradient id="stoneShaft-republic" x1="0" y1="0" x2="1" y2="0">
      <stop offset="0" stop-color="#EDE4D0" stop-opacity="0.55"/>
      <stop offset="0.5" stop-color="#EDE4D0" stop-opacity="0.9"/>
      <stop offset="1" stop-color="#EDE4D0" stop-opacity="0.55"/>
    </linearGradient>
  </defs>
  <rect width="720" height="1080" fill="url(#wall-republic)"/>
  
  <!-- entablature -->
  <rect x="56" y="92" width="608" height="52" rx="4" fill="#EDE4D0" opacity="0.16"/>
  <line x1="56" y1="92" x2="664" y2="92" stroke="#D9A63C" stroke-width="2" opacity="0.8"/>
  <line x1="56" y1="144" x2="664" y2="144" stroke="#D9A63C" stroke-width="1" opacity="0.5"/>
  <!-- arch opening -->
  <path d="M 150 900 L 150 480 A 210 210 0 0 1 570 480 L 570 900 Z" fill="url(#archSky-republic)"/>
  <path d="M 150 900 L 150 480 A 210 210 0 0 1 570 480 L 570 900 Z" fill="none" stroke="#D9A63C" stroke-width="2.5" opacity="0.9"/>
  <path d="M 138 910 L 138 468 A 222 222 0 0 1 582 468 L 582 910 Z" fill="none" stroke="#EDE4D0" stroke-width="6" opacity="0.35"/>
  <!-- columns -->
  
  <g>
    <rect x="87" y="152" width="56" height="18" rx="3" fill="#EDE4D0" opacity="0.92"/>
    <rect x="92" y="170" width="46" height="714" fill="url(#stoneShaft-republic)"/>
    <line x1="102" y1="178" x2="102" y2="876" stroke="#C9BEA6" stroke-width="2" opacity="0.55"/><line x1="115" y1="178" x2="115" y2="876" stroke="#C9BEA6" stroke-width="2" opacity="0.55"/><line x1="128" y1="178" x2="128" y2="876" stroke="#C9BEA6" stroke-width="2" opacity="0.55"/>
    <rect x="86" y="884" width="58" height="16" rx="2" fill="#EDE4D0" opacity="0.92"/>
  </g>
  
  <g>
    <rect x="577" y="152" width="56" height="18" rx="3" fill="#EDE4D0" opacity="0.92"/>
    <rect x="582" y="170" width="46" height="714" fill="url(#stoneShaft-republic)"/>
    <line x1="592" y1="178" x2="592" y2="876" stroke="#C9BEA6" stroke-width="2" opacity="0.55"/><line x1="605" y1="178" x2="605" y2="876" stroke="#C9BEA6" stroke-width="2" opacity="0.55"/><line x1="618" y1="178" x2="618" y2="876" stroke="#C9BEA6" stroke-width="2" opacity="0.55"/>
    <rect x="576" y="884" width="58" height="16" rx="2" fill="#EDE4D0" opacity="0.92"/>
  </g>
  <!-- floor -->
  <rect x="0" y="900" width="720" height="180" fill="#EDE4D0" opacity="0.10"/>
  <line x1="0" y1="900" x2="720" y2="900" stroke="#D9A63C" stroke-width="1.5" opacity="0.45"/>
  
  <g>
    <rect x="252" y="836" width="216" height="22" rx="3" fill="#EDE4D0" opacity="0.9"/>
    <rect x="230" y="858" width="260" height="20" rx="3" fill="#EDE4D0" opacity="0.78"/>
    <rect x="206" y="878" width="308" height="22" rx="3" fill="#EDE4D0" opacity="0.66"/>
  </g>
  
  <circle cx="360" cy="520" r="200" fill="none" stroke="#D9A63C" stroke-width="1.5" opacity="0.35"/>
  <circle cx="360" cy="520" r="190" fill="url(#field-republic)" stroke="#D9A63C" stroke-width="3"/>
  <circle cx="360" cy="520" r="168" fill="none" stroke="#D9A63C" stroke-width="1" opacity="0.6"/>
  <clipPath id="medClip-republic"><circle cx="360" cy="520" r="168"/></clipPath>
  <g clip-path="url(#medClip-republic)">
    <g transform="translate(360 520)">
      
    <circle cx="0" cy="-96" r="30" fill="#D9A63C"/>
    <circle cx="0" cy="-96" r="46" fill="#D9A63C" opacity="0.2"/>
    <polygon points="-14,-66 14,-66 44,10 -44,10" fill="#D9A63C" opacity="0.18"/>
    <g fill="#7FB0F0">
      <rect x="-104" y="10" width="30" height="42"/>
      <rect x="-66" y="-8" width="30" height="60" opacity="0.85"/>
      <rect x="-28" y="4" width="30" height="48" opacity="0.7"/>
      <rect x="10" y="-16" width="30" height="68"/>
      <rect x="48" y="6" width="30" height="46" opacity="0.85"/>
      <rect x="86" y="-2" width="30" height="54" opacity="0.7"/>
    </g>
    <line x1="-116" y1="52" x2="116" y2="52" stroke="#D9A63C" stroke-width="3"/>
    <path d="M -70,128 L -70,96 A 70 70 0 0 1 70,96 L 70,128 Z" fill="#1A2340" stroke="#7FB0F0" stroke-width="4" opacity="0.95"/>
    <ellipse cx="0" cy="112" rx="34" ry="10" fill="#D9A63C" opacity="0.35"/>
    </g>
  </g>
  <circle cx="174.4" cy="444.8" r="0.75" fill="#7FB0F0" opacity="0.040"/><circle cx="343.2" cy="963.2" r="2.08" fill="#7FB0F0" opacity="0.052"/><circle cx="199.5" cy="741.0" r="2.05" fill="#7FB0F0" opacity="0.072"/><circle cx="534.7" cy="120.0" r="0.98" fill="#7FB0F0" opacity="0.039"/><circle cx="623.9" cy="911.4" r="2.03" fill="#7FB0F0" opacity="0.032"/><circle cx="491.6" cy="350.6" r="1.39" fill="#7FB0F0" opacity="0.055"/><circle cx="535.4" cy="36.2" r="1.68" fill="#7FB0F0" opacity="0.046"/><circle cx="66.1" cy="52.7" r="1.08" fill="#7FB0F0" opacity="0.052"/><circle cx="706.6" cy="982.3" r="1.66" fill="#7FB0F0" opacity="0.032"/><circle cx="480.1" cy="155.1" r="1.25" fill="#7FB0F0" opacity="0.035"/><circle cx="594.3" cy="744.1" r="2.02" fill="#7FB0F0" opacity="0.076"/><circle cx="216.2" cy="997.1" r="1.01" fill="#7FB0F0" opacity="0.045"/><circle cx="14.9" cy="652.5" r="1.94" fill="#7FB0F0" opacity="0.062"/><circle cx="240.6" cy="785.2" r="1.40" fill="#7FB0F0" opacity="0.073"/><circle cx="422.0" cy="3.9" r="1.20" fill="#7FB0F0" opacity="0.065"/><circle cx="59.4" cy="627.1" r="1.60" fill="#7FB0F0" opacity="0.063"/><circle cx="9.2" cy="26.9" r="1.44" fill="#7FB0F0" opacity="0.063"/><circle cx="72.5" cy="449.4" r="0.96" fill="#7FB0F0" opacity="0.047"/><circle cx="474.7" cy="960.1" r="1.13" fill="#7FB0F0" opacity="0.058"/><circle cx="297.6" cy="172.8" r="1.47" fill="#7FB0F0" opacity="0.060"/><circle cx="47.6" cy="937.5" r="0.78" fill="#7FB0F0" opacity="0.033"/><circle cx="100.6" cy="364.1" r="1.34" fill="#7FB0F0" opacity="0.084"/><circle cx="235.8" cy="795.4" r="0.81" fill="#7FB0F0" opacity="0.040"/><circle cx="274.5" cy="936.0" r="1.53" fill="#7FB0F0" opacity="0.033"/><circle cx="318.5" cy="162.3" r="1.73" fill="#7FB0F0" opacity="0.089"/><circle cx="565.4" cy="890.9" r="1.16" fill="#7FB0F0" opacity="0.032"/><circle cx="340.3" cy="836.3" r="1.92" fill="#7FB0F0" opacity="0.066"/><circle cx="675.8" cy="537.0" r="1.15" fill="#7FB0F0" opacity="0.058"/><circle cx="422.9" cy="888.7" r="0.64" fill="#7FB0F0" opacity="0.075"/><circle cx="70.0" cy="860.6" r="1.60" fill="#7FB0F0" opacity="0.052"/><circle cx="554.7" cy="311.2" r="1.56" fill="#7FB0F0" opacity="0.046"/><circle cx="433.5" cy="366.5" r="1.10" fill="#7FB0F0" opacity="0.063"/><circle cx="596.5" cy="478.6" r="2.09" fill="#7FB0F0" opacity="0.040"/><circle cx="493.4" cy="951.6" r="1.17" fill="#7FB0F0" opacity="0.063"/><circle cx="75.4" cy="819.0" r="1.11" fill="#7FB0F0" opacity="0.064"/><circle cx="473.0" cy="72.9" r="0.66" fill="#7FB0F0" opacity="0.043"/><circle cx="110.8" cy="29.9" r="0.67" fill="#7FB0F0" opacity="0.050"/><circle cx="508.5" cy="537.6" r="1.96" fill="#7FB0F0" opacity="0.060"/><circle cx="221.1" cy="166.2" r="1.59" fill="#7FB0F0" opacity="0.076"/><circle cx="650.5" cy="363.8" r="0.92" fill="#7FB0F0" opacity="0.036"/><circle cx="475.9" cy="539.9" r="1.55" fill="#7FB0F0" opacity="0.057"/><circle cx="511.2" cy="466.3" r="0.87" fill="#7FB0F0" opacity="0.050"/><circle cx="652.0" cy="272.5" r="1.61" fill="#7FB0F0" opacity="0.044"/><circle cx="383.1" cy="378.7" r="0.99" fill="#7FB0F0" opacity="0.083"/><circle cx="110.3" cy="1000.1" r="1.93" fill="#7FB0F0" opacity="0.084"/><circle cx="156.9" cy="775.0" r="2.20" fill="#7FB0F0" opacity="0.050"/><circle cx="142.5" cy="250.5" r="1.24" fill="#7FB0F0" opacity="0.036"/><circle cx="666.9" cy="594.2" r="0.71" fill="#7FB0F0" opacity="0.061"/><circle cx="525.9" cy="876.1" r="1.62" fill="#7FB0F0" opacity="0.049"/><circle cx="691.8" cy="194.7" r="1.78" fill="#7FB0F0" opacity="0.062"/><circle cx="418.0" cy="348.8" r="1.28" fill="#7FB0F0" opacity="0.083"/><circle cx="171.4" cy="430.5" r="2.13" fill="#7FB0F0" opacity="0.038"/><circle cx="424.1" cy="2.1" r="2.05" fill="#7FB0F0" opacity="0.068"/><circle cx="254.7" cy="250.0" r="2.07" fill="#7FB0F0" opacity="0.044"/><circle cx="179.1" cy="814.2" r="2.06" fill="#7FB0F0" opacity="0.034"/><circle cx="597.2" cy="1032.0" r="1.16" fill="#7FB0F0" opacity="0.048"/><circle cx="417.8" cy="966.0" r="1.40" fill="#7FB0F0" opacity="0.078"/><circle cx="608.4" cy="463.0" r="1.64" fill="#7FB0F0" opacity="0.074"/><circle cx="105.8" cy="468.3" r="0.68" fill="#7FB0F0" opacity="0.061"/><circle cx="710.7" cy="109.5" r="2.12" fill="#7FB0F0" opacity="0.068"/><circle cx="100.3" cy="433.6" r="1.05" fill="#7FB0F0" opacity="0.054"/><circle cx="537.2" cy="782.9" r="1.81" fill="#7FB0F0" opacity="0.065"/><circle cx="222.8" cy="269.6" r="1.76" fill="#7FB0F0" opacity="0.070"/><circle cx="542.9" cy="48.3" r="1.47" fill="#7FB0F0" opacity="0.077"/><circle cx="444.5" cy="819.8" r="1.90" fill="#7FB0F0" opacity="0.071"/><circle cx="509.6" cy="496.3" r="1.72" fill="#7FB0F0" opacity="0.067"/><circle cx="174.1" cy="480.5" r="0.93" fill="#7FB0F0" opacity="0.043"/><circle cx="203.4" cy="693.7" r="2.14" fill="#7FB0F0" opacity="0.061"/><circle cx="365.5" cy="474.0" r="0.95" fill="#7FB0F0" opacity="0.087"/><circle cx="581.9" cy="130.1" r="0.82" fill="#7FB0F0" opacity="0.054"/><circle cx="241.5" cy="1060.7" r="0.68" fill="#7FB0F0" opacity="0.060"/><circle cx="162.3" cy="828.5" r="2.11" fill="#7FB0F0" opacity="0.035"/><circle cx="1.8" cy="314.4" r="1.34" fill="#7FB0F0" opacity="0.031"/><circle cx="178.7" cy="467.7" r="1.09" fill="#7FB0F0" opacity="0.086"/><circle cx="573.2" cy="844.8" r="2.08" fill="#7FB0F0" opacity="0.071"/><circle cx="196.4" cy="34.8" r="1.59" fill="#7FB0F0" opacity="0.039"/><circle cx="373.9" cy="732.0" r="0.82" fill="#7FB0F0" opacity="0.032"/><circle cx="162.8" cy="335.6" r="1.48" fill="#7FB0F0" opacity="0.049"/><circle cx="167.9" cy="274.0" r="1.41" fill="#7FB0F0" opacity="0.046"/><circle cx="111.5" cy="848.5" r="1.45" fill="#7FB0F0" opacity="0.043"/><circle cx="23.9" cy="499.5" r="1.48" fill="#7FB0F0" opacity="0.063"/><circle cx="252.6" cy="65.4" r="1.21" fill="#7FB0F0" opacity="0.086"/><circle cx="174.5" cy="166.5" r="1.76" fill="#7FB0F0" opacity="0.032"/><circle cx="359.9" cy="259.7" r="2.18" fill="#7FB0F0" opacity="0.050"/><circle cx="9.3" cy="152.7" r="1.04" fill="#7FB0F0" opacity="0.038"/><circle cx="261.1" cy="528.0" r="1.68" fill="#7FB0F0" opacity="0.086"/><circle cx="9.0" cy="515.7" r="0.66" fill="#7FB0F0" opacity="0.030"/><circle cx="506.6" cy="235.8" r="0.92" fill="#7FB0F0" opacity="0.087"/><circle cx="298.1" cy="849.5" r="0.91" fill="#7FB0F0" opacity="0.082"/><circle cx="270.8" cy="563.4" r="0.70" fill="#7FB0F0" opacity="0.086"/>
</svg>
