<svg xmlns="http://www.w3.org/2000/svg" width="240" height="320" viewBox="0 0 240 320" role="img" aria-label="Virgil single-color mark"><g data-part="figure" transform="translate(0 0) rotate(0 120 300) translate(0 0) scale(1 1)"><ellipse cx="120" cy="306" rx="78" ry="9" fill="#232A38" opacity="0.1"></ellipse><g data-part="cloak"><path d="M120 18
           C148 22 168 44 172 74
           C196 96 206 130 208 168
           C210 220 212 262 212 296
           Q181 306 150 298
           Q120 308 90 298
           Q59 306 28 296
           C28 262 30 220 32 168
           C34 130 44 96 68 74
           C72 44 92 22 120 18 Z" fill="#232A38"></path><path d="M68 74 C44 96 34 130 32 168 C30 220 28 262 28 296 Q59 306 90 298
           C78 240 66 150 68 74 Z" fill="#232A38" opacity="0.45"></path><path d="M28 296 Q59 306 90 298 Q120 308 150 298 Q181 306 212 296
           L212 288 Q181 297 150 289 Q120 299 90 289 Q59 297 28 288 Z" fill="#232A38" opacity="0.9"></path><ellipse cx="120" cy="112" rx="47" ry="52" fill="#232A38"></ellipse></g><g data-part="satchel-wrap" transform="rotate(0 57 208)"><g data-part="satchel"><path d="M170 128 C130 160 92 190 60 214" stroke="#232A38" stroke-width="7" stroke-linecap="round" fill="none" opacity="0.85"></path><rect x="40" y="198" width="32" height="13" rx="3" fill="#232A38" transform="rotate(-7 56 204)"></rect><rect x="43" y="201" width="26" height="3" rx="1.5" fill="#232A38" transform="rotate(-7 56 204)"></rect><rect x="34" y="208" width="46" height="42" rx="11" fill="#232A38"></rect><path d="M34 219 Q57 232 80 219 L80 214 Q57 226 34 214 Z" fill="#232A38"></path><circle cx="57" cy="228" r="3.5" fill="#232A38"></circle></g></g><g data-part="head" transform="translate(0 0) rotate(0 120 150)"><g data-part="face"><ellipse cx="120" cy="114" rx="38" ry="40" fill="#232A38"></ellipse><path d="M88 126 Q120 156 152 126 Q152 148 120 152 Q88 148 88 126 Z" fill="#232A38" opacity="0.5"></path><g fill="#232A38" opacity="0.55"><ellipse cx="96" cy="126" rx="6" ry="3.4"></ellipse><ellipse cx="144" cy="126" rx="6" ry="3.4"></ellipse></g><g data-part="pupil-wrap" transform="translate(0 0)"><g data-part="pupils"><g><ellipse cx="104" cy="108" rx="5.5" ry="7" fill="#232A38"></ellipse><circle cx="102.4" cy="105.4" r="1.8" fill="#232A38" opacity="0.95"></circle></g><g><ellipse cx="136" cy="108" rx="5.5" ry="7" fill="#232A38"></ellipse><circle cx="134.4" cy="105.4" r="1.8" fill="#232A38" opacity="0.95"></circle></g></g></g><g data-part="eyelids" style="transform:scaleY(0);transform-box:fill-box;transform-origin:top"><rect x="97" y="99" width="14" height="19" rx="7" fill="#232A38"></rect><rect x="129" y="99" width="14" height="19" rx="7" fill="#232A38"></rect></g><g data-part="brows" stroke="#232A38" stroke-width="3" stroke-linecap="round" fill="none"><path d="M98 93 Q104 90 110 92" transform="translate(0 0) rotate(0 104 92)"></path><path d="M130 92 Q136 90 142 93" transform="translate(0 0) rotate(0 136 92)"></path></g><path d="M112 132 Q120 139 128 132" stroke="#232A38" stroke-width="3" stroke-linecap="round" fill="none"></path></g></g><g data-part="arm" transform="translate(0 0) rotate(0 186 164)"><g data-part="lantern-swing" transform="rotate(0 191 186)"><g data-part="lantern-arm"><path d="M172 154 Q196 158 198 180 Q198 188 190 190 Q178 190 176 178 Q172 166 172 154 Z" fill="#232A38"></path><path d="M172 154 Q196 158 198 180 Q190 176 182 170 Q176 162 172 154 Z" fill="#232A38" opacity="0.5"></path><circle cx="191" cy="186" r="7" fill="#232A38"></circle><path d="M183 200 Q191 188 199 200" stroke="#232A38" stroke-width="3" stroke-linecap="round" fill="none"></path><path d="M177 200 L205 200 L211 216 L205 238 L177 238 L171 216 Z" fill="#232A38"></path><path d="M181 206 L201 206 L205 216 L201 232 L181 232 L177 216 Z" fill="#232A38"></path><ellipse cx="191" cy="220" rx="4.5" ry="6.5" fill="#232A38" opacity="0.95"></ellipse><ellipse cx="191" cy="222" rx="2.4" ry="3.6" fill="#232A38"></ellipse><rect x="184" y="195" width="14" height="6" rx="2" fill="#232A38"></rect><rect x="181" y="238" width="20" height="6" rx="2.5" fill="#232A38"></rect></g></g></g></g></svg>