<svg xmlns="http://www.w3.org/2000/svg" viewBox="0 0 200 200" width="200" height="200">
  <circle cx="100" cy="105" r="75" fill="#F5E6D3"/>
  <path d="M40 80 Q50 30 100 25 Q150 30 160 80 Q155 90 145 85 Q130 40 100 35 Q70 40 55 85 Q45 90 40 80Z" fill="#2C1810"/>
  <circle cx="103" cy="30" r="8" fill="#2C1810"/>
  <circle cx="103" cy="30" r="3" fill="#DAA520"/>
  <circle cx="82" cy="95" r="7.5" fill="#2C1810"/>
  <circle cx="82" cy="93.5" r="2.5" fill="white"/>
  <circle cx="118" cy="95" r="7.5" fill="#2C1810"/>
  <circle cx="118" cy="93.5" r="2.5" fill="white"/>
  <path d="M75 85 Q82 80 89 85" stroke="#2C1810" stroke-width="1.5" fill="none"/>
  <path d="M111 85 Q118 80 125 85" stroke="#2C1810" stroke-width="1.5" fill="none"/>
  <path d="M92 116 Q100 121 108 116" stroke="#C0868B" stroke-width="2" fill="none" stroke-linecap="round"/>
  <path d="M85 130 Q100 135 115 130" stroke="#DAA520" stroke-width="1" fill="none"/>
  <circle cx="100" cy="138" r="3.5" fill="#7B2D8B"/>
  <ellipse cx="100" cy="165" rx="60" ry="35" fill="#7B2D8B"/>
</svg>
