<svg xmlns="http://www.w3.org/2000/svg" viewBox="0 0 200 200" width="200" height="200">
  <circle cx="100" cy="105" r="75" fill="#C5DDB8"/>
  <path d="M80 75 L85 70 L90 75" stroke="#3D4F3F" stroke-width="2.5" fill="none"/>
  <path d="M95 68 L92 73" stroke="#3D4F3F" stroke-width="2" fill="none"/>
  <circle cx="82" cy="100" r="7" fill="#2C1810"/>
  <circle cx="82" cy="98.5" r="2" fill="white"/>
  <circle cx="118" cy="100" r="7" fill="#2C1810"/>
  <circle cx="118" cy="98.5" r="2" fill="white"/>
  <path d="M90 120 Q100 116 110 120" stroke="#5C7A5C" stroke-width="2.5" fill="none" stroke-linecap="round"/>
  <path d="M35 145 Q50 120 70 140 L90 155 Q100 160 110 155 L130 140 Q150 120 165 145 Q155 180 100 185 Q45 180 35 145Z" fill="#5C4033"/>
  <path d="M55 155 Q65 135 80 150" stroke="#4A3628" stroke-width="1" fill="none"/>
  <path d="M120 150 Q135 135 145 155" stroke="#4A3628" stroke-width="1" fill="none"/>
</svg>
