<svg xmlns="http://www.w3.org/2000/svg" width="768" height="1024" viewBox="0 0 768 1024" role="img" aria-label="Original Tome vector cover for Alice's Adventures in Wonderland: a constellation of small doors, keys, and card diamonds on warm ivory, joined by dotted lines.">
<rect width="768" height="1024" fill="#F6EFE3"/><path d="M 439.40485605224967 470.4256094340235 L 577.1512548327446 648.4661693172529" fill="none" stroke="#2A2438" stroke-width="1.6" stroke-dasharray="1 9" stroke-linecap="round" opacity="0.4"/><path d="M 577.1512548327446 648.4661693172529 L 205.79801651276648 533.3804039163515" fill="none" stroke="#2A2438" stroke-width="1.6" stroke-dasharray="1 9" stroke-linecap="round" opacity="0.4"/><path d="M 205.79801651276648 533.3804039163515 L 259.7289408929646 612.2947017634287" fill="none" stroke="#2A2438" stroke-width="1.6" stroke-dasharray="1 9" stroke-linecap="round" opacity="0.4"/><path d="M 259.7289408929646 612.2947017634287 L 584.2801072727889 489.7429123008624" fill="none" stroke="#2A2438" stroke-width="1.6" stroke-dasharray="1 9" stroke-linecap="round" opacity="0.4"/><path d="M 584.2801072727889 489.7429123008624 L 246.95820635650307 819.1753021283075" fill="none" stroke="#2A2438" stroke-width="1.6" stroke-dasharray="1 9" stroke-linecap="round" opacity="0.4"/><path d="M 246.95820635650307 819.1753021283075 L 518.6641856105998 356.8292167969048" fill="none" stroke="#2A2438" stroke-width="1.6" stroke-dasharray="1 9" stroke-linecap="round" opacity="0.4"/><path d="M 518.6641856105998 356.8292167969048 L 218.09510319586843 512.5865081455559" fill="none" stroke="#2A2438" stroke-width="1.6" stroke-dasharray="1 9" stroke-linecap="round" opacity="0.4"/><path d="M 218.09510319586843 512.5865081455559 L 486.2633858192712 600.9392023356631" fill="none" stroke="#2A2438" stroke-width="1.6" stroke-dasharray="1 9" stroke-linecap="round" opacity="0.4"/><path d="M 486.2633858192712 600.9392023356631 L 112.10593767557293 488.50866668485105" fill="none" stroke="#2A2438" stroke-width="1.6" stroke-dasharray="1 9" stroke-linecap="round" opacity="0.4"/><path d="M 112.10593767557293 488.50866668485105 L 568.8609093986452 151.17225010320544" fill="none" stroke="#2A2438" stroke-width="1.6" stroke-dasharray="1 9" stroke-linecap="round" opacity="0.4"/><path d="M 568.8609093986452 151.17225010320544 L 434.59354681521654 135.35651632398367" fill="none" stroke="#2A2438" stroke-width="1.6" stroke-dasharray="1 9" stroke-linecap="round" opacity="0.4"/><path d="M 434.59354681521654 135.35651632398367 L 256.2918807948008 159.6722395159304" fill="none" stroke="#2A2438" stroke-width="1.6" stroke-dasharray="1 9" stroke-linecap="round" opacity="0.4"/><path d="M 256.2918807948008 159.6722395159304 L 211.75757592637092 739.9720237022266" fill="none" stroke="#2A2438" stroke-width="1.6" stroke-dasharray="1 9" stroke-linecap="round" opacity="0.4"/><rect x="414.44982195761986" y="420.5155412447639" width="49.91006818925962" height="84.84711592174135" rx="24.95503409462981" fill="#D94F5C"/><circle cx="450.3850710538868" cy="475.41661625294944" r="3.5" fill="#DFAF4F"/><circle cx="577.1512548327446" cy="648.4661693172529" r="14" fill="none" stroke="#DFAF4F" stroke-width="6"/><rect x="574.1512548327446" y="660.4661693172529" width="6" height="30" rx="3" fill="#DFAF4F"/><rect x="580.1512548327446" y="680.4661693172529" width="12" height="6" rx="3" fill="#DFAF4F"/><path d="M 205.79801651276648 517.3804039163515 L 217.79801651276648 533.3804039163515 L 205.79801651276648 549.3804039163515 L 193.79801651276648 533.3804039163515 Z" fill="#D94F5C"/><rect x="242.32208675309084" y="577.4809934836812" width="34.813708279747516" height="59.183304075570774" rx="17.406854139873758" fill="#5B4E8C"/><circle cx="267.3879567145091" cy="615.7760725914035" r="3.5" fill="#DFAF4F"/><circle cx="584.2801072727889" cy="489.7429123008624" r="14" fill="none" stroke="#DFAF4F" stroke-width="6"/><rect x="581.2801072727889" y="501.7429123008624" width="6" height="30" rx="3" fill="#DFAF4F"/><rect x="587.2801072727889" y="521.7429123008624" width="12" height="6" rx="3" fill="#DFAF4F"/><path d="M 246.95820635650307 803.1753021283075 L 258.95820635650307 819.1753021283075 L 246.95820635650307 835.1753021283075 L 234.95820635650307 819.1753021283075 Z" fill="#D94F5C"/><rect x="499.0691070938483" y="317.63905976340175" width="39.190157033503056" height="66.62326695695519" rx="19.595078516751528" fill="#D94F5C"/><circle cx="527.2860201579705" cy="360.7482325002551" r="3.5" fill="#DFAF4F"/><circle cx="218.09510319586843" cy="512.5865081455559" r="14" fill="none" stroke="#DFAF4F" stroke-width="6"/><rect x="215.09510319586843" y="524.5865081455559" width="6" height="30" rx="3" fill="#DFAF4F"/><rect x="221.09510319586843" y="544.5865081455559" width="12" height="6" rx="3" fill="#DFAF4F"/><path d="M 486.2633858192712 584.9392023356631 L 498.2633858192712 600.9392023356631 L 486.2633858192712 616.9392023356631 L 474.2633858192712 600.9392023356631 Z" fill="#D94F5C"/><rect x="82.46561579569243" y="429.22802292509004" width="59.280643759761006" height="100.7770943915937" rx="29.640321879880503" fill="#5B4E8C"/><circle cx="125.14767930272035" cy="494.4367310608271" r="3.5" fill="#DFAF4F"/><circle cx="568.8609093986452" cy="151.17225010320544" r="14" fill="none" stroke="#DFAF4F" stroke-width="6"/><rect x="565.8609093986452" y="163.17225010320544" width="6" height="30" rx="3" fill="#DFAF4F"/><rect x="571.8609093986452" y="183.17225010320544" width="12" height="6" rx="3" fill="#DFAF4F"/><path d="M 434.59354681521654 119.35651632398367 L 446.59354681521654 135.35651632398367 L 434.59354681521654 151.35651632398367 L 422.59354681521654 135.35651632398367 Z" fill="#D94F5C"/><rect x="231.975782034453" y="111.04004199523479" width="48.63219752069563" height="82.67473578518256" rx="24.316098760347813" fill="#D94F5C"/><circle cx="266.99096424935385" cy="164.53545926799998" r="3.5" fill="#DFAF4F"/><circle cx="211.75757592637092" cy="739.9720237022266" r="14" fill="none" stroke="#DFAF4F" stroke-width="6"/><rect x="208.75757592637092" y="751.9720237022266" width="6" height="30" rx="3" fill="#DFAF4F"/><rect x="214.75757592637092" y="771.9720237022266" width="12" height="6" rx="3" fill="#DFAF4F"/>
<g><circle cx="66.0" cy="275.0" r="1.52" fill="#2A2438" opacity="0.052"/><circle cx="70.0" cy="191.8" r="1.89" fill="#2A2438" opacity="0.062"/><circle cx="40.9" cy="370.2" r="1.06" fill="#2A2438" opacity="0.073"/><circle cx="708.9" cy="138.8" r="0.98" fill="#2A2438" opacity="0.036"/><circle cx="199.5" cy="99.7" r="2.16" fill="#2A2438" opacity="0.067"/><circle cx="368.2" cy="20.3" r="1.01" fill="#2A2438" opacity="0.064"/><circle cx="740.3" cy="520.3" r="1.77" fill="#2A2438" opacity="0.051"/><circle cx="660.3" cy="499.0" r="1.60" fill="#2A2438" opacity="0.045"/><circle cx="544.1" cy="78.3" r="1.31" fill="#2A2438" opacity="0.050"/><circle cx="469.9" cy="577.5" r="1.81" fill="#2A2438" opacity="0.075"/><circle cx="366.8" cy="338.3" r="1.01" fill="#2A2438" opacity="0.051"/><circle cx="555.5" cy="360.0" r="0.64" fill="#2A2438" opacity="0.067"/><circle cx="40.3" cy="977.8" r="1.76" fill="#2A2438" opacity="0.045"/><circle cx="425.8" cy="588.3" r="1.20" fill="#2A2438" opacity="0.060"/><circle cx="547.1" cy="566.3" r="2.16" fill="#2A2438" opacity="0.039"/><circle cx="224.9" cy="122.5" r="0.91" fill="#2A2438" opacity="0.077"/><circle cx="255.2" cy="892.5" r="1.12" fill="#2A2438" opacity="0.073"/><circle cx="99.0" cy="383.2" r="0.91" fill="#2A2438" opacity="0.056"/><circle cx="156.2" cy="870.1" r="0.80" fill="#2A2438" opacity="0.040"/><circle cx="468.7" cy="691.2" r="1.05" fill="#2A2438" opacity="0.064"/><circle cx="514.8" cy="423.1" r="1.24" fill="#2A2438" opacity="0.077"/><circle cx="382.9" cy="323.5" r="1.83" fill="#2A2438" opacity="0.048"/><circle cx="717.4" cy="24.9" r="1.46" fill="#2A2438" opacity="0.044"/><circle cx="478.9" cy="870.6" r="0.96" fill="#2A2438" opacity="0.041"/><circle cx="225.8" cy="112.8" r="1.88" fill="#2A2438" opacity="0.030"/><circle cx="228.3" cy="535.5" r="2.17" fill="#2A2438" opacity="0.064"/><circle cx="400.6" cy="908.2" r="0.90" fill="#2A2438" opacity="0.051"/><circle cx="299.1" cy="36.5" r="1.06" fill="#2A2438" opacity="0.051"/><circle cx="552.8" cy="531.5" r="1.87" fill="#2A2438" opacity="0.035"/><circle cx="216.3" cy="270.4" r="1.55" fill="#2A2438" opacity="0.032"/><circle cx="387.0" cy="555.3" r="1.25" fill="#2A2438" opacity="0.066"/><circle cx="765.9" cy="316.6" r="1.27" fill="#2A2438" opacity="0.052"/><circle cx="569.3" cy="504.0" r="1.01" fill="#2A2438" opacity="0.078"/><circle cx="254.3" cy="574.7" r="1.53" fill="#2A2438" opacity="0.051"/><circle cx="32.3" cy="734.8" r="0.80" fill="#2A2438" opacity="0.072"/><circle cx="705.7" cy="867.9" r="1.33" fill="#2A2438" opacity="0.053"/><circle cx="146.0" cy="926.1" r="1.52" fill="#2A2438" opacity="0.078"/><circle cx="642.4" cy="571.2" r="0.85" fill="#2A2438" opacity="0.032"/><circle cx="654.2" cy="308.5" r="0.97" fill="#2A2438" opacity="0.053"/><circle cx="606.2" cy="43.0" r="1.18" fill="#2A2438" opacity="0.061"/><circle cx="413.1" cy="735.6" r="1.48" fill="#2A2438" opacity="0.078"/><circle cx="406.5" cy="929.2" r="0.84" fill="#2A2438" opacity="0.049"/><circle cx="408.9" cy="544.0" r="1.01" fill="#2A2438" opacity="0.080"/><circle cx="396.1" cy="915.3" r="1.57" fill="#2A2438" opacity="0.043"/><circle cx="189.8" cy="472.1" r="0.62" fill="#2A2438" opacity="0.060"/><circle cx="82.3" cy="360.1" r="2.09" fill="#2A2438" opacity="0.063"/><circle cx="30.9" cy="424.9" r="1.84" fill="#2A2438" opacity="0.080"/><circle cx="538.2" cy="929.0" r="0.99" fill="#2A2438" opacity="0.049"/><circle cx="231.4" cy="173.4" r="1.64" fill="#2A2438" opacity="0.078"/><circle cx="606.0" cy="886.3" r="1.82" fill="#2A2438" opacity="0.063"/><circle cx="578.4" cy="622.4" r="1.26" fill="#2A2438" opacity="0.072"/><circle cx="226.4" cy="1017.8" r="2.12" fill="#2A2438" opacity="0.075"/><circle cx="531.3" cy="570.2" r="1.76" fill="#2A2438" opacity="0.032"/><circle cx="7.4" cy="8.4" r="2.05" fill="#2A2438" opacity="0.043"/><circle cx="473.2" cy="318.8" r="1.87" fill="#2A2438" opacity="0.071"/><circle cx="580.1" cy="857.1" r="0.73" fill="#2A2438" opacity="0.080"/><circle cx="671.3" cy="661.1" r="0.73" fill="#2A2438" opacity="0.042"/><circle cx="625.1" cy="830.4" r="0.96" fill="#2A2438" opacity="0.041"/><circle cx="368.2" cy="94.3" r="1.46" fill="#2A2438" opacity="0.030"/><circle cx="620.4" cy="401.2" r="1.85" fill="#2A2438" opacity="0.070"/><circle cx="711.6" cy="322.7" r="1.99" fill="#2A2438" opacity="0.040"/><circle cx="478.4" cy="216.0" r="0.81" fill="#2A2438" opacity="0.055"/><circle cx="207.4" cy="607.1" r="1.28" fill="#2A2438" opacity="0.048"/><circle cx="35.5" cy="4.1" r="1.24" fill="#2A2438" opacity="0.054"/><circle cx="504.3" cy="865.7" r="2.07" fill="#2A2438" opacity="0.065"/><circle cx="485.3" cy="746.6" r="1.19" fill="#2A2438" opacity="0.031"/><circle cx="516.2" cy="5.9" r="1.34" fill="#2A2438" opacity="0.037"/><circle cx="159.4" cy="463.8" r="0.85" fill="#2A2438" opacity="0.057"/><circle cx="696.2" cy="535.7" r="0.86" fill="#2A2438" opacity="0.076"/><circle cx="55.2" cy="975.2" r="1.39" fill="#2A2438" opacity="0.065"/><circle cx="116.7" cy="892.8" r="1.49" fill="#2A2438" opacity="0.076"/><circle cx="225.5" cy="219.3" r="0.84" fill="#2A2438" opacity="0.066"/><circle cx="722.7" cy="985.1" r="1.74" fill="#2A2438" opacity="0.059"/><circle cx="625.5" cy="469.6" r="0.86" fill="#2A2438" opacity="0.075"/><circle cx="595.5" cy="56.9" r="0.65" fill="#2A2438" opacity="0.040"/><circle cx="156.1" cy="287.5" r="2.12" fill="#2A2438" opacity="0.054"/><circle cx="52.2" cy="118.5" r="1.81" fill="#2A2438" opacity="0.032"/><circle cx="34.8" cy="316.4" r="2.03" fill="#2A2438" opacity="0.046"/><circle cx="313.9" cy="685.6" r="1.71" fill="#2A2438" opacity="0.036"/><circle cx="252.6" cy="150.4" r="1.16" fill="#2A2438" opacity="0.047"/><circle cx="233.6" cy="918.1" r="1.08" fill="#2A2438" opacity="0.059"/><circle cx="267.3" cy="162.2" r="2.12" fill="#2A2438" opacity="0.060"/><circle cx="677.7" cy="927.7" r="1.18" fill="#2A2438" opacity="0.063"/><circle cx="183.1" cy="152.1" r="1.55" fill="#2A2438" opacity="0.064"/><circle cx="599.7" cy="50.8" r="0.67" fill="#2A2438" opacity="0.065"/><circle cx="737.9" cy="368.2" r="1.97" fill="#2A2438" opacity="0.058"/><circle cx="621.4" cy="224.5" r="0.98" fill="#2A2438" opacity="0.050"/><circle cx="430.3" cy="338.1" r="1.41" fill="#2A2438" opacity="0.065"/><circle cx="364.6" cy="666.4" r="1.19" fill="#2A2438" opacity="0.066"/><circle cx="602.9" cy="540.8" r="1.95" fill="#2A2438" opacity="0.038"/><circle cx="457.1" cy="861.5" r="0.73" fill="#2A2438" opacity="0.074"/><circle cx="303.5" cy="331.9" r="1.78" fill="#2A2438" opacity="0.056"/><circle cx="428.0" cy="420.7" r="1.83" fill="#2A2438" opacity="0.047"/><circle cx="71.4" cy="474.5" r="0.83" fill="#2A2438" opacity="0.053"/><circle cx="760.4" cy="733.4" r="2.18" fill="#2A2438" opacity="0.053"/><circle cx="566.3" cy="354.9" r="1.14" fill="#2A2438" opacity="0.063"/><circle cx="591.9" cy="254.9" r="1.20" fill="#2A2438" opacity="0.057"/><circle cx="720.7" cy="122.2" r="1.02" fill="#2A2438" opacity="0.034"/><circle cx="503.8" cy="789.8" r="1.36" fill="#2A2438" opacity="0.075"/><circle cx="283.7" cy="24.0" r="0.83" fill="#2A2438" opacity="0.047"/><circle cx="146.7" cy="251.0" r="1.65" fill="#2A2438" opacity="0.036"/><circle cx="554.0" cy="754.6" r="0.89" fill="#2A2438" opacity="0.056"/><circle cx="396.8" cy="157.2" r="1.63" fill="#2A2438" opacity="0.062"/><circle cx="714.7" cy="614.2" r="2.20" fill="#2A2438" opacity="0.064"/><circle cx="734.5" cy="681.2" r="1.81" fill="#2A2438" opacity="0.068"/><circle cx="178.8" cy="779.7" r="1.70" fill="#2A2438" opacity="0.036"/><circle cx="503.3" cy="276.5" r="1.91" fill="#2A2438" opacity="0.035"/><circle cx="295.1" cy="699.9" r="1.93" fill="#2A2438" opacity="0.076"/><circle cx="196.5" cy="97.1" r="0.84" fill="#2A2438" opacity="0.054"/><circle cx="130.4" cy="1014.1" r="0.76" fill="#2A2438" opacity="0.053"/><circle cx="660.1" cy="885.0" r="1.02" fill="#2A2438" opacity="0.077"/><circle cx="350.9" cy="733.8" r="1.29" fill="#2A2438" opacity="0.051"/><circle cx="501.9" cy="760.0" r="0.83" fill="#2A2438" opacity="0.071"/><circle cx="521.9" cy="759.4" r="1.21" fill="#2A2438" opacity="0.049"/><circle cx="742.5" cy="274.3" r="0.61" fill="#2A2438" opacity="0.071"/><circle cx="96.5" cy="100.0" r="1.49" fill="#2A2438" opacity="0.036"/><circle cx="422.0" cy="572.1" r="1.60" fill="#2A2438" opacity="0.047"/><circle cx="515.0" cy="804.9" r="1.23" fill="#2A2438" opacity="0.066"/><circle cx="177.2" cy="790.3" r="1.96" fill="#2A2438" opacity="0.048"/><circle cx="513.0" cy="97.4" r="1.81" fill="#2A2438" opacity="0.052"/><circle cx="730.6" cy="618.6" r="0.62" fill="#2A2438" opacity="0.078"/><circle cx="356.6" cy="330.2" r="2.00" fill="#2A2438" opacity="0.065"/><circle cx="685.9" cy="569.8" r="2.10" fill="#2A2438" opacity="0.062"/><circle cx="524.4" cy="717.3" r="1.49" fill="#2A2438" opacity="0.070"/><circle cx="473.9" cy="816.5" r="1.79" fill="#2A2438" opacity="0.071"/><circle cx="612.8" cy="826.7" r="0.82" fill="#2A2438" opacity="0.053"/><circle cx="288.2" cy="381.5" r="1.28" fill="#2A2438" opacity="0.063"/><circle cx="519.6" cy="154.3" r="1.02" fill="#2A2438" opacity="0.035"/><circle cx="463.0" cy="901.7" r="1.80" fill="#2A2438" opacity="0.051"/><circle cx="173.3" cy="135.2" r="1.98" fill="#2A2438" opacity="0.074"/><circle cx="308.2" cy="264.1" r="2.07" fill="#2A2438" opacity="0.037"/><circle cx="47.1" cy="506.1" r="1.20" fill="#2A2438" opacity="0.055"/><circle cx="364.6" cy="922.3" r="1.52" fill="#2A2438" opacity="0.052"/><circle cx="540.1" cy="531.6" r="1.62" fill="#2A2438" opacity="0.051"/><circle cx="200.7" cy="971.1" r="1.00" fill="#2A2438" opacity="0.078"/><circle cx="418.5" cy="945.2" r="1.02" fill="#2A2438" opacity="0.032"/><circle cx="258.5" cy="709.1" r="1.23" fill="#2A2438" opacity="0.077"/><circle cx="68.0" cy="465.4" r="0.72" fill="#2A2438" opacity="0.045"/><circle cx="142.7" cy="289.1" r="1.01" fill="#2A2438" opacity="0.072"/><circle cx="582.0" cy="1003.0" r="1.89" fill="#2A2438" opacity="0.042"/><circle cx="354.1" cy="201.4" r="1.45" fill="#2A2438" opacity="0.053"/><circle cx="144.4" cy="238.6" r="1.83" fill="#2A2438" opacity="0.075"/><circle cx="542.9" cy="55.6" r="0.88" fill="#2A2438" opacity="0.049"/><circle cx="460.1" cy="175.8" r="0.87" fill="#2A2438" opacity="0.054"/><circle cx="503.6" cy="679.1" r="0.79" fill="#2A2438" opacity="0.069"/><circle cx="57.8" cy="436.6" r="1.26" fill="#2A2438" opacity="0.032"/><circle cx="23.5" cy="466.0" r="1.05" fill="#2A2438" opacity="0.070"/><circle cx="353.7" cy="136.7" r="0.63" fill="#2A2438" opacity="0.063"/><circle cx="167.2" cy="226.7" r="1.43" fill="#2A2438" opacity="0.075"/><circle cx="512.4" cy="560.9" r="1.05" fill="#2A2438" opacity="0.043"/><circle cx="54.3" cy="838.6" r="0.96" fill="#2A2438" opacity="0.062"/><circle cx="682.9" cy="396.9" r="2.17" fill="#2A2438" opacity="0.066"/><circle cx="593.7" cy="487.9" r="1.84" fill="#2A2438" opacity="0.062"/><circle cx="322.3" cy="78.8" r="2.06" fill="#2A2438" opacity="0.068"/><circle cx="532.2" cy="37.0" r="0.87" fill="#2A2438" opacity="0.047"/><circle cx="499.4" cy="974.3" r="2.00" fill="#2A2438" opacity="0.045"/><circle cx="425.5" cy="967.1" r="1.31" fill="#2A2438" opacity="0.039"/><circle cx="252.1" cy="422.1" r="1.83" fill="#2A2438" opacity="0.032"/><circle cx="682.8" cy="503.7" r="2.09" fill="#2A2438" opacity="0.077"/><circle cx="744.6" cy="349.5" r="1.23" fill="#2A2438" opacity="0.070"/><circle cx="619.7" cy="722.6" r="1.09" fill="#2A2438" opacity="0.048"/><circle cx="156.6" cy="28.2" r="2.10" fill="#2A2438" opacity="0.062"/><circle cx="176.8" cy="568.0" r="2.09" fill="#2A2438" opacity="0.030"/><circle cx="683.9" cy="834.0" r="1.07" fill="#2A2438" opacity="0.071"/><circle cx="645.0" cy="360.9" r="1.81" fill="#2A2438" opacity="0.059"/><circle cx="535.0" cy="1000.0" r="0.60" fill="#2A2438" opacity="0.047"/><circle cx="587.5" cy="940.5" r="1.03" fill="#2A2438" opacity="0.068"/><circle cx="417.0" cy="378.9" r="0.71" fill="#2A2438" opacity="0.073"/><circle cx="647.4" cy="265.0" r="1.44" fill="#2A2438" opacity="0.047"/><circle cx="669.4" cy="686.3" r="0.82" fill="#2A2438" opacity="0.039"/><circle cx="37.9" cy="679.6" r="1.00" fill="#2A2438" opacity="0.030"/><circle cx="229.6" cy="91.0" r="0.65" fill="#2A2438" opacity="0.055"/><circle cx="369.2" cy="780.4" r="1.22" fill="#2A2438" opacity="0.070"/><circle cx="87.1" cy="484.6" r="2.05" fill="#2A2438" opacity="0.072"/><circle cx="294.6" cy="434.1" r="1.57" fill="#2A2438" opacity="0.038"/><circle cx="190.0" cy="625.3" r="0.60" fill="#2A2438" opacity="0.034"/><circle cx="282.3" cy="981.2" r="1.38" fill="#2A2438" opacity="0.071"/><circle cx="384.1" cy="601.2" r="0.97" fill="#2A2438" opacity="0.040"/><circle cx="236.4" cy="427.9" r="2.06" fill="#2A2438" opacity="0.060"/><circle cx="231.1" cy="854.5" r="2.19" fill="#2A2438" opacity="0.048"/><circle cx="499.4" cy="521.6" r="1.02" fill="#2A2438" opacity="0.079"/><circle cx="554.3" cy="550.5" r="1.25" fill="#2A2438" opacity="0.059"/><circle cx="472.6" cy="641.0" r="1.89" fill="#2A2438" opacity="0.056"/><circle cx="544.1" cy="238.5" r="1.46" fill="#2A2438" opacity="0.037"/><circle cx="81.8" cy="306.9" r="1.89" fill="#2A2438" opacity="0.073"/><circle cx="580.9" cy="740.6" r="1.00" fill="#2A2438" opacity="0.054"/><circle cx="559.1" cy="112.5" r="1.15" fill="#2A2438" opacity="0.040"/><circle cx="484.0" cy="601.1" r="2.02" fill="#2A2438" opacity="0.040"/><circle cx="466.0" cy="870.8" r="1.14" fill="#2A2438" opacity="0.046"/><circle cx="112.3" cy="995.6" r="1.08" fill="#2A2438" opacity="0.032"/><circle cx="289.5" cy="422.8" r="2.09" fill="#2A2438" opacity="0.071"/><circle cx="136.2" cy="113.1" r="0.75" fill="#2A2438" opacity="0.070"/><circle cx="580.7" cy="574.2" r="2.05" fill="#2A2438" opacity="0.049"/><circle cx="493.1" cy="423.4" r="1.22" fill="#2A2438" opacity="0.057"/><circle cx="231.1" cy="426.8" r="1.70" fill="#2A2438" opacity="0.031"/><circle cx="378.6" cy="418.4" r="1.58" fill="#2A2438" opacity="0.035"/><circle cx="427.5" cy="904.5" r="0.93" fill="#2A2438" opacity="0.058"/><circle cx="418.9" cy="385.5" r="1.86" fill="#2A2438" opacity="0.077"/><circle cx="608.5" cy="447.6" r="2.12" fill="#2A2438" opacity="0.033"/><circle cx="623.3" cy="457.4" r="1.94" fill="#2A2438" opacity="0.074"/><circle cx="689.4" cy="150.7" r="2.04" fill="#2A2438" opacity="0.070"/><circle cx="443.3" cy="694.0" r="1.48" fill="#2A2438" opacity="0.052"/><circle cx="450.0" cy="356.3" r="1.15" fill="#2A2438" opacity="0.033"/><circle cx="420.4" cy="162.1" r="0.77" fill="#2A2438" opacity="0.043"/><circle cx="217.4" cy="605.7" r="1.07" fill="#2A2438" opacity="0.066"/><circle cx="267.1" cy="718.4" r="0.84" fill="#2A2438" opacity="0.041"/><circle cx="157.6" cy="947.4" r="1.20" fill="#2A2438" opacity="0.062"/><circle cx="534.6" cy="910.5" r="1.32" fill="#2A2438" opacity="0.035"/><circle cx="493.2" cy="540.3" r="0.81" fill="#2A2438" opacity="0.077"/><circle cx="533.3" cy="969.5" r="1.05" fill="#2A2438" opacity="0.038"/><circle cx="343.2" cy="548.4" r="1.50" fill="#2A2438" opacity="0.047"/><circle cx="700.4" cy="260.6" r="1.22" fill="#2A2438" opacity="0.077"/><circle cx="116.1" cy="628.4" r="0.77" fill="#2A2438" opacity="0.068"/><circle cx="658.1" cy="249.1" r="1.82" fill="#2A2438" opacity="0.064"/><circle cx="653.7" cy="864.5" r="0.99" fill="#2A2438" opacity="0.080"/><circle cx="17.4" cy="683.1" r="1.55" fill="#2A2438" opacity="0.058"/><circle cx="649.5" cy="98.0" r="0.96" fill="#2A2438" opacity="0.077"/><circle cx="114.1" cy="791.9" r="1.83" fill="#2A2438" opacity="0.060"/><circle cx="296.1" cy="184.6" r="1.90" fill="#2A2438" opacity="0.044"/><circle cx="653.5" cy="782.7" r="1.71" fill="#2A2438" opacity="0.062"/><circle cx="266.6" cy="331.2" r="2.01" fill="#2A2438" opacity="0.047"/><circle cx="234.3" cy="379.6" r="1.89" fill="#2A2438" opacity="0.057"/><circle cx="75.0" cy="516.1" r="1.37" fill="#2A2438" opacity="0.069"/><circle cx="466.1" cy="61.9" r="1.59" fill="#2A2438" opacity="0.034"/><circle cx="401.4" cy="463.4" r="1.56" fill="#2A2438" opacity="0.046"/><circle cx="335.4" cy="178.3" r="1.16" fill="#2A2438" opacity="0.053"/><circle cx="305.2" cy="850.9" r="0.93" fill="#2A2438" opacity="0.042"/><circle cx="179.2" cy="607.9" r="0.61" fill="#2A2438" opacity="0.073"/><circle cx="223.4" cy="394.9" r="1.21" fill="#2A2438" opacity="0.063"/><circle cx="489.0" cy="68.6" r="0.86" fill="#2A2438" opacity="0.078"/><circle cx="65.4" cy="28.2" r="1.55" fill="#2A2438" opacity="0.035"/><circle cx="175.7" cy="775.0" r="0.94" fill="#2A2438" opacity="0.045"/><circle cx="109.6" cy="439.7" r="1.89" fill="#2A2438" opacity="0.065"/><circle cx="307.8" cy="590.6" r="2.04" fill="#2A2438" opacity="0.069"/><circle cx="10.9" cy="421.6" r="1.68" fill="#2A2438" opacity="0.032"/><circle cx="463.5" cy="417.0" r="1.76" fill="#2A2438" opacity="0.050"/><circle cx="78.6" cy="796.8" r="1.03" fill="#2A2438" opacity="0.054"/><circle cx="517.7" cy="188.3" r="2.05" fill="#2A2438" opacity="0.043"/><circle cx="539.3" cy="525.3" r="2.08" fill="#2A2438" opacity="0.069"/><circle cx="95.3" cy="6.7" r="0.61" fill="#2A2438" opacity="0.071"/><circle cx="720.4" cy="840.6" r="1.32" fill="#2A2438" opacity="0.056"/><circle cx="304.8" cy="670.7" r="1.64" fill="#2A2438" opacity="0.046"/><circle cx="3.5" cy="432.0" r="2.02" fill="#2A2438" opacity="0.035"/><circle cx="446.9" cy="705.3" r="1.20" fill="#2A2438" opacity="0.057"/><circle cx="750.8" cy="942.1" r="1.62" fill="#2A2438" opacity="0.067"/><circle cx="416.4" cy="109.4" r="1.45" fill="#2A2438" opacity="0.041"/><circle cx="560.5" cy="403.4" r="1.62" fill="#2A2438" opacity="0.074"/><circle cx="41.8" cy="609.6" r="0.84" fill="#2A2438" opacity="0.051"/><circle cx="659.2" cy="528.3" r="1.02" fill="#2A2438" opacity="0.045"/><circle cx="396.2" cy="445.5" r="0.65" fill="#2A2438" opacity="0.038"/><circle cx="719.5" cy="536.0" r="0.92" fill="#2A2438" opacity="0.079"/><circle cx="260.8" cy="529.6" r="1.88" fill="#2A2438" opacity="0.071"/><circle cx="417.6" cy="623.2" r="1.53" fill="#2A2438" opacity="0.052"/><circle cx="499.0" cy="674.9" r="0.84" fill="#2A2438" opacity="0.045"/><circle cx="88.5" cy="860.5" r="1.95" fill="#2A2438" opacity="0.071"/><circle cx="33.5" cy="190.0" r="2.00" fill="#2A2438" opacity="0.074"/><circle cx="118.8" cy="614.9" r="0.82" fill="#2A2438" opacity="0.074"/><circle cx="522.6" cy="181.3" r="2.02" fill="#2A2438" opacity="0.060"/><circle cx="104.4" cy="316.7" r="0.63" fill="#2A2438" opacity="0.067"/><circle cx="347.7" cy="882.4" r="1.57" fill="#2A2438" opacity="0.044"/><circle cx="15.9" cy="209.4" r="0.83" fill="#2A2438" opacity="0.059"/><circle cx="582.0" cy="440.4" r="1.95" fill="#2A2438" opacity="0.031"/><circle cx="545.1" cy="739.3" r="1.13" fill="#2A2438" opacity="0.078"/><circle cx="454.5" cy="625.6" r="1.86" fill="#2A2438" opacity="0.068"/><circle cx="647.6" cy="527.0" r="1.43" fill="#2A2438" opacity="0.076"/><circle cx="638.5" cy="205.9" r="2.04" fill="#2A2438" opacity="0.064"/><circle cx="307.7" cy="320.7" r="0.69" fill="#2A2438" opacity="0.038"/><circle cx="20.7" cy="198.6" r="1.58" fill="#2A2438" opacity="0.035"/><circle cx="672.1" cy="947.6" r="0.79" fill="#2A2438" opacity="0.041"/><circle cx="762.2" cy="993.5" r="1.27" fill="#2A2438" opacity="0.036"/><circle cx="548.2" cy="689.9" r="1.71" fill="#2A2438" opacity="0.046"/><circle cx="72.6" cy="338.2" r="1.96" fill="#2A2438" opacity="0.037"/><circle cx="763.4" cy="311.9" r="2.00" fill="#2A2438" opacity="0.051"/><circle cx="140.0" cy="984.0" r="1.01" fill="#2A2438" opacity="0.061"/><circle cx="493.5" cy="1009.9" r="1.37" fill="#2A2438" opacity="0.041"/><circle cx="496.2" cy="823.8" r="2.18" fill="#2A2438" opacity="0.075"/><circle cx="336.1" cy="445.2" r="1.85" fill="#2A2438" opacity="0.080"/><circle cx="163.4" cy="980.8" r="0.71" fill="#2A2438" opacity="0.034"/><circle cx="643.2" cy="1010.3" r="1.10" fill="#2A2438" opacity="0.072"/><circle cx="98.0" cy="285.2" r="1.34" fill="#2A2438" opacity="0.069"/><circle cx="337.9" cy="689.1" r="1.58" fill="#2A2438" opacity="0.061"/><circle cx="252.5" cy="786.5" r="1.87" fill="#2A2438" opacity="0.042"/><circle cx="323.9" cy="652.2" r="1.43" fill="#2A2438" opacity="0.077"/><circle cx="249.0" cy="831.7" r="0.77" fill="#2A2438" opacity="0.077"/><circle cx="444.5" cy="862.8" r="1.03" fill="#2A2438" opacity="0.036"/><circle cx="742.0" cy="777.7" r="1.41" fill="#2A2438" opacity="0.064"/><circle cx="289.8" cy="183.3" r="2.03" fill="#2A2438" opacity="0.051"/><circle cx="699.6" cy="680.6" r="1.84" fill="#2A2438" opacity="0.046"/><circle cx="537.1" cy="692.7" r="1.30" fill="#2A2438" opacity="0.032"/><circle cx="679.9" cy="597.6" r="2.00" fill="#2A2438" opacity="0.056"/><circle cx="165.4" cy="336.7" r="1.74" fill="#2A2438" opacity="0.054"/><circle cx="76.5" cy="871.2" r="1.79" fill="#2A2438" opacity="0.053"/><circle cx="320.5" cy="2.3" r="1.59" fill="#2A2438" opacity="0.044"/><circle cx="142.1" cy="121.1" r="1.00" fill="#2A2438" opacity="0.065"/><circle cx="463.6" cy="141.8" r="0.88" fill="#2A2438" opacity="0.039"/><circle cx="609.1" cy="298.4" r="0.67" fill="#2A2438" opacity="0.053"/><circle cx="6.4" cy="96.5" r="1.55" fill="#2A2438" opacity="0.044"/><circle cx="143.1" cy="600.7" r="0.87" fill="#2A2438" opacity="0.042"/><circle cx="0.5" cy="515.3" r="0.91" fill="#2A2438" opacity="0.066"/><circle cx="94.3" cy="111.1" r="1.54" fill="#2A2438" opacity="0.031"/><circle cx="394.4" cy="321.1" r="1.48" fill="#2A2438" opacity="0.078"/><circle cx="586.2" cy="208.8" r="2.03" fill="#2A2438" opacity="0.065"/><circle cx="666.7" cy="936.4" r="1.92" fill="#2A2438" opacity="0.043"/><circle cx="579.7" cy="423.8" r="1.12" fill="#2A2438" opacity="0.050"/><circle cx="299.5" cy="777.6" r="1.58" fill="#2A2438" opacity="0.056"/><circle cx="622.3" cy="400.9" r="1.82" fill="#2A2438" opacity="0.039"/><circle cx="590.3" cy="784.3" r="0.62" fill="#2A2438" opacity="0.061"/><circle cx="420.8" cy="428.3" r="1.91" fill="#2A2438" opacity="0.053"/><circle cx="760.4" cy="715.6" r="0.81" fill="#2A2438" opacity="0.052"/><circle cx="593.0" cy="166.9" r="0.93" fill="#2A2438" opacity="0.071"/><circle cx="551.4" cy="274.8" r="1.08" fill="#2A2438" opacity="0.065"/><circle cx="418.5" cy="578.7" r="1.31" fill="#2A2438" opacity="0.043"/><circle cx="365.8" cy="1011.1" r="2.09" fill="#2A2438" opacity="0.045"/><circle cx="458.6" cy="587.4" r="1.87" fill="#2A2438" opacity="0.048"/><circle cx="12.2" cy="668.2" r="1.42" fill="#2A2438" opacity="0.042"/><circle cx="245.0" cy="172.4" r="1.36" fill="#2A2438" opacity="0.077"/><circle cx="556.2" cy="620.9" r="1.17" fill="#2A2438" opacity="0.046"/><circle cx="599.5" cy="154.7" r="1.07" fill="#2A2438" opacity="0.043"/><circle cx="700.0" cy="231.6" r="1.56" fill="#2A2438" opacity="0.034"/><circle cx="121.2" cy="331.4" r="1.44" fill="#2A2438" opacity="0.035"/><circle cx="248.8" cy="823.0" r="1.15" fill="#2A2438" opacity="0.075"/><circle cx="200.4" cy="444.8" r="1.35" fill="#2A2438" opacity="0.042"/><circle cx="459.3" cy="426.9" r="1.62" fill="#2A2438" opacity="0.043"/><circle cx="253.7" cy="593.9" r="1.44" fill="#2A2438" opacity="0.061"/><circle cx="167.5" cy="752.7" r="1.71" fill="#2A2438" opacity="0.078"/><circle cx="722.9" cy="748.0" r="1.12" fill="#2A2438" opacity="0.071"/><circle cx="678.9" cy="140.8" r="1.26" fill="#2A2438" opacity="0.046"/><circle cx="350.8" cy="227.8" r="1.95" fill="#2A2438" opacity="0.035"/><circle cx="244.5" cy="882.6" r="0.71" fill="#2A2438" opacity="0.064"/><circle cx="728.1" cy="56.5" r="1.02" fill="#2A2438" opacity="0.053"/><circle cx="371.7" cy="247.8" r="1.59" fill="#2A2438" opacity="0.064"/><circle cx="579.7" cy="391.9" r="1.23" fill="#2A2438" opacity="0.052"/><circle cx="409.2" cy="346.2" r="0.92" fill="#2A2438" opacity="0.035"/><circle cx="292.2" cy="552.5" r="0.79" fill="#2A2438" opacity="0.075"/><circle cx="658.4" cy="744.7" r="1.16" fill="#2A2438" opacity="0.060"/><circle cx="140.3" cy="948.0" r="1.32" fill="#2A2438" opacity="0.062"/><circle cx="24.3" cy="747.6" r="2.15" fill="#2A2438" opacity="0.074"/><circle cx="135.9" cy="45.0" r="1.60" fill="#2A2438" opacity="0.077"/><circle cx="110.0" cy="231.8" r="1.53" fill="#2A2438" opacity="0.033"/><circle cx="12.3" cy="175.7" r="2.00" fill="#2A2438" opacity="0.068"/><circle cx="760.9" cy="906.9" r="1.51" fill="#2A2438" opacity="0.035"/><circle cx="512.9" cy="905.4" r="1.25" fill="#2A2438" opacity="0.031"/><circle cx="383.1" cy="236.1" r="1.06" fill="#2A2438" opacity="0.061"/><circle cx="48.0" cy="437.8" r="1.30" fill="#2A2438" opacity="0.036"/><circle cx="725.8" cy="395.3" r="2.07" fill="#2A2438" opacity="0.071"/><circle cx="316.9" cy="287.6" r="1.54" fill="#2A2438" opacity="0.057"/><circle cx="314.7" cy="698.1" r="2.14" fill="#2A2438" opacity="0.064"/><circle cx="105.5" cy="981.9" r="2.00" fill="#2A2438" opacity="0.070"/><circle cx="382.1" cy="852.4" r="1.41" fill="#2A2438" opacity="0.032"/><circle cx="706.8" cy="203.9" r="1.25" fill="#2A2438" opacity="0.070"/><circle cx="230.2" cy="623.1" r="1.87" fill="#2A2438" opacity="0.070"/><circle cx="79.6" cy="826.7" r="1.19" fill="#2A2438" opacity="0.074"/><circle cx="581.7" cy="534.0" r="0.82" fill="#2A2438" opacity="0.076"/><circle cx="175.5" cy="167.2" r="0.85" fill="#2A2438" opacity="0.040"/><circle cx="370.7" cy="50.1" r="2.12" fill="#2A2438" opacity="0.045"/><circle cx="728.9" cy="877.5" r="0.89" fill="#2A2438" opacity="0.043"/><circle cx="228.1" cy="476.0" r="1.10" fill="#2A2438" opacity="0.048"/><circle cx="679.8" cy="129.1" r="2.03" fill="#2A2438" opacity="0.050"/><circle cx="466.2" cy="330.1" r="1.38" fill="#2A2438" opacity="0.074"/><circle cx="542.5" cy="203.9" r="1.12" fill="#2A2438" opacity="0.078"/><circle cx="666.0" cy="544.3" r="0.77" fill="#2A2438" opacity="0.046"/><circle cx="270.1" cy="200.8" r="0.81" fill="#2A2438" opacity="0.056"/><circle cx="598.6" cy="780.5" r="1.81" fill="#2A2438" opacity="0.070"/><circle cx="37.3" cy="137.6" r="1.95" fill="#2A2438" opacity="0.043"/><circle cx="409.8" cy="151.3" r="1.56" fill="#2A2438" opacity="0.066"/><circle cx="715.2" cy="228.1" r="1.50" fill="#2A2438" opacity="0.061"/><circle cx="144.8" cy="348.4" r="1.86" fill="#2A2438" opacity="0.044"/><circle cx="632.1" cy="77.4" r="1.76" fill="#2A2438" opacity="0.068"/><circle cx="700.3" cy="398.5" r="1.22" fill="#2A2438" opacity="0.073"/><circle cx="398.9" cy="790.1" r="0.81" fill="#2A2438" opacity="0.063"/><circle cx="317.1" cy="307.5" r="2.01" fill="#2A2438" opacity="0.042"/><circle cx="50.8" cy="640.7" r="1.18" fill="#2A2438" opacity="0.061"/><circle cx="665.0" cy="447.0" r="1.27" fill="#2A2438" opacity="0.066"/><circle cx="358.1" cy="471.2" r="0.62" fill="#2A2438" opacity="0.050"/><circle cx="247.4" cy="824.0" r="1.30" fill="#2A2438" opacity="0.059"/><circle cx="709.1" cy="935.4" r="1.67" fill="#2A2438" opacity="0.054"/><circle cx="419.6" cy="83.4" r="1.82" fill="#2A2438" opacity="0.036"/><circle cx="113.8" cy="304.8" r="1.53" fill="#2A2438" opacity="0.053"/><circle cx="289.6" cy="62.1" r="1.34" fill="#2A2438" opacity="0.035"/><circle cx="342.2" cy="318.4" r="0.77" fill="#2A2438" opacity="0.070"/><circle cx="524.4" cy="480.7" r="1.74" fill="#2A2438" opacity="0.061"/><circle cx="621.2" cy="701.8" r="1.43" fill="#2A2438" opacity="0.059"/><circle cx="689.5" cy="378.2" r="2.12" fill="#2A2438" opacity="0.050"/><circle cx="127.8" cy="949.7" r="1.76" fill="#2A2438" opacity="0.064"/><circle cx="700.6" cy="287.0" r="0.67" fill="#2A2438" opacity="0.073"/><circle cx="225.7" cy="239.1" r="1.32" fill="#2A2438" opacity="0.069"/><circle cx="280.3" cy="918.3" r="0.96" fill="#2A2438" opacity="0.068"/><circle cx="53.9" cy="303.5" r="1.34" fill="#2A2438" opacity="0.060"/><circle cx="754.2" cy="9.1" r="1.70" fill="#2A2438" opacity="0.060"/><circle cx="440.9" cy="929.9" r="0.68" fill="#2A2438" opacity="0.078"/><circle cx="54.7" cy="422.7" r="1.33" fill="#2A2438" opacity="0.039"/><circle cx="531.1" cy="363.4" r="0.73" fill="#2A2438" opacity="0.039"/><circle cx="557.5" cy="605.5" r="2.01" fill="#2A2438" opacity="0.054"/><circle cx="667.9" cy="364.2" r="1.32" fill="#2A2438" opacity="0.041"/><circle cx="89.1" cy="315.2" r="1.52" fill="#2A2438" opacity="0.050"/><circle cx="744.7" cy="247.0" r="0.85" fill="#2A2438" opacity="0.033"/><circle cx="159.5" cy="27.9" r="0.74" fill="#2A2438" opacity="0.031"/><circle cx="43.6" cy="474.3" r="1.70" fill="#2A2438" opacity="0.036"/><circle cx="573.7" cy="286.2" r="1.85" fill="#2A2438" opacity="0.051"/><circle cx="507.5" cy="242.3" r="1.06" fill="#2A2438" opacity="0.062"/><circle cx="564.8" cy="194.9" r="1.43" fill="#2A2438" opacity="0.059"/><circle cx="332.4" cy="1002.8" r="1.09" fill="#2A2438" opacity="0.038"/><circle cx="195.6" cy="433.4" r="0.87" fill="#2A2438" opacity="0.032"/><circle cx="622.2" cy="582.2" r="0.79" fill="#2A2438" opacity="0.080"/><circle cx="209.0" cy="307.3" r="1.09" fill="#2A2438" opacity="0.078"/><circle cx="248.8" cy="155.0" r="1.00" fill="#2A2438" opacity="0.046"/><circle cx="551.7" cy="418.8" r="1.17" fill="#2A2438" opacity="0.048"/><circle cx="77.0" cy="696.1" r="1.46" fill="#2A2438" opacity="0.045"/><circle cx="236.5" cy="777.4" r="1.50" fill="#2A2438" opacity="0.035"/><circle cx="695.2" cy="679.1" r="0.89" fill="#2A2438" opacity="0.030"/><circle cx="338.3" cy="295.3" r="1.60" fill="#2A2438" opacity="0.051"/><circle cx="468.6" cy="717.6" r="1.08" fill="#2A2438" opacity="0.064"/><circle cx="483.8" cy="304.6" r="0.97" fill="#2A2438" opacity="0.034"/><circle cx="329.7" cy="898.3" r="1.86" fill="#2A2438" opacity="0.045"/><circle cx="15.5" cy="284.6" r="2.17" fill="#2A2438" opacity="0.051"/><circle cx="263.5" cy="714.5" r="1.04" fill="#2A2438" opacity="0.052"/><circle cx="84.5" cy="93.3" r="2.09" fill="#2A2438" opacity="0.078"/><circle cx="499.2" cy="403.3" r="0.95" fill="#2A2438" opacity="0.064"/><circle cx="11.1" cy="497.7" r="1.75" fill="#2A2438" opacity="0.038"/><circle cx="104.4" cy="76.2" r="1.31" fill="#2A2438" opacity="0.070"/><circle cx="432.2" cy="212.8" r="1.56" fill="#2A2438" opacity="0.046"/><circle cx="433.6" cy="627.7" r="1.08" fill="#2A2438" opacity="0.044"/><circle cx="407.2" cy="544.5" r="1.80" fill="#2A2438" opacity="0.054"/><circle cx="651.6" cy="686.9" r="1.65" fill="#2A2438" opacity="0.041"/><circle cx="311.7" cy="425.3" r="0.80" fill="#2A2438" opacity="0.060"/><circle cx="222.5" cy="344.7" r="1.42" fill="#2A2438" opacity="0.055"/><circle cx="606.6" cy="63.6" r="1.80" fill="#2A2438" opacity="0.076"/><circle cx="32.8" cy="974.8" r="1.74" fill="#2A2438" opacity="0.066"/><circle cx="304.8" cy="898.8" r="0.67" fill="#2A2438" opacity="0.076"/><circle cx="591.6" cy="845.7" r="1.31" fill="#2A2438" opacity="0.035"/><circle cx="89.5" cy="786.7" r="1.25" fill="#2A2438" opacity="0.051"/><circle cx="253.3" cy="713.8" r="1.32" fill="#2A2438" opacity="0.049"/><circle cx="430.6" cy="394.9" r="1.20" fill="#2A2438" opacity="0.037"/><circle cx="431.5" cy="893.9" r="2.09" fill="#2A2438" opacity="0.048"/><circle cx="91.6" cy="371.1" r="1.17" fill="#2A2438" opacity="0.057"/><circle cx="717.7" cy="742.7" r="0.95" fill="#2A2438" opacity="0.037"/><circle cx="665.4" cy="984.5" r="1.21" fill="#2A2438" opacity="0.035"/><circle cx="299.7" cy="347.9" r="0.83" fill="#2A2438" opacity="0.058"/><circle cx="319.6" cy="13.2" r="0.60" fill="#2A2438" opacity="0.076"/><circle cx="593.1" cy="792.7" r="1.64" fill="#2A2438" opacity="0.070"/><circle cx="526.2" cy="515.4" r="0.93" fill="#2A2438" opacity="0.037"/><circle cx="223.6" cy="209.2" r="1.77" fill="#2A2438" opacity="0.068"/><circle cx="398.6" cy="486.0" r="1.43" fill="#2A2438" opacity="0.064"/><circle cx="46.7" cy="765.7" r="1.34" fill="#2A2438" opacity="0.074"/><circle cx="694.5" cy="141.6" r="0.93" fill="#2A2438" opacity="0.050"/><circle cx="637.7" cy="306.3" r="2.14" fill="#2A2438" opacity="0.031"/><circle cx="499.6" cy="177.7" r="1.02" fill="#2A2438" opacity="0.068"/><circle cx="505.3" cy="133.5" r="2.20" fill="#2A2438" opacity="0.061"/><circle cx="189.9" cy="658.0" r="1.51" fill="#2A2438" opacity="0.039"/><circle cx="556.2" cy="149.9" r="0.75" fill="#2A2438" opacity="0.055"/><circle cx="379.3" cy="289.4" r="1.30" fill="#2A2438" opacity="0.056"/><circle cx="570.4" cy="278.8" r="1.40" fill="#2A2438" opacity="0.079"/><circle cx="652.0" cy="424.9" r="1.30" fill="#2A2438" opacity="0.052"/><circle cx="466.7" cy="614.4" r="1.39" fill="#2A2438" opacity="0.069"/><circle cx="176.3" cy="327.3" r="1.23" fill="#2A2438" opacity="0.031"/><circle cx="566.4" cy="716.3" r="1.11" fill="#2A2438" opacity="0.066"/><circle cx="340.8" cy="901.0" r="2.19" fill="#2A2438" opacity="0.046"/><circle cx="198.3" cy="741.6" r="1.30" fill="#2A2438" opacity="0.064"/><circle cx="619.7" cy="688.9" r="0.97" fill="#2A2438" opacity="0.071"/><circle cx="116.6" cy="340.9" r="1.24" fill="#2A2438" opacity="0.044"/><circle cx="234.6" cy="994.8" r="1.54" fill="#2A2438" opacity="0.062"/><circle cx="735.7" cy="780.1" r="1.48" fill="#2A2438" opacity="0.033"/><circle cx="198.5" cy="226.2" r="1.10" fill="#2A2438" opacity="0.073"/><circle cx="229.9" cy="348.6" r="1.02" fill="#2A2438" opacity="0.072"/><circle cx="118.7" cy="387.9" r="0.62" fill="#2A2438" opacity="0.037"/><circle cx="275.0" cy="27.6" r="1.57" fill="#2A2438" opacity="0.051"/><circle cx="377.6" cy="779.3" r="1.09" fill="#2A2438" opacity="0.067"/><circle cx="194.4" cy="189.0" r="1.49" fill="#2A2438" opacity="0.047"/><circle cx="756.3" cy="27.3" r="1.17" fill="#2A2438" opacity="0.054"/><circle cx="408.4" cy="234.1" r="2.14" fill="#2A2438" opacity="0.040"/><circle cx="718.6" cy="106.3" r="1.46" fill="#2A2438" opacity="0.036"/><circle cx="288.7" cy="400.5" r="1.37" fill="#2A2438" opacity="0.044"/><circle cx="295.2" cy="705.3" r="1.54" fill="#2A2438" opacity="0.079"/><circle cx="762.4" cy="861.6" r="1.76" fill="#2A2438" opacity="0.045"/><circle cx="177.1" cy="44.5" r="1.00" fill="#2A2438" opacity="0.047"/><circle cx="224.2" cy="312.9" r="2.03" fill="#2A2438" opacity="0.031"/><circle cx="345.3" cy="9.4" r="2.19" fill="#2A2438" opacity="0.037"/><circle cx="229.3" cy="587.5" r="1.27" fill="#2A2438" opacity="0.044"/><circle cx="252.6" cy="649.6" r="1.25" fill="#2A2438" opacity="0.072"/><circle cx="134.3" cy="275.8" r="2.10" fill="#2A2438" opacity="0.031"/><circle cx="53.3" cy="150.1" r="0.74" fill="#2A2438" opacity="0.033"/><circle cx="552.9" cy="451.9" r="0.81" fill="#2A2438" opacity="0.032"/><circle cx="589.6" cy="609.4" r="2.12" fill="#2A2438" opacity="0.050"/><circle cx="477.4" cy="822.7" r="1.43" fill="#2A2438" opacity="0.059"/><circle cx="5.0" cy="735.4" r="1.73" fill="#2A2438" opacity="0.057"/><circle cx="409.3" cy="396.8" r="2.12" fill="#2A2438" opacity="0.077"/><circle cx="9.6" cy="272.9" r="1.86" fill="#2A2438" opacity="0.034"/><circle cx="283.2" cy="432.2" r="1.28" fill="#2A2438" opacity="0.070"/><circle cx="54.1" cy="411.5" r="0.82" fill="#2A2438" opacity="0.052"/><circle cx="100.1" cy="969.4" r="0.93" fill="#2A2438" opacity="0.067"/><circle cx="579.3" cy="591.9" r="0.88" fill="#2A2438" opacity="0.058"/><circle cx="79.9" cy="669.5" r="1.49" fill="#2A2438" opacity="0.063"/><circle cx="8.4" cy="673.7" r="1.46" fill="#2A2438" opacity="0.060"/><circle cx="503.7" cy="359.9" r="1.05" fill="#2A2438" opacity="0.064"/><circle cx="322.1" cy="278.7" r="0.80" fill="#2A2438" opacity="0.042"/><circle cx="515.2" cy="955.1" r="1.82" fill="#2A2438" opacity="0.042"/><circle cx="177.1" cy="934.2" r="0.89" fill="#2A2438" opacity="0.036"/><circle cx="186.9" cy="915.8" r="1.04" fill="#2A2438" opacity="0.040"/><circle cx="594.4" cy="88.1" r="1.82" fill="#2A2438" opacity="0.059"/><circle cx="317.7" cy="1017.4" r="1.01" fill="#2A2438" opacity="0.039"/><circle cx="608.0" cy="450.4" r="1.35" fill="#2A2438" opacity="0.060"/><circle cx="509.1" cy="659.5" r="1.00" fill="#2A2438" opacity="0.052"/><circle cx="414.5" cy="84.0" r="1.70" fill="#2A2438" opacity="0.075"/><circle cx="518.2" cy="366.6" r="0.89" fill="#2A2438" opacity="0.060"/><circle cx="485.8" cy="67.1" r="0.75" fill="#2A2438" opacity="0.039"/><circle cx="750.9" cy="349.5" r="0.69" fill="#2A2438" opacity="0.062"/><circle cx="70.7" cy="16.4" r="0.65" fill="#2A2438" opacity="0.050"/><circle cx="754.4" cy="461.0" r="1.27" fill="#2A2438" opacity="0.076"/><circle cx="632.3" cy="428.0" r="1.87" fill="#2A2438" opacity="0.047"/><circle cx="751.8" cy="984.6" r="1.16" fill="#2A2438" opacity="0.069"/><circle cx="83.6" cy="773.6" r="1.41" fill="#2A2438" opacity="0.045"/><circle cx="281.1" cy="798.0" r="1.96" fill="#2A2438" opacity="0.045"/><circle cx="419.8" cy="588.7" r="1.28" fill="#2A2438" opacity="0.043"/><circle cx="161.5" cy="898.3" r="2.10" fill="#2A2438" opacity="0.031"/><circle cx="698.3" cy="139.6" r="1.22" fill="#2A2438" opacity="0.056"/><circle cx="52.9" cy="790.1" r="1.20" fill="#2A2438" opacity="0.044"/><circle cx="109.5" cy="220.2" r="1.66" fill="#2A2438" opacity="0.078"/><circle cx="131.6" cy="402.1" r="1.52" fill="#2A2438" opacity="0.032"/><circle cx="444.5" cy="246.3" r="1.98" fill="#2A2438" opacity="0.050"/><circle cx="640.7" cy="109.2" r="0.83" fill="#2A2438" opacity="0.064"/></g>
<rect x="30" y="30" width="708" height="964" rx="26" fill="none" stroke="#DFAF4F" stroke-width="2" opacity="0.85"/><rect x="42" y="42" width="684" height="940" rx="20" fill="none" stroke="#DFAF4F" stroke-width="0.8" opacity="0.35"/>
</svg>