<svg xmlns="http://www.w3.org/2000/svg" xmlns:xlink="http://www.w3.org/1999/xlink" width="1216" height="1292" viewBox="0 0 1216 1292">
<rect width="1216" height="1292" fill="#F5F2EB"/>
<g><image href="macbeth.svg" x="24" y="24" width="280" height="374" preserveAspectRatio="xMidYMid meet"/><text x="24" y="420" font-family="monospace" font-size="15" fill="#333">macbeth · emblem-relic</text></g>
<g><image href="moby-dick.svg" x="320" y="24" width="280" height="374" preserveAspectRatio="xMidYMid meet"/><text x="320" y="420" font-family="monospace" font-size="15" fill="#333">moby-dick · horizon-negative-space</text></g>
<g><image href="alice.svg" x="616" y="24" width="280" height="374" preserveAspectRatio="xMidYMid meet"/><text x="616" y="420" font-family="monospace" font-size="15" fill="#333">alice · constellation-cabinet</text></g>
<g><image href="paradise-lost.svg" x="912" y="24" width="280" height="374" preserveAspectRatio="xMidYMid meet"/><text x="912" y="420" font-family="monospace" font-size="15" fill="#333">paradise-lost · threshold-portal</text></g>
<g><image href="divine-comedy.svg" x="24" y="444" width="280" height="374" preserveAspectRatio="xMidYMid meet"/><text x="24" y="840" font-family="monospace" font-size="15" fill="#333">divine-comedy · ascent-journey</text></g>
<g><image href="iliad.svg" x="320" y="444" width="280" height="374" preserveAspectRatio="xMidYMid meet"/><text x="320" y="840" font-family="monospace" font-size="15" fill="#333">iliad · fragment-evidence</text></g>
<g><image href="odyssey.svg" x="616" y="444" width="280" height="374" preserveAspectRatio="xMidYMid meet"/><text x="616" y="840" font-family="monospace" font-size="15" fill="#333">odyssey · map-voyage</text></g>
<g><image href="frankenstein.svg" x="912" y="444" width="280" height="374" preserveAspectRatio="xMidYMid meet"/><text x="912" y="840" font-family="monospace" font-size="15" fill="#333">frankenstein · experiment-spark</text></g>
<g><image href="pride-prejudice.svg" x="24" y="864" width="280" height="374" preserveAspectRatio="xMidYMid meet"/><text x="24" y="1260" font-family="monospace" font-size="15" fill="#333">pride-prejudice · social-geometry-letter</text></g>
<g><image href="jane-eyre.svg" x="320" y="864" width="280" height="374" preserveAspectRatio="xMidYMid meet"/><text x="320" y="1260" font-family="monospace" font-size="15" fill="#333">jane-eyre · window-ember</text></g>
<g><image href="meditations.svg" x="616" y="864" width="280" height="374" preserveAspectRatio="xMidYMid meet"/><text x="616" y="1260" font-family="monospace" font-size="15" fill="#333">meditations · quiet-symbol-tablet</text></g>
<g><image href="republic.svg" x="912" y="864" width="280" height="374" preserveAspectRatio="xMidYMid meet"/><text x="912" y="1260" font-family="monospace" font-size="15" fill="#333">republic · cave-city-light</text></g>
</svg>
