<svg xmlns="http://www.w3.org/2000/svg" width="768" height="1024" viewBox="0 0 768 1024" role="img" aria-label="Original Tome vector cover for The Divine Comedy: concentric gold rings and steps rising toward a small lantern light on a deep umber field.">
<defs><radialGradient id="divine-comedy-glow" cx="0.5" cy="0.5" r="0.5"><stop offset="0" stop-color="#EFC25E" stop-opacity="0.9"/><stop offset="1" stop-color="#EFC25E" stop-opacity="0"/></radialGradient><radialGradient id="divine-comedy-vig" cx="0.5" cy="0.42" r="0.95"><stop offset="0.55" stop-color="#170D08" stop-opacity="0"/><stop offset="1" stop-color="#170D08" stop-opacity="0.38"/></radialGradient></defs>
<rect width="768" height="1024" fill="#26160F"/><path d="M 64 640 A 320 134.4 0 0 1 704 640" fill="none" stroke="#EFC25E" stroke-width="5" stroke-linecap="round" opacity="0.5"/><path d="M 120 548 A 264 110.88 0 0 1 648 548" fill="none" stroke="#7A4A2B" stroke-width="10" stroke-linecap="round" opacity="0.6"/><path d="M 176 456 A 208 87.36 0 0 1 592 456" fill="none" stroke="#EFC25E" stroke-width="5" stroke-linecap="round" opacity="0.7"/><path d="M 232 364 A 152 63.839999999999996 0 0 1 536 364" fill="none" stroke="#7A4A2B" stroke-width="10" stroke-linecap="round" opacity="0.8"/><path d="M 288 272 A 96 40.32 0 0 1 480 272" fill="none" stroke="#EFC25E" stroke-width="5" stroke-linecap="round" opacity="0.9"/><rect x="274" y="830" width="220" height="16" rx="8" fill="#170D08" opacity="0.55"/><rect x="287" y="752" width="194" height="16" rx="8" fill="#170D08" opacity="0.55"/><rect x="300" y="674" width="168" height="16" rx="8" fill="#170D08" opacity="0.55"/><rect x="313" y="596" width="142" height="16" rx="8" fill="#170D08" opacity="0.55"/><rect x="326" y="518" width="116" height="16" rx="8" fill="#170D08" opacity="0.55"/><rect x="339" y="440" width="90" height="16" rx="8" fill="#170D08" opacity="0.55"/><circle cx="384" cy="196" r="86" fill="url(#divine-comedy-glow)"/><rect x="368" y="176" width="32" height="44" rx="9" fill="#EFC25E"/><path d="M 372 176 Q 384 152 396 176" fill="none" stroke="#EFC25E" stroke-width="5"/><circle cx="384" cy="198" r="7" fill="#FFF3D6"/><path d="M 324 250 q 14 -18 30 -6 q 16 -14 30 4" fill="none" stroke="#4E7D5B" stroke-width="5" stroke-linecap="round"/><rect width="768" height="1024" fill="url(#divine-comedy-vig)"/>
<g><circle cx="283.4" cy="169.3" r="1.83" fill="#FFFFFF" opacity="0.032"/><circle cx="508.3" cy="786.4" r="1.84" fill="#FFFFFF" opacity="0.056"/><circle cx="527.4" cy="577.4" r="0.86" fill="#FFFFFF" opacity="0.033"/><circle cx="331.6" cy="760.6" r="1.37" fill="#FFFFFF" opacity="0.055"/><circle cx="265.4" cy="564.3" r="0.79" fill="#FFFFFF" opacity="0.060"/><circle cx="491.2" cy="450.0" r="0.64" fill="#FFFFFF" opacity="0.041"/><circle cx="187.7" cy="811.4" r="0.65" fill="#FFFFFF" opacity="0.043"/><circle cx="635.8" cy="702.5" r="2.12" fill="#FFFFFF" opacity="0.060"/><circle cx="570.0" cy="550.2" r="0.74" fill="#FFFFFF" opacity="0.078"/><circle cx="659.4" cy="460.4" r="0.96" fill="#FFFFFF" opacity="0.049"/><circle cx="175.7" cy="579.6" r="1.31" fill="#FFFFFF" opacity="0.030"/><circle cx="133.3" cy="735.6" r="1.66" fill="#FFFFFF" opacity="0.065"/><circle cx="521.6" cy="432.9" r="1.05" fill="#FFFFFF" opacity="0.031"/><circle cx="762.3" cy="798.9" r="1.55" fill="#FFFFFF" opacity="0.050"/><circle cx="421.6" cy="869.5" r="1.38" fill="#FFFFFF" opacity="0.045"/><circle cx="48.3" cy="773.5" r="1.39" fill="#FFFFFF" opacity="0.035"/><circle cx="219.5" cy="476.8" r="0.62" fill="#FFFFFF" opacity="0.066"/><circle cx="742.7" cy="223.9" r="1.57" fill="#FFFFFF" opacity="0.058"/><circle cx="189.1" cy="958.8" r="0.66" fill="#FFFFFF" opacity="0.072"/><circle cx="27.8" cy="798.4" r="1.45" fill="#FFFFFF" opacity="0.050"/><circle cx="6.8" cy="939.7" r="1.09" fill="#FFFFFF" opacity="0.039"/><circle cx="467.4" cy="854.3" r="1.59" fill="#FFFFFF" opacity="0.044"/><circle cx="757.0" cy="555.0" r="0.80" fill="#FFFFFF" opacity="0.051"/><circle cx="103.0" cy="786.3" r="1.74" fill="#FFFFFF" opacity="0.073"/><circle cx="581.0" cy="47.7" r="1.58" fill="#FFFFFF" opacity="0.072"/><circle cx="92.7" cy="875.9" r="1.03" fill="#FFFFFF" opacity="0.060"/><circle cx="2.7" cy="46.0" r="0.70" fill="#FFFFFF" opacity="0.042"/><circle cx="716.9" cy="433.9" r="1.17" fill="#FFFFFF" opacity="0.033"/><circle cx="684.3" cy="996.3" r="2.12" fill="#FFFFFF" opacity="0.070"/><circle cx="186.8" cy="763.6" r="1.03" fill="#FFFFFF" opacity="0.073"/><circle cx="300.8" cy="839.2" r="1.28" fill="#FFFFFF" opacity="0.079"/><circle cx="252.7" cy="265.9" r="0.97" fill="#FFFFFF" opacity="0.043"/><circle cx="649.9" cy="164.8" r="1.33" fill="#FFFFFF" opacity="0.045"/><circle cx="615.1" cy="519.3" r="2.02" fill="#FFFFFF" opacity="0.047"/><circle cx="30.9" cy="326.8" r="0.95" fill="#FFFFFF" opacity="0.051"/><circle cx="399.9" cy="678.4" r="1.75" fill="#FFFFFF" opacity="0.073"/><circle cx="185.0" cy="973.8" r="1.28" fill="#FFFFFF" opacity="0.059"/><circle cx="603.3" cy="156.7" r="1.29" fill="#FFFFFF" opacity="0.056"/><circle cx="539.8" cy="590.7" r="1.37" fill="#FFFFFF" opacity="0.035"/><circle cx="295.1" cy="801.1" r="1.18" fill="#FFFFFF" opacity="0.038"/><circle cx="385.0" cy="154.0" r="1.30" fill="#FFFFFF" opacity="0.080"/><circle cx="303.0" cy="938.3" r="1.25" fill="#FFFFFF" opacity="0.079"/><circle cx="741.1" cy="943.8" r="1.99" fill="#FFFFFF" opacity="0.036"/><circle cx="226.7" cy="216.9" r="1.25" fill="#FFFFFF" opacity="0.062"/><circle cx="69.3" cy="994.7" r="2.04" fill="#FFFFFF" opacity="0.061"/><circle cx="465.7" cy="520.0" r="2.11" fill="#FFFFFF" opacity="0.069"/><circle cx="173.7" cy="33.8" r="1.86" fill="#FFFFFF" opacity="0.048"/><circle cx="458.5" cy="247.8" r="2.05" fill="#FFFFFF" opacity="0.077"/><circle cx="421.9" cy="160.5" r="1.36" fill="#FFFFFF" opacity="0.061"/><circle cx="618.3" cy="180.4" r="1.59" fill="#FFFFFF" opacity="0.072"/><circle cx="671.9" cy="524.3" r="1.48" fill="#FFFFFF" opacity="0.040"/><circle cx="258.5" cy="903.2" r="1.19" fill="#FFFFFF" opacity="0.050"/><circle cx="347.6" cy="491.3" r="1.47" fill="#FFFFFF" opacity="0.069"/><circle cx="385.6" cy="144.9" r="0.73" fill="#FFFFFF" opacity="0.079"/><circle cx="107.1" cy="729.2" r="1.89" fill="#FFFFFF" opacity="0.030"/><circle cx="611.0" cy="836.9" r="1.71" fill="#FFFFFF" opacity="0.032"/><circle cx="284.4" cy="280.7" r="1.45" fill="#FFFFFF" opacity="0.031"/><circle cx="218.2" cy="620.5" r="0.76" fill="#FFFFFF" opacity="0.046"/><circle cx="296.3" cy="436.0" r="1.34" fill="#FFFFFF" opacity="0.052"/><circle cx="307.7" cy="800.3" r="1.86" fill="#FFFFFF" opacity="0.060"/><circle cx="166.9" cy="561.2" r="1.37" fill="#FFFFFF" opacity="0.031"/><circle cx="531.2" cy="426.6" r="2.19" fill="#FFFFFF" opacity="0.075"/><circle cx="341.8" cy="563.8" r="0.65" fill="#FFFFFF" opacity="0.049"/><circle cx="728.9" cy="397.4" r="1.81" fill="#FFFFFF" opacity="0.036"/><circle cx="508.1" cy="193.6" r="1.64" fill="#FFFFFF" opacity="0.058"/><circle cx="138.5" cy="837.7" r="1.45" fill="#FFFFFF" opacity="0.061"/><circle cx="292.6" cy="176.4" r="1.24" fill="#FFFFFF" opacity="0.044"/><circle cx="5.0" cy="387.5" r="1.07" fill="#FFFFFF" opacity="0.048"/><circle cx="350.0" cy="62.8" r="2.08" fill="#FFFFFF" opacity="0.072"/><circle cx="432.9" cy="440.9" r="0.69" fill="#FFFFFF" opacity="0.047"/><circle cx="92.2" cy="953.3" r="2.15" fill="#FFFFFF" opacity="0.047"/><circle cx="742.7" cy="828.1" r="1.67" fill="#FFFFFF" opacity="0.041"/><circle cx="355.0" cy="684.2" r="1.55" fill="#FFFFFF" opacity="0.030"/><circle cx="138.1" cy="315.2" r="1.62" fill="#FFFFFF" opacity="0.070"/><circle cx="698.7" cy="376.9" r="0.71" fill="#FFFFFF" opacity="0.043"/><circle cx="652.6" cy="710.5" r="1.54" fill="#FFFFFF" opacity="0.034"/><circle cx="658.8" cy="355.4" r="0.93" fill="#FFFFFF" opacity="0.052"/><circle cx="737.7" cy="321.1" r="1.82" fill="#FFFFFF" opacity="0.068"/><circle cx="161.9" cy="714.8" r="1.33" fill="#FFFFFF" opacity="0.079"/><circle cx="728.6" cy="946.2" r="0.78" fill="#FFFFFF" opacity="0.076"/><circle cx="215.0" cy="125.8" r="1.42" fill="#FFFFFF" opacity="0.038"/><circle cx="475.9" cy="711.6" r="0.60" fill="#FFFFFF" opacity="0.054"/><circle cx="174.0" cy="988.5" r="1.38" fill="#FFFFFF" opacity="0.074"/><circle cx="58.1" cy="984.2" r="1.09" fill="#FFFFFF" opacity="0.050"/><circle cx="361.5" cy="504.5" r="0.86" fill="#FFFFFF" opacity="0.043"/><circle cx="150.7" cy="747.5" r="0.64" fill="#FFFFFF" opacity="0.063"/><circle cx="345.7" cy="160.0" r="1.53" fill="#FFFFFF" opacity="0.078"/><circle cx="166.7" cy="417.1" r="0.99" fill="#FFFFFF" opacity="0.041"/><circle cx="301.3" cy="443.4" r="1.54" fill="#FFFFFF" opacity="0.070"/><circle cx="622.5" cy="162.5" r="2.04" fill="#FFFFFF" opacity="0.035"/><circle cx="753.6" cy="420.5" r="1.08" fill="#FFFFFF" opacity="0.076"/><circle cx="336.8" cy="197.6" r="1.01" fill="#FFFFFF" opacity="0.079"/><circle cx="565.1" cy="531.8" r="2.14" fill="#FFFFFF" opacity="0.042"/><circle cx="408.0" cy="178.2" r="1.79" fill="#FFFFFF" opacity="0.073"/><circle cx="469.0" cy="766.3" r="1.81" fill="#FFFFFF" opacity="0.077"/><circle cx="735.4" cy="704.6" r="1.49" fill="#FFFFFF" opacity="0.064"/><circle cx="446.4" cy="717.2" r="1.79" fill="#FFFFFF" opacity="0.067"/><circle cx="615.3" cy="384.1" r="0.66" fill="#FFFFFF" opacity="0.079"/><circle cx="621.5" cy="511.6" r="1.00" fill="#FFFFFF" opacity="0.078"/><circle cx="486.9" cy="262.2" r="0.96" fill="#FFFFFF" opacity="0.043"/><circle cx="286.8" cy="869.1" r="0.91" fill="#FFFFFF" opacity="0.037"/><circle cx="736.6" cy="369.4" r="2.04" fill="#FFFFFF" opacity="0.070"/><circle cx="320.1" cy="644.8" r="0.88" fill="#FFFFFF" opacity="0.034"/><circle cx="290.6" cy="89.8" r="1.31" fill="#FFFFFF" opacity="0.061"/><circle cx="159.6" cy="926.2" r="0.86" fill="#FFFFFF" opacity="0.043"/><circle cx="67.9" cy="54.1" r="1.70" fill="#FFFFFF" opacity="0.030"/><circle cx="728.1" cy="643.0" r="1.88" fill="#FFFFFF" opacity="0.053"/><circle cx="151.2" cy="175.0" r="1.24" fill="#FFFFFF" opacity="0.056"/><circle cx="436.7" cy="717.2" r="1.68" fill="#FFFFFF" opacity="0.043"/><circle cx="720.6" cy="340.0" r="0.89" fill="#FFFFFF" opacity="0.033"/><circle cx="425.3" cy="929.5" r="1.34" fill="#FFFFFF" opacity="0.059"/><circle cx="255.0" cy="89.8" r="1.07" fill="#FFFFFF" opacity="0.074"/><circle cx="171.1" cy="783.1" r="1.46" fill="#FFFFFF" opacity="0.045"/><circle cx="367.6" cy="931.4" r="1.42" fill="#FFFFFF" opacity="0.068"/><circle cx="48.9" cy="857.0" r="2.12" fill="#FFFFFF" opacity="0.077"/><circle cx="757.0" cy="363.7" r="0.75" fill="#FFFFFF" opacity="0.064"/><circle cx="765.3" cy="364.2" r="0.74" fill="#FFFFFF" opacity="0.041"/><circle cx="528.8" cy="945.8" r="1.88" fill="#FFFFFF" opacity="0.053"/><circle cx="244.0" cy="202.9" r="1.36" fill="#FFFFFF" opacity="0.036"/><circle cx="520.9" cy="147.7" r="1.36" fill="#FFFFFF" opacity="0.034"/><circle cx="439.8" cy="129.9" r="2.17" fill="#FFFFFF" opacity="0.075"/><circle cx="705.4" cy="1022.5" r="0.71" fill="#FFFFFF" opacity="0.046"/><circle cx="46.2" cy="183.7" r="1.11" fill="#FFFFFF" opacity="0.067"/><circle cx="556.2" cy="321.1" r="1.57" fill="#FFFFFF" opacity="0.042"/><circle cx="467.9" cy="185.4" r="1.20" fill="#FFFFFF" opacity="0.065"/><circle cx="345.0" cy="706.7" r="2.07" fill="#FFFFFF" opacity="0.049"/><circle cx="9.6" cy="42.1" r="1.12" fill="#FFFFFF" opacity="0.062"/><circle cx="260.8" cy="512.5" r="1.70" fill="#FFFFFF" opacity="0.074"/><circle cx="425.6" cy="512.7" r="0.85" fill="#FFFFFF" opacity="0.033"/><circle cx="280.5" cy="113.4" r="1.07" fill="#FFFFFF" opacity="0.075"/><circle cx="628.5" cy="201.9" r="2.11" fill="#FFFFFF" opacity="0.059"/><circle cx="137.3" cy="427.0" r="0.67" fill="#FFFFFF" opacity="0.046"/><circle cx="733.4" cy="1.0" r="0.65" fill="#FFFFFF" opacity="0.045"/><circle cx="39.6" cy="256.5" r="1.19" fill="#FFFFFF" opacity="0.043"/><circle cx="193.2" cy="561.5" r="1.83" fill="#FFFFFF" opacity="0.060"/><circle cx="656.8" cy="271.4" r="2.06" fill="#FFFFFF" opacity="0.040"/><circle cx="653.6" cy="461.2" r="1.00" fill="#FFFFFF" opacity="0.059"/><circle cx="445.7" cy="159.9" r="1.20" fill="#FFFFFF" opacity="0.035"/><circle cx="451.1" cy="284.8" r="1.34" fill="#FFFFFF" opacity="0.070"/><circle cx="79.2" cy="382.1" r="1.84" fill="#FFFFFF" opacity="0.075"/><circle cx="755.7" cy="248.4" r="0.81" fill="#FFFFFF" opacity="0.060"/><circle cx="465.5" cy="275.3" r="0.84" fill="#FFFFFF" opacity="0.065"/><circle cx="384.2" cy="525.6" r="1.21" fill="#FFFFFF" opacity="0.065"/><circle cx="150.1" cy="498.4" r="1.13" fill="#FFFFFF" opacity="0.075"/><circle cx="333.7" cy="17.8" r="0.69" fill="#FFFFFF" opacity="0.056"/><circle cx="670.9" cy="788.0" r="0.83" fill="#FFFFFF" opacity="0.066"/><circle cx="349.9" cy="1003.0" r="1.70" fill="#FFFFFF" opacity="0.046"/><circle cx="343.3" cy="549.8" r="1.59" fill="#FFFFFF" opacity="0.074"/><circle cx="502.5" cy="487.5" r="2.06" fill="#FFFFFF" opacity="0.061"/><circle cx="471.1" cy="938.3" r="1.34" fill="#FFFFFF" opacity="0.052"/><circle cx="127.4" cy="330.9" r="1.92" fill="#FFFFFF" opacity="0.040"/><circle cx="325.8" cy="742.6" r="0.87" fill="#FFFFFF" opacity="0.077"/><circle cx="31.4" cy="578.2" r="2.14" fill="#FFFFFF" opacity="0.057"/><circle cx="92.8" cy="234.5" r="2.11" fill="#FFFFFF" opacity="0.042"/><circle cx="571.2" cy="530.6" r="1.60" fill="#FFFFFF" opacity="0.037"/><circle cx="718.3" cy="614.9" r="0.98" fill="#FFFFFF" opacity="0.074"/><circle cx="532.6" cy="461.4" r="1.23" fill="#FFFFFF" opacity="0.036"/><circle cx="177.4" cy="30.7" r="1.67" fill="#FFFFFF" opacity="0.049"/><circle cx="420.0" cy="810.9" r="0.67" fill="#FFFFFF" opacity="0.070"/><circle cx="692.2" cy="443.9" r="1.94" fill="#FFFFFF" opacity="0.073"/><circle cx="597.6" cy="417.6" r="2.09" fill="#FFFFFF" opacity="0.048"/><circle cx="230.6" cy="971.7" r="2.16" fill="#FFFFFF" opacity="0.038"/><circle cx="754.5" cy="531.0" r="1.26" fill="#FFFFFF" opacity="0.051"/><circle cx="475.8" cy="277.4" r="2.00" fill="#FFFFFF" opacity="0.047"/><circle cx="676.4" cy="743.2" r="1.89" fill="#FFFFFF" opacity="0.065"/><circle cx="763.2" cy="379.9" r="1.92" fill="#FFFFFF" opacity="0.064"/><circle cx="438.1" cy="349.7" r="0.78" fill="#FFFFFF" opacity="0.080"/><circle cx="476.0" cy="319.7" r="1.65" fill="#FFFFFF" opacity="0.059"/><circle cx="630.3" cy="159.5" r="0.65" fill="#FFFFFF" opacity="0.071"/><circle cx="327.6" cy="829.5" r="1.92" fill="#FFFFFF" opacity="0.058"/><circle cx="700.4" cy="205.3" r="1.18" fill="#FFFFFF" opacity="0.062"/><circle cx="602.4" cy="155.5" r="1.65" fill="#FFFFFF" opacity="0.048"/><circle cx="113.3" cy="173.7" r="0.72" fill="#FFFFFF" opacity="0.075"/><circle cx="15.2" cy="754.6" r="1.04" fill="#FFFFFF" opacity="0.038"/><circle cx="296.3" cy="611.5" r="1.55" fill="#FFFFFF" opacity="0.048"/><circle cx="178.4" cy="619.4" r="1.82" fill="#FFFFFF" opacity="0.066"/><circle cx="694.5" cy="875.3" r="0.68" fill="#FFFFFF" opacity="0.067"/><circle cx="455.2" cy="1022.1" r="1.38" fill="#FFFFFF" opacity="0.040"/><circle cx="149.6" cy="653.0" r="0.82" fill="#FFFFFF" opacity="0.058"/><circle cx="208.0" cy="698.3" r="1.09" fill="#FFFFFF" opacity="0.046"/><circle cx="629.0" cy="892.9" r="1.82" fill="#FFFFFF" opacity="0.077"/><circle cx="431.4" cy="998.9" r="2.16" fill="#FFFFFF" opacity="0.037"/><circle cx="617.4" cy="580.4" r="1.28" fill="#FFFFFF" opacity="0.076"/><circle cx="450.2" cy="465.2" r="1.08" fill="#FFFFFF" opacity="0.032"/><circle cx="620.0" cy="733.7" r="1.97" fill="#FFFFFF" opacity="0.072"/><circle cx="391.9" cy="115.2" r="1.45" fill="#FFFFFF" opacity="0.031"/><circle cx="597.2" cy="593.0" r="2.17" fill="#FFFFFF" opacity="0.067"/><circle cx="594.5" cy="201.8" r="1.60" fill="#FFFFFF" opacity="0.059"/><circle cx="529.4" cy="883.6" r="2.12" fill="#FFFFFF" opacity="0.053"/><circle cx="316.4" cy="695.1" r="1.78" fill="#FFFFFF" opacity="0.060"/><circle cx="612.6" cy="411.6" r="0.63" fill="#FFFFFF" opacity="0.038"/><circle cx="410.3" cy="945.4" r="2.17" fill="#FFFFFF" opacity="0.046"/><circle cx="602.8" cy="600.2" r="0.99" fill="#FFFFFF" opacity="0.045"/><circle cx="25.3" cy="312.2" r="1.09" fill="#FFFFFF" opacity="0.046"/><circle cx="582.0" cy="743.3" r="2.11" fill="#FFFFFF" opacity="0.049"/><circle cx="398.4" cy="54.4" r="1.13" fill="#FFFFFF" opacity="0.049"/><circle cx="377.6" cy="466.8" r="1.04" fill="#FFFFFF" opacity="0.035"/><circle cx="751.8" cy="509.3" r="1.36" fill="#FFFFFF" opacity="0.038"/><circle cx="439.7" cy="894.7" r="1.19" fill="#FFFFFF" opacity="0.032"/><circle cx="193.9" cy="849.7" r="1.72" fill="#FFFFFF" opacity="0.070"/><circle cx="99.3" cy="525.5" r="1.99" fill="#FFFFFF" opacity="0.043"/><circle cx="206.5" cy="263.8" r="2.19" fill="#FFFFFF" opacity="0.047"/><circle cx="385.3" cy="607.0" r="0.65" fill="#FFFFFF" opacity="0.035"/><circle cx="708.4" cy="849.0" r="1.80" fill="#FFFFFF" opacity="0.052"/><circle cx="274.4" cy="88.0" r="1.13" fill="#FFFFFF" opacity="0.069"/><circle cx="190.8" cy="855.8" r="1.21" fill="#FFFFFF" opacity="0.043"/><circle cx="622.0" cy="419.0" r="1.76" fill="#FFFFFF" opacity="0.034"/><circle cx="451.4" cy="462.6" r="0.72" fill="#FFFFFF" opacity="0.079"/><circle cx="633.9" cy="701.2" r="0.95" fill="#FFFFFF" opacity="0.069"/><circle cx="25.0" cy="809.6" r="1.12" fill="#FFFFFF" opacity="0.076"/><circle cx="485.5" cy="558.6" r="0.61" fill="#FFFFFF" opacity="0.053"/><circle cx="281.9" cy="222.2" r="2.17" fill="#FFFFFF" opacity="0.045"/><circle cx="296.4" cy="437.8" r="1.18" fill="#FFFFFF" opacity="0.035"/><circle cx="416.3" cy="205.5" r="1.99" fill="#FFFFFF" opacity="0.043"/><circle cx="219.4" cy="922.4" r="0.77" fill="#FFFFFF" opacity="0.054"/><circle cx="381.6" cy="51.7" r="1.44" fill="#FFFFFF" opacity="0.068"/><circle cx="499.6" cy="465.7" r="1.58" fill="#FFFFFF" opacity="0.058"/><circle cx="266.9" cy="697.9" r="1.97" fill="#FFFFFF" opacity="0.040"/><circle cx="210.6" cy="762.0" r="1.49" fill="#FFFFFF" opacity="0.071"/><circle cx="12.9" cy="84.3" r="0.86" fill="#FFFFFF" opacity="0.060"/><circle cx="644.0" cy="11.4" r="1.84" fill="#FFFFFF" opacity="0.031"/><circle cx="647.3" cy="804.0" r="1.34" fill="#FFFFFF" opacity="0.071"/><circle cx="53.2" cy="794.9" r="1.08" fill="#FFFFFF" opacity="0.035"/><circle cx="197.5" cy="877.4" r="2.15" fill="#FFFFFF" opacity="0.078"/><circle cx="72.2" cy="225.1" r="0.74" fill="#FFFFFF" opacity="0.065"/><circle cx="479.0" cy="255.7" r="0.63" fill="#FFFFFF" opacity="0.067"/><circle cx="682.4" cy="967.1" r="0.94" fill="#FFFFFF" opacity="0.049"/><circle cx="397.1" cy="121.0" r="2.01" fill="#FFFFFF" opacity="0.031"/><circle cx="530.3" cy="334.9" r="2.09" fill="#FFFFFF" opacity="0.042"/><circle cx="84.2" cy="20.8" r="1.80" fill="#FFFFFF" opacity="0.071"/><circle cx="424.0" cy="26.4" r="1.50" fill="#FFFFFF" opacity="0.064"/><circle cx="690.5" cy="510.3" r="1.27" fill="#FFFFFF" opacity="0.076"/><circle cx="534.5" cy="66.6" r="1.01" fill="#FFFFFF" opacity="0.070"/><circle cx="421.8" cy="908.8" r="0.78" fill="#FFFFFF" opacity="0.039"/><circle cx="746.4" cy="449.2" r="1.78" fill="#FFFFFF" opacity="0.060"/><circle cx="262.0" cy="310.1" r="1.47" fill="#FFFFFF" opacity="0.047"/><circle cx="375.5" cy="741.6" r="0.64" fill="#FFFFFF" opacity="0.062"/><circle cx="664.8" cy="657.4" r="1.40" fill="#FFFFFF" opacity="0.051"/><circle cx="641.2" cy="252.7" r="0.64" fill="#FFFFFF" opacity="0.057"/><circle cx="334.7" cy="460.9" r="2.17" fill="#FFFFFF" opacity="0.052"/><circle cx="401.9" cy="168.3" r="1.32" fill="#FFFFFF" opacity="0.066"/><circle cx="642.6" cy="658.7" r="1.97" fill="#FFFFFF" opacity="0.039"/><circle cx="290.8" cy="308.9" r="1.12" fill="#FFFFFF" opacity="0.059"/><circle cx="199.7" cy="440.9" r="1.58" fill="#FFFFFF" opacity="0.049"/><circle cx="80.6" cy="645.0" r="1.37" fill="#FFFFFF" opacity="0.053"/><circle cx="545.4" cy="607.1" r="1.20" fill="#FFFFFF" opacity="0.079"/><circle cx="728.9" cy="833.0" r="0.67" fill="#FFFFFF" opacity="0.077"/><circle cx="765.6" cy="888.8" r="1.25" fill="#FFFFFF" opacity="0.041"/><circle cx="246.5" cy="671.8" r="1.36" fill="#FFFFFF" opacity="0.030"/><circle cx="271.7" cy="635.9" r="2.03" fill="#FFFFFF" opacity="0.043"/><circle cx="331.2" cy="25.6" r="1.53" fill="#FFFFFF" opacity="0.070"/><circle cx="421.2" cy="900.9" r="1.53" fill="#FFFFFF" opacity="0.078"/><circle cx="682.8" cy="656.7" r="1.93" fill="#FFFFFF" opacity="0.037"/><circle cx="225.9" cy="605.7" r="1.69" fill="#FFFFFF" opacity="0.038"/><circle cx="541.9" cy="201.3" r="1.19" fill="#FFFFFF" opacity="0.066"/><circle cx="510.4" cy="623.4" r="1.01" fill="#FFFFFF" opacity="0.078"/><circle cx="59.6" cy="985.1" r="1.84" fill="#FFFFFF" opacity="0.044"/><circle cx="222.3" cy="593.7" r="1.62" fill="#FFFFFF" opacity="0.068"/><circle cx="591.4" cy="324.3" r="1.77" fill="#FFFFFF" opacity="0.053"/><circle cx="758.6" cy="921.7" r="2.18" fill="#FFFFFF" opacity="0.065"/><circle cx="349.3" cy="647.1" r="2.15" fill="#FFFFFF" opacity="0.062"/><circle cx="290.4" cy="1.4" r="1.26" fill="#FFFFFF" opacity="0.045"/><circle cx="643.7" cy="426.7" r="0.96" fill="#FFFFFF" opacity="0.040"/><circle cx="540.8" cy="755.8" r="0.94" fill="#FFFFFF" opacity="0.064"/><circle cx="405.5" cy="917.5" r="0.92" fill="#FFFFFF" opacity="0.064"/><circle cx="383.3" cy="181.4" r="2.00" fill="#FFFFFF" opacity="0.045"/><circle cx="605.6" cy="811.2" r="0.75" fill="#FFFFFF" opacity="0.038"/><circle cx="320.5" cy="716.7" r="1.15" fill="#FFFFFF" opacity="0.050"/><circle cx="612.1" cy="771.4" r="1.13" fill="#FFFFFF" opacity="0.076"/><circle cx="585.3" cy="844.8" r="2.12" fill="#FFFFFF" opacity="0.050"/><circle cx="659.9" cy="794.0" r="1.21" fill="#FFFFFF" opacity="0.033"/><circle cx="111.6" cy="521.2" r="1.16" fill="#FFFFFF" opacity="0.058"/><circle cx="422.0" cy="445.1" r="0.83" fill="#FFFFFF" opacity="0.065"/><circle cx="71.4" cy="256.7" r="0.61" fill="#FFFFFF" opacity="0.033"/><circle cx="100.8" cy="888.6" r="1.50" fill="#FFFFFF" opacity="0.037"/><circle cx="721.9" cy="524.5" r="0.97" fill="#FFFFFF" opacity="0.041"/><circle cx="212.5" cy="178.1" r="1.23" fill="#FFFFFF" opacity="0.074"/><circle cx="347.2" cy="961.1" r="1.69" fill="#FFFFFF" opacity="0.054"/><circle cx="224.1" cy="64.4" r="1.43" fill="#FFFFFF" opacity="0.077"/><circle cx="278.2" cy="1021.8" r="1.92" fill="#FFFFFF" opacity="0.033"/><circle cx="211.6" cy="733.9" r="1.96" fill="#FFFFFF" opacity="0.041"/><circle cx="226.0" cy="733.3" r="0.75" fill="#FFFFFF" opacity="0.051"/><circle cx="30.4" cy="667.0" r="1.04" fill="#FFFFFF" opacity="0.052"/><circle cx="26.6" cy="557.9" r="1.70" fill="#FFFFFF" opacity="0.076"/><circle cx="722.9" cy="574.1" r="1.03" fill="#FFFFFF" opacity="0.064"/><circle cx="39.2" cy="319.7" r="1.30" fill="#FFFFFF" opacity="0.047"/><circle cx="422.0" cy="639.8" r="0.60" fill="#FFFFFF" opacity="0.042"/><circle cx="47.9" cy="128.0" r="1.31" fill="#FFFFFF" opacity="0.031"/><circle cx="406.4" cy="369.0" r="1.78" fill="#FFFFFF" opacity="0.032"/><circle cx="620.7" cy="452.1" r="1.83" fill="#FFFFFF" opacity="0.041"/><circle cx="368.5" cy="924.3" r="0.84" fill="#FFFFFF" opacity="0.048"/><circle cx="292.9" cy="831.0" r="2.00" fill="#FFFFFF" opacity="0.072"/><circle cx="485.3" cy="842.2" r="0.83" fill="#FFFFFF" opacity="0.070"/><circle cx="649.7" cy="39.6" r="1.68" fill="#FFFFFF" opacity="0.046"/><circle cx="523.3" cy="135.9" r="1.86" fill="#FFFFFF" opacity="0.072"/><circle cx="660.6" cy="306.4" r="1.80" fill="#FFFFFF" opacity="0.046"/><circle cx="99.0" cy="578.3" r="0.80" fill="#FFFFFF" opacity="0.054"/><circle cx="619.6" cy="304.2" r="1.00" fill="#FFFFFF" opacity="0.045"/><circle cx="282.5" cy="790.1" r="1.05" fill="#FFFFFF" opacity="0.059"/><circle cx="309.2" cy="932.7" r="1.72" fill="#FFFFFF" opacity="0.043"/><circle cx="57.6" cy="215.4" r="1.83" fill="#FFFFFF" opacity="0.061"/><circle cx="39.2" cy="207.5" r="1.98" fill="#FFFFFF" opacity="0.034"/><circle cx="33.0" cy="598.1" r="1.90" fill="#FFFFFF" opacity="0.048"/><circle cx="381.2" cy="208.8" r="2.05" fill="#FFFFFF" opacity="0.047"/><circle cx="189.1" cy="877.6" r="1.71" fill="#FFFFFF" opacity="0.075"/><circle cx="236.4" cy="938.7" r="1.27" fill="#FFFFFF" opacity="0.043"/><circle cx="316.0" cy="30.3" r="1.93" fill="#FFFFFF" opacity="0.038"/><circle cx="151.7" cy="326.4" r="1.88" fill="#FFFFFF" opacity="0.052"/><circle cx="239.9" cy="603.4" r="0.80" fill="#FFFFFF" opacity="0.051"/><circle cx="452.2" cy="855.9" r="1.87" fill="#FFFFFF" opacity="0.053"/><circle cx="661.3" cy="856.1" r="1.40" fill="#FFFFFF" opacity="0.057"/><circle cx="590.2" cy="915.8" r="1.73" fill="#FFFFFF" opacity="0.062"/><circle cx="499.8" cy="503.4" r="1.61" fill="#FFFFFF" opacity="0.034"/><circle cx="523.3" cy="963.9" r="1.71" fill="#FFFFFF" opacity="0.072"/><circle cx="503.9" cy="79.3" r="1.80" fill="#FFFFFF" opacity="0.070"/><circle cx="315.0" cy="26.3" r="1.18" fill="#FFFFFF" opacity="0.054"/><circle cx="509.1" cy="182.7" r="1.19" fill="#FFFFFF" opacity="0.056"/><circle cx="364.8" cy="16.3" r="1.58" fill="#FFFFFF" opacity="0.041"/><circle cx="195.4" cy="157.5" r="2.20" fill="#FFFFFF" opacity="0.054"/><circle cx="320.2" cy="136.3" r="0.92" fill="#FFFFFF" opacity="0.073"/><circle cx="695.3" cy="96.0" r="1.75" fill="#FFFFFF" opacity="0.050"/><circle cx="505.4" cy="26.3" r="1.25" fill="#FFFFFF" opacity="0.044"/><circle cx="234.5" cy="766.8" r="1.14" fill="#FFFFFF" opacity="0.031"/><circle cx="277.2" cy="357.3" r="1.11" fill="#FFFFFF" opacity="0.036"/><circle cx="19.3" cy="6.6" r="1.58" fill="#FFFFFF" opacity="0.058"/><circle cx="436.0" cy="907.7" r="1.48" fill="#FFFFFF" opacity="0.067"/><circle cx="454.7" cy="549.3" r="1.57" fill="#FFFFFF" opacity="0.031"/><circle cx="149.9" cy="214.0" r="1.30" fill="#FFFFFF" opacity="0.041"/><circle cx="74.7" cy="537.0" r="0.79" fill="#FFFFFF" opacity="0.051"/><circle cx="705.6" cy="270.5" r="1.51" fill="#FFFFFF" opacity="0.062"/><circle cx="401.7" cy="155.5" r="2.14" fill="#FFFFFF" opacity="0.035"/><circle cx="567.2" cy="444.5" r="1.03" fill="#FFFFFF" opacity="0.047"/><circle cx="423.2" cy="962.5" r="1.64" fill="#FFFFFF" opacity="0.066"/><circle cx="480.6" cy="556.1" r="1.04" fill="#FFFFFF" opacity="0.055"/><circle cx="385.4" cy="188.2" r="2.11" fill="#FFFFFF" opacity="0.036"/><circle cx="372.1" cy="368.1" r="2.20" fill="#FFFFFF" opacity="0.031"/><circle cx="664.8" cy="41.2" r="0.98" fill="#FFFFFF" opacity="0.057"/><circle cx="205.1" cy="779.9" r="0.64" fill="#FFFFFF" opacity="0.057"/><circle cx="339.2" cy="320.8" r="2.07" fill="#FFFFFF" opacity="0.075"/><circle cx="494.2" cy="789.4" r="1.70" fill="#FFFFFF" opacity="0.035"/><circle cx="509.6" cy="121.5" r="0.74" fill="#FFFFFF" opacity="0.030"/><circle cx="459.0" cy="197.0" r="1.99" fill="#FFFFFF" opacity="0.065"/><circle cx="412.8" cy="98.6" r="1.75" fill="#FFFFFF" opacity="0.079"/><circle cx="602.3" cy="461.3" r="2.10" fill="#FFFFFF" opacity="0.080"/><circle cx="191.3" cy="727.1" r="1.31" fill="#FFFFFF" opacity="0.077"/><circle cx="242.9" cy="21.9" r="1.91" fill="#FFFFFF" opacity="0.045"/><circle cx="123.4" cy="924.5" r="1.08" fill="#FFFFFF" opacity="0.045"/><circle cx="96.9" cy="430.8" r="0.69" fill="#FFFFFF" opacity="0.050"/><circle cx="285.4" cy="26.9" r="1.39" fill="#FFFFFF" opacity="0.040"/><circle cx="65.8" cy="720.0" r="1.64" fill="#FFFFFF" opacity="0.046"/><circle cx="342.8" cy="284.1" r="1.97" fill="#FFFFFF" opacity="0.039"/><circle cx="45.6" cy="910.9" r="1.00" fill="#FFFFFF" opacity="0.054"/><circle cx="192.4" cy="259.7" r="0.92" fill="#FFFFFF" opacity="0.032"/><circle cx="104.0" cy="842.1" r="1.92" fill="#FFFFFF" opacity="0.064"/><circle cx="587.3" cy="124.8" r="0.95" fill="#FFFFFF" opacity="0.049"/><circle cx="433.8" cy="204.5" r="2.19" fill="#FFFFFF" opacity="0.043"/><circle cx="252.2" cy="222.2" r="0.79" fill="#FFFFFF" opacity="0.048"/><circle cx="246.0" cy="993.7" r="0.90" fill="#FFFFFF" opacity="0.078"/><circle cx="767.6" cy="433.1" r="1.08" fill="#FFFFFF" opacity="0.069"/><circle cx="475.8" cy="386.5" r="1.67" fill="#FFFFFF" opacity="0.039"/><circle cx="615.8" cy="408.3" r="2.11" fill="#FFFFFF" opacity="0.033"/><circle cx="0.8" cy="884.5" r="1.53" fill="#FFFFFF" opacity="0.072"/><circle cx="17.8" cy="885.1" r="1.98" fill="#FFFFFF" opacity="0.030"/><circle cx="667.4" cy="143.9" r="1.16" fill="#FFFFFF" opacity="0.065"/><circle cx="285.4" cy="687.8" r="1.11" fill="#FFFFFF" opacity="0.043"/><circle cx="686.1" cy="118.5" r="1.08" fill="#FFFFFF" opacity="0.033"/><circle cx="128.0" cy="525.8" r="1.37" fill="#FFFFFF" opacity="0.071"/><circle cx="170.7" cy="472.4" r="0.78" fill="#FFFFFF" opacity="0.030"/><circle cx="138.6" cy="357.0" r="0.96" fill="#FFFFFF" opacity="0.035"/><circle cx="325.4" cy="991.5" r="1.71" fill="#FFFFFF" opacity="0.049"/><circle cx="413.4" cy="894.7" r="0.72" fill="#FFFFFF" opacity="0.075"/><circle cx="725.8" cy="38.0" r="0.88" fill="#FFFFFF" opacity="0.033"/><circle cx="294.3" cy="136.3" r="2.07" fill="#FFFFFF" opacity="0.075"/><circle cx="570.5" cy="29.1" r="0.98" fill="#FFFFFF" opacity="0.073"/><circle cx="224.9" cy="653.2" r="1.81" fill="#FFFFFF" opacity="0.053"/><circle cx="367.3" cy="459.4" r="1.47" fill="#FFFFFF" opacity="0.058"/><circle cx="604.1" cy="529.3" r="1.30" fill="#FFFFFF" opacity="0.044"/><circle cx="312.1" cy="174.1" r="1.47" fill="#FFFFFF" opacity="0.036"/><circle cx="690.5" cy="654.7" r="1.90" fill="#FFFFFF" opacity="0.031"/><circle cx="751.1" cy="10.6" r="1.30" fill="#FFFFFF" opacity="0.033"/><circle cx="460.8" cy="671.9" r="1.05" fill="#FFFFFF" opacity="0.037"/><circle cx="465.0" cy="719.5" r="1.20" fill="#FFFFFF" opacity="0.042"/><circle cx="110.7" cy="779.3" r="1.64" fill="#FFFFFF" opacity="0.031"/><circle cx="732.9" cy="152.9" r="0.75" fill="#FFFFFF" opacity="0.055"/><circle cx="764.1" cy="720.9" r="1.14" fill="#FFFFFF" opacity="0.064"/><circle cx="84.5" cy="783.8" r="1.05" fill="#FFFFFF" opacity="0.064"/><circle cx="681.6" cy="25.5" r="0.82" fill="#FFFFFF" opacity="0.079"/><circle cx="526.4" cy="530.7" r="1.63" fill="#FFFFFF" opacity="0.048"/><circle cx="154.4" cy="952.7" r="0.87" fill="#FFFFFF" opacity="0.061"/><circle cx="439.2" cy="890.7" r="2.07" fill="#FFFFFF" opacity="0.077"/><circle cx="326.9" cy="468.7" r="1.55" fill="#FFFFFF" opacity="0.064"/><circle cx="178.1" cy="851.0" r="1.75" fill="#FFFFFF" opacity="0.058"/><circle cx="180.7" cy="151.7" r="0.94" fill="#FFFFFF" opacity="0.072"/><circle cx="455.5" cy="966.7" r="1.00" fill="#FFFFFF" opacity="0.079"/><circle cx="539.4" cy="852.8" r="1.80" fill="#FFFFFF" opacity="0.044"/><circle cx="7.4" cy="551.3" r="1.53" fill="#FFFFFF" opacity="0.068"/><circle cx="402.1" cy="954.2" r="1.94" fill="#FFFFFF" opacity="0.066"/><circle cx="156.9" cy="849.6" r="0.61" fill="#FFFFFF" opacity="0.074"/><circle cx="442.9" cy="728.0" r="2.03" fill="#FFFFFF" opacity="0.058"/><circle cx="32.4" cy="806.1" r="2.19" fill="#FFFFFF" opacity="0.030"/><circle cx="157.3" cy="3.1" r="1.25" fill="#FFFFFF" opacity="0.032"/><circle cx="85.4" cy="836.5" r="1.19" fill="#FFFFFF" opacity="0.073"/><circle cx="32.0" cy="927.5" r="2.10" fill="#FFFFFF" opacity="0.064"/><circle cx="166.6" cy="953.3" r="1.83" fill="#FFFFFF" opacity="0.042"/><circle cx="37.9" cy="710.2" r="1.71" fill="#FFFFFF" opacity="0.049"/><circle cx="97.3" cy="625.6" r="1.06" fill="#FFFFFF" opacity="0.071"/><circle cx="585.9" cy="689.7" r="1.13" fill="#FFFFFF" opacity="0.059"/><circle cx="22.8" cy="718.8" r="0.65" fill="#FFFFFF" opacity="0.055"/><circle cx="398.2" cy="490.6" r="0.91" fill="#FFFFFF" opacity="0.056"/><circle cx="276.5" cy="784.9" r="2.02" fill="#FFFFFF" opacity="0.056"/><circle cx="397.5" cy="463.1" r="1.37" fill="#FFFFFF" opacity="0.049"/><circle cx="432.3" cy="434.7" r="1.69" fill="#FFFFFF" opacity="0.043"/><circle cx="311.3" cy="560.7" r="0.72" fill="#FFFFFF" opacity="0.064"/><circle cx="747.7" cy="564.2" r="1.54" fill="#FFFFFF" opacity="0.049"/><circle cx="389.4" cy="608.8" r="1.28" fill="#FFFFFF" opacity="0.051"/><circle cx="378.9" cy="263.0" r="1.46" fill="#FFFFFF" opacity="0.053"/><circle cx="494.6" cy="252.4" r="1.46" fill="#FFFFFF" opacity="0.032"/><circle cx="301.0" cy="231.4" r="1.35" fill="#FFFFFF" opacity="0.037"/><circle cx="423.8" cy="1022.5" r="2.14" fill="#FFFFFF" opacity="0.051"/><circle cx="255.1" cy="904.6" r="0.83" fill="#FFFFFF" opacity="0.032"/><circle cx="749.3" cy="389.5" r="1.93" fill="#FFFFFF" opacity="0.037"/><circle cx="676.8" cy="698.8" r="0.83" fill="#FFFFFF" opacity="0.037"/><circle cx="694.7" cy="762.8" r="1.88" fill="#FFFFFF" opacity="0.035"/><circle cx="514.8" cy="387.6" r="0.77" fill="#FFFFFF" opacity="0.040"/><circle cx="198.1" cy="342.0" r="1.69" fill="#FFFFFF" opacity="0.072"/><circle cx="339.8" cy="137.6" r="1.33" fill="#FFFFFF" opacity="0.073"/><circle cx="308.0" cy="499.1" r="2.18" fill="#FFFFFF" opacity="0.039"/><circle cx="190.2" cy="823.5" r="1.08" fill="#FFFFFF" opacity="0.053"/><circle cx="551.9" cy="151.7" r="2.18" fill="#FFFFFF" opacity="0.040"/><circle cx="633.4" cy="752.7" r="0.89" fill="#FFFFFF" opacity="0.060"/><circle cx="115.4" cy="176.5" r="1.58" fill="#FFFFFF" opacity="0.064"/><circle cx="347.4" cy="703.3" r="1.58" fill="#FFFFFF" opacity="0.065"/><circle cx="373.8" cy="406.8" r="1.75" fill="#FFFFFF" opacity="0.074"/><circle cx="279.6" cy="340.9" r="1.05" fill="#FFFFFF" opacity="0.037"/><circle cx="578.9" cy="112.0" r="1.87" fill="#FFFFFF" opacity="0.076"/><circle cx="750.7" cy="862.1" r="0.82" fill="#FFFFFF" opacity="0.054"/><circle cx="648.0" cy="490.4" r="1.94" fill="#FFFFFF" opacity="0.061"/><circle cx="582.6" cy="380.1" r="2.11" fill="#FFFFFF" opacity="0.053"/><circle cx="198.1" cy="319.3" r="2.00" fill="#FFFFFF" opacity="0.032"/><circle cx="231.5" cy="470.2" r="1.58" fill="#FFFFFF" opacity="0.035"/><circle cx="607.1" cy="417.7" r="1.86" fill="#FFFFFF" opacity="0.072"/><circle cx="475.4" cy="618.8" r="1.68" fill="#FFFFFF" opacity="0.047"/><circle cx="643.1" cy="563.1" r="1.57" fill="#FFFFFF" opacity="0.052"/><circle cx="265.3" cy="750.5" r="0.62" fill="#FFFFFF" opacity="0.044"/><circle cx="114.6" cy="467.4" r="0.72" fill="#FFFFFF" opacity="0.059"/><circle cx="199.9" cy="1013.2" r="1.74" fill="#FFFFFF" opacity="0.047"/><circle cx="269.3" cy="646.7" r="1.98" fill="#FFFFFF" opacity="0.041"/><circle cx="348.4" cy="635.9" r="1.02" fill="#FFFFFF" opacity="0.071"/><circle cx="510.1" cy="542.5" r="1.02" fill="#FFFFFF" opacity="0.048"/><circle cx="185.3" cy="290.0" r="1.08" fill="#FFFFFF" opacity="0.052"/><circle cx="340.8" cy="291.2" r="1.79" fill="#FFFFFF" opacity="0.037"/><circle cx="294.4" cy="548.8" r="0.78" fill="#FFFFFF" opacity="0.047"/><circle cx="99.3" cy="419.6" r="2.11" fill="#FFFFFF" opacity="0.050"/><circle cx="599.5" cy="97.9" r="0.92" fill="#FFFFFF" opacity="0.068"/><circle cx="462.3" cy="316.3" r="0.80" fill="#FFFFFF" opacity="0.032"/><circle cx="402.1" cy="38.9" r="1.90" fill="#FFFFFF" opacity="0.050"/><circle cx="392.1" cy="131.2" r="1.51" fill="#FFFFFF" opacity="0.056"/><circle cx="43.5" cy="858.2" r="1.79" fill="#FFFFFF" opacity="0.062"/><circle cx="673.6" cy="906.5" r="2.05" fill="#FFFFFF" opacity="0.059"/><circle cx="195.0" cy="798.5" r="0.78" fill="#FFFFFF" opacity="0.080"/><circle cx="104.2" cy="795.5" r="1.81" fill="#FFFFFF" opacity="0.038"/><circle cx="732.1" cy="76.0" r="1.61" fill="#FFFFFF" opacity="0.037"/><circle cx="690.6" cy="1001.4" r="1.76" fill="#FFFFFF" opacity="0.076"/><circle cx="54.2" cy="239.3" r="1.35" fill="#FFFFFF" opacity="0.057"/><circle cx="760.7" cy="634.5" r="1.63" fill="#FFFFFF" opacity="0.071"/><circle cx="71.5" cy="167.5" r="0.73" fill="#FFFFFF" opacity="0.059"/><circle cx="388.6" cy="490.3" r="1.48" fill="#FFFFFF" opacity="0.079"/><circle cx="66.5" cy="494.2" r="0.71" fill="#FFFFFF" opacity="0.072"/><circle cx="256.3" cy="520.1" r="1.20" fill="#FFFFFF" opacity="0.043"/><circle cx="301.1" cy="844.4" r="2.07" fill="#FFFFFF" opacity="0.053"/><circle cx="456.8" cy="659.5" r="1.02" fill="#FFFFFF" opacity="0.075"/><circle cx="514.1" cy="412.4" r="1.48" fill="#FFFFFF" opacity="0.045"/><circle cx="182.2" cy="237.1" r="2.13" fill="#FFFFFF" opacity="0.076"/><circle cx="230.9" cy="743.7" r="1.88" fill="#FFFFFF" opacity="0.058"/><circle cx="252.6" cy="266.8" r="0.90" fill="#FFFFFF" opacity="0.032"/><circle cx="15.4" cy="811.3" r="1.46" fill="#FFFFFF" opacity="0.036"/><circle cx="753.6" cy="419.5" r="0.82" fill="#FFFFFF" opacity="0.048"/><circle cx="739.4" cy="457.8" r="1.85" fill="#FFFFFF" opacity="0.046"/><circle cx="598.8" cy="78.1" r="2.10" fill="#FFFFFF" opacity="0.032"/><circle cx="124.5" cy="20.5" r="1.62" fill="#FFFFFF" opacity="0.043"/><circle cx="174.7" cy="1023.4" r="0.96" fill="#FFFFFF" opacity="0.037"/><circle cx="153.8" cy="899.5" r="1.65" fill="#FFFFFF" opacity="0.073"/><circle cx="368.6" cy="895.6" r="1.29" fill="#FFFFFF" opacity="0.040"/><circle cx="620.4" cy="855.5" r="1.76" fill="#FFFFFF" opacity="0.052"/><circle cx="717.4" cy="180.4" r="1.74" fill="#FFFFFF" opacity="0.066"/><circle cx="723.2" cy="662.5" r="1.55" fill="#FFFFFF" opacity="0.036"/><circle cx="68.3" cy="345.3" r="0.71" fill="#FFFFFF" opacity="0.052"/><circle cx="545.4" cy="36.0" r="2.06" fill="#FFFFFF" opacity="0.049"/><circle cx="408.3" cy="912.1" r="1.80" fill="#FFFFFF" opacity="0.030"/><circle cx="311.0" cy="547.3" r="1.39" fill="#FFFFFF" opacity="0.034"/><circle cx="632.0" cy="409.3" r="1.86" fill="#FFFFFF" opacity="0.063"/><circle cx="381.1" cy="393.1" r="1.20" fill="#FFFFFF" opacity="0.056"/><circle cx="469.1" cy="323.9" r="0.97" fill="#FFFFFF" opacity="0.063"/><circle cx="232.1" cy="963.9" r="1.50" fill="#FFFFFF" opacity="0.053"/><circle cx="636.1" cy="283.6" r="2.11" fill="#FFFFFF" opacity="0.076"/><circle cx="206.2" cy="637.9" r="0.67" fill="#FFFFFF" opacity="0.052"/><circle cx="520.8" cy="985.5" r="1.52" fill="#FFFFFF" opacity="0.048"/><circle cx="4.5" cy="273.7" r="0.74" fill="#FFFFFF" opacity="0.055"/><circle cx="430.5" cy="742.6" r="1.24" fill="#FFFFFF" opacity="0.037"/><circle cx="43.0" cy="185.6" r="0.87" fill="#FFFFFF" opacity="0.039"/><circle cx="442.8" cy="391.1" r="1.03" fill="#FFFFFF" opacity="0.031"/><circle cx="373.5" cy="807.3" r="2.11" fill="#FFFFFF" opacity="0.057"/><circle cx="662.1" cy="842.5" r="1.18" fill="#FFFFFF" opacity="0.063"/><circle cx="318.4" cy="336.6" r="0.98" fill="#FFFFFF" opacity="0.076"/><circle cx="177.7" cy="1012.9" r="1.67" fill="#FFFFFF" opacity="0.031"/><circle cx="204.0" cy="883.6" r="1.63" fill="#FFFFFF" opacity="0.068"/><circle cx="356.6" cy="437.7" r="1.25" fill="#FFFFFF" opacity="0.050"/><circle cx="96.7" cy="553.1" r="1.41" fill="#FFFFFF" opacity="0.047"/><circle cx="645.1" cy="840.7" r="1.42" fill="#FFFFFF" opacity="0.031"/><circle cx="429.9" cy="49.1" r="1.08" fill="#FFFFFF" opacity="0.047"/><circle cx="88.8" cy="171.6" r="1.40" fill="#FFFFFF" opacity="0.034"/><circle cx="160.0" cy="797.0" r="1.97" fill="#FFFFFF" opacity="0.069"/><circle cx="108.8" cy="163.7" r="1.45" fill="#FFFFFF" opacity="0.063"/><circle cx="80.0" cy="595.7" r="0.78" fill="#FFFFFF" opacity="0.048"/><circle cx="598.3" cy="205.1" r="2.08" fill="#FFFFFF" opacity="0.057"/><circle cx="274.8" cy="598.2" r="1.52" fill="#FFFFFF" opacity="0.063"/><circle cx="767.4" cy="2.1" r="2.17" fill="#FFFFFF" opacity="0.073"/><circle cx="276.3" cy="799.3" r="0.78" fill="#FFFFFF" opacity="0.066"/><circle cx="302.6" cy="666.3" r="1.68" fill="#FFFFFF" opacity="0.043"/><circle cx="735.0" cy="337.5" r="1.24" fill="#FFFFFF" opacity="0.072"/></g>
<rect x="30" y="30" width="708" height="964" rx="26" fill="none" stroke="#EFC25E" stroke-width="2" opacity="0.85"/><rect x="42" y="42" width="684" height="940" rx="20" fill="none" stroke="#EFC25E" stroke-width="0.8" opacity="0.35"/>
</svg>