<svg xmlns="http://www.w3.org/2000/svg" width="768" height="1024" viewBox="0 0 768 1024" role="img" aria-label="Original Tome vector cover for Frankenstein: dark alpine peaks under a pale moon, crossed by a single cyan spark line.">
<defs><radialGradient id="frankenstein-moon" cx="0.5" cy="0.5" r="0.5"><stop offset="0" stop-color="#EAF6F6"/><stop offset="1" stop-color="#EAF6F6" stop-opacity="0"/></radialGradient><radialGradient id="frankenstein-vig" cx="0.5" cy="0.42" r="0.95"><stop offset="0.55" stop-color="#070F16" stop-opacity="0"/><stop offset="1" stop-color="#070F16" stop-opacity="0.38"/></radialGradient></defs>
<rect width="768" height="1024" fill="#101C26"/><circle cx="600" cy="200" r="96" fill="url(#frankenstein-moon)"/><circle cx="600" cy="200" r="52" fill="#EAF6F6"/><path d="M 0 760 L 150 470 L 260 660 L 390 400 L 520 640 L 640 500 L 768 700 L 768 1024 L 0 1024 Z" fill="#070F16"/><path d="M 150 470 L 200 560 L 120 560 Z" fill="#23455A"/><path d="M 390 400 L 450 520 L 330 520 Z" fill="#23455A"/><path d="M 640 500 L 690 590 L 596 590 Z" fill="#23455A"/><path d="M 90 830 L 190 700 L 280 760 L 390 560 L 480 640 L 590 460 L 690 520" fill="none" stroke="#5FD3D0" stroke-width="6" stroke-linejoin="round" stroke-linecap="round"/><circle cx="90" cy="830" r="7" fill="#5FD3D0" opacity="0.7"/><circle cx="190" cy="700" r="7" fill="#5FD3D0" opacity="0.7"/><circle cx="280" cy="760" r="7" fill="#5FD3D0" opacity="0.7"/><circle cx="390" cy="560" r="12" fill="#5FD3D0" opacity="0.95"/><circle cx="480" cy="640" r="7" fill="#5FD3D0" opacity="0.7"/><circle cx="590" cy="460" r="7" fill="#5FD3D0" opacity="0.7"/><circle cx="690" cy="520" r="7" fill="#5FD3D0" opacity="0.7"/><circle cx="390" cy="560" r="34" fill="#5FD3D0" opacity="0.2"/><rect width="768" height="1024" fill="url(#frankenstein-vig)"/>
<g><circle cx="553.2" cy="932.9" r="0.76" fill="#FFFFFF" opacity="0.045"/><circle cx="50.3" cy="406.6" r="1.26" fill="#FFFFFF" opacity="0.046"/><circle cx="529.8" cy="348.7" r="0.85" fill="#FFFFFF" opacity="0.077"/><circle cx="285.3" cy="216.9" r="1.64" fill="#FFFFFF" opacity="0.049"/><circle cx="596.2" cy="809.4" r="2.12" fill="#FFFFFF" opacity="0.033"/><circle cx="11.6" cy="28.8" r="0.75" fill="#FFFFFF" opacity="0.075"/><circle cx="148.9" cy="876.7" r="1.39" fill="#FFFFFF" opacity="0.067"/><circle cx="437.3" cy="505.9" r="1.22" fill="#FFFFFF" opacity="0.076"/><circle cx="686.0" cy="563.4" r="1.13" fill="#FFFFFF" opacity="0.072"/><circle cx="448.6" cy="871.3" r="1.16" fill="#FFFFFF" opacity="0.031"/><circle cx="529.9" cy="630.4" r="1.60" fill="#FFFFFF" opacity="0.051"/><circle cx="124.3" cy="764.8" r="1.53" fill="#FFFFFF" opacity="0.045"/><circle cx="599.7" cy="291.5" r="1.89" fill="#FFFFFF" opacity="0.060"/><circle cx="452.8" cy="135.1" r="1.37" fill="#FFFFFF" opacity="0.038"/><circle cx="509.6" cy="385.8" r="2.04" fill="#FFFFFF" opacity="0.051"/><circle cx="87.6" cy="123.5" r="1.08" fill="#FFFFFF" opacity="0.049"/><circle cx="281.3" cy="681.8" r="2.11" fill="#FFFFFF" opacity="0.042"/><circle cx="493.1" cy="136.7" r="1.63" fill="#FFFFFF" opacity="0.035"/><circle cx="197.3" cy="261.8" r="1.64" fill="#FFFFFF" opacity="0.058"/><circle cx="462.7" cy="92.7" r="1.40" fill="#FFFFFF" opacity="0.047"/><circle cx="657.7" cy="829.4" r="1.54" fill="#FFFFFF" opacity="0.077"/><circle cx="757.3" cy="590.2" r="0.76" fill="#FFFFFF" opacity="0.049"/><circle cx="363.1" cy="889.9" r="1.41" fill="#FFFFFF" opacity="0.063"/><circle cx="531.9" cy="1000.2" r="1.21" fill="#FFFFFF" opacity="0.049"/><circle cx="415.3" cy="256.2" r="1.63" fill="#FFFFFF" opacity="0.054"/><circle cx="396.0" cy="685.3" r="1.49" fill="#FFFFFF" opacity="0.031"/><circle cx="589.5" cy="171.8" r="1.84" fill="#FFFFFF" opacity="0.047"/><circle cx="324.1" cy="114.3" r="1.12" fill="#FFFFFF" opacity="0.041"/><circle cx="436.1" cy="337.0" r="1.51" fill="#FFFFFF" opacity="0.031"/><circle cx="118.4" cy="284.9" r="1.54" fill="#FFFFFF" opacity="0.044"/><circle cx="328.8" cy="884.8" r="1.29" fill="#FFFFFF" opacity="0.079"/><circle cx="274.0" cy="371.1" r="2.15" fill="#FFFFFF" opacity="0.072"/><circle cx="60.6" cy="760.5" r="1.12" fill="#FFFFFF" opacity="0.061"/><circle cx="80.9" cy="953.0" r="1.11" fill="#FFFFFF" opacity="0.059"/><circle cx="516.8" cy="377.7" r="1.31" fill="#FFFFFF" opacity="0.043"/><circle cx="82.0" cy="859.1" r="0.86" fill="#FFFFFF" opacity="0.077"/><circle cx="24.4" cy="586.7" r="0.89" fill="#FFFFFF" opacity="0.054"/><circle cx="438.1" cy="602.5" r="0.85" fill="#FFFFFF" opacity="0.074"/><circle cx="129.2" cy="606.0" r="1.24" fill="#FFFFFF" opacity="0.037"/><circle cx="467.7" cy="578.4" r="1.24" fill="#FFFFFF" opacity="0.071"/><circle cx="633.6" cy="407.9" r="0.62" fill="#FFFFFF" opacity="0.065"/><circle cx="652.3" cy="646.7" r="1.42" fill="#FFFFFF" opacity="0.079"/><circle cx="391.7" cy="559.2" r="1.43" fill="#FFFFFF" opacity="0.035"/><circle cx="308.0" cy="453.4" r="1.08" fill="#FFFFFF" opacity="0.068"/><circle cx="181.6" cy="202.0" r="1.91" fill="#FFFFFF" opacity="0.031"/><circle cx="334.9" cy="921.3" r="0.98" fill="#FFFFFF" opacity="0.066"/><circle cx="258.5" cy="544.1" r="1.17" fill="#FFFFFF" opacity="0.050"/><circle cx="477.6" cy="871.7" r="1.59" fill="#FFFFFF" opacity="0.044"/><circle cx="344.5" cy="884.8" r="2.06" fill="#FFFFFF" opacity="0.049"/><circle cx="648.2" cy="93.5" r="0.84" fill="#FFFFFF" opacity="0.070"/><circle cx="650.9" cy="234.3" r="1.16" fill="#FFFFFF" opacity="0.078"/><circle cx="399.0" cy="133.7" r="2.18" fill="#FFFFFF" opacity="0.054"/><circle cx="615.4" cy="169.9" r="1.03" fill="#FFFFFF" opacity="0.069"/><circle cx="221.5" cy="607.8" r="2.17" fill="#FFFFFF" opacity="0.037"/><circle cx="256.3" cy="374.6" r="1.75" fill="#FFFFFF" opacity="0.045"/><circle cx="646.8" cy="604.5" r="2.16" fill="#FFFFFF" opacity="0.073"/><circle cx="623.3" cy="363.5" r="0.75" fill="#FFFFFF" opacity="0.031"/><circle cx="546.1" cy="651.8" r="0.79" fill="#FFFFFF" opacity="0.049"/><circle cx="363.4" cy="318.1" r="1.41" fill="#FFFFFF" opacity="0.070"/><circle cx="742.8" cy="219.4" r="0.79" fill="#FFFFFF" opacity="0.073"/><circle cx="341.5" cy="914.4" r="1.22" fill="#FFFFFF" opacity="0.041"/><circle cx="762.9" cy="120.4" r="2.16" fill="#FFFFFF" opacity="0.050"/><circle cx="743.1" cy="382.8" r="1.91" fill="#FFFFFF" opacity="0.073"/><circle cx="558.9" cy="465.7" r="0.89" fill="#FFFFFF" opacity="0.048"/><circle cx="573.0" cy="856.0" r="1.64" fill="#FFFFFF" opacity="0.068"/><circle cx="107.4" cy="38.5" r="1.63" fill="#FFFFFF" opacity="0.073"/><circle cx="398.8" cy="856.5" r="1.71" fill="#FFFFFF" opacity="0.068"/><circle cx="661.8" cy="876.5" r="1.02" fill="#FFFFFF" opacity="0.032"/><circle cx="376.8" cy="278.0" r="1.59" fill="#FFFFFF" opacity="0.053"/><circle cx="515.0" cy="428.4" r="1.44" fill="#FFFFFF" opacity="0.033"/><circle cx="430.5" cy="708.5" r="2.02" fill="#FFFFFF" opacity="0.050"/><circle cx="61.2" cy="917.1" r="1.99" fill="#FFFFFF" opacity="0.040"/><circle cx="493.0" cy="122.1" r="1.30" fill="#FFFFFF" opacity="0.056"/><circle cx="679.8" cy="675.3" r="0.81" fill="#FFFFFF" opacity="0.070"/><circle cx="449.8" cy="920.8" r="0.66" fill="#FFFFFF" opacity="0.043"/><circle cx="696.1" cy="31.1" r="0.77" fill="#FFFFFF" opacity="0.040"/><circle cx="92.3" cy="223.5" r="1.66" fill="#FFFFFF" opacity="0.055"/><circle cx="220.2" cy="189.2" r="1.22" fill="#FFFFFF" opacity="0.076"/><circle cx="456.6" cy="882.0" r="1.73" fill="#FFFFFF" opacity="0.074"/><circle cx="506.9" cy="153.5" r="1.01" fill="#FFFFFF" opacity="0.050"/><circle cx="372.0" cy="802.2" r="0.90" fill="#FFFFFF" opacity="0.073"/><circle cx="604.2" cy="919.1" r="1.96" fill="#FFFFFF" opacity="0.055"/><circle cx="575.3" cy="366.0" r="1.49" fill="#FFFFFF" opacity="0.061"/><circle cx="61.4" cy="96.7" r="1.23" fill="#FFFFFF" opacity="0.040"/><circle cx="384.9" cy="447.3" r="1.38" fill="#FFFFFF" opacity="0.057"/><circle cx="548.6" cy="299.0" r="1.13" fill="#FFFFFF" opacity="0.067"/><circle cx="9.7" cy="482.3" r="1.65" fill="#FFFFFF" opacity="0.044"/><circle cx="457.4" cy="916.3" r="2.16" fill="#FFFFFF" opacity="0.072"/><circle cx="682.4" cy="537.3" r="1.46" fill="#FFFFFF" opacity="0.046"/><circle cx="104.1" cy="236.9" r="1.42" fill="#FFFFFF" opacity="0.047"/><circle cx="42.9" cy="42.8" r="1.07" fill="#FFFFFF" opacity="0.051"/><circle cx="625.0" cy="395.5" r="1.16" fill="#FFFFFF" opacity="0.056"/><circle cx="546.7" cy="958.2" r="1.65" fill="#FFFFFF" opacity="0.059"/><circle cx="730.8" cy="779.7" r="0.88" fill="#FFFFFF" opacity="0.062"/><circle cx="308.8" cy="391.7" r="0.94" fill="#FFFFFF" opacity="0.045"/><circle cx="184.1" cy="596.7" r="1.06" fill="#FFFFFF" opacity="0.057"/><circle cx="639.1" cy="293.3" r="0.85" fill="#FFFFFF" opacity="0.079"/><circle cx="526.3" cy="715.0" r="1.61" fill="#FFFFFF" opacity="0.032"/><circle cx="167.4" cy="287.5" r="1.79" fill="#FFFFFF" opacity="0.061"/><circle cx="747.6" cy="493.4" r="1.88" fill="#FFFFFF" opacity="0.060"/><circle cx="695.9" cy="860.4" r="0.83" fill="#FFFFFF" opacity="0.039"/><circle cx="440.9" cy="546.8" r="1.16" fill="#FFFFFF" opacity="0.041"/><circle cx="236.6" cy="889.4" r="1.38" fill="#FFFFFF" opacity="0.059"/><circle cx="168.5" cy="557.6" r="1.85" fill="#FFFFFF" opacity="0.074"/><circle cx="573.5" cy="612.9" r="0.93" fill="#FFFFFF" opacity="0.032"/><circle cx="84.8" cy="903.4" r="1.06" fill="#FFFFFF" opacity="0.040"/><circle cx="285.0" cy="924.9" r="0.85" fill="#FFFFFF" opacity="0.076"/><circle cx="719.8" cy="187.5" r="1.96" fill="#FFFFFF" opacity="0.042"/><circle cx="706.1" cy="739.8" r="1.81" fill="#FFFFFF" opacity="0.031"/><circle cx="416.2" cy="500.6" r="1.21" fill="#FFFFFF" opacity="0.052"/><circle cx="67.2" cy="68.2" r="1.98" fill="#FFFFFF" opacity="0.046"/><circle cx="336.6" cy="146.0" r="1.79" fill="#FFFFFF" opacity="0.079"/><circle cx="245.8" cy="756.6" r="2.04" fill="#FFFFFF" opacity="0.077"/><circle cx="433.3" cy="142.8" r="0.65" fill="#FFFFFF" opacity="0.056"/><circle cx="656.4" cy="385.0" r="0.89" fill="#FFFFFF" opacity="0.070"/><circle cx="259.6" cy="795.5" r="1.58" fill="#FFFFFF" opacity="0.045"/><circle cx="36.5" cy="1013.2" r="1.39" fill="#FFFFFF" opacity="0.039"/><circle cx="748.8" cy="722.5" r="0.78" fill="#FFFFFF" opacity="0.047"/><circle cx="649.7" cy="445.4" r="1.73" fill="#FFFFFF" opacity="0.048"/><circle cx="601.5" cy="343.8" r="1.67" fill="#FFFFFF" opacity="0.058"/><circle cx="541.7" cy="441.0" r="1.39" fill="#FFFFFF" opacity="0.068"/><circle cx="669.1" cy="924.9" r="1.06" fill="#FFFFFF" opacity="0.058"/><circle cx="573.6" cy="942.7" r="1.55" fill="#FFFFFF" opacity="0.058"/><circle cx="314.5" cy="501.7" r="1.17" fill="#FFFFFF" opacity="0.041"/><circle cx="493.5" cy="550.8" r="1.77" fill="#FFFFFF" opacity="0.066"/><circle cx="14.7" cy="52.7" r="1.52" fill="#FFFFFF" opacity="0.072"/><circle cx="399.7" cy="83.1" r="1.07" fill="#FFFFFF" opacity="0.061"/><circle cx="306.3" cy="493.7" r="0.87" fill="#FFFFFF" opacity="0.036"/><circle cx="287.5" cy="355.2" r="0.87" fill="#FFFFFF" opacity="0.049"/><circle cx="689.3" cy="589.6" r="1.19" fill="#FFFFFF" opacity="0.049"/><circle cx="147.4" cy="628.5" r="0.85" fill="#FFFFFF" opacity="0.065"/><circle cx="587.6" cy="224.9" r="0.61" fill="#FFFFFF" opacity="0.071"/><circle cx="470.0" cy="951.6" r="1.76" fill="#FFFFFF" opacity="0.061"/><circle cx="79.5" cy="278.5" r="0.74" fill="#FFFFFF" opacity="0.053"/><circle cx="622.6" cy="6.2" r="1.96" fill="#FFFFFF" opacity="0.064"/><circle cx="283.0" cy="782.2" r="0.78" fill="#FFFFFF" opacity="0.059"/><circle cx="562.1" cy="89.7" r="1.43" fill="#FFFFFF" opacity="0.068"/><circle cx="596.3" cy="83.2" r="1.52" fill="#FFFFFF" opacity="0.041"/><circle cx="245.0" cy="62.4" r="2.00" fill="#FFFFFF" opacity="0.069"/><circle cx="439.2" cy="237.5" r="1.51" fill="#FFFFFF" opacity="0.054"/><circle cx="602.8" cy="633.2" r="1.12" fill="#FFFFFF" opacity="0.045"/><circle cx="726.7" cy="452.8" r="0.94" fill="#FFFFFF" opacity="0.076"/><circle cx="253.8" cy="100.2" r="1.08" fill="#FFFFFF" opacity="0.073"/><circle cx="442.6" cy="575.2" r="0.75" fill="#FFFFFF" opacity="0.079"/><circle cx="747.4" cy="116.0" r="2.13" fill="#FFFFFF" opacity="0.034"/><circle cx="681.0" cy="910.7" r="1.44" fill="#FFFFFF" opacity="0.046"/><circle cx="19.3" cy="992.0" r="0.64" fill="#FFFFFF" opacity="0.063"/><circle cx="678.0" cy="818.5" r="0.62" fill="#FFFFFF" opacity="0.036"/><circle cx="376.4" cy="279.5" r="1.28" fill="#FFFFFF" opacity="0.032"/><circle cx="152.9" cy="839.1" r="2.12" fill="#FFFFFF" opacity="0.039"/><circle cx="453.5" cy="502.5" r="1.78" fill="#FFFFFF" opacity="0.049"/><circle cx="681.1" cy="7.4" r="0.89" fill="#FFFFFF" opacity="0.052"/><circle cx="671.3" cy="269.4" r="0.91" fill="#FFFFFF" opacity="0.076"/><circle cx="138.1" cy="973.7" r="1.14" fill="#FFFFFF" opacity="0.073"/><circle cx="413.4" cy="380.4" r="0.66" fill="#FFFFFF" opacity="0.064"/><circle cx="412.8" cy="78.9" r="2.05" fill="#FFFFFF" opacity="0.061"/><circle cx="687.7" cy="760.1" r="0.82" fill="#FFFFFF" opacity="0.038"/><circle cx="378.5" cy="697.5" r="1.47" fill="#FFFFFF" opacity="0.080"/><circle cx="616.6" cy="943.5" r="1.27" fill="#FFFFFF" opacity="0.041"/><circle cx="659.7" cy="922.8" r="0.96" fill="#FFFFFF" opacity="0.051"/><circle cx="623.3" cy="350.8" r="1.98" fill="#FFFFFF" opacity="0.061"/><circle cx="440.7" cy="626.9" r="0.62" fill="#FFFFFF" opacity="0.063"/><circle cx="530.9" cy="872.9" r="1.34" fill="#FFFFFF" opacity="0.074"/><circle cx="79.9" cy="594.6" r="1.62" fill="#FFFFFF" opacity="0.073"/><circle cx="444.3" cy="547.9" r="1.40" fill="#FFFFFF" opacity="0.044"/><circle cx="398.2" cy="534.3" r="1.38" fill="#FFFFFF" opacity="0.068"/><circle cx="615.1" cy="326.2" r="0.64" fill="#FFFFFF" opacity="0.050"/><circle cx="682.1" cy="692.1" r="0.68" fill="#FFFFFF" opacity="0.080"/><circle cx="740.3" cy="174.9" r="0.72" fill="#FFFFFF" opacity="0.044"/><circle cx="525.7" cy="140.4" r="2.04" fill="#FFFFFF" opacity="0.076"/><circle cx="577.0" cy="643.4" r="0.93" fill="#FFFFFF" opacity="0.039"/><circle cx="322.4" cy="197.2" r="0.66" fill="#FFFFFF" opacity="0.068"/><circle cx="217.3" cy="875.9" r="1.72" fill="#FFFFFF" opacity="0.077"/><circle cx="202.1" cy="957.5" r="1.23" fill="#FFFFFF" opacity="0.051"/><circle cx="160.0" cy="519.7" r="1.34" fill="#FFFFFF" opacity="0.073"/><circle cx="618.2" cy="937.5" r="0.76" fill="#FFFFFF" opacity="0.055"/><circle cx="744.2" cy="280.4" r="1.86" fill="#FFFFFF" opacity="0.047"/><circle cx="48.0" cy="560.9" r="0.83" fill="#FFFFFF" opacity="0.034"/><circle cx="719.9" cy="133.6" r="0.65" fill="#FFFFFF" opacity="0.038"/><circle cx="554.2" cy="403.6" r="1.42" fill="#FFFFFF" opacity="0.058"/><circle cx="649.1" cy="356.6" r="0.72" fill="#FFFFFF" opacity="0.065"/><circle cx="177.8" cy="720.6" r="1.20" fill="#FFFFFF" opacity="0.061"/><circle cx="527.5" cy="895.1" r="2.05" fill="#FFFFFF" opacity="0.039"/><circle cx="159.5" cy="398.6" r="1.22" fill="#FFFFFF" opacity="0.032"/><circle cx="324.6" cy="858.3" r="1.73" fill="#FFFFFF" opacity="0.077"/><circle cx="591.0" cy="569.7" r="0.72" fill="#FFFFFF" opacity="0.052"/><circle cx="349.4" cy="730.8" r="1.95" fill="#FFFFFF" opacity="0.049"/><circle cx="227.7" cy="931.8" r="1.92" fill="#FFFFFF" opacity="0.038"/><circle cx="708.5" cy="623.4" r="1.19" fill="#FFFFFF" opacity="0.037"/><circle cx="741.0" cy="908.9" r="1.61" fill="#FFFFFF" opacity="0.055"/><circle cx="193.2" cy="644.3" r="1.38" fill="#FFFFFF" opacity="0.061"/><circle cx="751.0" cy="134.7" r="1.37" fill="#FFFFFF" opacity="0.060"/><circle cx="85.0" cy="913.8" r="1.38" fill="#FFFFFF" opacity="0.069"/><circle cx="635.0" cy="309.9" r="0.98" fill="#FFFFFF" opacity="0.040"/><circle cx="675.4" cy="594.4" r="0.66" fill="#FFFFFF" opacity="0.043"/><circle cx="153.8" cy="1020.9" r="1.77" fill="#FFFFFF" opacity="0.033"/><circle cx="368.4" cy="621.5" r="1.88" fill="#FFFFFF" opacity="0.036"/><circle cx="443.3" cy="959.7" r="1.52" fill="#FFFFFF" opacity="0.076"/><circle cx="707.5" cy="83.3" r="0.70" fill="#FFFFFF" opacity="0.080"/><circle cx="186.0" cy="801.3" r="1.26" fill="#FFFFFF" opacity="0.033"/><circle cx="641.1" cy="538.8" r="2.16" fill="#FFFFFF" opacity="0.056"/><circle cx="137.3" cy="352.7" r="1.09" fill="#FFFFFF" opacity="0.066"/><circle cx="297.2" cy="271.9" r="1.26" fill="#FFFFFF" opacity="0.075"/><circle cx="619.8" cy="318.5" r="0.92" fill="#FFFFFF" opacity="0.048"/><circle cx="250.7" cy="865.3" r="1.97" fill="#FFFFFF" opacity="0.046"/><circle cx="156.4" cy="549.6" r="1.71" fill="#FFFFFF" opacity="0.057"/><circle cx="680.0" cy="197.8" r="1.06" fill="#FFFFFF" opacity="0.047"/><circle cx="141.6" cy="477.3" r="0.75" fill="#FFFFFF" opacity="0.065"/><circle cx="71.5" cy="894.4" r="1.57" fill="#FFFFFF" opacity="0.062"/><circle cx="593.0" cy="531.1" r="2.15" fill="#FFFFFF" opacity="0.047"/><circle cx="552.5" cy="499.9" r="0.96" fill="#FFFFFF" opacity="0.068"/><circle cx="224.2" cy="127.5" r="0.89" fill="#FFFFFF" opacity="0.063"/><circle cx="483.3" cy="218.2" r="0.92" fill="#FFFFFF" opacity="0.039"/><circle cx="230.9" cy="918.1" r="0.60" fill="#FFFFFF" opacity="0.057"/><circle cx="585.0" cy="895.0" r="0.76" fill="#FFFFFF" opacity="0.052"/><circle cx="42.5" cy="286.9" r="1.31" fill="#FFFFFF" opacity="0.035"/><circle cx="749.9" cy="622.7" r="1.64" fill="#FFFFFF" opacity="0.070"/><circle cx="436.7" cy="654.0" r="1.40" fill="#FFFFFF" opacity="0.064"/><circle cx="542.2" cy="589.4" r="1.96" fill="#FFFFFF" opacity="0.049"/><circle cx="559.6" cy="368.7" r="2.07" fill="#FFFFFF" opacity="0.031"/><circle cx="616.2" cy="66.8" r="1.40" fill="#FFFFFF" opacity="0.034"/><circle cx="639.6" cy="809.4" r="1.51" fill="#FFFFFF" opacity="0.066"/><circle cx="666.8" cy="236.5" r="0.77" fill="#FFFFFF" opacity="0.059"/><circle cx="58.1" cy="527.0" r="1.65" fill="#FFFFFF" opacity="0.059"/><circle cx="34.5" cy="321.0" r="1.90" fill="#FFFFFF" opacity="0.079"/><circle cx="409.7" cy="254.4" r="1.23" fill="#FFFFFF" opacity="0.076"/><circle cx="418.1" cy="193.1" r="1.94" fill="#FFFFFF" opacity="0.071"/><circle cx="36.5" cy="403.8" r="1.47" fill="#FFFFFF" opacity="0.032"/><circle cx="446.8" cy="182.4" r="1.92" fill="#FFFFFF" opacity="0.053"/><circle cx="626.1" cy="661.8" r="1.31" fill="#FFFFFF" opacity="0.053"/><circle cx="765.5" cy="44.5" r="1.39" fill="#FFFFFF" opacity="0.030"/><circle cx="191.5" cy="920.8" r="1.67" fill="#FFFFFF" opacity="0.076"/><circle cx="89.7" cy="1012.5" r="0.76" fill="#FFFFFF" opacity="0.058"/><circle cx="479.2" cy="671.2" r="2.09" fill="#FFFFFF" opacity="0.049"/><circle cx="298.7" cy="432.7" r="1.10" fill="#FFFFFF" opacity="0.080"/><circle cx="480.9" cy="344.6" r="1.84" fill="#FFFFFF" opacity="0.075"/><circle cx="618.8" cy="378.6" r="1.31" fill="#FFFFFF" opacity="0.076"/><circle cx="445.3" cy="946.1" r="0.88" fill="#FFFFFF" opacity="0.033"/><circle cx="10.9" cy="670.7" r="0.97" fill="#FFFFFF" opacity="0.046"/><circle cx="684.0" cy="40.8" r="1.62" fill="#FFFFFF" opacity="0.030"/><circle cx="25.7" cy="901.0" r="1.05" fill="#FFFFFF" opacity="0.067"/><circle cx="706.9" cy="340.7" r="2.20" fill="#FFFFFF" opacity="0.049"/><circle cx="165.6" cy="101.2" r="1.36" fill="#FFFFFF" opacity="0.068"/><circle cx="330.0" cy="761.2" r="1.21" fill="#FFFFFF" opacity="0.037"/><circle cx="25.8" cy="114.8" r="1.88" fill="#FFFFFF" opacity="0.032"/><circle cx="28.0" cy="1000.9" r="1.63" fill="#FFFFFF" opacity="0.033"/><circle cx="430.2" cy="637.7" r="1.30" fill="#FFFFFF" opacity="0.076"/><circle cx="396.9" cy="529.2" r="1.52" fill="#FFFFFF" opacity="0.064"/><circle cx="204.1" cy="761.7" r="1.77" fill="#FFFFFF" opacity="0.060"/><circle cx="358.7" cy="763.8" r="1.94" fill="#FFFFFF" opacity="0.058"/><circle cx="236.1" cy="288.2" r="1.02" fill="#FFFFFF" opacity="0.041"/><circle cx="270.4" cy="754.6" r="2.05" fill="#FFFFFF" opacity="0.042"/><circle cx="96.7" cy="1019.8" r="1.44" fill="#FFFFFF" opacity="0.058"/><circle cx="404.2" cy="766.3" r="1.12" fill="#FFFFFF" opacity="0.065"/><circle cx="207.1" cy="872.3" r="1.48" fill="#FFFFFF" opacity="0.049"/><circle cx="414.9" cy="358.3" r="0.81" fill="#FFFFFF" opacity="0.066"/><circle cx="745.2" cy="352.3" r="0.93" fill="#FFFFFF" opacity="0.059"/><circle cx="169.6" cy="614.8" r="1.74" fill="#FFFFFF" opacity="0.079"/><circle cx="439.3" cy="559.2" r="1.02" fill="#FFFFFF" opacity="0.062"/><circle cx="79.1" cy="567.1" r="1.91" fill="#FFFFFF" opacity="0.055"/><circle cx="679.0" cy="85.3" r="0.73" fill="#FFFFFF" opacity="0.073"/><circle cx="276.6" cy="840.4" r="1.07" fill="#FFFFFF" opacity="0.033"/><circle cx="288.5" cy="30.6" r="1.34" fill="#FFFFFF" opacity="0.080"/><circle cx="370.9" cy="667.5" r="1.30" fill="#FFFFFF" opacity="0.057"/><circle cx="22.3" cy="61.9" r="1.40" fill="#FFFFFF" opacity="0.047"/><circle cx="37.1" cy="911.3" r="0.82" fill="#FFFFFF" opacity="0.054"/><circle cx="297.6" cy="604.3" r="1.20" fill="#FFFFFF" opacity="0.050"/><circle cx="134.7" cy="753.9" r="0.83" fill="#FFFFFF" opacity="0.035"/><circle cx="303.8" cy="98.8" r="0.95" fill="#FFFFFF" opacity="0.076"/><circle cx="730.4" cy="285.6" r="1.61" fill="#FFFFFF" opacity="0.044"/><circle cx="191.5" cy="953.8" r="0.61" fill="#FFFFFF" opacity="0.037"/><circle cx="428.3" cy="839.3" r="0.69" fill="#FFFFFF" opacity="0.073"/><circle cx="6.2" cy="1005.5" r="1.65" fill="#FFFFFF" opacity="0.070"/><circle cx="752.0" cy="921.2" r="0.74" fill="#FFFFFF" opacity="0.065"/><circle cx="758.4" cy="7.6" r="0.62" fill="#FFFFFF" opacity="0.040"/><circle cx="416.2" cy="448.3" r="0.73" fill="#FFFFFF" opacity="0.058"/><circle cx="16.0" cy="848.4" r="1.55" fill="#FFFFFF" opacity="0.045"/><circle cx="305.1" cy="813.3" r="0.91" fill="#FFFFFF" opacity="0.031"/><circle cx="471.7" cy="612.9" r="0.65" fill="#FFFFFF" opacity="0.068"/><circle cx="151.8" cy="65.3" r="1.51" fill="#FFFFFF" opacity="0.069"/><circle cx="739.3" cy="245.2" r="1.84" fill="#FFFFFF" opacity="0.061"/><circle cx="718.0" cy="595.4" r="1.84" fill="#FFFFFF" opacity="0.051"/><circle cx="438.9" cy="777.1" r="0.71" fill="#FFFFFF" opacity="0.070"/><circle cx="759.7" cy="185.7" r="1.10" fill="#FFFFFF" opacity="0.054"/><circle cx="81.8" cy="869.9" r="1.07" fill="#FFFFFF" opacity="0.031"/><circle cx="687.3" cy="607.2" r="2.19" fill="#FFFFFF" opacity="0.038"/><circle cx="51.7" cy="859.0" r="1.93" fill="#FFFFFF" opacity="0.055"/><circle cx="153.3" cy="360.7" r="2.16" fill="#FFFFFF" opacity="0.059"/><circle cx="153.2" cy="767.3" r="1.85" fill="#FFFFFF" opacity="0.032"/><circle cx="185.9" cy="912.4" r="0.60" fill="#FFFFFF" opacity="0.053"/><circle cx="211.8" cy="224.9" r="1.80" fill="#FFFFFF" opacity="0.056"/><circle cx="484.1" cy="252.9" r="1.74" fill="#FFFFFF" opacity="0.072"/><circle cx="375.1" cy="806.2" r="1.01" fill="#FFFFFF" opacity="0.035"/><circle cx="507.0" cy="511.5" r="2.16" fill="#FFFFFF" opacity="0.031"/><circle cx="164.0" cy="628.8" r="1.94" fill="#FFFFFF" opacity="0.079"/><circle cx="301.3" cy="224.3" r="1.33" fill="#FFFFFF" opacity="0.039"/><circle cx="610.1" cy="107.2" r="1.09" fill="#FFFFFF" opacity="0.031"/><circle cx="164.1" cy="559.6" r="1.96" fill="#FFFFFF" opacity="0.051"/><circle cx="9.0" cy="57.2" r="0.93" fill="#FFFFFF" opacity="0.075"/><circle cx="384.5" cy="703.8" r="1.25" fill="#FFFFFF" opacity="0.076"/><circle cx="486.4" cy="183.2" r="1.69" fill="#FFFFFF" opacity="0.058"/><circle cx="604.5" cy="941.3" r="0.82" fill="#FFFFFF" opacity="0.063"/><circle cx="543.9" cy="501.0" r="1.18" fill="#FFFFFF" opacity="0.076"/><circle cx="640.5" cy="447.3" r="0.95" fill="#FFFFFF" opacity="0.032"/><circle cx="387.2" cy="555.0" r="1.62" fill="#FFFFFF" opacity="0.072"/><circle cx="206.6" cy="405.5" r="1.41" fill="#FFFFFF" opacity="0.056"/><circle cx="58.1" cy="53.5" r="2.05" fill="#FFFFFF" opacity="0.056"/><circle cx="709.2" cy="354.3" r="1.26" fill="#FFFFFF" opacity="0.049"/><circle cx="151.0" cy="233.5" r="1.26" fill="#FFFFFF" opacity="0.056"/><circle cx="577.3" cy="179.8" r="1.76" fill="#FFFFFF" opacity="0.067"/><circle cx="193.4" cy="615.5" r="1.72" fill="#FFFFFF" opacity="0.035"/><circle cx="326.7" cy="933.5" r="2.09" fill="#FFFFFF" opacity="0.067"/><circle cx="534.5" cy="927.5" r="1.66" fill="#FFFFFF" opacity="0.041"/><circle cx="226.0" cy="879.8" r="1.65" fill="#FFFFFF" opacity="0.077"/><circle cx="764.3" cy="700.7" r="1.79" fill="#FFFFFF" opacity="0.042"/><circle cx="700.0" cy="995.0" r="2.15" fill="#FFFFFF" opacity="0.037"/><circle cx="707.8" cy="598.4" r="1.52" fill="#FFFFFF" opacity="0.080"/><circle cx="252.1" cy="28.0" r="1.78" fill="#FFFFFF" opacity="0.038"/><circle cx="6.3" cy="521.9" r="1.64" fill="#FFFFFF" opacity="0.033"/><circle cx="640.1" cy="49.3" r="1.04" fill="#FFFFFF" opacity="0.064"/><circle cx="715.8" cy="851.7" r="0.81" fill="#FFFFFF" opacity="0.039"/><circle cx="633.5" cy="788.3" r="2.01" fill="#FFFFFF" opacity="0.064"/><circle cx="83.1" cy="637.7" r="2.01" fill="#FFFFFF" opacity="0.035"/><circle cx="305.8" cy="864.9" r="1.21" fill="#FFFFFF" opacity="0.034"/><circle cx="74.7" cy="203.2" r="1.23" fill="#FFFFFF" opacity="0.069"/><circle cx="412.0" cy="697.6" r="1.56" fill="#FFFFFF" opacity="0.060"/><circle cx="302.0" cy="614.7" r="1.51" fill="#FFFFFF" opacity="0.042"/><circle cx="162.3" cy="485.0" r="1.55" fill="#FFFFFF" opacity="0.076"/><circle cx="756.8" cy="333.3" r="1.49" fill="#FFFFFF" opacity="0.075"/><circle cx="585.8" cy="10.0" r="1.95" fill="#FFFFFF" opacity="0.030"/><circle cx="367.7" cy="268.8" r="0.60" fill="#FFFFFF" opacity="0.038"/><circle cx="370.0" cy="304.0" r="0.98" fill="#FFFFFF" opacity="0.044"/><circle cx="76.4" cy="521.5" r="1.09" fill="#FFFFFF" opacity="0.075"/><circle cx="208.0" cy="450.4" r="2.16" fill="#FFFFFF" opacity="0.043"/><circle cx="177.9" cy="509.3" r="1.13" fill="#FFFFFF" opacity="0.071"/><circle cx="89.8" cy="409.7" r="0.84" fill="#FFFFFF" opacity="0.069"/><circle cx="746.0" cy="414.9" r="0.74" fill="#FFFFFF" opacity="0.065"/><circle cx="174.4" cy="649.8" r="0.63" fill="#FFFFFF" opacity="0.036"/><circle cx="599.4" cy="859.2" r="1.71" fill="#FFFFFF" opacity="0.077"/><circle cx="67.5" cy="416.6" r="0.81" fill="#FFFFFF" opacity="0.080"/><circle cx="85.9" cy="877.8" r="1.45" fill="#FFFFFF" opacity="0.064"/><circle cx="301.1" cy="596.9" r="1.50" fill="#FFFFFF" opacity="0.044"/><circle cx="403.1" cy="381.1" r="1.14" fill="#FFFFFF" opacity="0.038"/><circle cx="55.4" cy="82.6" r="1.20" fill="#FFFFFF" opacity="0.060"/><circle cx="399.0" cy="582.3" r="0.78" fill="#FFFFFF" opacity="0.068"/><circle cx="359.5" cy="970.3" r="0.88" fill="#FFFFFF" opacity="0.075"/><circle cx="243.6" cy="152.7" r="1.34" fill="#FFFFFF" opacity="0.050"/><circle cx="471.1" cy="337.6" r="0.89" fill="#FFFFFF" opacity="0.068"/><circle cx="184.7" cy="1022.9" r="0.61" fill="#FFFFFF" opacity="0.044"/><circle cx="490.8" cy="504.4" r="1.09" fill="#FFFFFF" opacity="0.036"/><circle cx="323.5" cy="378.5" r="1.62" fill="#FFFFFF" opacity="0.060"/><circle cx="434.6" cy="692.1" r="1.96" fill="#FFFFFF" opacity="0.040"/><circle cx="333.8" cy="324.0" r="0.92" fill="#FFFFFF" opacity="0.039"/><circle cx="501.8" cy="907.7" r="0.82" fill="#FFFFFF" opacity="0.061"/><circle cx="523.3" cy="910.6" r="1.92" fill="#FFFFFF" opacity="0.047"/><circle cx="474.9" cy="327.0" r="2.08" fill="#FFFFFF" opacity="0.078"/><circle cx="105.9" cy="893.7" r="1.40" fill="#FFFFFF" opacity="0.032"/><circle cx="279.4" cy="19.9" r="1.77" fill="#FFFFFF" opacity="0.072"/><circle cx="704.4" cy="948.5" r="1.31" fill="#FFFFFF" opacity="0.033"/><circle cx="219.2" cy="830.6" r="1.61" fill="#FFFFFF" opacity="0.031"/><circle cx="605.2" cy="514.4" r="1.90" fill="#FFFFFF" opacity="0.033"/><circle cx="160.3" cy="516.4" r="1.50" fill="#FFFFFF" opacity="0.078"/><circle cx="354.7" cy="666.1" r="0.91" fill="#FFFFFF" opacity="0.063"/><circle cx="732.1" cy="561.7" r="1.54" fill="#FFFFFF" opacity="0.074"/><circle cx="727.6" cy="876.0" r="1.96" fill="#FFFFFF" opacity="0.033"/><circle cx="291.7" cy="200.7" r="1.66" fill="#FFFFFF" opacity="0.072"/><circle cx="626.6" cy="219.7" r="1.78" fill="#FFFFFF" opacity="0.074"/><circle cx="127.1" cy="720.6" r="1.29" fill="#FFFFFF" opacity="0.032"/><circle cx="476.3" cy="967.3" r="1.55" fill="#FFFFFF" opacity="0.079"/><circle cx="160.1" cy="1021.9" r="2.10" fill="#FFFFFF" opacity="0.065"/><circle cx="213.2" cy="103.2" r="1.65" fill="#FFFFFF" opacity="0.035"/><circle cx="561.9" cy="265.3" r="0.72" fill="#FFFFFF" opacity="0.066"/><circle cx="519.4" cy="616.5" r="1.38" fill="#FFFFFF" opacity="0.031"/><circle cx="730.5" cy="177.8" r="1.84" fill="#FFFFFF" opacity="0.035"/><circle cx="375.3" cy="944.6" r="1.55" fill="#FFFFFF" opacity="0.045"/><circle cx="58.3" cy="474.0" r="1.17" fill="#FFFFFF" opacity="0.038"/><circle cx="71.8" cy="16.3" r="1.78" fill="#FFFFFF" opacity="0.038"/><circle cx="576.0" cy="710.3" r="0.74" fill="#FFFFFF" opacity="0.047"/><circle cx="160.2" cy="587.5" r="1.55" fill="#FFFFFF" opacity="0.032"/><circle cx="346.6" cy="518.1" r="1.41" fill="#FFFFFF" opacity="0.038"/><circle cx="501.0" cy="375.5" r="0.71" fill="#FFFFFF" opacity="0.035"/><circle cx="20.6" cy="700.5" r="1.39" fill="#FFFFFF" opacity="0.078"/><circle cx="734.9" cy="87.8" r="1.46" fill="#FFFFFF" opacity="0.078"/><circle cx="662.0" cy="720.7" r="2.11" fill="#FFFFFF" opacity="0.079"/><circle cx="598.6" cy="989.7" r="0.99" fill="#FFFFFF" opacity="0.034"/><circle cx="76.0" cy="695.2" r="1.43" fill="#FFFFFF" opacity="0.048"/><circle cx="36.2" cy="999.1" r="0.80" fill="#FFFFFF" opacity="0.047"/><circle cx="659.7" cy="217.4" r="0.97" fill="#FFFFFF" opacity="0.031"/><circle cx="157.2" cy="553.4" r="2.16" fill="#FFFFFF" opacity="0.056"/><circle cx="680.6" cy="768.5" r="1.49" fill="#FFFFFF" opacity="0.055"/><circle cx="31.7" cy="854.5" r="0.74" fill="#FFFFFF" opacity="0.032"/><circle cx="661.0" cy="427.6" r="1.83" fill="#FFFFFF" opacity="0.063"/><circle cx="600.6" cy="806.3" r="0.83" fill="#FFFFFF" opacity="0.050"/><circle cx="59.6" cy="381.7" r="1.54" fill="#FFFFFF" opacity="0.037"/><circle cx="391.7" cy="393.6" r="2.17" fill="#FFFFFF" opacity="0.077"/><circle cx="535.4" cy="741.3" r="0.68" fill="#FFFFFF" opacity="0.043"/><circle cx="127.2" cy="535.6" r="1.21" fill="#FFFFFF" opacity="0.069"/><circle cx="443.3" cy="112.3" r="1.71" fill="#FFFFFF" opacity="0.079"/><circle cx="583.9" cy="754.3" r="0.89" fill="#FFFFFF" opacity="0.034"/><circle cx="129.3" cy="974.7" r="1.56" fill="#FFFFFF" opacity="0.035"/><circle cx="158.6" cy="466.2" r="1.60" fill="#FFFFFF" opacity="0.037"/><circle cx="322.9" cy="815.4" r="0.98" fill="#FFFFFF" opacity="0.068"/><circle cx="659.0" cy="881.7" r="2.00" fill="#FFFFFF" opacity="0.051"/><circle cx="414.9" cy="875.2" r="0.93" fill="#FFFFFF" opacity="0.031"/><circle cx="244.9" cy="449.6" r="0.70" fill="#FFFFFF" opacity="0.072"/><circle cx="497.2" cy="637.9" r="1.53" fill="#FFFFFF" opacity="0.045"/><circle cx="495.3" cy="608.9" r="2.12" fill="#FFFFFF" opacity="0.032"/><circle cx="422.5" cy="598.3" r="1.03" fill="#FFFFFF" opacity="0.060"/><circle cx="705.2" cy="363.3" r="1.24" fill="#FFFFFF" opacity="0.039"/><circle cx="583.4" cy="569.4" r="1.90" fill="#FFFFFF" opacity="0.059"/><circle cx="533.2" cy="628.6" r="2.14" fill="#FFFFFF" opacity="0.060"/><circle cx="166.6" cy="751.6" r="0.88" fill="#FFFFFF" opacity="0.042"/><circle cx="563.4" cy="66.6" r="1.97" fill="#FFFFFF" opacity="0.061"/><circle cx="409.1" cy="854.1" r="1.59" fill="#FFFFFF" opacity="0.064"/><circle cx="232.2" cy="68.5" r="1.77" fill="#FFFFFF" opacity="0.066"/><circle cx="685.1" cy="788.7" r="1.96" fill="#FFFFFF" opacity="0.078"/><circle cx="728.6" cy="287.4" r="2.13" fill="#FFFFFF" opacity="0.038"/><circle cx="325.2" cy="374.0" r="0.90" fill="#FFFFFF" opacity="0.074"/><circle cx="142.5" cy="275.9" r="1.07" fill="#FFFFFF" opacity="0.076"/><circle cx="27.6" cy="84.1" r="0.77" fill="#FFFFFF" opacity="0.030"/><circle cx="172.6" cy="957.3" r="1.82" fill="#FFFFFF" opacity="0.069"/><circle cx="112.7" cy="727.8" r="1.76" fill="#FFFFFF" opacity="0.042"/><circle cx="620.7" cy="145.7" r="1.59" fill="#FFFFFF" opacity="0.050"/><circle cx="758.4" cy="683.0" r="0.95" fill="#FFFFFF" opacity="0.069"/><circle cx="555.8" cy="786.9" r="1.35" fill="#FFFFFF" opacity="0.059"/><circle cx="261.9" cy="516.9" r="0.93" fill="#FFFFFF" opacity="0.039"/><circle cx="647.8" cy="574.7" r="0.62" fill="#FFFFFF" opacity="0.048"/><circle cx="500.4" cy="443.0" r="1.66" fill="#FFFFFF" opacity="0.053"/><circle cx="411.4" cy="329.5" r="0.96" fill="#FFFFFF" opacity="0.075"/><circle cx="153.1" cy="992.3" r="1.28" fill="#FFFFFF" opacity="0.040"/><circle cx="99.6" cy="867.7" r="1.92" fill="#FFFFFF" opacity="0.034"/><circle cx="144.1" cy="967.3" r="1.86" fill="#FFFFFF" opacity="0.078"/><circle cx="479.7" cy="494.1" r="0.66" fill="#FFFFFF" opacity="0.052"/><circle cx="302.7" cy="537.6" r="1.48" fill="#FFFFFF" opacity="0.053"/><circle cx="239.8" cy="310.5" r="1.60" fill="#FFFFFF" opacity="0.071"/><circle cx="739.7" cy="275.5" r="1.87" fill="#FFFFFF" opacity="0.039"/><circle cx="626.3" cy="518.2" r="1.98" fill="#FFFFFF" opacity="0.076"/><circle cx="172.3" cy="667.5" r="2.14" fill="#FFFFFF" opacity="0.031"/><circle cx="228.0" cy="207.8" r="1.68" fill="#FFFFFF" opacity="0.071"/><circle cx="376.0" cy="246.9" r="1.09" fill="#FFFFFF" opacity="0.045"/><circle cx="75.3" cy="368.2" r="2.10" fill="#FFFFFF" opacity="0.039"/><circle cx="560.3" cy="752.8" r="1.76" fill="#FFFFFF" opacity="0.070"/><circle cx="473.3" cy="682.8" r="0.97" fill="#FFFFFF" opacity="0.060"/><circle cx="318.7" cy="387.9" r="1.74" fill="#FFFFFF" opacity="0.062"/><circle cx="145.0" cy="810.4" r="1.75" fill="#FFFFFF" opacity="0.040"/><circle cx="380.1" cy="21.6" r="1.31" fill="#FFFFFF" opacity="0.068"/><circle cx="94.7" cy="297.3" r="1.38" fill="#FFFFFF" opacity="0.050"/><circle cx="278.8" cy="54.2" r="1.66" fill="#FFFFFF" opacity="0.075"/><circle cx="136.5" cy="563.8" r="1.81" fill="#FFFFFF" opacity="0.073"/><circle cx="270.5" cy="924.4" r="1.48" fill="#FFFFFF" opacity="0.053"/><circle cx="763.7" cy="990.7" r="1.87" fill="#FFFFFF" opacity="0.070"/><circle cx="323.1" cy="659.1" r="1.16" fill="#FFFFFF" opacity="0.044"/><circle cx="325.6" cy="514.8" r="1.33" fill="#FFFFFF" opacity="0.065"/><circle cx="349.7" cy="869.4" r="0.96" fill="#FFFFFF" opacity="0.038"/><circle cx="750.7" cy="976.5" r="1.53" fill="#FFFFFF" opacity="0.068"/><circle cx="437.6" cy="143.0" r="1.41" fill="#FFFFFF" opacity="0.033"/><circle cx="15.7" cy="10.9" r="1.05" fill="#FFFFFF" opacity="0.035"/><circle cx="442.6" cy="513.5" r="0.90" fill="#FFFFFF" opacity="0.048"/><circle cx="618.5" cy="625.0" r="2.15" fill="#FFFFFF" opacity="0.048"/><circle cx="273.7" cy="571.8" r="0.78" fill="#FFFFFF" opacity="0.033"/><circle cx="262.4" cy="725.0" r="1.38" fill="#FFFFFF" opacity="0.073"/><circle cx="644.5" cy="54.5" r="1.98" fill="#FFFFFF" opacity="0.032"/><circle cx="405.5" cy="675.9" r="1.43" fill="#FFFFFF" opacity="0.048"/><circle cx="646.8" cy="115.0" r="1.04" fill="#FFFFFF" opacity="0.078"/><circle cx="361.2" cy="971.7" r="1.76" fill="#FFFFFF" opacity="0.043"/><circle cx="661.0" cy="901.2" r="1.87" fill="#FFFFFF" opacity="0.052"/><circle cx="612.7" cy="762.4" r="0.61" fill="#FFFFFF" opacity="0.050"/><circle cx="570.8" cy="1016.4" r="1.20" fill="#FFFFFF" opacity="0.031"/><circle cx="204.6" cy="482.5" r="0.99" fill="#FFFFFF" opacity="0.041"/><circle cx="534.1" cy="277.8" r="1.33" fill="#FFFFFF" opacity="0.061"/><circle cx="710.6" cy="359.8" r="1.01" fill="#FFFFFF" opacity="0.062"/><circle cx="156.4" cy="143.8" r="1.91" fill="#FFFFFF" opacity="0.040"/><circle cx="130.3" cy="1011.1" r="0.95" fill="#FFFFFF" opacity="0.044"/><circle cx="172.6" cy="675.3" r="1.08" fill="#FFFFFF" opacity="0.064"/><circle cx="379.6" cy="76.6" r="1.15" fill="#FFFFFF" opacity="0.043"/><circle cx="91.1" cy="859.3" r="0.96" fill="#FFFFFF" opacity="0.062"/><circle cx="626.1" cy="518.7" r="0.66" fill="#FFFFFF" opacity="0.046"/><circle cx="757.0" cy="285.0" r="1.90" fill="#FFFFFF" opacity="0.042"/><circle cx="713.2" cy="653.5" r="1.28" fill="#FFFFFF" opacity="0.071"/><circle cx="506.5" cy="391.1" r="1.16" fill="#FFFFFF" opacity="0.034"/><circle cx="733.4" cy="687.4" r="1.69" fill="#FFFFFF" opacity="0.033"/><circle cx="174.2" cy="737.4" r="2.12" fill="#FFFFFF" opacity="0.066"/><circle cx="176.5" cy="896.6" r="1.32" fill="#FFFFFF" opacity="0.078"/><circle cx="332.4" cy="247.1" r="1.14" fill="#FFFFFF" opacity="0.069"/><circle cx="687.1" cy="761.2" r="1.80" fill="#FFFFFF" opacity="0.073"/><circle cx="562.3" cy="533.1" r="0.60" fill="#FFFFFF" opacity="0.047"/><circle cx="502.2" cy="1001.7" r="1.93" fill="#FFFFFF" opacity="0.077"/><circle cx="204.5" cy="33.9" r="0.91" fill="#FFFFFF" opacity="0.063"/><circle cx="215.0" cy="322.8" r="1.41" fill="#FFFFFF" opacity="0.045"/><circle cx="596.0" cy="962.2" r="0.81" fill="#FFFFFF" opacity="0.035"/><circle cx="719.1" cy="580.6" r="2.04" fill="#FFFFFF" opacity="0.043"/><circle cx="689.2" cy="376.8" r="1.32" fill="#FFFFFF" opacity="0.080"/><circle cx="93.4" cy="24.6" r="1.78" fill="#FFFFFF" opacity="0.037"/><circle cx="13.0" cy="706.2" r="1.68" fill="#FFFFFF" opacity="0.063"/><circle cx="214.1" cy="344.0" r="2.17" fill="#FFFFFF" opacity="0.034"/><circle cx="368.2" cy="319.7" r="1.90" fill="#FFFFFF" opacity="0.067"/><circle cx="236.2" cy="731.7" r="0.81" fill="#FFFFFF" opacity="0.074"/><circle cx="201.6" cy="632.4" r="1.52" fill="#FFFFFF" opacity="0.058"/><circle cx="437.7" cy="834.3" r="2.04" fill="#FFFFFF" opacity="0.074"/><circle cx="605.9" cy="951.1" r="1.21" fill="#FFFFFF" opacity="0.044"/><circle cx="448.1" cy="751.1" r="0.83" fill="#FFFFFF" opacity="0.054"/><circle cx="691.7" cy="991.3" r="1.30" fill="#FFFFFF" opacity="0.063"/><circle cx="12.0" cy="552.6" r="1.78" fill="#FFFFFF" opacity="0.078"/><circle cx="554.7" cy="199.7" r="1.01" fill="#FFFFFF" opacity="0.057"/><circle cx="687.6" cy="337.5" r="0.83" fill="#FFFFFF" opacity="0.031"/><circle cx="207.6" cy="407.3" r="2.03" fill="#FFFFFF" opacity="0.049"/><circle cx="492.7" cy="627.1" r="2.15" fill="#FFFFFF" opacity="0.039"/><circle cx="613.5" cy="860.3" r="1.08" fill="#FFFFFF" opacity="0.075"/><circle cx="230.1" cy="788.4" r="2.00" fill="#FFFFFF" opacity="0.030"/><circle cx="406.2" cy="190.7" r="1.44" fill="#FFFFFF" opacity="0.072"/><circle cx="249.5" cy="733.3" r="1.20" fill="#FFFFFF" opacity="0.079"/><circle cx="170.4" cy="829.9" r="1.64" fill="#FFFFFF" opacity="0.076"/><circle cx="52.8" cy="279.0" r="1.68" fill="#FFFFFF" opacity="0.035"/><circle cx="222.8" cy="718.9" r="1.07" fill="#FFFFFF" opacity="0.058"/><circle cx="699.5" cy="295.2" r="1.72" fill="#FFFFFF" opacity="0.070"/><circle cx="391.4" cy="906.0" r="0.92" fill="#FFFFFF" opacity="0.050"/><circle cx="129.8" cy="514.3" r="1.14" fill="#FFFFFF" opacity="0.069"/><circle cx="167.9" cy="378.4" r="2.05" fill="#FFFFFF" opacity="0.076"/><circle cx="360.2" cy="362.8" r="1.53" fill="#FFFFFF" opacity="0.038"/><circle cx="632.1" cy="896.8" r="1.68" fill="#FFFFFF" opacity="0.073"/></g>
<rect x="30" y="30" width="708" height="964" rx="26" fill="none" stroke="#E3C169" stroke-width="2" opacity="0.85"/><rect x="42" y="42" width="684" height="940" rx="20" fill="none" stroke="#E3C169" stroke-width="0.8" opacity="0.35"/>
</svg>