<svg xmlns="http://www.w3.org/2000/svg" width="768" height="1024" viewBox="0 0 768 1024" role="img" aria-label="Original Tome vector cover for The Iliad: a fragmented bronze shield and a diagonal spear above an ochre shoreline on slate blue.">
<defs><radialGradient id="iliad-vig" cx="0.5" cy="0.42" r="0.95"><stop offset="0.55" stop-color="#141E2C" stop-opacity="0"/><stop offset="1" stop-color="#141E2C" stop-opacity="0.38"/></radialGradient></defs>
<rect width="768" height="1024" fill="#26354A"/><path d="M 0 760 Q 240 700 420 750 T 768 720 L 768 1024 L 0 1024 Z" fill="#C57B3A" opacity="0.85"/><path d="M 0 800 Q 260 750 470 795 T 768 770" fill="none" stroke="#D9A94E" stroke-width="4" stroke-linecap="round" opacity="0.7"/><path d="M 90 840 l 46 -10 l 30 16 l -52 12 Z" fill="#141E2C" opacity="0.4"/><path d="M 230 874 l 46 -10 l 30 16 l -52 12 Z" fill="#141E2C" opacity="0.4"/><path d="M 370 840 l 46 -10 l 30 16 l -52 12 Z" fill="#141E2C" opacity="0.4"/><path d="M 510 874 l 46 -10 l 30 16 l -52 12 Z" fill="#141E2C" opacity="0.4"/><path d="M 650 840 l 46 -10 l 30 16 l -52 12 Z" fill="#141E2C" opacity="0.4"/><path d="M 384 210 A 170 170 0 0 1 531 475 L 424 430 A 90 90 0 0 0 384 300 Z" fill="#C57B3A"/><path d="M 531 475 A 170 170 0 0 1 224 440 L 324 400 A 90 90 0 0 0 424 430 Z" fill="#4A6B8A"/><path d="M 224 440 A 170 170 0 0 1 384 210 L 384 300 A 90 90 0 0 0 324 400 Z" fill="#D9A94E"/><circle cx="384" cy="385" r="26" fill="#141E2C"/><path d="M 120 660 L 640 180" stroke="#D9A94E" stroke-width="9" stroke-linecap="round"/><path d="M 640 180 l -52 8 l 30 26 Z" fill="#E9E4D8"/><rect width="768" height="1024" fill="url(#iliad-vig)"/>
<g><circle cx="108.9" cy="501.0" r="0.95" fill="#FFFFFF" opacity="0.065"/><circle cx="105.6" cy="371.7" r="1.70" fill="#FFFFFF" opacity="0.077"/><circle cx="165.7" cy="568.3" r="2.19" fill="#FFFFFF" opacity="0.059"/><circle cx="458.2" cy="288.8" r="0.64" fill="#FFFFFF" opacity="0.042"/><circle cx="130.5" cy="375.4" r="0.64" fill="#FFFFFF" opacity="0.033"/><circle cx="351.4" cy="802.6" r="1.74" fill="#FFFFFF" opacity="0.046"/><circle cx="619.8" cy="295.0" r="1.53" fill="#FFFFFF" opacity="0.072"/><circle cx="673.4" cy="248.4" r="1.13" fill="#FFFFFF" opacity="0.076"/><circle cx="502.1" cy="976.9" r="1.62" fill="#FFFFFF" opacity="0.058"/><circle cx="765.2" cy="391.2" r="0.96" fill="#FFFFFF" opacity="0.065"/><circle cx="381.2" cy="587.2" r="1.17" fill="#FFFFFF" opacity="0.032"/><circle cx="312.2" cy="746.3" r="1.62" fill="#FFFFFF" opacity="0.066"/><circle cx="336.5" cy="137.8" r="0.64" fill="#FFFFFF" opacity="0.071"/><circle cx="619.1" cy="6.1" r="1.10" fill="#FFFFFF" opacity="0.040"/><circle cx="379.8" cy="225.3" r="1.99" fill="#FFFFFF" opacity="0.065"/><circle cx="485.1" cy="652.9" r="1.34" fill="#FFFFFF" opacity="0.060"/><circle cx="8.9" cy="707.5" r="1.66" fill="#FFFFFF" opacity="0.039"/><circle cx="597.0" cy="822.3" r="1.98" fill="#FFFFFF" opacity="0.069"/><circle cx="461.5" cy="466.2" r="1.79" fill="#FFFFFF" opacity="0.040"/><circle cx="730.9" cy="452.5" r="1.69" fill="#FFFFFF" opacity="0.030"/><circle cx="386.6" cy="98.2" r="1.86" fill="#FFFFFF" opacity="0.057"/><circle cx="100.9" cy="482.0" r="0.72" fill="#FFFFFF" opacity="0.033"/><circle cx="161.6" cy="818.4" r="1.84" fill="#FFFFFF" opacity="0.056"/><circle cx="62.2" cy="569.9" r="0.76" fill="#FFFFFF" opacity="0.033"/><circle cx="490.5" cy="231.5" r="0.98" fill="#FFFFFF" opacity="0.048"/><circle cx="429.4" cy="102.1" r="1.85" fill="#FFFFFF" opacity="0.066"/><circle cx="282.8" cy="993.6" r="2.11" fill="#FFFFFF" opacity="0.030"/><circle cx="8.5" cy="233.9" r="2.19" fill="#FFFFFF" opacity="0.046"/><circle cx="417.9" cy="453.9" r="0.71" fill="#FFFFFF" opacity="0.044"/><circle cx="345.7" cy="356.4" r="2.20" fill="#FFFFFF" opacity="0.055"/><circle cx="526.9" cy="561.4" r="0.84" fill="#FFFFFF" opacity="0.076"/><circle cx="649.0" cy="642.3" r="1.26" fill="#FFFFFF" opacity="0.059"/><circle cx="511.5" cy="689.9" r="1.09" fill="#FFFFFF" opacity="0.041"/><circle cx="466.7" cy="628.5" r="1.20" fill="#FFFFFF" opacity="0.059"/><circle cx="526.5" cy="707.9" r="1.93" fill="#FFFFFF" opacity="0.033"/><circle cx="574.4" cy="953.9" r="1.21" fill="#FFFFFF" opacity="0.076"/><circle cx="114.4" cy="631.8" r="1.43" fill="#FFFFFF" opacity="0.042"/><circle cx="226.2" cy="923.9" r="1.11" fill="#FFFFFF" opacity="0.031"/><circle cx="224.4" cy="273.3" r="1.83" fill="#FFFFFF" opacity="0.067"/><circle cx="406.3" cy="82.1" r="1.75" fill="#FFFFFF" opacity="0.034"/><circle cx="725.8" cy="461.6" r="1.77" fill="#FFFFFF" opacity="0.075"/><circle cx="401.3" cy="977.3" r="1.41" fill="#FFFFFF" opacity="0.067"/><circle cx="5.1" cy="941.1" r="1.92" fill="#FFFFFF" opacity="0.035"/><circle cx="471.6" cy="326.0" r="0.99" fill="#FFFFFF" opacity="0.032"/><circle cx="408.9" cy="341.1" r="1.05" fill="#FFFFFF" opacity="0.035"/><circle cx="505.0" cy="727.1" r="0.86" fill="#FFFFFF" opacity="0.051"/><circle cx="66.0" cy="693.3" r="1.31" fill="#FFFFFF" opacity="0.033"/><circle cx="31.0" cy="837.1" r="0.81" fill="#FFFFFF" opacity="0.055"/><circle cx="534.3" cy="104.7" r="1.93" fill="#FFFFFF" opacity="0.039"/><circle cx="162.8" cy="867.8" r="0.99" fill="#FFFFFF" opacity="0.039"/><circle cx="675.0" cy="825.5" r="0.75" fill="#FFFFFF" opacity="0.042"/><circle cx="368.3" cy="816.8" r="1.65" fill="#FFFFFF" opacity="0.074"/><circle cx="11.8" cy="655.1" r="1.43" fill="#FFFFFF" opacity="0.054"/><circle cx="468.7" cy="877.6" r="0.96" fill="#FFFFFF" opacity="0.038"/><circle cx="148.1" cy="68.3" r="1.81" fill="#FFFFFF" opacity="0.033"/><circle cx="85.8" cy="467.6" r="1.14" fill="#FFFFFF" opacity="0.071"/><circle cx="122.7" cy="109.6" r="1.48" fill="#FFFFFF" opacity="0.038"/><circle cx="485.4" cy="285.2" r="0.77" fill="#FFFFFF" opacity="0.053"/><circle cx="673.4" cy="438.8" r="1.50" fill="#FFFFFF" opacity="0.033"/><circle cx="645.8" cy="414.4" r="1.05" fill="#FFFFFF" opacity="0.058"/><circle cx="148.6" cy="191.2" r="1.48" fill="#FFFFFF" opacity="0.044"/><circle cx="586.1" cy="314.4" r="0.96" fill="#FFFFFF" opacity="0.070"/><circle cx="708.9" cy="355.0" r="1.43" fill="#FFFFFF" opacity="0.037"/><circle cx="341.3" cy="256.3" r="1.73" fill="#FFFFFF" opacity="0.068"/><circle cx="129.2" cy="22.6" r="0.77" fill="#FFFFFF" opacity="0.031"/><circle cx="702.3" cy="994.1" r="2.15" fill="#FFFFFF" opacity="0.048"/><circle cx="543.5" cy="114.6" r="1.20" fill="#FFFFFF" opacity="0.074"/><circle cx="544.2" cy="742.2" r="2.11" fill="#FFFFFF" opacity="0.042"/><circle cx="646.2" cy="979.1" r="0.86" fill="#FFFFFF" opacity="0.049"/><circle cx="52.8" cy="930.5" r="1.70" fill="#FFFFFF" opacity="0.041"/><circle cx="551.4" cy="21.5" r="1.73" fill="#FFFFFF" opacity="0.063"/><circle cx="346.4" cy="468.8" r="2.06" fill="#FFFFFF" opacity="0.049"/><circle cx="541.3" cy="492.9" r="2.19" fill="#FFFFFF" opacity="0.044"/><circle cx="460.1" cy="239.3" r="1.02" fill="#FFFFFF" opacity="0.069"/><circle cx="120.4" cy="926.6" r="1.69" fill="#FFFFFF" opacity="0.032"/><circle cx="588.7" cy="854.6" r="1.45" fill="#FFFFFF" opacity="0.065"/><circle cx="310.8" cy="780.1" r="0.92" fill="#FFFFFF" opacity="0.049"/><circle cx="246.8" cy="965.7" r="0.74" fill="#FFFFFF" opacity="0.072"/><circle cx="676.8" cy="8.8" r="1.25" fill="#FFFFFF" opacity="0.066"/><circle cx="437.0" cy="611.1" r="1.57" fill="#FFFFFF" opacity="0.048"/><circle cx="17.5" cy="361.6" r="0.87" fill="#FFFFFF" opacity="0.072"/><circle cx="231.1" cy="888.7" r="1.84" fill="#FFFFFF" opacity="0.058"/><circle cx="654.0" cy="10.0" r="1.93" fill="#FFFFFF" opacity="0.055"/><circle cx="377.3" cy="565.5" r="1.63" fill="#FFFFFF" opacity="0.067"/><circle cx="465.5" cy="431.7" r="1.68" fill="#FFFFFF" opacity="0.037"/><circle cx="502.7" cy="67.1" r="0.82" fill="#FFFFFF" opacity="0.050"/><circle cx="303.1" cy="771.4" r="1.65" fill="#FFFFFF" opacity="0.075"/><circle cx="638.7" cy="969.9" r="1.62" fill="#FFFFFF" opacity="0.057"/><circle cx="634.9" cy="1008.4" r="1.67" fill="#FFFFFF" opacity="0.064"/><circle cx="396.1" cy="31.0" r="0.61" fill="#FFFFFF" opacity="0.034"/><circle cx="423.1" cy="441.3" r="1.55" fill="#FFFFFF" opacity="0.032"/><circle cx="400.2" cy="563.7" r="1.25" fill="#FFFFFF" opacity="0.062"/><circle cx="613.7" cy="264.5" r="0.99" fill="#FFFFFF" opacity="0.043"/><circle cx="586.9" cy="549.1" r="2.11" fill="#FFFFFF" opacity="0.039"/><circle cx="763.0" cy="579.1" r="1.87" fill="#FFFFFF" opacity="0.057"/><circle cx="644.5" cy="773.6" r="1.75" fill="#FFFFFF" opacity="0.056"/><circle cx="432.0" cy="995.1" r="0.68" fill="#FFFFFF" opacity="0.052"/><circle cx="50.6" cy="96.5" r="2.09" fill="#FFFFFF" opacity="0.063"/><circle cx="736.9" cy="369.0" r="0.72" fill="#FFFFFF" opacity="0.075"/><circle cx="188.9" cy="220.2" r="1.15" fill="#FFFFFF" opacity="0.068"/><circle cx="18.4" cy="710.0" r="2.09" fill="#FFFFFF" opacity="0.061"/><circle cx="296.6" cy="922.4" r="1.13" fill="#FFFFFF" opacity="0.072"/><circle cx="371.8" cy="280.6" r="0.87" fill="#FFFFFF" opacity="0.042"/><circle cx="428.9" cy="283.8" r="1.34" fill="#FFFFFF" opacity="0.033"/><circle cx="429.6" cy="376.8" r="2.05" fill="#FFFFFF" opacity="0.079"/><circle cx="446.8" cy="186.4" r="0.78" fill="#FFFFFF" opacity="0.043"/><circle cx="720.4" cy="842.6" r="1.15" fill="#FFFFFF" opacity="0.074"/><circle cx="586.1" cy="393.8" r="1.75" fill="#FFFFFF" opacity="0.079"/><circle cx="415.7" cy="484.7" r="2.19" fill="#FFFFFF" opacity="0.074"/><circle cx="322.1" cy="176.9" r="1.78" fill="#FFFFFF" opacity="0.056"/><circle cx="702.2" cy="772.8" r="0.93" fill="#FFFFFF" opacity="0.072"/><circle cx="84.7" cy="303.5" r="0.82" fill="#FFFFFF" opacity="0.031"/><circle cx="165.2" cy="328.8" r="1.23" fill="#FFFFFF" opacity="0.066"/><circle cx="479.6" cy="400.1" r="0.79" fill="#FFFFFF" opacity="0.058"/><circle cx="146.4" cy="728.4" r="2.05" fill="#FFFFFF" opacity="0.057"/><circle cx="18.9" cy="59.6" r="1.66" fill="#FFFFFF" opacity="0.052"/><circle cx="750.2" cy="242.8" r="1.04" fill="#FFFFFF" opacity="0.050"/><circle cx="277.8" cy="109.1" r="1.38" fill="#FFFFFF" opacity="0.051"/><circle cx="194.2" cy="41.7" r="2.05" fill="#FFFFFF" opacity="0.031"/><circle cx="683.0" cy="136.6" r="0.62" fill="#FFFFFF" opacity="0.051"/><circle cx="194.6" cy="613.5" r="0.94" fill="#FFFFFF" opacity="0.056"/><circle cx="410.0" cy="728.0" r="2.13" fill="#FFFFFF" opacity="0.065"/><circle cx="172.4" cy="823.1" r="1.98" fill="#FFFFFF" opacity="0.059"/><circle cx="538.9" cy="693.9" r="1.26" fill="#FFFFFF" opacity="0.051"/><circle cx="515.6" cy="953.8" r="1.11" fill="#FFFFFF" opacity="0.048"/><circle cx="413.5" cy="779.3" r="1.64" fill="#FFFFFF" opacity="0.044"/><circle cx="152.6" cy="326.3" r="2.06" fill="#FFFFFF" opacity="0.050"/><circle cx="34.5" cy="745.6" r="1.50" fill="#FFFFFF" opacity="0.031"/><circle cx="237.6" cy="63.0" r="2.03" fill="#FFFFFF" opacity="0.061"/><circle cx="641.8" cy="78.4" r="1.41" fill="#FFFFFF" opacity="0.032"/><circle cx="587.3" cy="332.8" r="0.66" fill="#FFFFFF" opacity="0.038"/><circle cx="18.6" cy="858.9" r="0.66" fill="#FFFFFF" opacity="0.045"/><circle cx="22.3" cy="591.4" r="1.06" fill="#FFFFFF" opacity="0.063"/><circle cx="238.6" cy="576.2" r="1.93" fill="#FFFFFF" opacity="0.077"/><circle cx="629.0" cy="655.9" r="1.21" fill="#FFFFFF" opacity="0.035"/><circle cx="452.8" cy="621.9" r="0.73" fill="#FFFFFF" opacity="0.072"/><circle cx="326.4" cy="820.7" r="0.90" fill="#FFFFFF" opacity="0.069"/><circle cx="21.4" cy="855.0" r="0.95" fill="#FFFFFF" opacity="0.075"/><circle cx="84.3" cy="586.3" r="1.34" fill="#FFFFFF" opacity="0.059"/><circle cx="559.1" cy="254.1" r="2.12" fill="#FFFFFF" opacity="0.064"/><circle cx="495.6" cy="53.3" r="0.99" fill="#FFFFFF" opacity="0.052"/><circle cx="615.8" cy="249.4" r="0.93" fill="#FFFFFF" opacity="0.051"/><circle cx="301.4" cy="248.1" r="2.02" fill="#FFFFFF" opacity="0.078"/><circle cx="581.4" cy="97.7" r="1.73" fill="#FFFFFF" opacity="0.052"/><circle cx="66.5" cy="482.7" r="0.61" fill="#FFFFFF" opacity="0.063"/><circle cx="535.4" cy="139.5" r="2.18" fill="#FFFFFF" opacity="0.044"/><circle cx="414.1" cy="385.2" r="1.82" fill="#FFFFFF" opacity="0.035"/><circle cx="624.9" cy="772.8" r="1.38" fill="#FFFFFF" opacity="0.072"/><circle cx="362.0" cy="846.4" r="1.31" fill="#FFFFFF" opacity="0.035"/><circle cx="662.2" cy="484.9" r="1.75" fill="#FFFFFF" opacity="0.041"/><circle cx="171.3" cy="592.1" r="0.84" fill="#FFFFFF" opacity="0.060"/><circle cx="735.5" cy="235.8" r="1.25" fill="#FFFFFF" opacity="0.066"/><circle cx="633.8" cy="325.2" r="2.15" fill="#FFFFFF" opacity="0.058"/><circle cx="24.9" cy="951.8" r="0.96" fill="#FFFFFF" opacity="0.043"/><circle cx="496.1" cy="683.4" r="1.65" fill="#FFFFFF" opacity="0.071"/><circle cx="217.0" cy="714.0" r="0.80" fill="#FFFFFF" opacity="0.030"/><circle cx="485.5" cy="914.7" r="1.98" fill="#FFFFFF" opacity="0.049"/><circle cx="651.0" cy="704.3" r="2.09" fill="#FFFFFF" opacity="0.069"/><circle cx="498.6" cy="924.0" r="1.96" fill="#FFFFFF" opacity="0.071"/><circle cx="521.4" cy="653.2" r="1.18" fill="#FFFFFF" opacity="0.036"/><circle cx="17.2" cy="597.8" r="1.39" fill="#FFFFFF" opacity="0.043"/><circle cx="696.0" cy="576.4" r="1.69" fill="#FFFFFF" opacity="0.053"/><circle cx="209.5" cy="169.5" r="1.57" fill="#FFFFFF" opacity="0.049"/><circle cx="162.4" cy="395.9" r="1.32" fill="#FFFFFF" opacity="0.054"/><circle cx="735.1" cy="676.7" r="1.60" fill="#FFFFFF" opacity="0.079"/><circle cx="136.4" cy="459.2" r="1.10" fill="#FFFFFF" opacity="0.056"/><circle cx="605.2" cy="462.2" r="1.02" fill="#FFFFFF" opacity="0.040"/><circle cx="459.3" cy="987.1" r="0.62" fill="#FFFFFF" opacity="0.050"/><circle cx="344.9" cy="92.4" r="1.88" fill="#FFFFFF" opacity="0.033"/><circle cx="620.3" cy="869.2" r="1.53" fill="#FFFFFF" opacity="0.054"/><circle cx="146.5" cy="911.1" r="1.55" fill="#FFFFFF" opacity="0.052"/><circle cx="487.2" cy="725.2" r="1.98" fill="#FFFFFF" opacity="0.050"/><circle cx="167.1" cy="564.7" r="0.96" fill="#FFFFFF" opacity="0.043"/><circle cx="250.3" cy="824.1" r="1.35" fill="#FFFFFF" opacity="0.031"/><circle cx="610.1" cy="822.4" r="1.71" fill="#FFFFFF" opacity="0.074"/><circle cx="503.0" cy="801.0" r="1.29" fill="#FFFFFF" opacity="0.056"/><circle cx="207.2" cy="370.3" r="1.65" fill="#FFFFFF" opacity="0.035"/><circle cx="381.9" cy="972.1" r="0.75" fill="#FFFFFF" opacity="0.056"/><circle cx="454.5" cy="458.6" r="1.35" fill="#FFFFFF" opacity="0.054"/><circle cx="109.4" cy="787.4" r="1.49" fill="#FFFFFF" opacity="0.062"/><circle cx="746.3" cy="1022.3" r="1.84" fill="#FFFFFF" opacity="0.069"/><circle cx="539.0" cy="677.7" r="2.08" fill="#FFFFFF" opacity="0.077"/><circle cx="513.1" cy="987.8" r="1.62" fill="#FFFFFF" opacity="0.032"/><circle cx="756.6" cy="881.8" r="1.82" fill="#FFFFFF" opacity="0.035"/><circle cx="414.6" cy="545.0" r="0.99" fill="#FFFFFF" opacity="0.067"/><circle cx="694.6" cy="3.5" r="0.95" fill="#FFFFFF" opacity="0.065"/><circle cx="288.6" cy="438.9" r="1.70" fill="#FFFFFF" opacity="0.064"/><circle cx="351.9" cy="5.7" r="1.73" fill="#FFFFFF" opacity="0.057"/><circle cx="289.4" cy="775.3" r="1.31" fill="#FFFFFF" opacity="0.040"/><circle cx="364.8" cy="78.8" r="1.02" fill="#FFFFFF" opacity="0.043"/><circle cx="660.7" cy="501.7" r="2.01" fill="#FFFFFF" opacity="0.055"/><circle cx="22.1" cy="627.3" r="0.85" fill="#FFFFFF" opacity="0.056"/><circle cx="36.6" cy="111.7" r="1.70" fill="#FFFFFF" opacity="0.047"/><circle cx="123.3" cy="818.4" r="1.34" fill="#FFFFFF" opacity="0.069"/><circle cx="123.7" cy="889.3" r="1.03" fill="#FFFFFF" opacity="0.058"/><circle cx="472.7" cy="637.7" r="0.71" fill="#FFFFFF" opacity="0.068"/><circle cx="553.3" cy="864.0" r="1.21" fill="#FFFFFF" opacity="0.074"/><circle cx="224.6" cy="583.8" r="0.80" fill="#FFFFFF" opacity="0.038"/><circle cx="399.1" cy="359.4" r="1.91" fill="#FFFFFF" opacity="0.061"/><circle cx="335.2" cy="721.2" r="1.95" fill="#FFFFFF" opacity="0.071"/><circle cx="356.5" cy="297.6" r="1.39" fill="#FFFFFF" opacity="0.076"/><circle cx="63.8" cy="847.4" r="0.93" fill="#FFFFFF" opacity="0.033"/><circle cx="186.1" cy="518.7" r="1.72" fill="#FFFFFF" opacity="0.032"/><circle cx="39.1" cy="281.8" r="1.41" fill="#FFFFFF" opacity="0.038"/><circle cx="470.1" cy="839.5" r="0.66" fill="#FFFFFF" opacity="0.033"/><circle cx="474.9" cy="613.6" r="0.61" fill="#FFFFFF" opacity="0.043"/><circle cx="637.4" cy="618.0" r="0.92" fill="#FFFFFF" opacity="0.031"/><circle cx="155.3" cy="325.9" r="0.62" fill="#FFFFFF" opacity="0.065"/><circle cx="420.2" cy="800.3" r="1.26" fill="#FFFFFF" opacity="0.037"/><circle cx="57.3" cy="202.7" r="1.21" fill="#FFFFFF" opacity="0.047"/><circle cx="301.1" cy="450.1" r="1.75" fill="#FFFFFF" opacity="0.065"/><circle cx="465.9" cy="783.2" r="0.73" fill="#FFFFFF" opacity="0.069"/><circle cx="76.5" cy="734.3" r="0.95" fill="#FFFFFF" opacity="0.053"/><circle cx="567.7" cy="818.7" r="1.61" fill="#FFFFFF" opacity="0.068"/><circle cx="34.1" cy="867.5" r="1.97" fill="#FFFFFF" opacity="0.069"/><circle cx="443.1" cy="910.1" r="0.60" fill="#FFFFFF" opacity="0.054"/><circle cx="668.1" cy="816.5" r="1.17" fill="#FFFFFF" opacity="0.073"/><circle cx="697.5" cy="526.5" r="0.93" fill="#FFFFFF" opacity="0.058"/><circle cx="758.8" cy="843.0" r="1.06" fill="#FFFFFF" opacity="0.042"/><circle cx="719.5" cy="949.5" r="1.38" fill="#FFFFFF" opacity="0.052"/><circle cx="764.0" cy="15.8" r="1.51" fill="#FFFFFF" opacity="0.047"/><circle cx="262.9" cy="1014.6" r="1.22" fill="#FFFFFF" opacity="0.065"/><circle cx="672.4" cy="204.7" r="1.56" fill="#FFFFFF" opacity="0.040"/><circle cx="493.8" cy="89.8" r="1.06" fill="#FFFFFF" opacity="0.049"/><circle cx="741.8" cy="845.0" r="1.53" fill="#FFFFFF" opacity="0.045"/><circle cx="606.6" cy="985.4" r="2.08" fill="#FFFFFF" opacity="0.055"/><circle cx="144.6" cy="178.2" r="2.11" fill="#FFFFFF" opacity="0.069"/><circle cx="621.8" cy="760.4" r="1.31" fill="#FFFFFF" opacity="0.073"/><circle cx="497.0" cy="943.6" r="1.07" fill="#FFFFFF" opacity="0.076"/><circle cx="622.0" cy="387.4" r="0.64" fill="#FFFFFF" opacity="0.053"/><circle cx="243.9" cy="1008.7" r="2.01" fill="#FFFFFF" opacity="0.045"/><circle cx="363.9" cy="440.3" r="1.21" fill="#FFFFFF" opacity="0.048"/><circle cx="244.8" cy="237.0" r="1.82" fill="#FFFFFF" opacity="0.068"/><circle cx="42.8" cy="460.4" r="1.76" fill="#FFFFFF" opacity="0.075"/><circle cx="545.3" cy="716.3" r="1.12" fill="#FFFFFF" opacity="0.037"/><circle cx="194.9" cy="604.2" r="1.27" fill="#FFFFFF" opacity="0.051"/><circle cx="296.3" cy="731.8" r="0.70" fill="#FFFFFF" opacity="0.071"/><circle cx="668.3" cy="898.3" r="1.61" fill="#FFFFFF" opacity="0.063"/><circle cx="443.6" cy="774.1" r="0.98" fill="#FFFFFF" opacity="0.072"/><circle cx="230.0" cy="181.1" r="1.94" fill="#FFFFFF" opacity="0.078"/><circle cx="440.7" cy="165.9" r="1.40" fill="#FFFFFF" opacity="0.045"/><circle cx="49.3" cy="108.9" r="1.89" fill="#FFFFFF" opacity="0.063"/><circle cx="496.7" cy="260.5" r="1.03" fill="#FFFFFF" opacity="0.039"/><circle cx="365.6" cy="913.8" r="0.92" fill="#FFFFFF" opacity="0.078"/><circle cx="646.5" cy="481.9" r="2.15" fill="#FFFFFF" opacity="0.044"/><circle cx="642.5" cy="556.2" r="0.71" fill="#FFFFFF" opacity="0.047"/><circle cx="596.5" cy="72.3" r="1.56" fill="#FFFFFF" opacity="0.069"/><circle cx="635.4" cy="169.5" r="0.85" fill="#FFFFFF" opacity="0.051"/><circle cx="666.7" cy="257.7" r="1.53" fill="#FFFFFF" opacity="0.076"/><circle cx="209.7" cy="272.1" r="1.78" fill="#FFFFFF" opacity="0.035"/><circle cx="437.2" cy="876.1" r="1.06" fill="#FFFFFF" opacity="0.056"/><circle cx="380.8" cy="994.3" r="0.83" fill="#FFFFFF" opacity="0.053"/><circle cx="330.5" cy="180.1" r="1.06" fill="#FFFFFF" opacity="0.038"/><circle cx="389.6" cy="354.5" r="1.76" fill="#FFFFFF" opacity="0.067"/><circle cx="155.0" cy="740.5" r="1.12" fill="#FFFFFF" opacity="0.069"/><circle cx="174.4" cy="584.2" r="1.72" fill="#FFFFFF" opacity="0.036"/><circle cx="31.4" cy="196.0" r="2.14" fill="#FFFFFF" opacity="0.038"/><circle cx="8.2" cy="915.1" r="1.52" fill="#FFFFFF" opacity="0.036"/><circle cx="483.2" cy="653.2" r="0.73" fill="#FFFFFF" opacity="0.049"/><circle cx="621.6" cy="876.4" r="1.41" fill="#FFFFFF" opacity="0.079"/><circle cx="161.6" cy="578.8" r="1.98" fill="#FFFFFF" opacity="0.039"/><circle cx="89.1" cy="385.4" r="1.27" fill="#FFFFFF" opacity="0.053"/><circle cx="652.2" cy="517.3" r="0.63" fill="#FFFFFF" opacity="0.052"/><circle cx="410.6" cy="844.3" r="1.90" fill="#FFFFFF" opacity="0.055"/><circle cx="100.7" cy="694.4" r="1.74" fill="#FFFFFF" opacity="0.053"/><circle cx="483.6" cy="938.3" r="1.36" fill="#FFFFFF" opacity="0.076"/><circle cx="33.8" cy="801.9" r="1.79" fill="#FFFFFF" opacity="0.067"/><circle cx="750.1" cy="196.5" r="1.87" fill="#FFFFFF" opacity="0.034"/><circle cx="18.0" cy="532.2" r="1.30" fill="#FFFFFF" opacity="0.075"/><circle cx="73.3" cy="907.8" r="2.17" fill="#FFFFFF" opacity="0.034"/><circle cx="621.1" cy="754.8" r="1.68" fill="#FFFFFF" opacity="0.046"/><circle cx="338.7" cy="300.3" r="2.15" fill="#FFFFFF" opacity="0.031"/><circle cx="163.9" cy="518.9" r="1.10" fill="#FFFFFF" opacity="0.057"/><circle cx="477.6" cy="608.2" r="1.42" fill="#FFFFFF" opacity="0.031"/><circle cx="155.7" cy="225.4" r="1.97" fill="#FFFFFF" opacity="0.065"/><circle cx="338.7" cy="842.5" r="0.65" fill="#FFFFFF" opacity="0.034"/><circle cx="319.9" cy="987.5" r="1.78" fill="#FFFFFF" opacity="0.073"/><circle cx="471.0" cy="908.5" r="1.42" fill="#FFFFFF" opacity="0.067"/><circle cx="69.0" cy="18.2" r="1.55" fill="#FFFFFF" opacity="0.032"/><circle cx="21.7" cy="703.8" r="1.54" fill="#FFFFFF" opacity="0.053"/><circle cx="118.0" cy="611.0" r="1.54" fill="#FFFFFF" opacity="0.064"/><circle cx="633.1" cy="980.2" r="1.60" fill="#FFFFFF" opacity="0.061"/><circle cx="511.6" cy="605.6" r="1.11" fill="#FFFFFF" opacity="0.065"/><circle cx="439.1" cy="213.2" r="1.90" fill="#FFFFFF" opacity="0.048"/><circle cx="564.8" cy="173.8" r="1.91" fill="#FFFFFF" opacity="0.075"/><circle cx="62.5" cy="342.4" r="0.71" fill="#FFFFFF" opacity="0.031"/><circle cx="454.5" cy="59.3" r="1.69" fill="#FFFFFF" opacity="0.046"/><circle cx="248.9" cy="687.8" r="0.65" fill="#FFFFFF" opacity="0.047"/><circle cx="224.4" cy="560.4" r="1.74" fill="#FFFFFF" opacity="0.033"/><circle cx="633.6" cy="898.7" r="0.90" fill="#FFFFFF" opacity="0.062"/><circle cx="96.7" cy="846.5" r="1.16" fill="#FFFFFF" opacity="0.072"/><circle cx="347.5" cy="176.7" r="0.76" fill="#FFFFFF" opacity="0.052"/><circle cx="361.1" cy="451.0" r="1.57" fill="#FFFFFF" opacity="0.080"/><circle cx="691.1" cy="89.2" r="1.03" fill="#FFFFFF" opacity="0.045"/><circle cx="440.0" cy="857.2" r="1.81" fill="#FFFFFF" opacity="0.043"/><circle cx="677.6" cy="815.0" r="1.32" fill="#FFFFFF" opacity="0.053"/><circle cx="94.8" cy="1001.9" r="2.09" fill="#FFFFFF" opacity="0.064"/><circle cx="410.3" cy="373.3" r="1.11" fill="#FFFFFF" opacity="0.073"/><circle cx="9.9" cy="812.9" r="1.38" fill="#FFFFFF" opacity="0.076"/><circle cx="562.0" cy="451.6" r="1.37" fill="#FFFFFF" opacity="0.047"/><circle cx="423.3" cy="487.6" r="0.73" fill="#FFFFFF" opacity="0.055"/><circle cx="543.0" cy="617.5" r="0.72" fill="#FFFFFF" opacity="0.059"/><circle cx="478.8" cy="435.7" r="0.86" fill="#FFFFFF" opacity="0.041"/><circle cx="628.5" cy="664.0" r="1.73" fill="#FFFFFF" opacity="0.059"/><circle cx="430.5" cy="333.7" r="0.67" fill="#FFFFFF" opacity="0.066"/><circle cx="450.1" cy="433.6" r="1.11" fill="#FFFFFF" opacity="0.074"/><circle cx="104.4" cy="234.0" r="1.51" fill="#FFFFFF" opacity="0.058"/><circle cx="138.4" cy="178.9" r="1.69" fill="#FFFFFF" opacity="0.038"/><circle cx="194.5" cy="701.1" r="1.65" fill="#FFFFFF" opacity="0.040"/><circle cx="688.8" cy="61.6" r="2.11" fill="#FFFFFF" opacity="0.058"/><circle cx="129.7" cy="837.7" r="2.12" fill="#FFFFFF" opacity="0.066"/><circle cx="560.4" cy="884.5" r="1.22" fill="#FFFFFF" opacity="0.042"/><circle cx="651.9" cy="814.4" r="1.35" fill="#FFFFFF" opacity="0.042"/><circle cx="416.9" cy="385.0" r="0.86" fill="#FFFFFF" opacity="0.047"/><circle cx="150.0" cy="861.9" r="1.58" fill="#FFFFFF" opacity="0.071"/><circle cx="198.7" cy="835.2" r="1.00" fill="#FFFFFF" opacity="0.055"/><circle cx="123.7" cy="160.8" r="1.04" fill="#FFFFFF" opacity="0.052"/><circle cx="175.3" cy="255.4" r="1.60" fill="#FFFFFF" opacity="0.068"/><circle cx="95.0" cy="317.3" r="0.72" fill="#FFFFFF" opacity="0.060"/><circle cx="716.6" cy="346.6" r="1.84" fill="#FFFFFF" opacity="0.065"/><circle cx="136.4" cy="722.3" r="1.21" fill="#FFFFFF" opacity="0.031"/><circle cx="748.3" cy="658.0" r="0.91" fill="#FFFFFF" opacity="0.056"/><circle cx="109.7" cy="305.9" r="1.26" fill="#FFFFFF" opacity="0.035"/><circle cx="184.2" cy="623.5" r="2.04" fill="#FFFFFF" opacity="0.035"/><circle cx="703.0" cy="70.6" r="1.71" fill="#FFFFFF" opacity="0.053"/><circle cx="110.0" cy="414.8" r="1.21" fill="#FFFFFF" opacity="0.034"/><circle cx="124.9" cy="10.4" r="1.32" fill="#FFFFFF" opacity="0.038"/><circle cx="76.6" cy="111.6" r="2.13" fill="#FFFFFF" opacity="0.060"/><circle cx="416.9" cy="678.4" r="2.05" fill="#FFFFFF" opacity="0.070"/><circle cx="624.9" cy="193.5" r="1.53" fill="#FFFFFF" opacity="0.074"/><circle cx="445.6" cy="261.2" r="1.24" fill="#FFFFFF" opacity="0.053"/><circle cx="3.6" cy="243.6" r="1.06" fill="#FFFFFF" opacity="0.048"/><circle cx="126.7" cy="92.8" r="1.80" fill="#FFFFFF" opacity="0.059"/><circle cx="84.7" cy="1019.0" r="1.97" fill="#FFFFFF" opacity="0.071"/><circle cx="385.8" cy="509.5" r="1.64" fill="#FFFFFF" opacity="0.061"/><circle cx="263.3" cy="197.6" r="2.09" fill="#FFFFFF" opacity="0.041"/><circle cx="229.9" cy="761.2" r="1.27" fill="#FFFFFF" opacity="0.045"/><circle cx="231.2" cy="466.1" r="1.54" fill="#FFFFFF" opacity="0.040"/><circle cx="217.8" cy="156.5" r="1.58" fill="#FFFFFF" opacity="0.067"/><circle cx="45.1" cy="792.6" r="0.92" fill="#FFFFFF" opacity="0.057"/><circle cx="509.2" cy="482.1" r="1.81" fill="#FFFFFF" opacity="0.061"/><circle cx="203.8" cy="897.6" r="1.14" fill="#FFFFFF" opacity="0.076"/><circle cx="624.2" cy="677.4" r="0.90" fill="#FFFFFF" opacity="0.037"/><circle cx="432.8" cy="1005.2" r="1.40" fill="#FFFFFF" opacity="0.065"/><circle cx="5.0" cy="719.3" r="2.06" fill="#FFFFFF" opacity="0.055"/><circle cx="736.6" cy="733.6" r="1.01" fill="#FFFFFF" opacity="0.052"/><circle cx="658.3" cy="957.8" r="1.32" fill="#FFFFFF" opacity="0.041"/><circle cx="313.9" cy="188.6" r="1.46" fill="#FFFFFF" opacity="0.062"/><circle cx="68.0" cy="463.3" r="1.66" fill="#FFFFFF" opacity="0.043"/><circle cx="129.3" cy="908.4" r="1.20" fill="#FFFFFF" opacity="0.038"/><circle cx="349.5" cy="305.7" r="1.81" fill="#FFFFFF" opacity="0.036"/><circle cx="392.6" cy="88.0" r="2.00" fill="#FFFFFF" opacity="0.061"/><circle cx="446.1" cy="662.0" r="1.64" fill="#FFFFFF" opacity="0.076"/><circle cx="332.8" cy="82.3" r="1.10" fill="#FFFFFF" opacity="0.077"/><circle cx="731.9" cy="186.0" r="1.46" fill="#FFFFFF" opacity="0.044"/><circle cx="383.2" cy="96.8" r="1.78" fill="#FFFFFF" opacity="0.033"/><circle cx="500.4" cy="984.6" r="1.66" fill="#FFFFFF" opacity="0.044"/><circle cx="85.1" cy="549.0" r="1.75" fill="#FFFFFF" opacity="0.073"/><circle cx="373.6" cy="947.7" r="2.11" fill="#FFFFFF" opacity="0.046"/><circle cx="227.6" cy="834.3" r="2.17" fill="#FFFFFF" opacity="0.064"/><circle cx="477.0" cy="114.3" r="0.64" fill="#FFFFFF" opacity="0.050"/><circle cx="69.6" cy="91.3" r="0.71" fill="#FFFFFF" opacity="0.066"/><circle cx="117.1" cy="683.1" r="0.83" fill="#FFFFFF" opacity="0.030"/><circle cx="101.9" cy="223.6" r="0.99" fill="#FFFFFF" opacity="0.079"/><circle cx="219.0" cy="619.4" r="1.61" fill="#FFFFFF" opacity="0.073"/><circle cx="505.0" cy="740.4" r="1.46" fill="#FFFFFF" opacity="0.046"/><circle cx="78.5" cy="723.3" r="0.93" fill="#FFFFFF" opacity="0.036"/><circle cx="109.7" cy="847.9" r="1.80" fill="#FFFFFF" opacity="0.034"/><circle cx="329.0" cy="193.1" r="2.10" fill="#FFFFFF" opacity="0.059"/><circle cx="126.9" cy="697.7" r="1.03" fill="#FFFFFF" opacity="0.036"/><circle cx="423.8" cy="768.0" r="0.98" fill="#FFFFFF" opacity="0.043"/><circle cx="256.8" cy="345.3" r="1.17" fill="#FFFFFF" opacity="0.034"/><circle cx="649.0" cy="578.2" r="2.05" fill="#FFFFFF" opacity="0.060"/><circle cx="336.7" cy="525.9" r="1.79" fill="#FFFFFF" opacity="0.077"/><circle cx="764.1" cy="966.3" r="1.85" fill="#FFFFFF" opacity="0.059"/><circle cx="52.9" cy="334.4" r="1.95" fill="#FFFFFF" opacity="0.060"/><circle cx="113.4" cy="414.6" r="0.65" fill="#FFFFFF" opacity="0.070"/><circle cx="613.1" cy="466.7" r="1.74" fill="#FFFFFF" opacity="0.048"/><circle cx="229.5" cy="831.1" r="2.13" fill="#FFFFFF" opacity="0.080"/><circle cx="302.1" cy="534.3" r="1.39" fill="#FFFFFF" opacity="0.061"/><circle cx="227.8" cy="627.6" r="1.77" fill="#FFFFFF" opacity="0.062"/><circle cx="85.5" cy="321.8" r="0.74" fill="#FFFFFF" opacity="0.034"/><circle cx="694.1" cy="989.1" r="1.64" fill="#FFFFFF" opacity="0.056"/><circle cx="279.8" cy="871.1" r="0.80" fill="#FFFFFF" opacity="0.036"/><circle cx="545.0" cy="135.3" r="1.97" fill="#FFFFFF" opacity="0.031"/><circle cx="30.7" cy="1003.3" r="2.07" fill="#FFFFFF" opacity="0.074"/><circle cx="523.0" cy="116.7" r="1.69" fill="#FFFFFF" opacity="0.069"/><circle cx="425.5" cy="1017.9" r="1.46" fill="#FFFFFF" opacity="0.073"/><circle cx="198.9" cy="391.2" r="0.90" fill="#FFFFFF" opacity="0.063"/><circle cx="560.8" cy="811.1" r="0.61" fill="#FFFFFF" opacity="0.055"/><circle cx="115.6" cy="190.9" r="1.65" fill="#FFFFFF" opacity="0.042"/><circle cx="74.1" cy="293.7" r="1.64" fill="#FFFFFF" opacity="0.046"/><circle cx="743.4" cy="1001.9" r="1.58" fill="#FFFFFF" opacity="0.045"/><circle cx="241.4" cy="650.2" r="1.31" fill="#FFFFFF" opacity="0.057"/><circle cx="500.9" cy="981.5" r="0.70" fill="#FFFFFF" opacity="0.057"/><circle cx="463.0" cy="466.7" r="1.11" fill="#FFFFFF" opacity="0.078"/><circle cx="658.1" cy="409.3" r="2.05" fill="#FFFFFF" opacity="0.075"/><circle cx="718.4" cy="550.6" r="1.32" fill="#FFFFFF" opacity="0.078"/><circle cx="384.4" cy="75.6" r="1.33" fill="#FFFFFF" opacity="0.077"/><circle cx="684.8" cy="407.8" r="0.64" fill="#FFFFFF" opacity="0.067"/><circle cx="648.4" cy="953.5" r="2.04" fill="#FFFFFF" opacity="0.054"/><circle cx="616.8" cy="357.5" r="0.71" fill="#FFFFFF" opacity="0.062"/><circle cx="423.7" cy="300.9" r="1.04" fill="#FFFFFF" opacity="0.064"/><circle cx="363.5" cy="864.0" r="0.99" fill="#FFFFFF" opacity="0.064"/><circle cx="462.4" cy="268.0" r="1.08" fill="#FFFFFF" opacity="0.032"/><circle cx="32.1" cy="1008.5" r="1.40" fill="#FFFFFF" opacity="0.032"/><circle cx="312.1" cy="971.2" r="0.63" fill="#FFFFFF" opacity="0.032"/><circle cx="455.5" cy="339.5" r="1.75" fill="#FFFFFF" opacity="0.055"/><circle cx="404.9" cy="459.4" r="2.15" fill="#FFFFFF" opacity="0.032"/><circle cx="181.7" cy="419.9" r="1.09" fill="#FFFFFF" opacity="0.053"/><circle cx="259.1" cy="729.7" r="1.75" fill="#FFFFFF" opacity="0.075"/><circle cx="74.5" cy="559.4" r="1.99" fill="#FFFFFF" opacity="0.074"/><circle cx="123.7" cy="820.6" r="0.62" fill="#FFFFFF" opacity="0.056"/><circle cx="729.5" cy="219.1" r="1.04" fill="#FFFFFF" opacity="0.069"/><circle cx="536.1" cy="249.9" r="1.12" fill="#FFFFFF" opacity="0.039"/><circle cx="434.3" cy="158.0" r="0.74" fill="#FFFFFF" opacity="0.037"/><circle cx="368.8" cy="169.1" r="1.72" fill="#FFFFFF" opacity="0.041"/><circle cx="748.3" cy="501.7" r="1.95" fill="#FFFFFF" opacity="0.072"/><circle cx="372.1" cy="546.2" r="1.15" fill="#FFFFFF" opacity="0.066"/><circle cx="8.6" cy="359.3" r="1.90" fill="#FFFFFF" opacity="0.065"/><circle cx="214.9" cy="307.9" r="1.76" fill="#FFFFFF" opacity="0.033"/><circle cx="640.6" cy="397.2" r="1.95" fill="#FFFFFF" opacity="0.046"/><circle cx="95.2" cy="137.4" r="0.74" fill="#FFFFFF" opacity="0.071"/><circle cx="233.2" cy="710.5" r="1.52" fill="#FFFFFF" opacity="0.046"/><circle cx="317.2" cy="842.4" r="1.24" fill="#FFFFFF" opacity="0.052"/><circle cx="546.8" cy="327.3" r="0.74" fill="#FFFFFF" opacity="0.034"/><circle cx="683.5" cy="976.8" r="1.68" fill="#FFFFFF" opacity="0.037"/><circle cx="639.6" cy="567.1" r="1.39" fill="#FFFFFF" opacity="0.066"/><circle cx="439.1" cy="460.0" r="2.01" fill="#FFFFFF" opacity="0.063"/><circle cx="679.1" cy="155.7" r="0.65" fill="#FFFFFF" opacity="0.053"/><circle cx="536.0" cy="395.2" r="1.34" fill="#FFFFFF" opacity="0.035"/><circle cx="260.4" cy="108.4" r="0.72" fill="#FFFFFF" opacity="0.036"/><circle cx="400.5" cy="253.7" r="1.32" fill="#FFFFFF" opacity="0.064"/><circle cx="559.8" cy="362.7" r="1.71" fill="#FFFFFF" opacity="0.074"/><circle cx="341.1" cy="159.8" r="2.19" fill="#FFFFFF" opacity="0.079"/><circle cx="762.7" cy="256.4" r="2.04" fill="#FFFFFF" opacity="0.035"/><circle cx="685.9" cy="677.0" r="1.27" fill="#FFFFFF" opacity="0.033"/><circle cx="13.1" cy="644.7" r="0.89" fill="#FFFFFF" opacity="0.078"/><circle cx="549.9" cy="633.3" r="2.10" fill="#FFFFFF" opacity="0.064"/><circle cx="534.9" cy="488.1" r="1.05" fill="#FFFFFF" opacity="0.045"/><circle cx="22.1" cy="742.8" r="1.31" fill="#FFFFFF" opacity="0.067"/><circle cx="406.0" cy="973.4" r="1.45" fill="#FFFFFF" opacity="0.063"/><circle cx="657.4" cy="46.3" r="1.70" fill="#FFFFFF" opacity="0.054"/><circle cx="726.4" cy="194.6" r="2.19" fill="#FFFFFF" opacity="0.035"/><circle cx="602.2" cy="478.7" r="1.08" fill="#FFFFFF" opacity="0.059"/><circle cx="611.6" cy="254.1" r="0.61" fill="#FFFFFF" opacity="0.037"/><circle cx="436.1" cy="674.9" r="1.49" fill="#FFFFFF" opacity="0.051"/><circle cx="43.2" cy="756.5" r="1.25" fill="#FFFFFF" opacity="0.054"/><circle cx="618.3" cy="2.1" r="0.92" fill="#FFFFFF" opacity="0.050"/><circle cx="346.6" cy="58.4" r="1.15" fill="#FFFFFF" opacity="0.067"/><circle cx="226.8" cy="590.0" r="1.42" fill="#FFFFFF" opacity="0.073"/><circle cx="632.7" cy="572.7" r="1.33" fill="#FFFFFF" opacity="0.068"/><circle cx="233.0" cy="166.1" r="1.43" fill="#FFFFFF" opacity="0.032"/><circle cx="149.7" cy="966.7" r="1.03" fill="#FFFFFF" opacity="0.074"/><circle cx="429.8" cy="422.3" r="1.65" fill="#FFFFFF" opacity="0.058"/><circle cx="448.1" cy="634.1" r="0.96" fill="#FFFFFF" opacity="0.039"/><circle cx="514.2" cy="12.2" r="1.84" fill="#FFFFFF" opacity="0.056"/><circle cx="424.2" cy="232.7" r="1.67" fill="#FFFFFF" opacity="0.060"/><circle cx="42.2" cy="1020.6" r="1.68" fill="#FFFFFF" opacity="0.030"/><circle cx="54.7" cy="893.6" r="0.97" fill="#FFFFFF" opacity="0.063"/><circle cx="159.6" cy="711.8" r="1.50" fill="#FFFFFF" opacity="0.063"/><circle cx="416.6" cy="474.8" r="1.94" fill="#FFFFFF" opacity="0.065"/><circle cx="658.6" cy="975.3" r="2.05" fill="#FFFFFF" opacity="0.077"/><circle cx="569.0" cy="247.6" r="1.30" fill="#FFFFFF" opacity="0.054"/><circle cx="147.7" cy="145.6" r="1.35" fill="#FFFFFF" opacity="0.051"/><circle cx="306.7" cy="492.8" r="0.85" fill="#FFFFFF" opacity="0.078"/><circle cx="411.4" cy="726.5" r="1.87" fill="#FFFFFF" opacity="0.072"/><circle cx="585.2" cy="953.5" r="1.56" fill="#FFFFFF" opacity="0.032"/><circle cx="705.7" cy="279.2" r="1.18" fill="#FFFFFF" opacity="0.035"/><circle cx="596.2" cy="852.5" r="1.07" fill="#FFFFFF" opacity="0.063"/><circle cx="593.5" cy="90.3" r="1.48" fill="#FFFFFF" opacity="0.068"/><circle cx="32.0" cy="273.8" r="1.89" fill="#FFFFFF" opacity="0.035"/><circle cx="310.7" cy="686.4" r="2.17" fill="#FFFFFF" opacity="0.042"/><circle cx="291.1" cy="335.7" r="1.55" fill="#FFFFFF" opacity="0.033"/><circle cx="368.8" cy="369.6" r="1.64" fill="#FFFFFF" opacity="0.035"/><circle cx="46.5" cy="519.0" r="2.13" fill="#FFFFFF" opacity="0.051"/><circle cx="505.8" cy="878.9" r="0.81" fill="#FFFFFF" opacity="0.072"/><circle cx="265.0" cy="858.8" r="1.97" fill="#FFFFFF" opacity="0.044"/><circle cx="320.9" cy="525.8" r="1.54" fill="#FFFFFF" opacity="0.050"/><circle cx="138.3" cy="476.1" r="1.53" fill="#FFFFFF" opacity="0.066"/><circle cx="431.2" cy="346.8" r="1.49" fill="#FFFFFF" opacity="0.067"/><circle cx="229.1" cy="153.8" r="1.98" fill="#FFFFFF" opacity="0.039"/><circle cx="205.0" cy="423.3" r="0.61" fill="#FFFFFF" opacity="0.033"/><circle cx="617.8" cy="47.6" r="1.67" fill="#FFFFFF" opacity="0.064"/><circle cx="254.6" cy="286.1" r="2.04" fill="#FFFFFF" opacity="0.053"/><circle cx="303.6" cy="75.7" r="0.67" fill="#FFFFFF" opacity="0.059"/><circle cx="180.6" cy="926.4" r="1.18" fill="#FFFFFF" opacity="0.044"/><circle cx="466.1" cy="10.3" r="0.63" fill="#FFFFFF" opacity="0.053"/><circle cx="653.5" cy="404.9" r="1.86" fill="#FFFFFF" opacity="0.078"/><circle cx="727.8" cy="286.4" r="0.79" fill="#FFFFFF" opacity="0.056"/><circle cx="603.7" cy="616.6" r="1.13" fill="#FFFFFF" opacity="0.064"/><circle cx="104.6" cy="439.7" r="1.87" fill="#FFFFFF" opacity="0.039"/><circle cx="344.6" cy="1004.9" r="0.74" fill="#FFFFFF" opacity="0.063"/><circle cx="486.0" cy="496.0" r="2.06" fill="#FFFFFF" opacity="0.039"/><circle cx="571.3" cy="895.5" r="1.37" fill="#FFFFFF" opacity="0.040"/><circle cx="423.3" cy="4.4" r="1.53" fill="#FFFFFF" opacity="0.043"/><circle cx="432.5" cy="832.0" r="1.03" fill="#FFFFFF" opacity="0.049"/><circle cx="579.6" cy="81.9" r="2.01" fill="#FFFFFF" opacity="0.036"/><circle cx="11.0" cy="779.7" r="1.83" fill="#FFFFFF" opacity="0.043"/><circle cx="722.5" cy="462.1" r="2.10" fill="#FFFFFF" opacity="0.033"/><circle cx="382.8" cy="882.4" r="2.20" fill="#FFFFFF" opacity="0.069"/><circle cx="178.6" cy="704.8" r="1.00" fill="#FFFFFF" opacity="0.065"/><circle cx="642.5" cy="626.4" r="0.93" fill="#FFFFFF" opacity="0.033"/><circle cx="113.3" cy="622.9" r="1.20" fill="#FFFFFF" opacity="0.076"/><circle cx="211.6" cy="153.0" r="1.89" fill="#FFFFFF" opacity="0.074"/><circle cx="646.4" cy="636.0" r="2.11" fill="#FFFFFF" opacity="0.044"/><circle cx="264.6" cy="10.4" r="2.06" fill="#FFFFFF" opacity="0.073"/><circle cx="503.3" cy="637.4" r="1.21" fill="#FFFFFF" opacity="0.043"/><circle cx="332.8" cy="464.8" r="2.05" fill="#FFFFFF" opacity="0.041"/><circle cx="483.9" cy="91.5" r="2.00" fill="#FFFFFF" opacity="0.073"/><circle cx="681.1" cy="842.2" r="2.06" fill="#FFFFFF" opacity="0.070"/><circle cx="186.6" cy="431.3" r="1.49" fill="#FFFFFF" opacity="0.051"/><circle cx="732.3" cy="1.7" r="1.32" fill="#FFFFFF" opacity="0.055"/><circle cx="640.0" cy="674.1" r="0.92" fill="#FFFFFF" opacity="0.075"/><circle cx="582.2" cy="368.4" r="1.01" fill="#FFFFFF" opacity="0.078"/><circle cx="497.3" cy="518.5" r="0.92" fill="#FFFFFF" opacity="0.059"/><circle cx="285.8" cy="757.6" r="1.31" fill="#FFFFFF" opacity="0.050"/><circle cx="514.5" cy="988.9" r="0.75" fill="#FFFFFF" opacity="0.067"/><circle cx="225.6" cy="829.4" r="1.85" fill="#FFFFFF" opacity="0.074"/><circle cx="117.4" cy="721.7" r="1.72" fill="#FFFFFF" opacity="0.069"/></g>
<rect x="30" y="30" width="708" height="964" rx="26" fill="none" stroke="#D9A94E" stroke-width="2" opacity="0.85"/><rect x="42" y="42" width="684" height="940" rx="20" fill="none" stroke="#D9A94E" stroke-width="0.8" opacity="0.35"/>
</svg>