<svg xmlns="http://www.w3.org/2000/svg" width="768" height="1024" viewBox="0 0 768 1024" role="img" aria-label="Original Tome vector cover for Jane Eyre: a four-paned window glowing ember red above a dark moor line on deep plum.">
<defs><radialGradient id="jane-eyre-ember" cx="0.5" cy="0.55" r="0.55"><stop offset="0" stop-color="#F2A65A"/><stop offset="0.55" stop-color="#C4553B"/><stop offset="1" stop-color="#C4553B" stop-opacity="0"/></radialGradient><radialGradient id="jane-eyre-vig" cx="0.5" cy="0.42" r="0.95"><stop offset="0.55" stop-color="#180F14" stop-opacity="0"/><stop offset="1" stop-color="#180F14" stop-opacity="0.38"/></radialGradient></defs>
<rect width="768" height="1024" fill="#2B1E24"/><circle cx="384" cy="400" r="215" fill="url(#jane-eyre-ember)"/><rect x="254" y="250" width="260" height="330" rx="14" fill="#180F14"/><rect x="272" y="268" width="102" height="140" rx="6" fill="url(#jane-eyre-ember)"/><rect x="394" y="268" width="102" height="140" rx="6" fill="url(#jane-eyre-ember)"/><rect x="272" y="422" width="102" height="140" rx="6" fill="#C4553B" opacity="0.85"/><rect x="394" y="422" width="102" height="140" rx="6" fill="#C4553B" opacity="0.6"/><rect x="254" y="250" width="260" height="330" rx="14" fill="none" stroke="#E0B45C" stroke-width="5"/><path d="M 0 720 Q 200 660 400 715 T 768 690 L 768 1024 L 0 1024 Z" fill="#180F14"/><path d="M 0 760 Q 240 705 460 752 T 768 730" fill="none" stroke="#5C3A46" stroke-width="5" stroke-linecap="round" opacity="0.8"/><rect width="768" height="1024" fill="url(#jane-eyre-vig)"/>
<g><circle cx="339.0" cy="967.8" r="1.30" fill="#FFFFFF" opacity="0.060"/><circle cx="250.7" cy="200.8" r="1.68" fill="#FFFFFF" opacity="0.036"/><circle cx="732.9" cy="121.9" r="1.38" fill="#FFFFFF" opacity="0.055"/><circle cx="380.2" cy="219.7" r="2.05" fill="#FFFFFF" opacity="0.073"/><circle cx="250.1" cy="991.1" r="1.35" fill="#FFFFFF" opacity="0.067"/><circle cx="111.4" cy="795.2" r="1.94" fill="#FFFFFF" opacity="0.077"/><circle cx="507.8" cy="336.1" r="1.97" fill="#FFFFFF" opacity="0.071"/><circle cx="493.1" cy="338.0" r="1.45" fill="#FFFFFF" opacity="0.031"/><circle cx="273.7" cy="772.4" r="1.60" fill="#FFFFFF" opacity="0.078"/><circle cx="601.3" cy="434.0" r="1.44" fill="#FFFFFF" opacity="0.047"/><circle cx="33.3" cy="373.8" r="1.69" fill="#FFFFFF" opacity="0.057"/><circle cx="709.2" cy="548.3" r="0.86" fill="#FFFFFF" opacity="0.053"/><circle cx="217.4" cy="557.1" r="1.66" fill="#FFFFFF" opacity="0.042"/><circle cx="295.9" cy="386.1" r="1.56" fill="#FFFFFF" opacity="0.074"/><circle cx="495.8" cy="845.0" r="1.72" fill="#FFFFFF" opacity="0.031"/><circle cx="505.5" cy="188.5" r="0.87" fill="#FFFFFF" opacity="0.078"/><circle cx="556.0" cy="993.9" r="2.10" fill="#FFFFFF" opacity="0.047"/><circle cx="148.5" cy="713.6" r="1.92" fill="#FFFFFF" opacity="0.058"/><circle cx="113.7" cy="301.2" r="1.96" fill="#FFFFFF" opacity="0.041"/><circle cx="86.9" cy="747.3" r="0.87" fill="#FFFFFF" opacity="0.043"/><circle cx="242.3" cy="423.1" r="1.74" fill="#FFFFFF" opacity="0.032"/><circle cx="461.3" cy="308.8" r="1.80" fill="#FFFFFF" opacity="0.049"/><circle cx="466.6" cy="409.0" r="1.73" fill="#FFFFFF" opacity="0.080"/><circle cx="231.9" cy="776.5" r="0.71" fill="#FFFFFF" opacity="0.049"/><circle cx="376.7" cy="355.4" r="1.73" fill="#FFFFFF" opacity="0.036"/><circle cx="530.0" cy="301.9" r="1.09" fill="#FFFFFF" opacity="0.048"/><circle cx="378.1" cy="475.7" r="2.14" fill="#FFFFFF" opacity="0.060"/><circle cx="248.5" cy="297.8" r="0.82" fill="#FFFFFF" opacity="0.072"/><circle cx="43.3" cy="162.8" r="1.17" fill="#FFFFFF" opacity="0.050"/><circle cx="107.6" cy="18.6" r="1.26" fill="#FFFFFF" opacity="0.075"/><circle cx="446.4" cy="224.7" r="1.62" fill="#FFFFFF" opacity="0.077"/><circle cx="230.5" cy="950.6" r="1.44" fill="#FFFFFF" opacity="0.069"/><circle cx="257.4" cy="562.6" r="0.75" fill="#FFFFFF" opacity="0.060"/><circle cx="308.7" cy="727.8" r="2.05" fill="#FFFFFF" opacity="0.057"/><circle cx="546.5" cy="910.4" r="0.97" fill="#FFFFFF" opacity="0.038"/><circle cx="552.2" cy="794.7" r="1.99" fill="#FFFFFF" opacity="0.050"/><circle cx="20.6" cy="391.5" r="1.66" fill="#FFFFFF" opacity="0.042"/><circle cx="735.2" cy="633.9" r="0.71" fill="#FFFFFF" opacity="0.079"/><circle cx="345.0" cy="875.9" r="1.38" fill="#FFFFFF" opacity="0.060"/><circle cx="258.6" cy="401.5" r="2.15" fill="#FFFFFF" opacity="0.069"/><circle cx="243.6" cy="778.7" r="1.76" fill="#FFFFFF" opacity="0.060"/><circle cx="368.1" cy="947.8" r="1.53" fill="#FFFFFF" opacity="0.037"/><circle cx="648.3" cy="762.2" r="1.89" fill="#FFFFFF" opacity="0.031"/><circle cx="275.3" cy="256.4" r="1.25" fill="#FFFFFF" opacity="0.049"/><circle cx="254.0" cy="927.7" r="1.28" fill="#FFFFFF" opacity="0.048"/><circle cx="465.4" cy="115.8" r="1.39" fill="#FFFFFF" opacity="0.035"/><circle cx="622.6" cy="181.3" r="1.82" fill="#FFFFFF" opacity="0.046"/><circle cx="458.7" cy="938.8" r="1.17" fill="#FFFFFF" opacity="0.072"/><circle cx="751.6" cy="131.2" r="1.86" fill="#FFFFFF" opacity="0.078"/><circle cx="262.2" cy="300.9" r="1.73" fill="#FFFFFF" opacity="0.043"/><circle cx="464.8" cy="689.6" r="2.12" fill="#FFFFFF" opacity="0.064"/><circle cx="565.4" cy="722.8" r="2.10" fill="#FFFFFF" opacity="0.040"/><circle cx="708.5" cy="532.4" r="1.81" fill="#FFFFFF" opacity="0.067"/><circle cx="441.7" cy="387.0" r="1.93" fill="#FFFFFF" opacity="0.064"/><circle cx="471.0" cy="1021.6" r="1.70" fill="#FFFFFF" opacity="0.052"/><circle cx="198.0" cy="314.1" r="1.62" fill="#FFFFFF" opacity="0.058"/><circle cx="720.5" cy="282.8" r="1.68" fill="#FFFFFF" opacity="0.076"/><circle cx="524.9" cy="12.8" r="1.80" fill="#FFFFFF" opacity="0.052"/><circle cx="733.5" cy="935.3" r="1.81" fill="#FFFFFF" opacity="0.068"/><circle cx="276.3" cy="821.6" r="1.77" fill="#FFFFFF" opacity="0.059"/><circle cx="296.6" cy="411.3" r="1.56" fill="#FFFFFF" opacity="0.053"/><circle cx="126.6" cy="400.6" r="1.14" fill="#FFFFFF" opacity="0.078"/><circle cx="735.1" cy="590.8" r="0.89" fill="#FFFFFF" opacity="0.054"/><circle cx="265.7" cy="956.6" r="1.90" fill="#FFFFFF" opacity="0.043"/><circle cx="495.8" cy="48.3" r="1.78" fill="#FFFFFF" opacity="0.055"/><circle cx="582.6" cy="147.9" r="0.98" fill="#FFFFFF" opacity="0.053"/><circle cx="638.9" cy="373.8" r="1.44" fill="#FFFFFF" opacity="0.031"/><circle cx="491.5" cy="374.7" r="1.70" fill="#FFFFFF" opacity="0.038"/><circle cx="382.3" cy="671.8" r="1.80" fill="#FFFFFF" opacity="0.051"/><circle cx="21.0" cy="459.1" r="1.36" fill="#FFFFFF" opacity="0.059"/><circle cx="285.2" cy="143.6" r="0.92" fill="#FFFFFF" opacity="0.053"/><circle cx="429.1" cy="886.5" r="1.66" fill="#FFFFFF" opacity="0.044"/><circle cx="76.2" cy="459.7" r="1.21" fill="#FFFFFF" opacity="0.052"/><circle cx="530.3" cy="987.4" r="0.79" fill="#FFFFFF" opacity="0.044"/><circle cx="598.7" cy="18.5" r="1.23" fill="#FFFFFF" opacity="0.066"/><circle cx="312.8" cy="298.8" r="1.55" fill="#FFFFFF" opacity="0.037"/><circle cx="493.2" cy="712.1" r="1.94" fill="#FFFFFF" opacity="0.042"/><circle cx="106.1" cy="306.9" r="1.40" fill="#FFFFFF" opacity="0.032"/><circle cx="349.4" cy="213.8" r="1.86" fill="#FFFFFF" opacity="0.072"/><circle cx="493.2" cy="670.7" r="0.70" fill="#FFFFFF" opacity="0.062"/><circle cx="213.6" cy="98.4" r="0.75" fill="#FFFFFF" opacity="0.057"/><circle cx="552.6" cy="149.4" r="0.61" fill="#FFFFFF" opacity="0.062"/><circle cx="97.1" cy="738.8" r="2.13" fill="#FFFFFF" opacity="0.059"/><circle cx="719.2" cy="863.8" r="0.76" fill="#FFFFFF" opacity="0.052"/><circle cx="210.4" cy="867.1" r="0.68" fill="#FFFFFF" opacity="0.075"/><circle cx="654.9" cy="203.3" r="0.79" fill="#FFFFFF" opacity="0.069"/><circle cx="182.4" cy="263.5" r="1.07" fill="#FFFFFF" opacity="0.037"/><circle cx="286.0" cy="531.8" r="1.63" fill="#FFFFFF" opacity="0.080"/><circle cx="754.1" cy="255.9" r="1.68" fill="#FFFFFF" opacity="0.065"/><circle cx="671.2" cy="159.7" r="1.41" fill="#FFFFFF" opacity="0.066"/><circle cx="428.5" cy="1009.1" r="1.90" fill="#FFFFFF" opacity="0.079"/><circle cx="750.1" cy="392.8" r="1.78" fill="#FFFFFF" opacity="0.033"/><circle cx="95.2" cy="250.1" r="1.30" fill="#FFFFFF" opacity="0.052"/><circle cx="213.9" cy="946.9" r="0.90" fill="#FFFFFF" opacity="0.080"/><circle cx="553.6" cy="695.3" r="0.87" fill="#FFFFFF" opacity="0.074"/><circle cx="548.6" cy="194.2" r="1.40" fill="#FFFFFF" opacity="0.033"/><circle cx="544.3" cy="236.0" r="1.12" fill="#FFFFFF" opacity="0.065"/><circle cx="542.6" cy="42.4" r="0.88" fill="#FFFFFF" opacity="0.077"/><circle cx="115.8" cy="979.6" r="1.75" fill="#FFFFFF" opacity="0.051"/><circle cx="391.2" cy="617.1" r="1.73" fill="#FFFFFF" opacity="0.070"/><circle cx="350.2" cy="751.5" r="1.11" fill="#FFFFFF" opacity="0.051"/><circle cx="86.4" cy="649.9" r="1.63" fill="#FFFFFF" opacity="0.055"/><circle cx="695.3" cy="95.2" r="1.66" fill="#FFFFFF" opacity="0.063"/><circle cx="84.8" cy="905.0" r="0.83" fill="#FFFFFF" opacity="0.034"/><circle cx="464.0" cy="154.4" r="0.77" fill="#FFFFFF" opacity="0.046"/><circle cx="682.8" cy="822.5" r="1.74" fill="#FFFFFF" opacity="0.051"/><circle cx="10.9" cy="147.5" r="1.09" fill="#FFFFFF" opacity="0.067"/><circle cx="24.7" cy="788.6" r="1.42" fill="#FFFFFF" opacity="0.031"/><circle cx="731.5" cy="450.5" r="0.68" fill="#FFFFFF" opacity="0.061"/><circle cx="178.8" cy="527.1" r="0.72" fill="#FFFFFF" opacity="0.049"/><circle cx="596.6" cy="346.3" r="2.09" fill="#FFFFFF" opacity="0.074"/><circle cx="649.8" cy="90.6" r="0.87" fill="#FFFFFF" opacity="0.059"/><circle cx="382.7" cy="920.3" r="0.76" fill="#FFFFFF" opacity="0.054"/><circle cx="612.7" cy="181.9" r="0.73" fill="#FFFFFF" opacity="0.039"/><circle cx="90.9" cy="564.3" r="1.38" fill="#FFFFFF" opacity="0.077"/><circle cx="1.1" cy="763.3" r="0.78" fill="#FFFFFF" opacity="0.066"/><circle cx="671.2" cy="1023.5" r="1.10" fill="#FFFFFF" opacity="0.055"/><circle cx="149.1" cy="260.5" r="1.76" fill="#FFFFFF" opacity="0.073"/><circle cx="599.7" cy="799.3" r="1.48" fill="#FFFFFF" opacity="0.051"/><circle cx="246.3" cy="75.4" r="1.81" fill="#FFFFFF" opacity="0.056"/><circle cx="628.9" cy="337.6" r="1.74" fill="#FFFFFF" opacity="0.040"/><circle cx="469.1" cy="815.8" r="0.70" fill="#FFFFFF" opacity="0.046"/><circle cx="762.8" cy="470.6" r="0.79" fill="#FFFFFF" opacity="0.079"/><circle cx="614.2" cy="68.8" r="1.24" fill="#FFFFFF" opacity="0.034"/><circle cx="43.4" cy="278.7" r="1.67" fill="#FFFFFF" opacity="0.035"/><circle cx="239.1" cy="491.1" r="0.79" fill="#FFFFFF" opacity="0.056"/><circle cx="675.5" cy="332.0" r="1.97" fill="#FFFFFF" opacity="0.043"/><circle cx="402.2" cy="830.2" r="2.00" fill="#FFFFFF" opacity="0.041"/><circle cx="238.2" cy="897.9" r="1.12" fill="#FFFFFF" opacity="0.032"/><circle cx="632.9" cy="894.0" r="2.07" fill="#FFFFFF" opacity="0.064"/><circle cx="658.2" cy="53.4" r="1.18" fill="#FFFFFF" opacity="0.064"/><circle cx="649.4" cy="78.4" r="0.72" fill="#FFFFFF" opacity="0.077"/><circle cx="230.0" cy="336.0" r="1.97" fill="#FFFFFF" opacity="0.037"/><circle cx="566.8" cy="766.3" r="1.78" fill="#FFFFFF" opacity="0.055"/><circle cx="53.9" cy="566.5" r="1.37" fill="#FFFFFF" opacity="0.034"/><circle cx="498.6" cy="984.1" r="1.75" fill="#FFFFFF" opacity="0.064"/><circle cx="183.2" cy="985.7" r="0.67" fill="#FFFFFF" opacity="0.042"/><circle cx="109.7" cy="572.6" r="1.84" fill="#FFFFFF" opacity="0.070"/><circle cx="323.9" cy="399.2" r="1.58" fill="#FFFFFF" opacity="0.047"/><circle cx="310.1" cy="982.6" r="1.04" fill="#FFFFFF" opacity="0.065"/><circle cx="587.8" cy="673.1" r="2.15" fill="#FFFFFF" opacity="0.078"/><circle cx="167.3" cy="529.6" r="0.62" fill="#FFFFFF" opacity="0.061"/><circle cx="56.3" cy="231.7" r="1.28" fill="#FFFFFF" opacity="0.058"/><circle cx="715.8" cy="168.1" r="1.52" fill="#FFFFFF" opacity="0.059"/><circle cx="705.6" cy="67.7" r="2.00" fill="#FFFFFF" opacity="0.079"/><circle cx="121.8" cy="674.2" r="1.53" fill="#FFFFFF" opacity="0.048"/><circle cx="74.4" cy="162.8" r="2.12" fill="#FFFFFF" opacity="0.033"/><circle cx="271.1" cy="347.1" r="0.70" fill="#FFFFFF" opacity="0.036"/><circle cx="141.5" cy="995.5" r="2.18" fill="#FFFFFF" opacity="0.074"/><circle cx="533.8" cy="746.8" r="1.69" fill="#FFFFFF" opacity="0.058"/><circle cx="151.9" cy="407.1" r="1.37" fill="#FFFFFF" opacity="0.074"/><circle cx="127.5" cy="559.0" r="0.83" fill="#FFFFFF" opacity="0.078"/><circle cx="340.9" cy="67.8" r="1.90" fill="#FFFFFF" opacity="0.041"/><circle cx="182.0" cy="209.7" r="0.80" fill="#FFFFFF" opacity="0.067"/><circle cx="310.2" cy="326.3" r="1.21" fill="#FFFFFF" opacity="0.063"/><circle cx="687.2" cy="213.5" r="1.58" fill="#FFFFFF" opacity="0.033"/><circle cx="152.2" cy="627.4" r="0.78" fill="#FFFFFF" opacity="0.043"/><circle cx="446.1" cy="951.4" r="0.65" fill="#FFFFFF" opacity="0.041"/><circle cx="328.9" cy="536.3" r="0.94" fill="#FFFFFF" opacity="0.039"/><circle cx="346.4" cy="485.3" r="1.64" fill="#FFFFFF" opacity="0.052"/><circle cx="337.8" cy="817.4" r="1.65" fill="#FFFFFF" opacity="0.043"/><circle cx="244.6" cy="669.9" r="0.82" fill="#FFFFFF" opacity="0.060"/><circle cx="270.0" cy="62.5" r="1.57" fill="#FFFFFF" opacity="0.072"/><circle cx="723.1" cy="468.0" r="1.28" fill="#FFFFFF" opacity="0.068"/><circle cx="758.1" cy="117.9" r="1.84" fill="#FFFFFF" opacity="0.060"/><circle cx="729.1" cy="228.5" r="1.62" fill="#FFFFFF" opacity="0.043"/><circle cx="517.8" cy="261.6" r="1.78" fill="#FFFFFF" opacity="0.067"/><circle cx="529.4" cy="602.2" r="1.02" fill="#FFFFFF" opacity="0.052"/><circle cx="138.1" cy="648.4" r="0.78" fill="#FFFFFF" opacity="0.078"/><circle cx="266.5" cy="1002.0" r="0.89" fill="#FFFFFF" opacity="0.030"/><circle cx="251.5" cy="183.0" r="1.76" fill="#FFFFFF" opacity="0.077"/><circle cx="645.9" cy="423.6" r="1.32" fill="#FFFFFF" opacity="0.058"/><circle cx="707.3" cy="889.1" r="1.15" fill="#FFFFFF" opacity="0.041"/><circle cx="636.4" cy="565.0" r="0.83" fill="#FFFFFF" opacity="0.051"/><circle cx="506.2" cy="357.6" r="1.42" fill="#FFFFFF" opacity="0.052"/><circle cx="166.5" cy="817.8" r="1.10" fill="#FFFFFF" opacity="0.064"/><circle cx="366.8" cy="832.7" r="1.09" fill="#FFFFFF" opacity="0.038"/><circle cx="195.0" cy="512.0" r="1.88" fill="#FFFFFF" opacity="0.038"/><circle cx="552.4" cy="987.0" r="1.08" fill="#FFFFFF" opacity="0.055"/><circle cx="510.1" cy="462.2" r="1.18" fill="#FFFFFF" opacity="0.034"/><circle cx="258.2" cy="71.7" r="1.87" fill="#FFFFFF" opacity="0.058"/><circle cx="88.3" cy="664.5" r="1.88" fill="#FFFFFF" opacity="0.067"/><circle cx="96.2" cy="714.2" r="1.61" fill="#FFFFFF" opacity="0.068"/><circle cx="302.7" cy="118.0" r="0.83" fill="#FFFFFF" opacity="0.053"/><circle cx="25.9" cy="157.8" r="0.98" fill="#FFFFFF" opacity="0.079"/><circle cx="42.8" cy="939.8" r="2.11" fill="#FFFFFF" opacity="0.049"/><circle cx="492.6" cy="721.2" r="1.24" fill="#FFFFFF" opacity="0.033"/><circle cx="130.7" cy="252.0" r="1.10" fill="#FFFFFF" opacity="0.064"/><circle cx="400.9" cy="807.0" r="2.01" fill="#FFFFFF" opacity="0.048"/><circle cx="345.4" cy="335.7" r="2.04" fill="#FFFFFF" opacity="0.038"/><circle cx="327.4" cy="986.0" r="1.20" fill="#FFFFFF" opacity="0.033"/><circle cx="519.0" cy="282.4" r="1.02" fill="#FFFFFF" opacity="0.060"/><circle cx="216.3" cy="553.1" r="2.07" fill="#FFFFFF" opacity="0.031"/><circle cx="412.5" cy="265.5" r="1.41" fill="#FFFFFF" opacity="0.060"/><circle cx="396.2" cy="552.6" r="0.62" fill="#FFFFFF" opacity="0.072"/><circle cx="462.3" cy="842.9" r="1.76" fill="#FFFFFF" opacity="0.054"/><circle cx="455.3" cy="430.0" r="1.72" fill="#FFFFFF" opacity="0.047"/><circle cx="406.0" cy="918.5" r="1.11" fill="#FFFFFF" opacity="0.049"/><circle cx="707.1" cy="718.8" r="0.81" fill="#FFFFFF" opacity="0.043"/><circle cx="16.8" cy="952.6" r="2.12" fill="#FFFFFF" opacity="0.072"/><circle cx="615.7" cy="828.9" r="2.05" fill="#FFFFFF" opacity="0.043"/><circle cx="528.8" cy="683.5" r="1.33" fill="#FFFFFF" opacity="0.065"/><circle cx="665.1" cy="68.3" r="0.88" fill="#FFFFFF" opacity="0.037"/><circle cx="295.7" cy="8.2" r="2.02" fill="#FFFFFF" opacity="0.070"/><circle cx="556.8" cy="818.0" r="1.12" fill="#FFFFFF" opacity="0.077"/><circle cx="339.8" cy="671.7" r="2.04" fill="#FFFFFF" opacity="0.033"/><circle cx="665.2" cy="972.8" r="0.75" fill="#FFFFFF" opacity="0.079"/><circle cx="403.0" cy="922.8" r="1.31" fill="#FFFFFF" opacity="0.064"/><circle cx="492.5" cy="343.0" r="1.81" fill="#FFFFFF" opacity="0.074"/><circle cx="294.0" cy="688.0" r="1.62" fill="#FFFFFF" opacity="0.060"/><circle cx="243.2" cy="294.8" r="1.61" fill="#FFFFFF" opacity="0.046"/><circle cx="320.6" cy="361.2" r="1.70" fill="#FFFFFF" opacity="0.058"/><circle cx="177.6" cy="797.8" r="1.66" fill="#FFFFFF" opacity="0.077"/><circle cx="153.8" cy="563.6" r="1.89" fill="#FFFFFF" opacity="0.047"/><circle cx="359.6" cy="896.4" r="1.53" fill="#FFFFFF" opacity="0.056"/><circle cx="446.2" cy="524.7" r="2.08" fill="#FFFFFF" opacity="0.056"/><circle cx="511.7" cy="404.7" r="1.24" fill="#FFFFFF" opacity="0.071"/><circle cx="333.8" cy="974.5" r="1.17" fill="#FFFFFF" opacity="0.039"/><circle cx="371.7" cy="187.7" r="0.89" fill="#FFFFFF" opacity="0.053"/><circle cx="81.1" cy="794.1" r="1.17" fill="#FFFFFF" opacity="0.067"/><circle cx="133.2" cy="264.7" r="1.95" fill="#FFFFFF" opacity="0.067"/><circle cx="466.3" cy="702.2" r="2.11" fill="#FFFFFF" opacity="0.036"/><circle cx="374.1" cy="369.8" r="0.82" fill="#FFFFFF" opacity="0.050"/><circle cx="215.1" cy="473.1" r="2.00" fill="#FFFFFF" opacity="0.053"/><circle cx="522.4" cy="798.5" r="1.29" fill="#FFFFFF" opacity="0.038"/><circle cx="448.9" cy="184.2" r="1.93" fill="#FFFFFF" opacity="0.041"/><circle cx="56.1" cy="554.6" r="0.93" fill="#FFFFFF" opacity="0.041"/><circle cx="379.4" cy="751.2" r="2.00" fill="#FFFFFF" opacity="0.043"/><circle cx="448.4" cy="25.4" r="1.53" fill="#FFFFFF" opacity="0.069"/><circle cx="661.7" cy="319.0" r="1.66" fill="#FFFFFF" opacity="0.047"/><circle cx="609.9" cy="86.6" r="0.89" fill="#FFFFFF" opacity="0.063"/><circle cx="263.5" cy="989.7" r="1.08" fill="#FFFFFF" opacity="0.052"/><circle cx="463.8" cy="564.7" r="1.36" fill="#FFFFFF" opacity="0.049"/><circle cx="416.4" cy="519.2" r="1.66" fill="#FFFFFF" opacity="0.078"/><circle cx="275.4" cy="759.6" r="0.66" fill="#FFFFFF" opacity="0.047"/><circle cx="584.4" cy="205.5" r="1.74" fill="#FFFFFF" opacity="0.033"/><circle cx="533.8" cy="544.9" r="2.16" fill="#FFFFFF" opacity="0.071"/><circle cx="27.5" cy="725.6" r="1.40" fill="#FFFFFF" opacity="0.038"/><circle cx="263.7" cy="272.8" r="1.32" fill="#FFFFFF" opacity="0.080"/><circle cx="564.0" cy="294.5" r="1.88" fill="#FFFFFF" opacity="0.031"/><circle cx="315.4" cy="575.2" r="1.96" fill="#FFFFFF" opacity="0.065"/><circle cx="544.7" cy="1010.8" r="0.66" fill="#FFFFFF" opacity="0.059"/><circle cx="735.7" cy="646.4" r="1.31" fill="#FFFFFF" opacity="0.031"/><circle cx="407.0" cy="750.9" r="0.86" fill="#FFFFFF" opacity="0.078"/><circle cx="200.7" cy="876.9" r="1.00" fill="#FFFFFF" opacity="0.066"/><circle cx="181.6" cy="674.7" r="0.91" fill="#FFFFFF" opacity="0.071"/><circle cx="42.5" cy="435.5" r="1.47" fill="#FFFFFF" opacity="0.053"/><circle cx="751.9" cy="87.6" r="1.84" fill="#FFFFFF" opacity="0.065"/><circle cx="532.1" cy="612.3" r="1.65" fill="#FFFFFF" opacity="0.038"/><circle cx="480.4" cy="549.6" r="1.06" fill="#FFFFFF" opacity="0.041"/><circle cx="401.2" cy="346.8" r="1.74" fill="#FFFFFF" opacity="0.036"/><circle cx="3.6" cy="19.7" r="1.14" fill="#FFFFFF" opacity="0.076"/><circle cx="742.5" cy="55.9" r="1.80" fill="#FFFFFF" opacity="0.040"/><circle cx="380.7" cy="122.6" r="1.16" fill="#FFFFFF" opacity="0.042"/><circle cx="640.9" cy="850.9" r="1.94" fill="#FFFFFF" opacity="0.061"/><circle cx="410.7" cy="152.0" r="1.07" fill="#FFFFFF" opacity="0.047"/><circle cx="492.9" cy="642.5" r="1.19" fill="#FFFFFF" opacity="0.079"/><circle cx="211.6" cy="211.9" r="2.00" fill="#FFFFFF" opacity="0.080"/><circle cx="627.4" cy="988.3" r="1.76" fill="#FFFFFF" opacity="0.036"/><circle cx="741.8" cy="300.9" r="0.76" fill="#FFFFFF" opacity="0.076"/><circle cx="676.3" cy="697.9" r="2.07" fill="#FFFFFF" opacity="0.039"/><circle cx="140.0" cy="256.2" r="1.65" fill="#FFFFFF" opacity="0.040"/><circle cx="706.9" cy="419.4" r="2.17" fill="#FFFFFF" opacity="0.055"/><circle cx="708.4" cy="943.5" r="1.94" fill="#FFFFFF" opacity="0.048"/><circle cx="659.2" cy="962.2" r="1.65" fill="#FFFFFF" opacity="0.075"/><circle cx="49.4" cy="402.8" r="1.58" fill="#FFFFFF" opacity="0.038"/><circle cx="257.6" cy="836.1" r="1.39" fill="#FFFFFF" opacity="0.044"/><circle cx="707.8" cy="916.9" r="1.28" fill="#FFFFFF" opacity="0.072"/><circle cx="510.0" cy="315.8" r="0.96" fill="#FFFFFF" opacity="0.049"/><circle cx="689.7" cy="374.9" r="2.17" fill="#FFFFFF" opacity="0.055"/><circle cx="134.9" cy="522.9" r="2.14" fill="#FFFFFF" opacity="0.050"/><circle cx="542.2" cy="319.2" r="2.04" fill="#FFFFFF" opacity="0.057"/><circle cx="562.4" cy="306.6" r="0.71" fill="#FFFFFF" opacity="0.034"/><circle cx="657.0" cy="370.9" r="0.64" fill="#FFFFFF" opacity="0.059"/><circle cx="405.2" cy="463.7" r="1.16" fill="#FFFFFF" opacity="0.041"/><circle cx="278.5" cy="145.8" r="1.48" fill="#FFFFFF" opacity="0.076"/><circle cx="321.1" cy="339.4" r="1.14" fill="#FFFFFF" opacity="0.031"/><circle cx="717.5" cy="228.5" r="1.29" fill="#FFFFFF" opacity="0.075"/><circle cx="206.1" cy="225.9" r="0.91" fill="#FFFFFF" opacity="0.032"/><circle cx="618.6" cy="299.3" r="1.64" fill="#FFFFFF" opacity="0.055"/><circle cx="95.8" cy="811.0" r="1.67" fill="#FFFFFF" opacity="0.059"/><circle cx="181.5" cy="946.7" r="1.63" fill="#FFFFFF" opacity="0.037"/><circle cx="22.1" cy="596.6" r="0.65" fill="#FFFFFF" opacity="0.060"/><circle cx="692.7" cy="759.2" r="1.64" fill="#FFFFFF" opacity="0.048"/><circle cx="330.5" cy="683.1" r="1.53" fill="#FFFFFF" opacity="0.031"/><circle cx="18.5" cy="330.6" r="1.30" fill="#FFFFFF" opacity="0.034"/><circle cx="657.0" cy="944.9" r="1.36" fill="#FFFFFF" opacity="0.059"/><circle cx="653.6" cy="263.9" r="1.13" fill="#FFFFFF" opacity="0.033"/><circle cx="291.2" cy="825.8" r="1.70" fill="#FFFFFF" opacity="0.037"/><circle cx="466.2" cy="936.1" r="1.37" fill="#FFFFFF" opacity="0.040"/><circle cx="191.4" cy="59.8" r="1.05" fill="#FFFFFF" opacity="0.077"/><circle cx="416.1" cy="625.0" r="1.83" fill="#FFFFFF" opacity="0.040"/><circle cx="583.0" cy="849.2" r="0.91" fill="#FFFFFF" opacity="0.045"/><circle cx="247.8" cy="885.1" r="1.78" fill="#FFFFFF" opacity="0.065"/><circle cx="608.7" cy="97.8" r="1.14" fill="#FFFFFF" opacity="0.063"/><circle cx="565.7" cy="199.0" r="1.50" fill="#FFFFFF" opacity="0.066"/><circle cx="56.5" cy="156.2" r="2.20" fill="#FFFFFF" opacity="0.045"/><circle cx="704.9" cy="228.3" r="1.56" fill="#FFFFFF" opacity="0.056"/><circle cx="681.9" cy="583.5" r="1.31" fill="#FFFFFF" opacity="0.068"/><circle cx="401.0" cy="998.3" r="1.69" fill="#FFFFFF" opacity="0.074"/><circle cx="154.5" cy="823.9" r="1.62" fill="#FFFFFF" opacity="0.060"/><circle cx="536.7" cy="600.7" r="0.91" fill="#FFFFFF" opacity="0.050"/><circle cx="235.2" cy="533.0" r="1.51" fill="#FFFFFF" opacity="0.059"/><circle cx="342.2" cy="26.1" r="1.05" fill="#FFFFFF" opacity="0.077"/><circle cx="314.3" cy="808.9" r="0.66" fill="#FFFFFF" opacity="0.072"/><circle cx="494.3" cy="840.1" r="1.78" fill="#FFFFFF" opacity="0.074"/><circle cx="532.7" cy="659.8" r="0.80" fill="#FFFFFF" opacity="0.035"/><circle cx="551.3" cy="682.5" r="1.87" fill="#FFFFFF" opacity="0.079"/><circle cx="110.5" cy="226.0" r="1.20" fill="#FFFFFF" opacity="0.065"/><circle cx="577.9" cy="378.1" r="2.01" fill="#FFFFFF" opacity="0.079"/><circle cx="471.1" cy="75.1" r="1.40" fill="#FFFFFF" opacity="0.050"/><circle cx="556.3" cy="374.0" r="0.79" fill="#FFFFFF" opacity="0.045"/><circle cx="389.4" cy="840.3" r="1.61" fill="#FFFFFF" opacity="0.060"/><circle cx="384.1" cy="111.3" r="1.40" fill="#FFFFFF" opacity="0.036"/><circle cx="705.1" cy="895.7" r="1.49" fill="#FFFFFF" opacity="0.067"/><circle cx="115.9" cy="49.4" r="1.30" fill="#FFFFFF" opacity="0.031"/><circle cx="680.1" cy="586.4" r="2.09" fill="#FFFFFF" opacity="0.045"/><circle cx="564.0" cy="971.6" r="2.14" fill="#FFFFFF" opacity="0.046"/><circle cx="507.3" cy="553.6" r="1.80" fill="#FFFFFF" opacity="0.046"/><circle cx="545.1" cy="64.9" r="1.53" fill="#FFFFFF" opacity="0.058"/><circle cx="695.2" cy="492.8" r="1.98" fill="#FFFFFF" opacity="0.036"/><circle cx="665.8" cy="742.2" r="0.72" fill="#FFFFFF" opacity="0.045"/><circle cx="511.6" cy="515.2" r="0.94" fill="#FFFFFF" opacity="0.042"/><circle cx="487.3" cy="213.4" r="0.94" fill="#FFFFFF" opacity="0.060"/><circle cx="6.1" cy="809.2" r="1.04" fill="#FFFFFF" opacity="0.054"/><circle cx="535.8" cy="865.9" r="0.67" fill="#FFFFFF" opacity="0.060"/><circle cx="51.2" cy="466.2" r="1.37" fill="#FFFFFF" opacity="0.059"/><circle cx="493.6" cy="560.1" r="0.87" fill="#FFFFFF" opacity="0.056"/><circle cx="174.6" cy="653.4" r="1.81" fill="#FFFFFF" opacity="0.055"/><circle cx="476.6" cy="481.1" r="1.86" fill="#FFFFFF" opacity="0.040"/><circle cx="571.0" cy="129.2" r="1.92" fill="#FFFFFF" opacity="0.055"/><circle cx="582.3" cy="977.9" r="1.82" fill="#FFFFFF" opacity="0.032"/><circle cx="158.2" cy="1007.8" r="0.96" fill="#FFFFFF" opacity="0.065"/><circle cx="487.8" cy="928.7" r="1.54" fill="#FFFFFF" opacity="0.032"/><circle cx="293.3" cy="61.4" r="2.00" fill="#FFFFFF" opacity="0.035"/><circle cx="749.8" cy="614.6" r="1.48" fill="#FFFFFF" opacity="0.035"/><circle cx="559.0" cy="510.5" r="0.91" fill="#FFFFFF" opacity="0.070"/><circle cx="10.4" cy="952.3" r="1.01" fill="#FFFFFF" opacity="0.075"/><circle cx="414.1" cy="789.7" r="0.69" fill="#FFFFFF" opacity="0.080"/><circle cx="47.0" cy="268.5" r="0.92" fill="#FFFFFF" opacity="0.059"/><circle cx="258.1" cy="583.3" r="1.56" fill="#FFFFFF" opacity="0.070"/><circle cx="244.3" cy="605.4" r="0.81" fill="#FFFFFF" opacity="0.061"/><circle cx="606.0" cy="422.0" r="0.74" fill="#FFFFFF" opacity="0.072"/><circle cx="224.9" cy="959.1" r="1.46" fill="#FFFFFF" opacity="0.069"/><circle cx="28.9" cy="417.9" r="1.04" fill="#FFFFFF" opacity="0.049"/><circle cx="105.2" cy="193.1" r="1.03" fill="#FFFFFF" opacity="0.058"/><circle cx="379.1" cy="10.1" r="1.86" fill="#FFFFFF" opacity="0.032"/><circle cx="1.2" cy="123.7" r="0.74" fill="#FFFFFF" opacity="0.078"/><circle cx="487.0" cy="985.3" r="1.55" fill="#FFFFFF" opacity="0.030"/><circle cx="171.5" cy="693.7" r="0.92" fill="#FFFFFF" opacity="0.078"/><circle cx="165.2" cy="537.8" r="1.99" fill="#FFFFFF" opacity="0.033"/><circle cx="168.8" cy="147.8" r="1.61" fill="#FFFFFF" opacity="0.056"/><circle cx="741.5" cy="371.4" r="2.04" fill="#FFFFFF" opacity="0.065"/><circle cx="631.3" cy="794.7" r="0.70" fill="#FFFFFF" opacity="0.051"/><circle cx="400.3" cy="413.8" r="1.31" fill="#FFFFFF" opacity="0.057"/><circle cx="642.9" cy="526.2" r="2.20" fill="#FFFFFF" opacity="0.067"/><circle cx="509.3" cy="560.4" r="2.16" fill="#FFFFFF" opacity="0.036"/><circle cx="591.3" cy="514.7" r="2.11" fill="#FFFFFF" opacity="0.073"/><circle cx="568.8" cy="482.4" r="2.19" fill="#FFFFFF" opacity="0.039"/><circle cx="396.6" cy="361.6" r="2.02" fill="#FFFFFF" opacity="0.033"/><circle cx="551.9" cy="67.2" r="0.66" fill="#FFFFFF" opacity="0.068"/><circle cx="592.3" cy="616.6" r="0.74" fill="#FFFFFF" opacity="0.075"/><circle cx="107.0" cy="580.6" r="1.16" fill="#FFFFFF" opacity="0.063"/><circle cx="3.5" cy="596.0" r="1.13" fill="#FFFFFF" opacity="0.031"/><circle cx="251.4" cy="258.2" r="1.66" fill="#FFFFFF" opacity="0.045"/><circle cx="363.6" cy="774.5" r="1.82" fill="#FFFFFF" opacity="0.040"/><circle cx="616.0" cy="913.1" r="0.94" fill="#FFFFFF" opacity="0.075"/><circle cx="685.3" cy="1000.7" r="1.94" fill="#FFFFFF" opacity="0.063"/><circle cx="163.0" cy="167.9" r="1.18" fill="#FFFFFF" opacity="0.074"/><circle cx="660.6" cy="26.5" r="0.70" fill="#FFFFFF" opacity="0.079"/><circle cx="91.4" cy="187.3" r="1.17" fill="#FFFFFF" opacity="0.071"/><circle cx="270.3" cy="307.8" r="1.27" fill="#FFFFFF" opacity="0.052"/><circle cx="232.7" cy="377.1" r="0.95" fill="#FFFFFF" opacity="0.050"/><circle cx="51.5" cy="72.3" r="1.30" fill="#FFFFFF" opacity="0.039"/><circle cx="8.7" cy="211.5" r="2.03" fill="#FFFFFF" opacity="0.069"/><circle cx="389.3" cy="10.6" r="1.46" fill="#FFFFFF" opacity="0.063"/><circle cx="501.5" cy="54.8" r="1.04" fill="#FFFFFF" opacity="0.077"/><circle cx="38.5" cy="77.1" r="1.00" fill="#FFFFFF" opacity="0.049"/><circle cx="767.7" cy="523.6" r="1.87" fill="#FFFFFF" opacity="0.045"/><circle cx="693.2" cy="75.4" r="1.96" fill="#FFFFFF" opacity="0.070"/><circle cx="157.0" cy="53.8" r="1.27" fill="#FFFFFF" opacity="0.063"/><circle cx="70.3" cy="50.6" r="0.74" fill="#FFFFFF" opacity="0.046"/><circle cx="401.2" cy="178.9" r="1.31" fill="#FFFFFF" opacity="0.046"/><circle cx="681.9" cy="4.6" r="1.36" fill="#FFFFFF" opacity="0.041"/><circle cx="473.0" cy="343.8" r="0.63" fill="#FFFFFF" opacity="0.062"/><circle cx="254.2" cy="992.9" r="2.07" fill="#FFFFFF" opacity="0.064"/><circle cx="224.1" cy="838.1" r="0.80" fill="#FFFFFF" opacity="0.040"/><circle cx="235.0" cy="722.3" r="1.78" fill="#FFFFFF" opacity="0.055"/><circle cx="276.7" cy="882.9" r="1.83" fill="#FFFFFF" opacity="0.056"/><circle cx="759.7" cy="277.6" r="1.14" fill="#FFFFFF" opacity="0.041"/><circle cx="759.5" cy="710.7" r="0.72" fill="#FFFFFF" opacity="0.078"/><circle cx="345.0" cy="444.4" r="1.35" fill="#FFFFFF" opacity="0.047"/><circle cx="622.5" cy="744.5" r="2.02" fill="#FFFFFF" opacity="0.039"/><circle cx="612.6" cy="929.2" r="1.53" fill="#FFFFFF" opacity="0.069"/><circle cx="59.3" cy="419.9" r="0.67" fill="#FFFFFF" opacity="0.056"/><circle cx="320.3" cy="80.8" r="1.23" fill="#FFFFFF" opacity="0.035"/><circle cx="318.5" cy="115.0" r="1.03" fill="#FFFFFF" opacity="0.033"/><circle cx="486.9" cy="634.7" r="1.86" fill="#FFFFFF" opacity="0.042"/><circle cx="116.7" cy="68.3" r="0.95" fill="#FFFFFF" opacity="0.035"/><circle cx="130.3" cy="344.5" r="1.75" fill="#FFFFFF" opacity="0.060"/><circle cx="596.6" cy="650.4" r="1.39" fill="#FFFFFF" opacity="0.069"/><circle cx="53.8" cy="492.9" r="2.11" fill="#FFFFFF" opacity="0.077"/><circle cx="671.0" cy="683.9" r="1.39" fill="#FFFFFF" opacity="0.052"/><circle cx="737.0" cy="146.4" r="1.29" fill="#FFFFFF" opacity="0.064"/><circle cx="367.5" cy="985.8" r="0.64" fill="#FFFFFF" opacity="0.051"/><circle cx="481.8" cy="343.5" r="1.50" fill="#FFFFFF" opacity="0.061"/><circle cx="558.1" cy="887.7" r="0.66" fill="#FFFFFF" opacity="0.054"/><circle cx="605.0" cy="989.6" r="0.87" fill="#FFFFFF" opacity="0.031"/><circle cx="473.1" cy="997.5" r="0.91" fill="#FFFFFF" opacity="0.048"/><circle cx="486.0" cy="646.5" r="0.71" fill="#FFFFFF" opacity="0.063"/><circle cx="724.6" cy="697.8" r="1.60" fill="#FFFFFF" opacity="0.032"/><circle cx="685.2" cy="881.4" r="1.86" fill="#FFFFFF" opacity="0.070"/><circle cx="347.0" cy="246.9" r="1.16" fill="#FFFFFF" opacity="0.031"/><circle cx="718.5" cy="776.2" r="2.08" fill="#FFFFFF" opacity="0.049"/><circle cx="704.4" cy="606.3" r="2.01" fill="#FFFFFF" opacity="0.059"/><circle cx="199.4" cy="381.8" r="2.07" fill="#FFFFFF" opacity="0.040"/><circle cx="322.8" cy="510.0" r="1.90" fill="#FFFFFF" opacity="0.058"/><circle cx="765.8" cy="117.0" r="0.77" fill="#FFFFFF" opacity="0.072"/><circle cx="421.2" cy="1020.6" r="1.15" fill="#FFFFFF" opacity="0.034"/><circle cx="89.6" cy="62.0" r="1.59" fill="#FFFFFF" opacity="0.049"/><circle cx="241.0" cy="403.3" r="0.79" fill="#FFFFFF" opacity="0.032"/><circle cx="493.0" cy="224.7" r="2.04" fill="#FFFFFF" opacity="0.076"/><circle cx="578.7" cy="484.8" r="1.40" fill="#FFFFFF" opacity="0.034"/><circle cx="567.5" cy="945.7" r="1.45" fill="#FFFFFF" opacity="0.032"/><circle cx="278.5" cy="20.5" r="1.80" fill="#FFFFFF" opacity="0.043"/><circle cx="588.2" cy="835.8" r="2.10" fill="#FFFFFF" opacity="0.050"/><circle cx="122.6" cy="570.5" r="1.77" fill="#FFFFFF" opacity="0.050"/><circle cx="205.4" cy="292.9" r="2.02" fill="#FFFFFF" opacity="0.043"/><circle cx="610.5" cy="401.4" r="1.74" fill="#FFFFFF" opacity="0.053"/><circle cx="498.3" cy="723.2" r="0.74" fill="#FFFFFF" opacity="0.044"/><circle cx="577.9" cy="679.8" r="1.28" fill="#FFFFFF" opacity="0.065"/><circle cx="179.3" cy="1.8" r="0.85" fill="#FFFFFF" opacity="0.040"/><circle cx="378.9" cy="945.0" r="1.34" fill="#FFFFFF" opacity="0.078"/><circle cx="376.7" cy="464.0" r="1.88" fill="#FFFFFF" opacity="0.077"/><circle cx="4.2" cy="447.5" r="1.05" fill="#FFFFFF" opacity="0.044"/><circle cx="120.2" cy="908.6" r="1.38" fill="#FFFFFF" opacity="0.053"/><circle cx="282.8" cy="306.6" r="0.91" fill="#FFFFFF" opacity="0.045"/><circle cx="752.7" cy="116.8" r="2.19" fill="#FFFFFF" opacity="0.055"/><circle cx="457.3" cy="464.2" r="1.27" fill="#FFFFFF" opacity="0.069"/><circle cx="693.4" cy="711.3" r="1.01" fill="#FFFFFF" opacity="0.044"/><circle cx="669.2" cy="613.8" r="0.74" fill="#FFFFFF" opacity="0.069"/><circle cx="115.1" cy="274.4" r="1.62" fill="#FFFFFF" opacity="0.073"/><circle cx="760.0" cy="551.7" r="0.69" fill="#FFFFFF" opacity="0.048"/><circle cx="662.6" cy="677.4" r="1.64" fill="#FFFFFF" opacity="0.057"/><circle cx="596.4" cy="561.9" r="1.91" fill="#FFFFFF" opacity="0.048"/><circle cx="429.2" cy="344.0" r="1.42" fill="#FFFFFF" opacity="0.041"/><circle cx="315.8" cy="806.2" r="1.87" fill="#FFFFFF" opacity="0.031"/><circle cx="258.2" cy="183.5" r="1.74" fill="#FFFFFF" opacity="0.070"/><circle cx="15.1" cy="123.5" r="1.17" fill="#FFFFFF" opacity="0.048"/><circle cx="494.1" cy="728.8" r="1.16" fill="#FFFFFF" opacity="0.030"/><circle cx="601.9" cy="416.6" r="1.53" fill="#FFFFFF" opacity="0.072"/><circle cx="732.0" cy="712.2" r="1.21" fill="#FFFFFF" opacity="0.056"/><circle cx="491.1" cy="576.3" r="1.06" fill="#FFFFFF" opacity="0.050"/><circle cx="405.8" cy="5.0" r="0.75" fill="#FFFFFF" opacity="0.032"/><circle cx="431.5" cy="446.5" r="2.09" fill="#FFFFFF" opacity="0.040"/><circle cx="748.9" cy="851.9" r="2.17" fill="#FFFFFF" opacity="0.075"/><circle cx="343.5" cy="283.0" r="0.84" fill="#FFFFFF" opacity="0.073"/><circle cx="222.3" cy="531.3" r="1.53" fill="#FFFFFF" opacity="0.048"/><circle cx="98.8" cy="40.1" r="0.71" fill="#FFFFFF" opacity="0.033"/><circle cx="671.1" cy="710.8" r="2.14" fill="#FFFFFF" opacity="0.036"/><circle cx="637.8" cy="643.0" r="1.27" fill="#FFFFFF" opacity="0.071"/><circle cx="377.6" cy="937.4" r="1.14" fill="#FFFFFF" opacity="0.076"/><circle cx="534.3" cy="879.5" r="1.92" fill="#FFFFFF" opacity="0.063"/><circle cx="51.9" cy="582.5" r="1.76" fill="#FFFFFF" opacity="0.067"/><circle cx="577.7" cy="815.4" r="1.16" fill="#FFFFFF" opacity="0.045"/><circle cx="514.1" cy="372.9" r="1.84" fill="#FFFFFF" opacity="0.061"/><circle cx="673.2" cy="424.8" r="0.79" fill="#FFFFFF" opacity="0.064"/><circle cx="322.2" cy="704.7" r="1.22" fill="#FFFFFF" opacity="0.062"/><circle cx="323.5" cy="599.4" r="2.06" fill="#FFFFFF" opacity="0.048"/><circle cx="673.0" cy="877.9" r="1.73" fill="#FFFFFF" opacity="0.039"/><circle cx="678.3" cy="42.3" r="0.85" fill="#FFFFFF" opacity="0.050"/><circle cx="432.2" cy="861.3" r="0.72" fill="#FFFFFF" opacity="0.045"/><circle cx="515.3" cy="344.0" r="1.43" fill="#FFFFFF" opacity="0.059"/><circle cx="731.8" cy="740.7" r="1.65" fill="#FFFFFF" opacity="0.048"/><circle cx="503.2" cy="384.6" r="1.53" fill="#FFFFFF" opacity="0.068"/><circle cx="194.9" cy="242.1" r="1.33" fill="#FFFFFF" opacity="0.045"/><circle cx="469.5" cy="944.3" r="1.76" fill="#FFFFFF" opacity="0.049"/><circle cx="171.8" cy="167.1" r="1.34" fill="#FFFFFF" opacity="0.044"/><circle cx="568.4" cy="835.0" r="1.24" fill="#FFFFFF" opacity="0.050"/><circle cx="192.1" cy="653.4" r="1.29" fill="#FFFFFF" opacity="0.078"/><circle cx="358.4" cy="540.9" r="1.23" fill="#FFFFFF" opacity="0.034"/><circle cx="435.4" cy="182.8" r="1.53" fill="#FFFFFF" opacity="0.071"/><circle cx="505.2" cy="368.4" r="1.06" fill="#FFFFFF" opacity="0.078"/><circle cx="47.4" cy="776.2" r="1.13" fill="#FFFFFF" opacity="0.040"/><circle cx="42.7" cy="305.6" r="1.77" fill="#FFFFFF" opacity="0.055"/><circle cx="527.0" cy="785.2" r="0.75" fill="#FFFFFF" opacity="0.068"/><circle cx="503.7" cy="666.4" r="1.16" fill="#FFFFFF" opacity="0.031"/><circle cx="234.9" cy="365.3" r="0.85" fill="#FFFFFF" opacity="0.066"/><circle cx="675.6" cy="398.3" r="1.93" fill="#FFFFFF" opacity="0.035"/><circle cx="535.9" cy="778.0" r="0.75" fill="#FFFFFF" opacity="0.074"/><circle cx="334.6" cy="599.5" r="1.03" fill="#FFFFFF" opacity="0.078"/><circle cx="33.4" cy="551.0" r="1.02" fill="#FFFFFF" opacity="0.057"/><circle cx="304.5" cy="201.2" r="0.68" fill="#FFFFFF" opacity="0.070"/><circle cx="399.7" cy="257.5" r="1.24" fill="#FFFFFF" opacity="0.053"/><circle cx="259.8" cy="912.5" r="2.02" fill="#FFFFFF" opacity="0.034"/><circle cx="158.5" cy="525.2" r="1.32" fill="#FFFFFF" opacity="0.055"/><circle cx="216.2" cy="878.3" r="1.00" fill="#FFFFFF" opacity="0.055"/><circle cx="742.9" cy="82.7" r="1.18" fill="#FFFFFF" opacity="0.070"/><circle cx="372.9" cy="1.9" r="1.69" fill="#FFFFFF" opacity="0.051"/><circle cx="330.1" cy="281.8" r="1.19" fill="#FFFFFF" opacity="0.055"/><circle cx="634.0" cy="445.4" r="0.85" fill="#FFFFFF" opacity="0.072"/><circle cx="569.8" cy="258.2" r="2.07" fill="#FFFFFF" opacity="0.057"/><circle cx="245.6" cy="619.6" r="2.17" fill="#FFFFFF" opacity="0.050"/><circle cx="703.3" cy="535.7" r="1.99" fill="#FFFFFF" opacity="0.045"/><circle cx="267.8" cy="626.8" r="1.01" fill="#FFFFFF" opacity="0.061"/><circle cx="106.5" cy="579.7" r="1.74" fill="#FFFFFF" opacity="0.069"/><circle cx="155.7" cy="285.5" r="2.00" fill="#FFFFFF" opacity="0.078"/><circle cx="568.9" cy="642.0" r="1.55" fill="#FFFFFF" opacity="0.061"/><circle cx="566.1" cy="605.0" r="0.70" fill="#FFFFFF" opacity="0.061"/><circle cx="352.3" cy="656.1" r="1.53" fill="#FFFFFF" opacity="0.046"/><circle cx="359.7" cy="535.3" r="0.78" fill="#FFFFFF" opacity="0.067"/><circle cx="617.2" cy="100.5" r="0.79" fill="#FFFFFF" opacity="0.043"/><circle cx="443.4" cy="1016.5" r="0.60" fill="#FFFFFF" opacity="0.048"/><circle cx="674.8" cy="122.3" r="1.03" fill="#FFFFFF" opacity="0.068"/><circle cx="119.3" cy="360.8" r="1.00" fill="#FFFFFF" opacity="0.063"/><circle cx="743.1" cy="170.9" r="1.06" fill="#FFFFFF" opacity="0.071"/><circle cx="598.9" cy="187.3" r="1.12" fill="#FFFFFF" opacity="0.052"/><circle cx="578.9" cy="858.4" r="1.99" fill="#FFFFFF" opacity="0.063"/><circle cx="744.1" cy="349.8" r="1.45" fill="#FFFFFF" opacity="0.053"/><circle cx="61.0" cy="988.8" r="1.16" fill="#FFFFFF" opacity="0.075"/></g>
<rect x="30" y="30" width="708" height="964" rx="26" fill="none" stroke="#E0B45C" stroke-width="2" opacity="0.85"/><rect x="42" y="42" width="684" height="940" rx="20" fill="none" stroke="#E0B45C" stroke-width="0.8" opacity="0.35"/>
</svg>