<svg xmlns="http://www.w3.org/2000/svg" width="768" height="1024" viewBox="0 0 768 1024" role="img" aria-label="Original Tome vector cover for Macbeth: a gold crown above an upright dagger on a storm-dark indigo field, framed by a gold hairline.">
<defs><linearGradient id="macbeth-sky" x1="0" y1="0" x2="0" y2="1"><stop offset="0" stop-color="#3D4E6E"/><stop offset="1" stop-color="#1B2437"/></linearGradient><radialGradient id="macbeth-vig" cx="0.5" cy="0.42" r="0.95"><stop offset="0.55" stop-color="#0E1420" stop-opacity="0"/><stop offset="1" stop-color="#0E1420" stop-opacity="0.38"/></radialGradient></defs>
<rect width="768" height="1024" fill="url(#macbeth-sky)"/><path d="M 90 210 Q 244 158 344 210 T 678 210" fill="none" stroke="#0E1420" stroke-width="30" stroke-linecap="round" opacity="0.45"/><path d="M 90 280 Q 244 228 344 280 T 678 294" fill="none" stroke="#0E1420" stroke-width="30" stroke-linecap="round" opacity="0.45"/><path d="M 90 350 Q 244 298 344 350 T 678 350" fill="none" stroke="#0E1420" stroke-width="30" stroke-linecap="round" opacity="0.45"/><path d="M 594 158 L 600.16 173.84 L 616 180 L 600.16 186.16 L 594 202 L 587.84 186.16 L 572 180 L 587.84 173.84 Z" fill="#E3B34C" opacity="0.9"/><path d="M 164 448 L 167.36 456.64 L 176 460 L 167.36 463.36 L 164 472 L 160.64 463.36 L 152 460 L 160.64 456.64 Z" fill="#E3B34C" opacity="0.5"/><path d="M 296 236 L 296 186 L 340 216 L 384 168 L 428 216 L 472 186 L 472 236 Z" fill="#E3B34C"/><circle cx="384" cy="196" r="7" fill="#B03A2E"/><path d="M 384 330 L 410 380 L 394 640 L 384 690 L 374 640 L 358 380 Z" fill="#E9E4D8"/><rect x="377" y="372" width="14" height="250" rx="7" fill="#0E1420" opacity="0.18"/><rect x="324" y="686" width="120" height="20" rx="10" fill="#E3B34C"/><rect x="373" y="700" width="22" height="64" rx="10" fill="#B03A2E"/><rect width="768" height="1024" fill="url(#macbeth-vig)"/>
<g><circle cx="574.5" cy="484.7" r="1.80" fill="#FFFFFF" opacity="0.051"/><circle cx="689.4" cy="636.7" r="1.45" fill="#FFFFFF" opacity="0.045"/><circle cx="107.3" cy="716.8" r="0.61" fill="#FFFFFF" opacity="0.073"/><circle cx="261.8" cy="119.1" r="2.06" fill="#FFFFFF" opacity="0.062"/><circle cx="7.8" cy="321.1" r="0.73" fill="#FFFFFF" opacity="0.058"/><circle cx="538.0" cy="336.4" r="1.70" fill="#FFFFFF" opacity="0.054"/><circle cx="59.1" cy="755.7" r="1.00" fill="#FFFFFF" opacity="0.033"/><circle cx="11.0" cy="798.9" r="1.06" fill="#FFFFFF" opacity="0.034"/><circle cx="301.4" cy="971.0" r="1.68" fill="#FFFFFF" opacity="0.073"/><circle cx="585.2" cy="725.8" r="0.79" fill="#FFFFFF" opacity="0.050"/><circle cx="57.9" cy="290.7" r="1.85" fill="#FFFFFF" opacity="0.057"/><circle cx="57.7" cy="695.6" r="1.38" fill="#FFFFFF" opacity="0.080"/><circle cx="524.1" cy="831.8" r="0.81" fill="#FFFFFF" opacity="0.034"/><circle cx="528.5" cy="326.0" r="0.84" fill="#FFFFFF" opacity="0.060"/><circle cx="345.1" cy="384.2" r="0.80" fill="#FFFFFF" opacity="0.041"/><circle cx="81.4" cy="281.0" r="0.73" fill="#FFFFFF" opacity="0.065"/><circle cx="302.6" cy="417.3" r="1.12" fill="#FFFFFF" opacity="0.047"/><circle cx="267.3" cy="550.4" r="0.66" fill="#FFFFFF" opacity="0.048"/><circle cx="371.3" cy="141.8" r="1.96" fill="#FFFFFF" opacity="0.036"/><circle cx="145.6" cy="314.2" r="1.61" fill="#FFFFFF" opacity="0.040"/><circle cx="755.3" cy="891.5" r="1.76" fill="#FFFFFF" opacity="0.041"/><circle cx="145.3" cy="280.6" r="1.53" fill="#FFFFFF" opacity="0.068"/><circle cx="367.8" cy="327.8" r="0.86" fill="#FFFFFF" opacity="0.072"/><circle cx="259.7" cy="464.5" r="0.69" fill="#FFFFFF" opacity="0.034"/><circle cx="643.5" cy="443.3" r="1.07" fill="#FFFFFF" opacity="0.079"/><circle cx="446.8" cy="381.4" r="1.18" fill="#FFFFFF" opacity="0.050"/><circle cx="52.7" cy="785.4" r="1.51" fill="#FFFFFF" opacity="0.032"/><circle cx="101.4" cy="213.3" r="0.91" fill="#FFFFFF" opacity="0.044"/><circle cx="228.3" cy="981.9" r="0.96" fill="#FFFFFF" opacity="0.070"/><circle cx="32.1" cy="150.4" r="1.14" fill="#FFFFFF" opacity="0.072"/><circle cx="214.6" cy="229.4" r="1.44" fill="#FFFFFF" opacity="0.055"/><circle cx="605.6" cy="982.4" r="1.53" fill="#FFFFFF" opacity="0.050"/><circle cx="11.2" cy="778.0" r="1.59" fill="#FFFFFF" opacity="0.079"/><circle cx="133.8" cy="23.8" r="1.70" fill="#FFFFFF" opacity="0.031"/><circle cx="475.4" cy="633.1" r="1.91" fill="#FFFFFF" opacity="0.048"/><circle cx="227.5" cy="764.7" r="2.07" fill="#FFFFFF" opacity="0.056"/><circle cx="463.5" cy="797.3" r="1.45" fill="#FFFFFF" opacity="0.050"/><circle cx="300.9" cy="319.6" r="1.02" fill="#FFFFFF" opacity="0.040"/><circle cx="44.8" cy="822.1" r="2.17" fill="#FFFFFF" opacity="0.045"/><circle cx="327.6" cy="1015.6" r="1.22" fill="#FFFFFF" opacity="0.035"/><circle cx="13.7" cy="952.5" r="1.18" fill="#FFFFFF" opacity="0.063"/><circle cx="444.7" cy="463.6" r="1.86" fill="#FFFFFF" opacity="0.037"/><circle cx="544.7" cy="127.7" r="1.09" fill="#FFFFFF" opacity="0.035"/><circle cx="135.1" cy="26.5" r="0.82" fill="#FFFFFF" opacity="0.060"/><circle cx="129.6" cy="574.7" r="0.96" fill="#FFFFFF" opacity="0.061"/><circle cx="100.9" cy="592.9" r="0.94" fill="#FFFFFF" opacity="0.062"/><circle cx="549.2" cy="328.2" r="1.31" fill="#FFFFFF" opacity="0.031"/><circle cx="691.8" cy="743.6" r="1.89" fill="#FFFFFF" opacity="0.047"/><circle cx="645.1" cy="308.1" r="1.39" fill="#FFFFFF" opacity="0.058"/><circle cx="696.9" cy="874.3" r="1.19" fill="#FFFFFF" opacity="0.075"/><circle cx="268.4" cy="825.7" r="0.66" fill="#FFFFFF" opacity="0.052"/><circle cx="664.1" cy="18.6" r="1.13" fill="#FFFFFF" opacity="0.062"/><circle cx="590.0" cy="394.2" r="0.74" fill="#FFFFFF" opacity="0.051"/><circle cx="763.7" cy="594.4" r="1.49" fill="#FFFFFF" opacity="0.058"/><circle cx="289.6" cy="588.4" r="1.48" fill="#FFFFFF" opacity="0.072"/><circle cx="429.9" cy="917.7" r="1.89" fill="#FFFFFF" opacity="0.039"/><circle cx="401.7" cy="325.1" r="1.93" fill="#FFFFFF" opacity="0.042"/><circle cx="541.1" cy="309.7" r="1.50" fill="#FFFFFF" opacity="0.053"/><circle cx="583.0" cy="629.8" r="1.50" fill="#FFFFFF" opacity="0.043"/><circle cx="326.8" cy="595.8" r="1.95" fill="#FFFFFF" opacity="0.034"/><circle cx="79.7" cy="194.0" r="1.57" fill="#FFFFFF" opacity="0.060"/><circle cx="69.4" cy="879.1" r="0.64" fill="#FFFFFF" opacity="0.052"/><circle cx="466.3" cy="874.1" r="2.07" fill="#FFFFFF" opacity="0.037"/><circle cx="406.9" cy="477.0" r="1.26" fill="#FFFFFF" opacity="0.055"/><circle cx="282.6" cy="333.9" r="1.54" fill="#FFFFFF" opacity="0.040"/><circle cx="395.8" cy="612.6" r="1.84" fill="#FFFFFF" opacity="0.032"/><circle cx="757.1" cy="232.9" r="1.78" fill="#FFFFFF" opacity="0.064"/><circle cx="116.9" cy="112.5" r="1.54" fill="#FFFFFF" opacity="0.065"/><circle cx="766.1" cy="925.1" r="1.88" fill="#FFFFFF" opacity="0.058"/><circle cx="357.6" cy="759.2" r="1.40" fill="#FFFFFF" opacity="0.069"/><circle cx="458.1" cy="858.1" r="0.66" fill="#FFFFFF" opacity="0.032"/><circle cx="639.9" cy="764.4" r="1.20" fill="#FFFFFF" opacity="0.036"/><circle cx="186.1" cy="878.2" r="0.80" fill="#FFFFFF" opacity="0.043"/><circle cx="716.6" cy="392.0" r="2.12" fill="#FFFFFF" opacity="0.031"/><circle cx="634.9" cy="261.3" r="1.04" fill="#FFFFFF" opacity="0.041"/><circle cx="384.5" cy="325.3" r="1.99" fill="#FFFFFF" opacity="0.048"/><circle cx="200.8" cy="8.0" r="1.30" fill="#FFFFFF" opacity="0.069"/><circle cx="337.9" cy="832.3" r="1.53" fill="#FFFFFF" opacity="0.073"/><circle cx="68.7" cy="136.0" r="1.71" fill="#FFFFFF" opacity="0.036"/><circle cx="641.6" cy="960.8" r="0.71" fill="#FFFFFF" opacity="0.072"/><circle cx="120.9" cy="865.6" r="2.17" fill="#FFFFFF" opacity="0.055"/><circle cx="158.6" cy="165.6" r="1.37" fill="#FFFFFF" opacity="0.072"/><circle cx="188.9" cy="870.2" r="0.84" fill="#FFFFFF" opacity="0.048"/><circle cx="251.3" cy="787.7" r="1.57" fill="#FFFFFF" opacity="0.051"/><circle cx="305.7" cy="762.1" r="0.74" fill="#FFFFFF" opacity="0.039"/><circle cx="301.1" cy="601.7" r="2.01" fill="#FFFFFF" opacity="0.052"/><circle cx="157.6" cy="1001.0" r="1.75" fill="#FFFFFF" opacity="0.068"/><circle cx="54.9" cy="1017.4" r="1.91" fill="#FFFFFF" opacity="0.066"/><circle cx="183.5" cy="637.3" r="0.76" fill="#FFFFFF" opacity="0.058"/><circle cx="374.5" cy="287.2" r="1.12" fill="#FFFFFF" opacity="0.050"/><circle cx="484.2" cy="289.2" r="2.11" fill="#FFFFFF" opacity="0.070"/><circle cx="93.0" cy="646.7" r="1.17" fill="#FFFFFF" opacity="0.040"/><circle cx="79.4" cy="116.4" r="1.57" fill="#FFFFFF" opacity="0.051"/><circle cx="390.7" cy="579.9" r="1.63" fill="#FFFFFF" opacity="0.073"/><circle cx="656.3" cy="452.3" r="1.21" fill="#FFFFFF" opacity="0.061"/><circle cx="377.9" cy="116.6" r="1.15" fill="#FFFFFF" opacity="0.031"/><circle cx="543.9" cy="396.4" r="1.25" fill="#FFFFFF" opacity="0.073"/><circle cx="179.5" cy="371.6" r="0.66" fill="#FFFFFF" opacity="0.073"/><circle cx="98.7" cy="459.7" r="1.83" fill="#FFFFFF" opacity="0.053"/><circle cx="313.4" cy="671.8" r="1.44" fill="#FFFFFF" opacity="0.071"/><circle cx="212.3" cy="443.5" r="2.10" fill="#FFFFFF" opacity="0.065"/><circle cx="735.2" cy="601.3" r="2.10" fill="#FFFFFF" opacity="0.044"/><circle cx="501.4" cy="936.8" r="0.94" fill="#FFFFFF" opacity="0.048"/><circle cx="631.6" cy="696.6" r="1.86" fill="#FFFFFF" opacity="0.032"/><circle cx="484.9" cy="371.6" r="0.97" fill="#FFFFFF" opacity="0.036"/><circle cx="152.7" cy="612.3" r="1.62" fill="#FFFFFF" opacity="0.074"/><circle cx="612.8" cy="923.3" r="1.36" fill="#FFFFFF" opacity="0.051"/><circle cx="182.4" cy="864.6" r="1.64" fill="#FFFFFF" opacity="0.060"/><circle cx="173.7" cy="146.8" r="2.16" fill="#FFFFFF" opacity="0.034"/><circle cx="339.0" cy="386.5" r="0.63" fill="#FFFFFF" opacity="0.080"/><circle cx="646.9" cy="753.7" r="0.85" fill="#FFFFFF" opacity="0.036"/><circle cx="184.6" cy="824.2" r="1.64" fill="#FFFFFF" opacity="0.063"/><circle cx="424.4" cy="945.3" r="1.06" fill="#FFFFFF" opacity="0.067"/><circle cx="246.6" cy="972.5" r="1.65" fill="#FFFFFF" opacity="0.049"/><circle cx="77.1" cy="405.9" r="2.02" fill="#FFFFFF" opacity="0.050"/><circle cx="31.9" cy="445.7" r="1.49" fill="#FFFFFF" opacity="0.037"/><circle cx="108.4" cy="619.2" r="1.05" fill="#FFFFFF" opacity="0.070"/><circle cx="57.6" cy="427.2" r="0.71" fill="#FFFFFF" opacity="0.035"/><circle cx="588.4" cy="560.0" r="2.12" fill="#FFFFFF" opacity="0.036"/><circle cx="101.6" cy="677.7" r="1.56" fill="#FFFFFF" opacity="0.078"/><circle cx="26.8" cy="331.4" r="1.50" fill="#FFFFFF" opacity="0.054"/><circle cx="657.8" cy="886.1" r="1.06" fill="#FFFFFF" opacity="0.064"/><circle cx="346.3" cy="307.6" r="1.00" fill="#FFFFFF" opacity="0.070"/><circle cx="69.5" cy="311.7" r="1.00" fill="#FFFFFF" opacity="0.056"/><circle cx="395.6" cy="807.4" r="1.76" fill="#FFFFFF" opacity="0.032"/><circle cx="423.1" cy="97.8" r="0.98" fill="#FFFFFF" opacity="0.051"/><circle cx="201.9" cy="411.9" r="1.21" fill="#FFFFFF" opacity="0.061"/><circle cx="589.7" cy="257.7" r="1.85" fill="#FFFFFF" opacity="0.062"/><circle cx="645.3" cy="819.6" r="1.73" fill="#FFFFFF" opacity="0.051"/><circle cx="701.6" cy="263.7" r="1.97" fill="#FFFFFF" opacity="0.077"/><circle cx="584.8" cy="731.2" r="1.74" fill="#FFFFFF" opacity="0.069"/><circle cx="603.9" cy="274.7" r="1.18" fill="#FFFFFF" opacity="0.062"/><circle cx="601.3" cy="387.9" r="1.68" fill="#FFFFFF" opacity="0.063"/><circle cx="320.7" cy="646.9" r="1.18" fill="#FFFFFF" opacity="0.062"/><circle cx="706.6" cy="17.6" r="1.31" fill="#FFFFFF" opacity="0.080"/><circle cx="128.6" cy="849.2" r="1.82" fill="#FFFFFF" opacity="0.044"/><circle cx="530.5" cy="432.2" r="0.75" fill="#FFFFFF" opacity="0.070"/><circle cx="275.7" cy="625.9" r="1.46" fill="#FFFFFF" opacity="0.056"/><circle cx="593.4" cy="102.9" r="0.73" fill="#FFFFFF" opacity="0.047"/><circle cx="364.9" cy="463.7" r="1.17" fill="#FFFFFF" opacity="0.065"/><circle cx="519.1" cy="199.5" r="1.18" fill="#FFFFFF" opacity="0.060"/><circle cx="21.9" cy="887.4" r="1.98" fill="#FFFFFF" opacity="0.042"/><circle cx="540.7" cy="658.7" r="1.21" fill="#FFFFFF" opacity="0.062"/><circle cx="556.3" cy="149.1" r="0.75" fill="#FFFFFF" opacity="0.055"/><circle cx="628.7" cy="641.1" r="0.85" fill="#FFFFFF" opacity="0.079"/><circle cx="417.8" cy="580.7" r="1.32" fill="#FFFFFF" opacity="0.076"/><circle cx="489.9" cy="622.9" r="1.79" fill="#FFFFFF" opacity="0.079"/><circle cx="548.8" cy="640.5" r="2.03" fill="#FFFFFF" opacity="0.050"/><circle cx="97.6" cy="997.3" r="1.10" fill="#FFFFFF" opacity="0.065"/><circle cx="80.8" cy="453.2" r="1.37" fill="#FFFFFF" opacity="0.058"/><circle cx="417.2" cy="863.3" r="1.65" fill="#FFFFFF" opacity="0.073"/><circle cx="761.1" cy="189.3" r="1.77" fill="#FFFFFF" opacity="0.041"/><circle cx="344.9" cy="31.2" r="0.96" fill="#FFFFFF" opacity="0.043"/><circle cx="379.0" cy="305.9" r="1.49" fill="#FFFFFF" opacity="0.061"/><circle cx="363.7" cy="671.1" r="1.23" fill="#FFFFFF" opacity="0.050"/><circle cx="439.4" cy="212.3" r="0.77" fill="#FFFFFF" opacity="0.073"/><circle cx="265.6" cy="492.4" r="1.66" fill="#FFFFFF" opacity="0.056"/><circle cx="57.0" cy="274.0" r="1.32" fill="#FFFFFF" opacity="0.054"/><circle cx="516.9" cy="628.0" r="1.83" fill="#FFFFFF" opacity="0.032"/><circle cx="375.4" cy="157.9" r="2.06" fill="#FFFFFF" opacity="0.053"/><circle cx="191.4" cy="768.7" r="0.96" fill="#FFFFFF" opacity="0.075"/><circle cx="352.8" cy="225.0" r="2.14" fill="#FFFFFF" opacity="0.034"/><circle cx="74.7" cy="414.8" r="1.26" fill="#FFFFFF" opacity="0.045"/><circle cx="51.5" cy="482.9" r="1.77" fill="#FFFFFF" opacity="0.063"/><circle cx="96.3" cy="896.9" r="1.32" fill="#FFFFFF" opacity="0.041"/><circle cx="221.3" cy="804.5" r="1.75" fill="#FFFFFF" opacity="0.031"/><circle cx="40.8" cy="41.2" r="2.20" fill="#FFFFFF" opacity="0.064"/><circle cx="287.0" cy="275.1" r="1.04" fill="#FFFFFF" opacity="0.045"/><circle cx="142.7" cy="271.5" r="1.86" fill="#FFFFFF" opacity="0.036"/><circle cx="722.6" cy="121.6" r="0.83" fill="#FFFFFF" opacity="0.077"/><circle cx="710.9" cy="468.2" r="1.30" fill="#FFFFFF" opacity="0.059"/><circle cx="632.5" cy="36.6" r="1.41" fill="#FFFFFF" opacity="0.057"/><circle cx="542.9" cy="87.7" r="1.62" fill="#FFFFFF" opacity="0.064"/><circle cx="185.1" cy="623.7" r="1.43" fill="#FFFFFF" opacity="0.037"/><circle cx="469.1" cy="713.8" r="1.53" fill="#FFFFFF" opacity="0.045"/><circle cx="483.8" cy="772.5" r="0.76" fill="#FFFFFF" opacity="0.044"/><circle cx="743.2" cy="497.8" r="1.95" fill="#FFFFFF" opacity="0.058"/><circle cx="558.0" cy="703.8" r="0.68" fill="#FFFFFF" opacity="0.042"/><circle cx="30.8" cy="967.1" r="0.74" fill="#FFFFFF" opacity="0.043"/><circle cx="760.8" cy="52.6" r="0.84" fill="#FFFFFF" opacity="0.055"/><circle cx="606.7" cy="220.3" r="2.10" fill="#FFFFFF" opacity="0.058"/><circle cx="360.0" cy="462.9" r="1.98" fill="#FFFFFF" opacity="0.039"/><circle cx="91.9" cy="364.1" r="0.64" fill="#FFFFFF" opacity="0.078"/><circle cx="284.0" cy="993.7" r="2.15" fill="#FFFFFF" opacity="0.032"/><circle cx="292.5" cy="48.8" r="1.27" fill="#FFFFFF" opacity="0.074"/><circle cx="192.3" cy="168.5" r="1.12" fill="#FFFFFF" opacity="0.056"/><circle cx="128.6" cy="913.7" r="1.98" fill="#FFFFFF" opacity="0.040"/><circle cx="351.0" cy="854.4" r="1.11" fill="#FFFFFF" opacity="0.055"/><circle cx="337.0" cy="111.3" r="1.53" fill="#FFFFFF" opacity="0.067"/><circle cx="105.1" cy="246.9" r="0.77" fill="#FFFFFF" opacity="0.067"/><circle cx="181.7" cy="676.6" r="1.26" fill="#FFFFFF" opacity="0.061"/><circle cx="628.6" cy="734.9" r="0.85" fill="#FFFFFF" opacity="0.033"/><circle cx="452.0" cy="817.9" r="1.60" fill="#FFFFFF" opacity="0.070"/><circle cx="262.0" cy="299.4" r="1.29" fill="#FFFFFF" opacity="0.051"/><circle cx="403.8" cy="392.2" r="1.79" fill="#FFFFFF" opacity="0.034"/><circle cx="171.9" cy="678.3" r="1.27" fill="#FFFFFF" opacity="0.077"/><circle cx="469.5" cy="466.2" r="1.32" fill="#FFFFFF" opacity="0.068"/><circle cx="278.7" cy="889.1" r="0.80" fill="#FFFFFF" opacity="0.067"/><circle cx="82.8" cy="339.6" r="1.19" fill="#FFFFFF" opacity="0.063"/><circle cx="38.1" cy="529.7" r="1.05" fill="#FFFFFF" opacity="0.054"/><circle cx="358.3" cy="245.5" r="1.85" fill="#FFFFFF" opacity="0.077"/><circle cx="751.3" cy="502.6" r="1.44" fill="#FFFFFF" opacity="0.040"/><circle cx="619.8" cy="729.9" r="1.97" fill="#FFFFFF" opacity="0.077"/><circle cx="107.6" cy="268.6" r="1.69" fill="#FFFFFF" opacity="0.077"/><circle cx="453.5" cy="941.1" r="1.89" fill="#FFFFFF" opacity="0.074"/><circle cx="569.8" cy="821.5" r="1.55" fill="#FFFFFF" opacity="0.063"/><circle cx="202.9" cy="689.2" r="1.33" fill="#FFFFFF" opacity="0.038"/><circle cx="624.3" cy="247.0" r="1.81" fill="#FFFFFF" opacity="0.071"/><circle cx="646.9" cy="658.6" r="1.17" fill="#FFFFFF" opacity="0.072"/><circle cx="129.5" cy="144.2" r="1.95" fill="#FFFFFF" opacity="0.040"/><circle cx="62.1" cy="572.5" r="2.14" fill="#FFFFFF" opacity="0.051"/><circle cx="14.1" cy="23.1" r="1.15" fill="#FFFFFF" opacity="0.042"/><circle cx="66.7" cy="279.2" r="1.54" fill="#FFFFFF" opacity="0.035"/><circle cx="162.0" cy="327.8" r="1.23" fill="#FFFFFF" opacity="0.032"/><circle cx="156.2" cy="463.6" r="1.37" fill="#FFFFFF" opacity="0.045"/><circle cx="236.1" cy="89.0" r="0.64" fill="#FFFFFF" opacity="0.036"/><circle cx="212.9" cy="128.9" r="1.74" fill="#FFFFFF" opacity="0.075"/><circle cx="77.0" cy="162.3" r="2.12" fill="#FFFFFF" opacity="0.062"/><circle cx="521.0" cy="497.4" r="1.76" fill="#FFFFFF" opacity="0.048"/><circle cx="261.0" cy="376.6" r="0.89" fill="#FFFFFF" opacity="0.053"/><circle cx="240.3" cy="1014.3" r="0.67" fill="#FFFFFF" opacity="0.031"/><circle cx="12.1" cy="815.1" r="1.92" fill="#FFFFFF" opacity="0.049"/><circle cx="636.4" cy="134.2" r="1.71" fill="#FFFFFF" opacity="0.040"/><circle cx="163.8" cy="677.5" r="0.65" fill="#FFFFFF" opacity="0.068"/><circle cx="520.8" cy="106.1" r="1.55" fill="#FFFFFF" opacity="0.058"/><circle cx="325.1" cy="265.8" r="0.65" fill="#FFFFFF" opacity="0.037"/><circle cx="624.4" cy="489.2" r="1.05" fill="#FFFFFF" opacity="0.077"/><circle cx="335.0" cy="992.7" r="1.51" fill="#FFFFFF" opacity="0.054"/><circle cx="233.0" cy="727.2" r="2.06" fill="#FFFFFF" opacity="0.069"/><circle cx="240.5" cy="418.6" r="2.17" fill="#FFFFFF" opacity="0.030"/><circle cx="302.7" cy="5.9" r="1.05" fill="#FFFFFF" opacity="0.056"/><circle cx="86.0" cy="170.7" r="0.66" fill="#FFFFFF" opacity="0.060"/><circle cx="514.3" cy="258.0" r="1.20" fill="#FFFFFF" opacity="0.035"/><circle cx="51.5" cy="1016.8" r="1.52" fill="#FFFFFF" opacity="0.040"/><circle cx="126.5" cy="153.8" r="1.49" fill="#FFFFFF" opacity="0.035"/><circle cx="568.0" cy="98.1" r="1.43" fill="#FFFFFF" opacity="0.068"/><circle cx="318.5" cy="682.1" r="1.68" fill="#FFFFFF" opacity="0.070"/><circle cx="100.5" cy="1014.9" r="1.75" fill="#FFFFFF" opacity="0.069"/><circle cx="635.2" cy="172.3" r="1.43" fill="#FFFFFF" opacity="0.031"/><circle cx="127.9" cy="542.4" r="1.73" fill="#FFFFFF" opacity="0.032"/><circle cx="483.4" cy="265.6" r="1.43" fill="#FFFFFF" opacity="0.039"/><circle cx="647.0" cy="168.3" r="1.21" fill="#FFFFFF" opacity="0.047"/><circle cx="758.2" cy="814.0" r="1.40" fill="#FFFFFF" opacity="0.035"/><circle cx="751.1" cy="645.0" r="0.71" fill="#FFFFFF" opacity="0.075"/><circle cx="411.7" cy="920.0" r="1.50" fill="#FFFFFF" opacity="0.077"/><circle cx="113.8" cy="201.4" r="0.66" fill="#FFFFFF" opacity="0.038"/><circle cx="65.2" cy="871.6" r="1.06" fill="#FFFFFF" opacity="0.049"/><circle cx="9.0" cy="423.3" r="2.06" fill="#FFFFFF" opacity="0.049"/><circle cx="135.3" cy="36.6" r="1.32" fill="#FFFFFF" opacity="0.074"/><circle cx="257.9" cy="402.4" r="1.15" fill="#FFFFFF" opacity="0.041"/><circle cx="217.3" cy="21.4" r="1.31" fill="#FFFFFF" opacity="0.046"/><circle cx="367.4" cy="453.4" r="1.67" fill="#FFFFFF" opacity="0.045"/><circle cx="101.4" cy="437.4" r="1.49" fill="#FFFFFF" opacity="0.045"/><circle cx="331.5" cy="471.5" r="2.08" fill="#FFFFFF" opacity="0.031"/><circle cx="391.6" cy="892.0" r="0.80" fill="#FFFFFF" opacity="0.047"/><circle cx="109.4" cy="922.3" r="2.04" fill="#FFFFFF" opacity="0.064"/><circle cx="428.0" cy="591.1" r="0.94" fill="#FFFFFF" opacity="0.050"/><circle cx="414.0" cy="164.8" r="1.49" fill="#FFFFFF" opacity="0.072"/><circle cx="516.1" cy="899.5" r="1.61" fill="#FFFFFF" opacity="0.076"/><circle cx="356.5" cy="894.2" r="0.74" fill="#FFFFFF" opacity="0.053"/><circle cx="325.5" cy="54.5" r="0.85" fill="#FFFFFF" opacity="0.049"/><circle cx="377.9" cy="708.9" r="1.37" fill="#FFFFFF" opacity="0.037"/><circle cx="658.1" cy="299.4" r="1.18" fill="#FFFFFF" opacity="0.067"/><circle cx="371.1" cy="143.5" r="1.34" fill="#FFFFFF" opacity="0.079"/><circle cx="611.6" cy="629.0" r="2.11" fill="#FFFFFF" opacity="0.043"/><circle cx="398.0" cy="790.9" r="1.23" fill="#FFFFFF" opacity="0.039"/><circle cx="212.8" cy="827.5" r="1.00" fill="#FFFFFF" opacity="0.067"/><circle cx="381.4" cy="470.1" r="2.17" fill="#FFFFFF" opacity="0.030"/><circle cx="160.8" cy="283.5" r="1.91" fill="#FFFFFF" opacity="0.063"/><circle cx="304.7" cy="622.3" r="0.99" fill="#FFFFFF" opacity="0.050"/><circle cx="279.9" cy="765.5" r="1.54" fill="#FFFFFF" opacity="0.048"/><circle cx="665.7" cy="328.3" r="1.55" fill="#FFFFFF" opacity="0.033"/><circle cx="600.2" cy="278.3" r="1.34" fill="#FFFFFF" opacity="0.044"/><circle cx="213.6" cy="121.8" r="1.52" fill="#FFFFFF" opacity="0.077"/><circle cx="717.5" cy="721.7" r="1.47" fill="#FFFFFF" opacity="0.038"/><circle cx="378.3" cy="624.7" r="2.15" fill="#FFFFFF" opacity="0.034"/><circle cx="598.7" cy="575.4" r="1.13" fill="#FFFFFF" opacity="0.079"/><circle cx="351.6" cy="178.2" r="1.65" fill="#FFFFFF" opacity="0.080"/><circle cx="347.8" cy="784.4" r="1.35" fill="#FFFFFF" opacity="0.046"/><circle cx="693.3" cy="838.8" r="1.09" fill="#FFFFFF" opacity="0.042"/><circle cx="597.8" cy="859.8" r="1.35" fill="#FFFFFF" opacity="0.052"/><circle cx="764.4" cy="852.5" r="1.74" fill="#FFFFFF" opacity="0.079"/><circle cx="517.5" cy="993.3" r="1.57" fill="#FFFFFF" opacity="0.036"/><circle cx="369.2" cy="473.7" r="0.77" fill="#FFFFFF" opacity="0.053"/><circle cx="360.7" cy="501.9" r="2.05" fill="#FFFFFF" opacity="0.068"/><circle cx="291.8" cy="319.5" r="1.56" fill="#FFFFFF" opacity="0.063"/><circle cx="588.5" cy="472.7" r="1.53" fill="#FFFFFF" opacity="0.066"/><circle cx="323.8" cy="450.5" r="2.18" fill="#FFFFFF" opacity="0.056"/><circle cx="449.8" cy="4.4" r="0.91" fill="#FFFFFF" opacity="0.078"/><circle cx="521.5" cy="232.5" r="1.12" fill="#FFFFFF" opacity="0.060"/><circle cx="243.6" cy="886.4" r="1.89" fill="#FFFFFF" opacity="0.071"/><circle cx="703.3" cy="19.0" r="1.62" fill="#FFFFFF" opacity="0.064"/><circle cx="187.3" cy="727.3" r="1.21" fill="#FFFFFF" opacity="0.038"/><circle cx="727.1" cy="634.6" r="1.68" fill="#FFFFFF" opacity="0.035"/><circle cx="365.9" cy="326.2" r="1.25" fill="#FFFFFF" opacity="0.047"/><circle cx="502.8" cy="330.1" r="1.82" fill="#FFFFFF" opacity="0.042"/><circle cx="649.7" cy="98.8" r="1.64" fill="#FFFFFF" opacity="0.055"/><circle cx="660.7" cy="282.2" r="1.97" fill="#FFFFFF" opacity="0.053"/><circle cx="565.6" cy="669.1" r="1.45" fill="#FFFFFF" opacity="0.070"/><circle cx="697.0" cy="922.1" r="1.70" fill="#FFFFFF" opacity="0.042"/><circle cx="443.7" cy="760.1" r="0.90" fill="#FFFFFF" opacity="0.046"/><circle cx="186.6" cy="193.6" r="1.88" fill="#FFFFFF" opacity="0.056"/><circle cx="375.1" cy="443.7" r="0.94" fill="#FFFFFF" opacity="0.061"/><circle cx="201.5" cy="654.7" r="2.12" fill="#FFFFFF" opacity="0.057"/><circle cx="486.0" cy="941.3" r="1.67" fill="#FFFFFF" opacity="0.054"/><circle cx="604.9" cy="167.2" r="0.95" fill="#FFFFFF" opacity="0.042"/><circle cx="726.8" cy="461.7" r="2.00" fill="#FFFFFF" opacity="0.032"/><circle cx="758.1" cy="520.0" r="1.82" fill="#FFFFFF" opacity="0.038"/><circle cx="469.3" cy="425.4" r="0.66" fill="#FFFFFF" opacity="0.068"/><circle cx="540.5" cy="844.4" r="1.88" fill="#FFFFFF" opacity="0.047"/><circle cx="389.4" cy="138.9" r="1.69" fill="#FFFFFF" opacity="0.069"/><circle cx="33.3" cy="349.5" r="2.08" fill="#FFFFFF" opacity="0.055"/><circle cx="295.5" cy="214.5" r="0.72" fill="#FFFFFF" opacity="0.073"/><circle cx="246.4" cy="845.8" r="0.73" fill="#FFFFFF" opacity="0.068"/><circle cx="686.1" cy="11.8" r="1.54" fill="#FFFFFF" opacity="0.046"/><circle cx="95.1" cy="759.7" r="2.16" fill="#FFFFFF" opacity="0.050"/><circle cx="328.5" cy="981.3" r="1.02" fill="#FFFFFF" opacity="0.072"/><circle cx="34.8" cy="548.8" r="1.05" fill="#FFFFFF" opacity="0.047"/><circle cx="551.7" cy="705.5" r="1.23" fill="#FFFFFF" opacity="0.069"/><circle cx="406.9" cy="545.7" r="1.01" fill="#FFFFFF" opacity="0.071"/><circle cx="110.7" cy="318.3" r="0.92" fill="#FFFFFF" opacity="0.048"/><circle cx="31.1" cy="727.0" r="0.78" fill="#FFFFFF" opacity="0.063"/><circle cx="66.5" cy="20.7" r="1.89" fill="#FFFFFF" opacity="0.079"/><circle cx="241.0" cy="233.5" r="1.14" fill="#FFFFFF" opacity="0.077"/><circle cx="447.8" cy="789.2" r="2.05" fill="#FFFFFF" opacity="0.064"/><circle cx="181.4" cy="806.2" r="0.87" fill="#FFFFFF" opacity="0.060"/><circle cx="137.8" cy="776.6" r="1.01" fill="#FFFFFF" opacity="0.046"/><circle cx="44.7" cy="23.5" r="1.42" fill="#FFFFFF" opacity="0.038"/><circle cx="555.7" cy="969.0" r="2.13" fill="#FFFFFF" opacity="0.057"/><circle cx="87.6" cy="961.0" r="0.88" fill="#FFFFFF" opacity="0.069"/><circle cx="432.5" cy="121.1" r="2.09" fill="#FFFFFF" opacity="0.069"/><circle cx="580.7" cy="819.3" r="1.93" fill="#FFFFFF" opacity="0.067"/><circle cx="442.7" cy="184.4" r="0.86" fill="#FFFFFF" opacity="0.040"/><circle cx="636.6" cy="421.2" r="1.90" fill="#FFFFFF" opacity="0.039"/><circle cx="633.7" cy="422.5" r="1.49" fill="#FFFFFF" opacity="0.034"/><circle cx="494.9" cy="601.4" r="0.61" fill="#FFFFFF" opacity="0.032"/><circle cx="621.0" cy="388.0" r="2.04" fill="#FFFFFF" opacity="0.061"/><circle cx="47.2" cy="643.2" r="2.04" fill="#FFFFFF" opacity="0.034"/><circle cx="275.5" cy="542.2" r="2.15" fill="#FFFFFF" opacity="0.045"/><circle cx="496.1" cy="602.3" r="1.03" fill="#FFFFFF" opacity="0.043"/><circle cx="52.3" cy="966.4" r="2.11" fill="#FFFFFF" opacity="0.067"/><circle cx="636.9" cy="715.6" r="0.69" fill="#FFFFFF" opacity="0.038"/><circle cx="419.6" cy="641.6" r="2.19" fill="#FFFFFF" opacity="0.053"/><circle cx="583.7" cy="566.9" r="2.04" fill="#FFFFFF" opacity="0.059"/><circle cx="61.4" cy="575.0" r="1.39" fill="#FFFFFF" opacity="0.078"/><circle cx="378.4" cy="1002.1" r="1.99" fill="#FFFFFF" opacity="0.077"/><circle cx="729.7" cy="833.9" r="1.53" fill="#FFFFFF" opacity="0.052"/><circle cx="408.1" cy="651.1" r="1.93" fill="#FFFFFF" opacity="0.072"/><circle cx="382.6" cy="901.4" r="1.05" fill="#FFFFFF" opacity="0.040"/><circle cx="419.9" cy="238.5" r="0.64" fill="#FFFFFF" opacity="0.068"/><circle cx="741.3" cy="679.7" r="2.00" fill="#FFFFFF" opacity="0.031"/><circle cx="448.0" cy="843.5" r="1.88" fill="#FFFFFF" opacity="0.063"/><circle cx="225.2" cy="91.4" r="1.11" fill="#FFFFFF" opacity="0.034"/><circle cx="274.6" cy="417.4" r="1.82" fill="#FFFFFF" opacity="0.051"/><circle cx="685.7" cy="793.1" r="2.09" fill="#FFFFFF" opacity="0.042"/><circle cx="564.8" cy="3.4" r="1.10" fill="#FFFFFF" opacity="0.054"/><circle cx="707.0" cy="596.1" r="1.49" fill="#FFFFFF" opacity="0.058"/><circle cx="101.7" cy="170.5" r="1.09" fill="#FFFFFF" opacity="0.060"/><circle cx="449.7" cy="865.9" r="1.63" fill="#FFFFFF" opacity="0.077"/><circle cx="347.8" cy="830.9" r="0.82" fill="#FFFFFF" opacity="0.039"/><circle cx="502.6" cy="617.0" r="1.28" fill="#FFFFFF" opacity="0.061"/><circle cx="330.0" cy="944.9" r="0.95" fill="#FFFFFF" opacity="0.065"/><circle cx="474.9" cy="725.0" r="0.74" fill="#FFFFFF" opacity="0.031"/><circle cx="641.2" cy="369.9" r="2.03" fill="#FFFFFF" opacity="0.061"/><circle cx="345.2" cy="725.3" r="0.78" fill="#FFFFFF" opacity="0.061"/><circle cx="488.3" cy="428.5" r="0.66" fill="#FFFFFF" opacity="0.080"/><circle cx="384.2" cy="682.7" r="1.73" fill="#FFFFFF" opacity="0.076"/><circle cx="748.1" cy="640.3" r="1.52" fill="#FFFFFF" opacity="0.053"/><circle cx="596.8" cy="339.1" r="1.34" fill="#FFFFFF" opacity="0.072"/><circle cx="146.1" cy="964.2" r="0.67" fill="#FFFFFF" opacity="0.041"/><circle cx="331.5" cy="837.0" r="2.17" fill="#FFFFFF" opacity="0.068"/><circle cx="136.6" cy="651.1" r="1.23" fill="#FFFFFF" opacity="0.065"/><circle cx="568.0" cy="55.8" r="1.38" fill="#FFFFFF" opacity="0.053"/><circle cx="90.9" cy="131.6" r="1.13" fill="#FFFFFF" opacity="0.070"/><circle cx="307.2" cy="972.2" r="1.26" fill="#FFFFFF" opacity="0.051"/><circle cx="237.5" cy="8.1" r="2.14" fill="#FFFFFF" opacity="0.053"/><circle cx="580.6" cy="535.1" r="1.61" fill="#FFFFFF" opacity="0.041"/><circle cx="584.5" cy="696.8" r="1.04" fill="#FFFFFF" opacity="0.060"/><circle cx="341.5" cy="843.2" r="1.38" fill="#FFFFFF" opacity="0.048"/><circle cx="632.7" cy="814.5" r="1.16" fill="#FFFFFF" opacity="0.049"/><circle cx="503.9" cy="766.2" r="1.42" fill="#FFFFFF" opacity="0.076"/><circle cx="728.9" cy="290.3" r="1.63" fill="#FFFFFF" opacity="0.060"/><circle cx="251.4" cy="136.1" r="1.96" fill="#FFFFFF" opacity="0.047"/><circle cx="312.7" cy="611.7" r="0.94" fill="#FFFFFF" opacity="0.070"/><circle cx="392.8" cy="38.0" r="1.20" fill="#FFFFFF" opacity="0.045"/><circle cx="100.6" cy="824.4" r="1.31" fill="#FFFFFF" opacity="0.046"/><circle cx="243.5" cy="287.0" r="1.96" fill="#FFFFFF" opacity="0.079"/><circle cx="434.5" cy="863.6" r="0.90" fill="#FFFFFF" opacity="0.044"/><circle cx="422.2" cy="264.3" r="2.12" fill="#FFFFFF" opacity="0.077"/><circle cx="78.6" cy="722.8" r="1.60" fill="#FFFFFF" opacity="0.064"/><circle cx="666.4" cy="125.5" r="0.66" fill="#FFFFFF" opacity="0.046"/><circle cx="149.3" cy="191.9" r="1.80" fill="#FFFFFF" opacity="0.070"/><circle cx="441.5" cy="925.4" r="0.97" fill="#FFFFFF" opacity="0.075"/><circle cx="43.7" cy="986.8" r="2.06" fill="#FFFFFF" opacity="0.043"/><circle cx="760.5" cy="326.8" r="1.35" fill="#FFFFFF" opacity="0.059"/><circle cx="662.5" cy="956.1" r="0.70" fill="#FFFFFF" opacity="0.032"/><circle cx="267.2" cy="799.2" r="1.36" fill="#FFFFFF" opacity="0.062"/><circle cx="711.7" cy="759.7" r="1.98" fill="#FFFFFF" opacity="0.063"/><circle cx="139.6" cy="917.8" r="1.03" fill="#FFFFFF" opacity="0.069"/><circle cx="385.3" cy="807.9" r="1.11" fill="#FFFFFF" opacity="0.064"/><circle cx="88.8" cy="342.1" r="1.88" fill="#FFFFFF" opacity="0.051"/><circle cx="576.8" cy="438.2" r="1.45" fill="#FFFFFF" opacity="0.032"/><circle cx="82.5" cy="869.6" r="1.07" fill="#FFFFFF" opacity="0.056"/><circle cx="298.2" cy="505.1" r="1.08" fill="#FFFFFF" opacity="0.077"/><circle cx="741.5" cy="978.3" r="1.27" fill="#FFFFFF" opacity="0.061"/><circle cx="138.6" cy="671.1" r="0.74" fill="#FFFFFF" opacity="0.077"/><circle cx="91.9" cy="865.4" r="1.99" fill="#FFFFFF" opacity="0.042"/><circle cx="665.7" cy="507.4" r="1.78" fill="#FFFFFF" opacity="0.058"/><circle cx="726.3" cy="749.2" r="1.59" fill="#FFFFFF" opacity="0.047"/><circle cx="367.0" cy="965.5" r="2.11" fill="#FFFFFF" opacity="0.049"/><circle cx="705.0" cy="506.6" r="1.10" fill="#FFFFFF" opacity="0.056"/><circle cx="378.9" cy="221.1" r="1.40" fill="#FFFFFF" opacity="0.041"/><circle cx="417.9" cy="176.0" r="1.17" fill="#FFFFFF" opacity="0.056"/><circle cx="518.9" cy="220.4" r="1.69" fill="#FFFFFF" opacity="0.049"/><circle cx="364.7" cy="606.6" r="1.61" fill="#FFFFFF" opacity="0.068"/><circle cx="534.5" cy="522.8" r="0.87" fill="#FFFFFF" opacity="0.056"/><circle cx="759.4" cy="540.5" r="1.30" fill="#FFFFFF" opacity="0.044"/><circle cx="1.6" cy="101.2" r="1.83" fill="#FFFFFF" opacity="0.055"/><circle cx="71.8" cy="975.1" r="0.76" fill="#FFFFFF" opacity="0.055"/><circle cx="78.2" cy="127.6" r="0.84" fill="#FFFFFF" opacity="0.062"/><circle cx="713.2" cy="297.9" r="0.70" fill="#FFFFFF" opacity="0.047"/><circle cx="343.2" cy="167.2" r="2.05" fill="#FFFFFF" opacity="0.042"/><circle cx="536.4" cy="639.2" r="0.88" fill="#FFFFFF" opacity="0.047"/><circle cx="308.0" cy="942.5" r="1.80" fill="#FFFFFF" opacity="0.058"/><circle cx="598.9" cy="305.5" r="1.26" fill="#FFFFFF" opacity="0.035"/><circle cx="520.6" cy="850.3" r="0.90" fill="#FFFFFF" opacity="0.054"/><circle cx="270.5" cy="794.7" r="1.60" fill="#FFFFFF" opacity="0.031"/><circle cx="636.6" cy="358.4" r="1.97" fill="#FFFFFF" opacity="0.048"/><circle cx="449.3" cy="563.6" r="1.86" fill="#FFFFFF" opacity="0.035"/><circle cx="399.5" cy="204.7" r="1.67" fill="#FFFFFF" opacity="0.049"/><circle cx="92.9" cy="715.5" r="1.80" fill="#FFFFFF" opacity="0.030"/><circle cx="632.1" cy="250.5" r="0.61" fill="#FFFFFF" opacity="0.080"/><circle cx="403.8" cy="926.6" r="0.66" fill="#FFFFFF" opacity="0.067"/><circle cx="445.4" cy="303.1" r="2.07" fill="#FFFFFF" opacity="0.042"/><circle cx="152.4" cy="573.1" r="1.85" fill="#FFFFFF" opacity="0.077"/><circle cx="23.9" cy="675.6" r="1.20" fill="#FFFFFF" opacity="0.077"/><circle cx="566.9" cy="907.9" r="0.64" fill="#FFFFFF" opacity="0.044"/><circle cx="150.6" cy="301.8" r="0.85" fill="#FFFFFF" opacity="0.032"/><circle cx="199.0" cy="691.2" r="1.83" fill="#FFFFFF" opacity="0.043"/><circle cx="759.5" cy="60.4" r="1.36" fill="#FFFFFF" opacity="0.079"/><circle cx="682.5" cy="880.7" r="0.74" fill="#FFFFFF" opacity="0.054"/><circle cx="476.2" cy="184.1" r="0.91" fill="#FFFFFF" opacity="0.057"/><circle cx="279.8" cy="974.9" r="1.18" fill="#FFFFFF" opacity="0.055"/><circle cx="488.7" cy="333.4" r="2.10" fill="#FFFFFF" opacity="0.042"/><circle cx="582.7" cy="887.7" r="0.70" fill="#FFFFFF" opacity="0.056"/><circle cx="65.7" cy="58.6" r="0.82" fill="#FFFFFF" opacity="0.040"/><circle cx="712.7" cy="33.6" r="1.19" fill="#FFFFFF" opacity="0.035"/><circle cx="89.1" cy="471.3" r="1.02" fill="#FFFFFF" opacity="0.075"/><circle cx="454.8" cy="921.8" r="1.20" fill="#FFFFFF" opacity="0.065"/><circle cx="101.2" cy="252.8" r="1.63" fill="#FFFFFF" opacity="0.066"/><circle cx="301.7" cy="203.2" r="0.81" fill="#FFFFFF" opacity="0.059"/><circle cx="224.2" cy="349.2" r="1.15" fill="#FFFFFF" opacity="0.070"/><circle cx="598.3" cy="444.7" r="1.93" fill="#FFFFFF" opacity="0.080"/><circle cx="33.6" cy="807.9" r="1.14" fill="#FFFFFF" opacity="0.055"/><circle cx="593.1" cy="205.8" r="1.68" fill="#FFFFFF" opacity="0.043"/><circle cx="192.1" cy="3.3" r="1.96" fill="#FFFFFF" opacity="0.050"/><circle cx="376.7" cy="547.0" r="2.12" fill="#FFFFFF" opacity="0.046"/><circle cx="172.7" cy="600.0" r="0.82" fill="#FFFFFF" opacity="0.070"/><circle cx="719.8" cy="411.6" r="2.11" fill="#FFFFFF" opacity="0.032"/><circle cx="504.9" cy="243.3" r="1.57" fill="#FFFFFF" opacity="0.043"/><circle cx="425.9" cy="1019.1" r="1.38" fill="#FFFFFF" opacity="0.076"/><circle cx="236.4" cy="228.6" r="1.18" fill="#FFFFFF" opacity="0.057"/><circle cx="216.9" cy="626.6" r="0.95" fill="#FFFFFF" opacity="0.033"/><circle cx="316.3" cy="556.6" r="0.75" fill="#FFFFFF" opacity="0.057"/><circle cx="735.3" cy="53.9" r="0.90" fill="#FFFFFF" opacity="0.030"/><circle cx="605.8" cy="325.6" r="1.99" fill="#FFFFFF" opacity="0.080"/><circle cx="204.2" cy="275.5" r="0.84" fill="#FFFFFF" opacity="0.040"/><circle cx="226.6" cy="729.7" r="1.17" fill="#FFFFFF" opacity="0.051"/><circle cx="231.9" cy="441.1" r="2.12" fill="#FFFFFF" opacity="0.040"/><circle cx="387.1" cy="864.6" r="1.48" fill="#FFFFFF" opacity="0.047"/><circle cx="41.1" cy="924.9" r="1.80" fill="#FFFFFF" opacity="0.034"/><circle cx="567.6" cy="877.6" r="1.46" fill="#FFFFFF" opacity="0.073"/><circle cx="320.6" cy="644.4" r="1.70" fill="#FFFFFF" opacity="0.031"/><circle cx="596.5" cy="766.5" r="1.36" fill="#FFFFFF" opacity="0.052"/><circle cx="38.9" cy="366.9" r="1.86" fill="#FFFFFF" opacity="0.062"/><circle cx="118.8" cy="198.4" r="1.51" fill="#FFFFFF" opacity="0.035"/><circle cx="20.5" cy="119.4" r="1.38" fill="#FFFFFF" opacity="0.073"/><circle cx="8.6" cy="627.0" r="1.00" fill="#FFFFFF" opacity="0.034"/><circle cx="514.4" cy="703.0" r="0.86" fill="#FFFFFF" opacity="0.039"/><circle cx="17.2" cy="389.4" r="1.04" fill="#FFFFFF" opacity="0.073"/><circle cx="137.2" cy="398.5" r="2.00" fill="#FFFFFF" opacity="0.062"/><circle cx="30.8" cy="390.7" r="0.91" fill="#FFFFFF" opacity="0.041"/><circle cx="379.8" cy="713.2" r="1.63" fill="#FFFFFF" opacity="0.073"/><circle cx="466.1" cy="699.9" r="0.79" fill="#FFFFFF" opacity="0.033"/><circle cx="134.1" cy="36.4" r="2.19" fill="#FFFFFF" opacity="0.047"/><circle cx="533.1" cy="853.4" r="2.07" fill="#FFFFFF" opacity="0.065"/><circle cx="539.6" cy="640.0" r="1.05" fill="#FFFFFF" opacity="0.048"/><circle cx="371.6" cy="851.8" r="1.87" fill="#FFFFFF" opacity="0.076"/><circle cx="228.0" cy="773.8" r="2.02" fill="#FFFFFF" opacity="0.056"/><circle cx="694.5" cy="644.1" r="1.46" fill="#FFFFFF" opacity="0.077"/><circle cx="420.5" cy="655.9" r="1.97" fill="#FFFFFF" opacity="0.051"/><circle cx="369.6" cy="793.4" r="1.67" fill="#FFFFFF" opacity="0.039"/><circle cx="44.7" cy="265.4" r="0.81" fill="#FFFFFF" opacity="0.078"/><circle cx="717.5" cy="451.9" r="1.80" fill="#FFFFFF" opacity="0.052"/><circle cx="532.7" cy="830.5" r="1.47" fill="#FFFFFF" opacity="0.044"/><circle cx="266.1" cy="891.1" r="1.53" fill="#FFFFFF" opacity="0.047"/><circle cx="600.3" cy="933.4" r="1.57" fill="#FFFFFF" opacity="0.041"/><circle cx="85.4" cy="884.5" r="0.86" fill="#FFFFFF" opacity="0.048"/><circle cx="225.9" cy="337.8" r="1.17" fill="#FFFFFF" opacity="0.033"/><circle cx="534.7" cy="836.5" r="2.15" fill="#FFFFFF" opacity="0.045"/><circle cx="116.4" cy="481.3" r="1.51" fill="#FFFFFF" opacity="0.059"/><circle cx="705.3" cy="956.8" r="0.93" fill="#FFFFFF" opacity="0.078"/><circle cx="95.1" cy="440.7" r="1.43" fill="#FFFFFF" opacity="0.036"/><circle cx="414.7" cy="861.1" r="1.77" fill="#FFFFFF" opacity="0.071"/><circle cx="622.8" cy="90.7" r="2.13" fill="#FFFFFF" opacity="0.032"/><circle cx="656.4" cy="959.3" r="0.97" fill="#FFFFFF" opacity="0.045"/><circle cx="114.8" cy="201.4" r="1.60" fill="#FFFFFF" opacity="0.064"/><circle cx="574.4" cy="623.6" r="1.43" fill="#FFFFFF" opacity="0.062"/><circle cx="372.7" cy="72.1" r="1.74" fill="#FFFFFF" opacity="0.041"/><circle cx="304.3" cy="60.6" r="1.89" fill="#FFFFFF" opacity="0.065"/><circle cx="580.0" cy="460.7" r="1.41" fill="#FFFFFF" opacity="0.050"/><circle cx="504.4" cy="684.7" r="0.93" fill="#FFFFFF" opacity="0.041"/><circle cx="314.0" cy="977.5" r="1.55" fill="#FFFFFF" opacity="0.058"/><circle cx="739.4" cy="942.5" r="1.26" fill="#FFFFFF" opacity="0.037"/><circle cx="103.7" cy="679.3" r="2.03" fill="#FFFFFF" opacity="0.037"/><circle cx="668.3" cy="221.1" r="0.98" fill="#FFFFFF" opacity="0.049"/><circle cx="620.7" cy="262.4" r="1.69" fill="#FFFFFF" opacity="0.077"/><circle cx="414.8" cy="239.7" r="1.53" fill="#FFFFFF" opacity="0.030"/><circle cx="478.0" cy="35.5" r="2.03" fill="#FFFFFF" opacity="0.063"/><circle cx="11.7" cy="347.5" r="0.88" fill="#FFFFFF" opacity="0.055"/></g>
<rect x="30" y="30" width="708" height="964" rx="26" fill="none" stroke="#E3B34C" stroke-width="2" opacity="0.85"/><rect x="42" y="42" width="684" height="940" rx="20" fill="none" stroke="#E3B34C" stroke-width="0.8" opacity="0.35"/>
</svg>