<svg xmlns="http://www.w3.org/2000/svg" width="768" height="1024" viewBox="0 0 768 1024" role="img" aria-label="Original Tome vector cover for Meditations: a single wax tablet and stylus on warm ivory, with a quiet dawn band of stoic red and gold.">
<defs><linearGradient id="meditations-dawn" x1="0" y1="0" x2="0" y2="1"><stop offset="0" stop-color="#CFA050" stop-opacity="0.9"/><stop offset="0.5" stop-color="#9C3D33" stop-opacity="0.55"/><stop offset="1" stop-color="#F0E7D8" stop-opacity="0"/></linearGradient></defs>
<rect width="768" height="1024" fill="#F0E7D8"/><rect y="560" width="768" height="290" fill="url(#meditations-dawn)"/><circle cx="384" cy="560" r="64" fill="#CFA050"/><rect y="556" width="768" height="8" fill="#F0E7D8"/><rect x="234" y="300" width="300" height="240" rx="20" fill="#6E5B49"/><rect x="258" y="324" width="252" height="192" rx="12" fill="#EADFC8"/><rect x="284" y="356" width="200" height="9" rx="4.5" fill="#6E5B49" opacity="0.55"/><rect x="284" y="396" width="154" height="9" rx="4.5" fill="#6E5B49" opacity="0.55"/><rect x="284" y="436" width="200" height="9" rx="4.5" fill="#6E5B49" opacity="0.55"/><rect x="284" y="476" width="154" height="9" rx="4.5" fill="#6E5B49" opacity="0.55"/><path d="M 480 250 L 554 470" stroke="#2E2620" stroke-width="11" stroke-linecap="round"/><path d="M 554 470 l -16 22 l 26 -6 Z" fill="#CFA050"/>
<g><circle cx="695.7" cy="427.1" r="1.80" fill="#2E2620" opacity="0.061"/><circle cx="753.5" cy="57.5" r="2.11" fill="#2E2620" opacity="0.057"/><circle cx="752.6" cy="571.8" r="2.10" fill="#2E2620" opacity="0.039"/><circle cx="588.0" cy="371.3" r="2.07" fill="#2E2620" opacity="0.055"/><circle cx="586.1" cy="125.9" r="1.06" fill="#2E2620" opacity="0.045"/><circle cx="287.2" cy="929.0" r="1.22" fill="#2E2620" opacity="0.036"/><circle cx="96.5" cy="287.2" r="0.63" fill="#2E2620" opacity="0.040"/><circle cx="102.3" cy="318.0" r="2.08" fill="#2E2620" opacity="0.064"/><circle cx="165.2" cy="450.2" r="2.06" fill="#2E2620" opacity="0.053"/><circle cx="88.7" cy="102.8" r="0.80" fill="#2E2620" opacity="0.076"/><circle cx="603.2" cy="428.0" r="1.61" fill="#2E2620" opacity="0.036"/><circle cx="153.7" cy="454.3" r="0.72" fill="#2E2620" opacity="0.060"/><circle cx="124.0" cy="6.9" r="1.01" fill="#2E2620" opacity="0.074"/><circle cx="632.1" cy="47.7" r="2.10" fill="#2E2620" opacity="0.050"/><circle cx="468.3" cy="115.6" r="1.07" fill="#2E2620" opacity="0.054"/><circle cx="71.9" cy="179.6" r="1.90" fill="#2E2620" opacity="0.038"/><circle cx="541.5" cy="150.0" r="1.63" fill="#2E2620" opacity="0.056"/><circle cx="307.6" cy="519.9" r="2.01" fill="#2E2620" opacity="0.050"/><circle cx="326.6" cy="708.0" r="0.87" fill="#2E2620" opacity="0.040"/><circle cx="172.1" cy="825.6" r="1.74" fill="#2E2620" opacity="0.067"/><circle cx="658.9" cy="715.3" r="1.28" fill="#2E2620" opacity="0.077"/><circle cx="338.2" cy="8.5" r="1.07" fill="#2E2620" opacity="0.074"/><circle cx="457.6" cy="909.9" r="0.76" fill="#2E2620" opacity="0.031"/><circle cx="632.2" cy="786.4" r="1.27" fill="#2E2620" opacity="0.050"/><circle cx="636.8" cy="132.3" r="1.84" fill="#2E2620" opacity="0.048"/><circle cx="390.5" cy="674.1" r="1.57" fill="#2E2620" opacity="0.056"/><circle cx="310.1" cy="730.3" r="0.95" fill="#2E2620" opacity="0.038"/><circle cx="182.4" cy="539.5" r="1.02" fill="#2E2620" opacity="0.031"/><circle cx="447.8" cy="825.7" r="1.74" fill="#2E2620" opacity="0.039"/><circle cx="526.0" cy="620.5" r="0.62" fill="#2E2620" opacity="0.079"/><circle cx="281.2" cy="546.4" r="1.11" fill="#2E2620" opacity="0.043"/><circle cx="312.2" cy="716.9" r="1.74" fill="#2E2620" opacity="0.050"/><circle cx="610.6" cy="741.2" r="1.60" fill="#2E2620" opacity="0.052"/><circle cx="697.6" cy="529.5" r="1.08" fill="#2E2620" opacity="0.079"/><circle cx="192.7" cy="684.9" r="2.17" fill="#2E2620" opacity="0.065"/><circle cx="205.3" cy="997.9" r="1.46" fill="#2E2620" opacity="0.059"/><circle cx="686.7" cy="412.6" r="1.02" fill="#2E2620" opacity="0.042"/><circle cx="713.6" cy="305.3" r="2.14" fill="#2E2620" opacity="0.077"/><circle cx="560.7" cy="805.1" r="1.39" fill="#2E2620" opacity="0.055"/><circle cx="472.6" cy="814.9" r="0.65" fill="#2E2620" opacity="0.073"/><circle cx="170.4" cy="425.5" r="0.62" fill="#2E2620" opacity="0.049"/><circle cx="714.0" cy="218.7" r="0.88" fill="#2E2620" opacity="0.032"/><circle cx="743.3" cy="675.6" r="1.42" fill="#2E2620" opacity="0.071"/><circle cx="421.6" cy="976.5" r="2.06" fill="#2E2620" opacity="0.074"/><circle cx="12.1" cy="865.0" r="2.05" fill="#2E2620" opacity="0.053"/><circle cx="204.1" cy="821.0" r="1.93" fill="#2E2620" opacity="0.071"/><circle cx="546.9" cy="191.5" r="1.37" fill="#2E2620" opacity="0.047"/><circle cx="48.4" cy="674.7" r="1.72" fill="#2E2620" opacity="0.056"/><circle cx="201.8" cy="359.4" r="1.78" fill="#2E2620" opacity="0.077"/><circle cx="297.4" cy="234.7" r="1.71" fill="#2E2620" opacity="0.054"/><circle cx="462.7" cy="901.0" r="1.21" fill="#2E2620" opacity="0.039"/><circle cx="251.1" cy="608.6" r="1.43" fill="#2E2620" opacity="0.056"/><circle cx="527.0" cy="806.7" r="0.75" fill="#2E2620" opacity="0.063"/><circle cx="516.0" cy="594.5" r="1.42" fill="#2E2620" opacity="0.052"/><circle cx="289.9" cy="563.4" r="2.14" fill="#2E2620" opacity="0.037"/><circle cx="653.2" cy="775.3" r="0.97" fill="#2E2620" opacity="0.040"/><circle cx="536.6" cy="407.1" r="1.04" fill="#2E2620" opacity="0.050"/><circle cx="552.7" cy="842.7" r="1.97" fill="#2E2620" opacity="0.059"/><circle cx="267.1" cy="321.1" r="1.41" fill="#2E2620" opacity="0.078"/><circle cx="396.9" cy="908.2" r="0.94" fill="#2E2620" opacity="0.071"/><circle cx="34.1" cy="395.5" r="0.74" fill="#2E2620" opacity="0.031"/><circle cx="256.8" cy="544.5" r="1.77" fill="#2E2620" opacity="0.049"/><circle cx="668.2" cy="204.1" r="0.97" fill="#2E2620" opacity="0.068"/><circle cx="33.6" cy="868.1" r="2.15" fill="#2E2620" opacity="0.078"/><circle cx="257.4" cy="109.1" r="2.08" fill="#2E2620" opacity="0.061"/><circle cx="170.2" cy="49.8" r="2.13" fill="#2E2620" opacity="0.032"/><circle cx="651.1" cy="386.6" r="1.74" fill="#2E2620" opacity="0.042"/><circle cx="330.0" cy="836.1" r="1.78" fill="#2E2620" opacity="0.052"/><circle cx="506.7" cy="409.5" r="0.93" fill="#2E2620" opacity="0.049"/><circle cx="531.3" cy="82.7" r="1.43" fill="#2E2620" opacity="0.035"/><circle cx="674.8" cy="484.4" r="0.85" fill="#2E2620" opacity="0.060"/><circle cx="162.0" cy="181.3" r="2.13" fill="#2E2620" opacity="0.042"/><circle cx="559.6" cy="809.9" r="0.96" fill="#2E2620" opacity="0.047"/><circle cx="234.5" cy="636.3" r="1.35" fill="#2E2620" opacity="0.059"/><circle cx="628.6" cy="946.6" r="1.36" fill="#2E2620" opacity="0.037"/><circle cx="734.3" cy="733.9" r="2.00" fill="#2E2620" opacity="0.053"/><circle cx="61.3" cy="124.6" r="2.09" fill="#2E2620" opacity="0.048"/><circle cx="309.8" cy="345.0" r="1.39" fill="#2E2620" opacity="0.051"/><circle cx="708.1" cy="470.6" r="2.08" fill="#2E2620" opacity="0.056"/><circle cx="218.0" cy="541.1" r="1.49" fill="#2E2620" opacity="0.050"/><circle cx="275.3" cy="179.3" r="0.95" fill="#2E2620" opacity="0.060"/><circle cx="146.8" cy="578.9" r="1.03" fill="#2E2620" opacity="0.039"/><circle cx="440.1" cy="436.8" r="0.90" fill="#2E2620" opacity="0.047"/><circle cx="487.6" cy="616.2" r="1.11" fill="#2E2620" opacity="0.071"/><circle cx="368.8" cy="339.4" r="1.38" fill="#2E2620" opacity="0.067"/><circle cx="2.8" cy="604.2" r="1.84" fill="#2E2620" opacity="0.080"/><circle cx="193.0" cy="120.5" r="1.64" fill="#2E2620" opacity="0.051"/><circle cx="473.4" cy="744.9" r="1.79" fill="#2E2620" opacity="0.067"/><circle cx="149.7" cy="664.7" r="2.15" fill="#2E2620" opacity="0.052"/><circle cx="69.4" cy="594.3" r="1.20" fill="#2E2620" opacity="0.052"/><circle cx="370.6" cy="933.1" r="0.70" fill="#2E2620" opacity="0.045"/><circle cx="289.0" cy="627.8" r="2.01" fill="#2E2620" opacity="0.044"/><circle cx="717.8" cy="1017.6" r="2.16" fill="#2E2620" opacity="0.060"/><circle cx="422.8" cy="287.4" r="2.14" fill="#2E2620" opacity="0.038"/><circle cx="46.9" cy="235.6" r="0.95" fill="#2E2620" opacity="0.058"/><circle cx="580.2" cy="612.7" r="1.51" fill="#2E2620" opacity="0.074"/><circle cx="699.3" cy="200.2" r="1.12" fill="#2E2620" opacity="0.047"/><circle cx="137.0" cy="17.0" r="2.04" fill="#2E2620" opacity="0.031"/><circle cx="398.7" cy="125.4" r="1.14" fill="#2E2620" opacity="0.051"/><circle cx="449.7" cy="675.2" r="1.98" fill="#2E2620" opacity="0.052"/><circle cx="263.4" cy="579.3" r="1.24" fill="#2E2620" opacity="0.031"/><circle cx="281.9" cy="777.6" r="1.38" fill="#2E2620" opacity="0.073"/><circle cx="139.4" cy="29.8" r="0.90" fill="#2E2620" opacity="0.079"/><circle cx="52.4" cy="463.0" r="1.62" fill="#2E2620" opacity="0.035"/><circle cx="219.4" cy="149.8" r="1.28" fill="#2E2620" opacity="0.046"/><circle cx="28.1" cy="654.5" r="0.86" fill="#2E2620" opacity="0.046"/><circle cx="201.6" cy="437.3" r="0.78" fill="#2E2620" opacity="0.044"/><circle cx="186.3" cy="124.7" r="1.14" fill="#2E2620" opacity="0.041"/><circle cx="179.9" cy="426.5" r="1.61" fill="#2E2620" opacity="0.073"/><circle cx="533.6" cy="49.5" r="0.97" fill="#2E2620" opacity="0.044"/><circle cx="369.2" cy="554.5" r="0.81" fill="#2E2620" opacity="0.055"/><circle cx="158.9" cy="898.8" r="1.54" fill="#2E2620" opacity="0.039"/><circle cx="474.5" cy="414.5" r="1.58" fill="#2E2620" opacity="0.035"/><circle cx="687.1" cy="978.5" r="2.11" fill="#2E2620" opacity="0.054"/><circle cx="342.0" cy="261.1" r="1.31" fill="#2E2620" opacity="0.079"/><circle cx="691.2" cy="355.1" r="2.04" fill="#2E2620" opacity="0.040"/><circle cx="161.8" cy="253.7" r="0.62" fill="#2E2620" opacity="0.076"/><circle cx="720.5" cy="43.1" r="0.92" fill="#2E2620" opacity="0.065"/><circle cx="352.7" cy="11.2" r="0.65" fill="#2E2620" opacity="0.073"/><circle cx="55.4" cy="107.4" r="2.07" fill="#2E2620" opacity="0.046"/><circle cx="728.3" cy="829.9" r="1.97" fill="#2E2620" opacity="0.035"/><circle cx="84.6" cy="634.3" r="1.68" fill="#2E2620" opacity="0.076"/><circle cx="628.8" cy="10.3" r="1.84" fill="#2E2620" opacity="0.063"/><circle cx="590.5" cy="619.9" r="2.14" fill="#2E2620" opacity="0.046"/><circle cx="249.0" cy="823.4" r="0.81" fill="#2E2620" opacity="0.040"/><circle cx="674.8" cy="370.2" r="0.93" fill="#2E2620" opacity="0.038"/><circle cx="12.6" cy="628.5" r="1.07" fill="#2E2620" opacity="0.046"/><circle cx="731.1" cy="567.9" r="2.14" fill="#2E2620" opacity="0.068"/><circle cx="762.8" cy="348.8" r="0.99" fill="#2E2620" opacity="0.050"/><circle cx="595.5" cy="937.1" r="1.71" fill="#2E2620" opacity="0.038"/><circle cx="631.4" cy="717.2" r="1.76" fill="#2E2620" opacity="0.043"/><circle cx="472.6" cy="853.8" r="0.96" fill="#2E2620" opacity="0.042"/><circle cx="584.3" cy="564.0" r="1.47" fill="#2E2620" opacity="0.040"/><circle cx="736.1" cy="34.1" r="1.39" fill="#2E2620" opacity="0.067"/><circle cx="430.5" cy="818.4" r="1.72" fill="#2E2620" opacity="0.033"/><circle cx="759.7" cy="255.1" r="1.89" fill="#2E2620" opacity="0.060"/><circle cx="146.3" cy="940.6" r="1.31" fill="#2E2620" opacity="0.032"/><circle cx="23.9" cy="436.6" r="1.26" fill="#2E2620" opacity="0.034"/><circle cx="4.2" cy="390.5" r="2.19" fill="#2E2620" opacity="0.073"/><circle cx="438.4" cy="799.4" r="0.90" fill="#2E2620" opacity="0.064"/><circle cx="440.0" cy="63.3" r="1.90" fill="#2E2620" opacity="0.048"/><circle cx="55.3" cy="534.2" r="1.25" fill="#2E2620" opacity="0.058"/><circle cx="233.0" cy="65.8" r="1.16" fill="#2E2620" opacity="0.069"/><circle cx="98.2" cy="131.1" r="2.05" fill="#2E2620" opacity="0.070"/><circle cx="441.4" cy="130.4" r="0.93" fill="#2E2620" opacity="0.075"/><circle cx="155.7" cy="639.1" r="1.78" fill="#2E2620" opacity="0.030"/><circle cx="176.6" cy="996.1" r="1.66" fill="#2E2620" opacity="0.068"/><circle cx="61.2" cy="821.0" r="0.82" fill="#2E2620" opacity="0.035"/><circle cx="682.7" cy="524.5" r="1.20" fill="#2E2620" opacity="0.032"/><circle cx="474.2" cy="326.3" r="1.43" fill="#2E2620" opacity="0.050"/><circle cx="284.2" cy="9.4" r="1.03" fill="#2E2620" opacity="0.066"/><circle cx="293.6" cy="132.5" r="1.21" fill="#2E2620" opacity="0.065"/><circle cx="376.5" cy="1001.7" r="1.55" fill="#2E2620" opacity="0.075"/><circle cx="157.9" cy="343.8" r="1.23" fill="#2E2620" opacity="0.056"/><circle cx="650.4" cy="326.8" r="0.99" fill="#2E2620" opacity="0.035"/><circle cx="178.1" cy="480.8" r="1.06" fill="#2E2620" opacity="0.074"/><circle cx="479.7" cy="218.0" r="2.13" fill="#2E2620" opacity="0.077"/><circle cx="527.9" cy="823.3" r="1.05" fill="#2E2620" opacity="0.068"/><circle cx="100.9" cy="678.1" r="1.64" fill="#2E2620" opacity="0.052"/><circle cx="757.2" cy="41.5" r="1.35" fill="#2E2620" opacity="0.053"/><circle cx="56.1" cy="84.7" r="1.45" fill="#2E2620" opacity="0.042"/><circle cx="606.8" cy="755.5" r="0.89" fill="#2E2620" opacity="0.064"/><circle cx="99.4" cy="754.3" r="1.46" fill="#2E2620" opacity="0.037"/><circle cx="193.5" cy="445.4" r="1.59" fill="#2E2620" opacity="0.047"/><circle cx="7.7" cy="811.3" r="0.78" fill="#2E2620" opacity="0.040"/><circle cx="665.7" cy="657.8" r="1.80" fill="#2E2620" opacity="0.070"/><circle cx="145.9" cy="106.1" r="1.26" fill="#2E2620" opacity="0.075"/><circle cx="165.7" cy="441.7" r="2.19" fill="#2E2620" opacity="0.057"/><circle cx="170.3" cy="865.7" r="2.06" fill="#2E2620" opacity="0.078"/><circle cx="60.8" cy="728.0" r="1.37" fill="#2E2620" opacity="0.047"/><circle cx="313.3" cy="728.4" r="1.69" fill="#2E2620" opacity="0.034"/><circle cx="269.5" cy="799.6" r="0.70" fill="#2E2620" opacity="0.039"/><circle cx="563.0" cy="1014.8" r="1.17" fill="#2E2620" opacity="0.046"/><circle cx="450.2" cy="676.3" r="0.90" fill="#2E2620" opacity="0.059"/><circle cx="183.5" cy="697.5" r="0.73" fill="#2E2620" opacity="0.068"/><circle cx="24.2" cy="912.1" r="1.16" fill="#2E2620" opacity="0.068"/><circle cx="595.0" cy="550.7" r="1.31" fill="#2E2620" opacity="0.032"/><circle cx="352.0" cy="742.8" r="1.07" fill="#2E2620" opacity="0.069"/><circle cx="195.9" cy="41.3" r="1.67" fill="#2E2620" opacity="0.077"/><circle cx="400.0" cy="639.6" r="1.58" fill="#2E2620" opacity="0.068"/><circle cx="18.6" cy="875.1" r="1.62" fill="#2E2620" opacity="0.067"/><circle cx="38.1" cy="646.7" r="2.07" fill="#2E2620" opacity="0.048"/><circle cx="271.9" cy="794.5" r="1.29" fill="#2E2620" opacity="0.055"/><circle cx="718.7" cy="452.6" r="0.86" fill="#2E2620" opacity="0.036"/><circle cx="215.7" cy="640.0" r="2.14" fill="#2E2620" opacity="0.066"/><circle cx="676.3" cy="268.5" r="0.87" fill="#2E2620" opacity="0.072"/><circle cx="725.8" cy="64.5" r="1.82" fill="#2E2620" opacity="0.066"/><circle cx="502.2" cy="852.1" r="1.79" fill="#2E2620" opacity="0.051"/><circle cx="746.6" cy="564.7" r="0.90" fill="#2E2620" opacity="0.038"/><circle cx="645.4" cy="637.7" r="1.57" fill="#2E2620" opacity="0.038"/><circle cx="421.8" cy="546.9" r="1.96" fill="#2E2620" opacity="0.052"/><circle cx="121.7" cy="383.6" r="0.87" fill="#2E2620" opacity="0.057"/><circle cx="304.4" cy="679.9" r="1.74" fill="#2E2620" opacity="0.035"/><circle cx="306.7" cy="788.3" r="0.77" fill="#2E2620" opacity="0.058"/><circle cx="34.2" cy="167.2" r="0.89" fill="#2E2620" opacity="0.044"/><circle cx="723.3" cy="534.4" r="1.76" fill="#2E2620" opacity="0.065"/><circle cx="472.9" cy="32.4" r="1.21" fill="#2E2620" opacity="0.075"/><circle cx="179.8" cy="483.6" r="1.92" fill="#2E2620" opacity="0.035"/><circle cx="225.6" cy="954.9" r="0.65" fill="#2E2620" opacity="0.050"/><circle cx="759.5" cy="627.8" r="2.01" fill="#2E2620" opacity="0.075"/><circle cx="660.0" cy="359.7" r="1.85" fill="#2E2620" opacity="0.055"/><circle cx="706.3" cy="901.3" r="0.96" fill="#2E2620" opacity="0.068"/><circle cx="675.8" cy="976.1" r="1.32" fill="#2E2620" opacity="0.058"/><circle cx="514.1" cy="752.4" r="1.71" fill="#2E2620" opacity="0.044"/><circle cx="496.1" cy="174.9" r="1.93" fill="#2E2620" opacity="0.054"/><circle cx="146.1" cy="791.6" r="1.96" fill="#2E2620" opacity="0.061"/><circle cx="488.0" cy="471.4" r="1.64" fill="#2E2620" opacity="0.047"/><circle cx="388.8" cy="615.3" r="2.12" fill="#2E2620" opacity="0.032"/><circle cx="481.1" cy="91.3" r="1.71" fill="#2E2620" opacity="0.046"/><circle cx="88.9" cy="860.2" r="0.94" fill="#2E2620" opacity="0.074"/><circle cx="138.8" cy="865.8" r="2.09" fill="#2E2620" opacity="0.072"/><circle cx="152.2" cy="263.3" r="1.03" fill="#2E2620" opacity="0.065"/><circle cx="296.0" cy="32.5" r="2.07" fill="#2E2620" opacity="0.067"/><circle cx="27.5" cy="898.8" r="0.82" fill="#2E2620" opacity="0.044"/><circle cx="61.0" cy="1002.1" r="1.67" fill="#2E2620" opacity="0.064"/><circle cx="694.3" cy="8.1" r="0.72" fill="#2E2620" opacity="0.077"/><circle cx="519.7" cy="393.8" r="2.04" fill="#2E2620" opacity="0.055"/><circle cx="331.9" cy="395.1" r="0.75" fill="#2E2620" opacity="0.056"/><circle cx="668.4" cy="279.4" r="1.12" fill="#2E2620" opacity="0.041"/><circle cx="105.9" cy="69.0" r="1.27" fill="#2E2620" opacity="0.049"/><circle cx="235.5" cy="944.8" r="1.99" fill="#2E2620" opacity="0.037"/><circle cx="387.7" cy="692.6" r="1.56" fill="#2E2620" opacity="0.036"/><circle cx="89.5" cy="709.1" r="1.83" fill="#2E2620" opacity="0.055"/><circle cx="485.3" cy="562.8" r="1.30" fill="#2E2620" opacity="0.031"/><circle cx="366.9" cy="430.5" r="2.19" fill="#2E2620" opacity="0.045"/><circle cx="629.6" cy="651.4" r="1.38" fill="#2E2620" opacity="0.064"/><circle cx="171.6" cy="667.4" r="0.81" fill="#2E2620" opacity="0.073"/><circle cx="451.5" cy="657.6" r="0.67" fill="#2E2620" opacity="0.034"/><circle cx="40.9" cy="785.6" r="0.61" fill="#2E2620" opacity="0.066"/><circle cx="173.7" cy="741.6" r="0.84" fill="#2E2620" opacity="0.077"/><circle cx="607.3" cy="708.6" r="1.58" fill="#2E2620" opacity="0.042"/><circle cx="337.0" cy="776.5" r="1.91" fill="#2E2620" opacity="0.058"/><circle cx="372.0" cy="338.1" r="0.73" fill="#2E2620" opacity="0.072"/><circle cx="748.0" cy="802.5" r="0.67" fill="#2E2620" opacity="0.043"/><circle cx="82.5" cy="414.8" r="1.87" fill="#2E2620" opacity="0.053"/><circle cx="526.5" cy="474.8" r="1.66" fill="#2E2620" opacity="0.071"/><circle cx="604.5" cy="675.3" r="1.36" fill="#2E2620" opacity="0.069"/><circle cx="40.4" cy="945.6" r="1.43" fill="#2E2620" opacity="0.065"/><circle cx="255.0" cy="710.9" r="2.19" fill="#2E2620" opacity="0.078"/><circle cx="149.7" cy="336.0" r="1.40" fill="#2E2620" opacity="0.063"/><circle cx="251.3" cy="34.2" r="1.09" fill="#2E2620" opacity="0.053"/><circle cx="638.0" cy="127.8" r="1.18" fill="#2E2620" opacity="0.047"/><circle cx="4.6" cy="224.4" r="1.49" fill="#2E2620" opacity="0.032"/><circle cx="160.4" cy="182.4" r="1.66" fill="#2E2620" opacity="0.060"/><circle cx="292.1" cy="693.4" r="1.67" fill="#2E2620" opacity="0.059"/><circle cx="596.5" cy="755.3" r="1.46" fill="#2E2620" opacity="0.055"/><circle cx="18.3" cy="351.9" r="1.23" fill="#2E2620" opacity="0.058"/><circle cx="61.9" cy="369.0" r="1.01" fill="#2E2620" opacity="0.045"/><circle cx="753.0" cy="874.5" r="1.94" fill="#2E2620" opacity="0.078"/><circle cx="649.8" cy="457.4" r="2.03" fill="#2E2620" opacity="0.040"/><circle cx="497.0" cy="237.0" r="1.52" fill="#2E2620" opacity="0.065"/><circle cx="12.0" cy="831.6" r="2.10" fill="#2E2620" opacity="0.047"/><circle cx="315.4" cy="751.7" r="1.07" fill="#2E2620" opacity="0.058"/><circle cx="385.0" cy="131.5" r="1.95" fill="#2E2620" opacity="0.032"/><circle cx="726.2" cy="19.2" r="1.22" fill="#2E2620" opacity="0.039"/><circle cx="556.2" cy="928.0" r="1.98" fill="#2E2620" opacity="0.046"/><circle cx="19.5" cy="502.5" r="1.53" fill="#2E2620" opacity="0.040"/><circle cx="296.9" cy="544.5" r="1.47" fill="#2E2620" opacity="0.036"/><circle cx="24.9" cy="517.5" r="1.24" fill="#2E2620" opacity="0.062"/><circle cx="756.4" cy="720.2" r="0.74" fill="#2E2620" opacity="0.032"/><circle cx="651.3" cy="358.2" r="0.99" fill="#2E2620" opacity="0.063"/><circle cx="315.9" cy="647.2" r="0.69" fill="#2E2620" opacity="0.041"/><circle cx="356.5" cy="376.8" r="2.08" fill="#2E2620" opacity="0.033"/><circle cx="252.6" cy="486.4" r="2.12" fill="#2E2620" opacity="0.062"/><circle cx="643.6" cy="840.1" r="1.53" fill="#2E2620" opacity="0.045"/><circle cx="691.8" cy="638.1" r="1.76" fill="#2E2620" opacity="0.061"/><circle cx="64.4" cy="635.7" r="1.47" fill="#2E2620" opacity="0.058"/><circle cx="489.0" cy="742.3" r="0.95" fill="#2E2620" opacity="0.040"/><circle cx="334.2" cy="11.9" r="0.63" fill="#2E2620" opacity="0.054"/><circle cx="447.7" cy="585.2" r="2.17" fill="#2E2620" opacity="0.050"/><circle cx="260.6" cy="608.0" r="1.14" fill="#2E2620" opacity="0.038"/><circle cx="701.8" cy="723.4" r="1.17" fill="#2E2620" opacity="0.060"/><circle cx="757.5" cy="34.5" r="0.64" fill="#2E2620" opacity="0.032"/><circle cx="45.0" cy="383.4" r="1.31" fill="#2E2620" opacity="0.047"/><circle cx="323.4" cy="859.1" r="0.77" fill="#2E2620" opacity="0.057"/><circle cx="405.1" cy="915.4" r="0.84" fill="#2E2620" opacity="0.030"/><circle cx="730.1" cy="365.4" r="1.59" fill="#2E2620" opacity="0.058"/><circle cx="203.8" cy="61.1" r="1.05" fill="#2E2620" opacity="0.067"/><circle cx="114.1" cy="682.3" r="0.63" fill="#2E2620" opacity="0.046"/><circle cx="309.2" cy="835.6" r="1.99" fill="#2E2620" opacity="0.075"/><circle cx="648.1" cy="592.8" r="1.60" fill="#2E2620" opacity="0.054"/><circle cx="362.7" cy="258.3" r="1.05" fill="#2E2620" opacity="0.074"/><circle cx="697.4" cy="29.7" r="1.69" fill="#2E2620" opacity="0.054"/><circle cx="749.9" cy="905.5" r="1.52" fill="#2E2620" opacity="0.050"/><circle cx="583.5" cy="200.4" r="1.64" fill="#2E2620" opacity="0.057"/><circle cx="53.4" cy="185.2" r="0.64" fill="#2E2620" opacity="0.080"/><circle cx="736.8" cy="711.9" r="1.46" fill="#2E2620" opacity="0.051"/><circle cx="181.4" cy="4.3" r="1.77" fill="#2E2620" opacity="0.066"/><circle cx="743.7" cy="3.2" r="1.31" fill="#2E2620" opacity="0.047"/><circle cx="485.1" cy="943.3" r="0.85" fill="#2E2620" opacity="0.070"/><circle cx="368.8" cy="243.3" r="0.95" fill="#2E2620" opacity="0.038"/><circle cx="482.1" cy="872.0" r="0.67" fill="#2E2620" opacity="0.047"/><circle cx="177.6" cy="968.7" r="1.82" fill="#2E2620" opacity="0.042"/><circle cx="692.9" cy="899.1" r="1.33" fill="#2E2620" opacity="0.043"/><circle cx="25.2" cy="214.4" r="1.18" fill="#2E2620" opacity="0.061"/><circle cx="526.9" cy="714.6" r="1.28" fill="#2E2620" opacity="0.073"/><circle cx="614.1" cy="597.3" r="1.42" fill="#2E2620" opacity="0.070"/><circle cx="272.9" cy="531.8" r="1.41" fill="#2E2620" opacity="0.069"/><circle cx="148.9" cy="611.8" r="1.75" fill="#2E2620" opacity="0.046"/><circle cx="410.6" cy="181.0" r="1.70" fill="#2E2620" opacity="0.069"/><circle cx="632.9" cy="622.7" r="1.99" fill="#2E2620" opacity="0.031"/><circle cx="588.6" cy="897.4" r="1.85" fill="#2E2620" opacity="0.037"/><circle cx="132.6" cy="989.0" r="2.15" fill="#2E2620" opacity="0.080"/><circle cx="234.3" cy="73.1" r="1.13" fill="#2E2620" opacity="0.032"/><circle cx="546.6" cy="333.2" r="1.66" fill="#2E2620" opacity="0.056"/><circle cx="449.5" cy="147.8" r="0.74" fill="#2E2620" opacity="0.060"/><circle cx="614.4" cy="178.5" r="1.65" fill="#2E2620" opacity="0.064"/><circle cx="366.7" cy="709.9" r="1.65" fill="#2E2620" opacity="0.068"/><circle cx="610.2" cy="398.2" r="0.72" fill="#2E2620" opacity="0.054"/><circle cx="98.2" cy="563.1" r="0.73" fill="#2E2620" opacity="0.057"/><circle cx="591.1" cy="169.0" r="0.80" fill="#2E2620" opacity="0.068"/><circle cx="11.7" cy="248.4" r="1.39" fill="#2E2620" opacity="0.077"/><circle cx="160.6" cy="0.9" r="1.81" fill="#2E2620" opacity="0.043"/><circle cx="635.3" cy="312.5" r="0.63" fill="#2E2620" opacity="0.070"/><circle cx="732.1" cy="621.6" r="1.93" fill="#2E2620" opacity="0.074"/><circle cx="302.6" cy="330.6" r="0.95" fill="#2E2620" opacity="0.059"/><circle cx="632.0" cy="75.7" r="2.08" fill="#2E2620" opacity="0.062"/><circle cx="461.1" cy="226.5" r="1.13" fill="#2E2620" opacity="0.060"/><circle cx="160.3" cy="479.0" r="1.58" fill="#2E2620" opacity="0.032"/><circle cx="250.2" cy="568.7" r="1.24" fill="#2E2620" opacity="0.066"/><circle cx="303.6" cy="119.4" r="1.61" fill="#2E2620" opacity="0.060"/><circle cx="464.0" cy="50.4" r="1.20" fill="#2E2620" opacity="0.075"/><circle cx="528.8" cy="113.1" r="1.36" fill="#2E2620" opacity="0.069"/><circle cx="302.0" cy="409.0" r="2.09" fill="#2E2620" opacity="0.050"/><circle cx="6.0" cy="638.4" r="1.66" fill="#2E2620" opacity="0.048"/><circle cx="236.3" cy="885.3" r="0.64" fill="#2E2620" opacity="0.065"/><circle cx="759.8" cy="1019.4" r="1.02" fill="#2E2620" opacity="0.057"/><circle cx="495.4" cy="701.1" r="1.48" fill="#2E2620" opacity="0.041"/><circle cx="534.1" cy="89.0" r="1.70" fill="#2E2620" opacity="0.063"/><circle cx="483.0" cy="720.0" r="1.30" fill="#2E2620" opacity="0.033"/><circle cx="122.5" cy="475.8" r="1.03" fill="#2E2620" opacity="0.073"/><circle cx="443.8" cy="920.6" r="1.76" fill="#2E2620" opacity="0.051"/><circle cx="81.4" cy="92.7" r="1.82" fill="#2E2620" opacity="0.039"/><circle cx="514.8" cy="925.1" r="1.10" fill="#2E2620" opacity="0.066"/><circle cx="17.4" cy="368.2" r="1.85" fill="#2E2620" opacity="0.034"/><circle cx="689.5" cy="221.9" r="0.77" fill="#2E2620" opacity="0.056"/><circle cx="110.1" cy="876.0" r="0.90" fill="#2E2620" opacity="0.071"/><circle cx="120.4" cy="380.9" r="0.73" fill="#2E2620" opacity="0.063"/><circle cx="184.4" cy="829.1" r="1.86" fill="#2E2620" opacity="0.078"/><circle cx="550.2" cy="877.5" r="1.51" fill="#2E2620" opacity="0.051"/><circle cx="536.2" cy="851.1" r="1.48" fill="#2E2620" opacity="0.067"/><circle cx="654.2" cy="562.3" r="0.62" fill="#2E2620" opacity="0.072"/><circle cx="615.6" cy="801.0" r="0.95" fill="#2E2620" opacity="0.032"/><circle cx="618.2" cy="133.7" r="0.80" fill="#2E2620" opacity="0.075"/><circle cx="148.0" cy="1.3" r="0.92" fill="#2E2620" opacity="0.070"/><circle cx="148.4" cy="285.9" r="1.57" fill="#2E2620" opacity="0.071"/><circle cx="484.2" cy="456.1" r="1.14" fill="#2E2620" opacity="0.078"/><circle cx="547.3" cy="188.4" r="1.28" fill="#2E2620" opacity="0.069"/><circle cx="347.1" cy="349.2" r="1.61" fill="#2E2620" opacity="0.032"/><circle cx="154.4" cy="293.8" r="2.15" fill="#2E2620" opacity="0.036"/><circle cx="595.7" cy="207.1" r="1.90" fill="#2E2620" opacity="0.077"/><circle cx="741.2" cy="37.9" r="1.45" fill="#2E2620" opacity="0.048"/><circle cx="588.5" cy="494.4" r="1.09" fill="#2E2620" opacity="0.052"/><circle cx="636.8" cy="486.2" r="2.20" fill="#2E2620" opacity="0.040"/><circle cx="295.6" cy="969.1" r="1.78" fill="#2E2620" opacity="0.030"/><circle cx="450.0" cy="639.9" r="1.79" fill="#2E2620" opacity="0.068"/><circle cx="740.1" cy="326.8" r="1.44" fill="#2E2620" opacity="0.079"/><circle cx="97.2" cy="317.8" r="1.93" fill="#2E2620" opacity="0.045"/><circle cx="394.7" cy="720.9" r="1.76" fill="#2E2620" opacity="0.040"/><circle cx="308.8" cy="387.5" r="1.21" fill="#2E2620" opacity="0.031"/><circle cx="252.6" cy="125.6" r="2.03" fill="#2E2620" opacity="0.047"/><circle cx="653.8" cy="403.4" r="1.15" fill="#2E2620" opacity="0.041"/><circle cx="597.4" cy="23.9" r="1.62" fill="#2E2620" opacity="0.046"/><circle cx="196.2" cy="781.2" r="2.04" fill="#2E2620" opacity="0.055"/><circle cx="301.7" cy="683.2" r="0.61" fill="#2E2620" opacity="0.063"/><circle cx="397.7" cy="456.3" r="0.70" fill="#2E2620" opacity="0.042"/><circle cx="604.5" cy="429.7" r="1.06" fill="#2E2620" opacity="0.040"/><circle cx="669.2" cy="158.8" r="1.02" fill="#2E2620" opacity="0.059"/><circle cx="332.2" cy="756.4" r="2.02" fill="#2E2620" opacity="0.058"/><circle cx="199.3" cy="288.9" r="1.73" fill="#2E2620" opacity="0.040"/><circle cx="104.2" cy="45.1" r="1.66" fill="#2E2620" opacity="0.051"/><circle cx="472.3" cy="280.6" r="2.05" fill="#2E2620" opacity="0.058"/><circle cx="271.0" cy="62.7" r="1.57" fill="#2E2620" opacity="0.032"/><circle cx="502.6" cy="691.5" r="1.60" fill="#2E2620" opacity="0.049"/><circle cx="526.9" cy="102.2" r="1.65" fill="#2E2620" opacity="0.070"/><circle cx="528.5" cy="458.7" r="2.07" fill="#2E2620" opacity="0.072"/><circle cx="26.2" cy="703.9" r="1.45" fill="#2E2620" opacity="0.054"/><circle cx="498.8" cy="330.4" r="1.91" fill="#2E2620" opacity="0.078"/><circle cx="442.6" cy="199.7" r="1.92" fill="#2E2620" opacity="0.056"/><circle cx="409.0" cy="193.6" r="1.68" fill="#2E2620" opacity="0.036"/><circle cx="611.7" cy="790.5" r="1.90" fill="#2E2620" opacity="0.062"/><circle cx="400.4" cy="526.7" r="1.12" fill="#2E2620" opacity="0.037"/><circle cx="34.7" cy="911.9" r="1.48" fill="#2E2620" opacity="0.072"/><circle cx="607.6" cy="285.6" r="1.83" fill="#2E2620" opacity="0.044"/><circle cx="538.4" cy="204.8" r="0.98" fill="#2E2620" opacity="0.060"/><circle cx="281.7" cy="1003.5" r="2.10" fill="#2E2620" opacity="0.059"/><circle cx="592.6" cy="56.5" r="0.94" fill="#2E2620" opacity="0.036"/><circle cx="0.0" cy="566.5" r="1.50" fill="#2E2620" opacity="0.053"/><circle cx="339.4" cy="62.7" r="1.17" fill="#2E2620" opacity="0.076"/><circle cx="372.3" cy="96.4" r="2.13" fill="#2E2620" opacity="0.074"/><circle cx="602.3" cy="550.4" r="1.38" fill="#2E2620" opacity="0.039"/><circle cx="175.1" cy="415.3" r="0.66" fill="#2E2620" opacity="0.058"/><circle cx="232.3" cy="581.0" r="1.13" fill="#2E2620" opacity="0.048"/><circle cx="208.0" cy="202.3" r="1.07" fill="#2E2620" opacity="0.032"/><circle cx="87.0" cy="183.2" r="2.04" fill="#2E2620" opacity="0.038"/><circle cx="621.6" cy="857.3" r="1.83" fill="#2E2620" opacity="0.067"/><circle cx="116.5" cy="255.8" r="1.58" fill="#2E2620" opacity="0.046"/><circle cx="610.6" cy="128.4" r="1.98" fill="#2E2620" opacity="0.062"/><circle cx="462.6" cy="468.9" r="1.97" fill="#2E2620" opacity="0.054"/><circle cx="750.0" cy="6.7" r="0.91" fill="#2E2620" opacity="0.038"/><circle cx="652.2" cy="1019.7" r="2.01" fill="#2E2620" opacity="0.050"/><circle cx="743.0" cy="578.6" r="0.87" fill="#2E2620" opacity="0.057"/><circle cx="527.8" cy="468.6" r="2.03" fill="#2E2620" opacity="0.062"/><circle cx="322.7" cy="882.7" r="1.20" fill="#2E2620" opacity="0.044"/><circle cx="691.6" cy="412.6" r="1.76" fill="#2E2620" opacity="0.049"/><circle cx="43.6" cy="1006.3" r="0.92" fill="#2E2620" opacity="0.061"/><circle cx="751.4" cy="780.7" r="1.98" fill="#2E2620" opacity="0.035"/><circle cx="642.5" cy="533.6" r="1.54" fill="#2E2620" opacity="0.073"/><circle cx="138.2" cy="637.0" r="1.10" fill="#2E2620" opacity="0.037"/><circle cx="81.8" cy="953.6" r="2.20" fill="#2E2620" opacity="0.061"/><circle cx="70.3" cy="414.4" r="1.83" fill="#2E2620" opacity="0.056"/><circle cx="548.8" cy="643.0" r="1.99" fill="#2E2620" opacity="0.036"/><circle cx="321.6" cy="956.0" r="1.19" fill="#2E2620" opacity="0.071"/><circle cx="645.3" cy="399.6" r="1.23" fill="#2E2620" opacity="0.077"/><circle cx="18.1" cy="367.5" r="1.08" fill="#2E2620" opacity="0.051"/><circle cx="569.6" cy="468.3" r="1.83" fill="#2E2620" opacity="0.043"/><circle cx="674.1" cy="412.5" r="1.35" fill="#2E2620" opacity="0.032"/><circle cx="640.5" cy="310.6" r="2.14" fill="#2E2620" opacity="0.035"/><circle cx="454.2" cy="909.3" r="0.79" fill="#2E2620" opacity="0.051"/><circle cx="1.7" cy="964.4" r="1.07" fill="#2E2620" opacity="0.030"/><circle cx="767.0" cy="669.7" r="2.06" fill="#2E2620" opacity="0.057"/><circle cx="758.9" cy="292.3" r="2.13" fill="#2E2620" opacity="0.035"/><circle cx="695.8" cy="766.2" r="1.18" fill="#2E2620" opacity="0.068"/><circle cx="131.1" cy="196.4" r="1.94" fill="#2E2620" opacity="0.030"/><circle cx="210.9" cy="854.5" r="0.77" fill="#2E2620" opacity="0.049"/><circle cx="616.7" cy="892.2" r="1.04" fill="#2E2620" opacity="0.073"/><circle cx="463.3" cy="77.4" r="2.03" fill="#2E2620" opacity="0.054"/><circle cx="565.7" cy="878.9" r="1.58" fill="#2E2620" opacity="0.076"/><circle cx="265.9" cy="185.5" r="1.53" fill="#2E2620" opacity="0.049"/><circle cx="658.6" cy="763.9" r="0.66" fill="#2E2620" opacity="0.072"/><circle cx="739.8" cy="910.2" r="1.32" fill="#2E2620" opacity="0.049"/><circle cx="52.5" cy="665.2" r="1.03" fill="#2E2620" opacity="0.041"/><circle cx="157.8" cy="886.7" r="1.74" fill="#2E2620" opacity="0.049"/><circle cx="383.6" cy="405.4" r="0.93" fill="#2E2620" opacity="0.071"/><circle cx="532.7" cy="506.4" r="2.06" fill="#2E2620" opacity="0.031"/><circle cx="494.5" cy="524.0" r="0.62" fill="#2E2620" opacity="0.037"/><circle cx="164.0" cy="575.2" r="1.75" fill="#2E2620" opacity="0.042"/><circle cx="475.0" cy="394.4" r="1.92" fill="#2E2620" opacity="0.071"/><circle cx="372.9" cy="940.3" r="1.56" fill="#2E2620" opacity="0.075"/><circle cx="279.4" cy="866.2" r="0.85" fill="#2E2620" opacity="0.041"/><circle cx="317.6" cy="838.2" r="1.27" fill="#2E2620" opacity="0.063"/><circle cx="36.6" cy="803.7" r="1.06" fill="#2E2620" opacity="0.051"/><circle cx="620.7" cy="152.4" r="1.21" fill="#2E2620" opacity="0.039"/><circle cx="761.9" cy="657.0" r="1.35" fill="#2E2620" opacity="0.064"/><circle cx="695.7" cy="937.3" r="1.43" fill="#2E2620" opacity="0.075"/><circle cx="315.6" cy="673.9" r="0.93" fill="#2E2620" opacity="0.060"/><circle cx="503.4" cy="171.9" r="0.66" fill="#2E2620" opacity="0.033"/><circle cx="677.5" cy="888.2" r="2.05" fill="#2E2620" opacity="0.078"/><circle cx="590.4" cy="478.9" r="1.24" fill="#2E2620" opacity="0.035"/><circle cx="360.9" cy="174.8" r="0.95" fill="#2E2620" opacity="0.060"/><circle cx="265.8" cy="517.5" r="1.28" fill="#2E2620" opacity="0.075"/><circle cx="162.4" cy="555.3" r="0.63" fill="#2E2620" opacity="0.037"/><circle cx="128.2" cy="944.5" r="2.12" fill="#2E2620" opacity="0.051"/><circle cx="252.4" cy="961.0" r="1.08" fill="#2E2620" opacity="0.056"/><circle cx="275.9" cy="29.5" r="2.02" fill="#2E2620" opacity="0.076"/><circle cx="402.6" cy="866.4" r="1.66" fill="#2E2620" opacity="0.077"/><circle cx="666.7" cy="938.8" r="2.10" fill="#2E2620" opacity="0.065"/><circle cx="182.4" cy="195.8" r="1.49" fill="#2E2620" opacity="0.075"/><circle cx="314.0" cy="493.7" r="1.62" fill="#2E2620" opacity="0.035"/><circle cx="735.9" cy="598.0" r="1.16" fill="#2E2620" opacity="0.031"/><circle cx="539.6" cy="178.3" r="1.65" fill="#2E2620" opacity="0.065"/><circle cx="81.7" cy="911.0" r="1.73" fill="#2E2620" opacity="0.073"/><circle cx="106.8" cy="664.4" r="1.05" fill="#2E2620" opacity="0.034"/><circle cx="542.4" cy="342.4" r="0.78" fill="#2E2620" opacity="0.031"/><circle cx="28.7" cy="575.5" r="0.88" fill="#2E2620" opacity="0.036"/><circle cx="118.4" cy="324.0" r="1.54" fill="#2E2620" opacity="0.053"/><circle cx="337.6" cy="745.9" r="1.65" fill="#2E2620" opacity="0.066"/><circle cx="40.1" cy="536.5" r="0.87" fill="#2E2620" opacity="0.045"/><circle cx="577.1" cy="187.0" r="0.67" fill="#2E2620" opacity="0.044"/><circle cx="219.8" cy="674.6" r="1.10" fill="#2E2620" opacity="0.032"/><circle cx="541.1" cy="439.5" r="1.93" fill="#2E2620" opacity="0.040"/><circle cx="489.3" cy="72.9" r="1.69" fill="#2E2620" opacity="0.067"/><circle cx="586.0" cy="856.7" r="1.09" fill="#2E2620" opacity="0.056"/><circle cx="381.6" cy="370.6" r="1.82" fill="#2E2620" opacity="0.080"/><circle cx="116.1" cy="359.8" r="1.29" fill="#2E2620" opacity="0.037"/><circle cx="558.1" cy="449.3" r="1.21" fill="#2E2620" opacity="0.072"/><circle cx="317.0" cy="802.5" r="0.72" fill="#2E2620" opacity="0.064"/><circle cx="708.2" cy="92.9" r="2.18" fill="#2E2620" opacity="0.044"/><circle cx="143.0" cy="124.1" r="1.03" fill="#2E2620" opacity="0.047"/><circle cx="5.8" cy="150.7" r="1.87" fill="#2E2620" opacity="0.069"/><circle cx="629.2" cy="1001.0" r="1.66" fill="#2E2620" opacity="0.036"/><circle cx="573.9" cy="717.5" r="1.11" fill="#2E2620" opacity="0.052"/><circle cx="233.2" cy="26.4" r="1.35" fill="#2E2620" opacity="0.058"/><circle cx="523.9" cy="107.6" r="0.73" fill="#2E2620" opacity="0.048"/><circle cx="711.0" cy="132.0" r="1.24" fill="#2E2620" opacity="0.073"/><circle cx="135.5" cy="431.7" r="0.66" fill="#2E2620" opacity="0.053"/><circle cx="343.6" cy="587.3" r="0.84" fill="#2E2620" opacity="0.071"/><circle cx="583.2" cy="594.9" r="0.84" fill="#2E2620" opacity="0.058"/><circle cx="632.2" cy="106.3" r="1.97" fill="#2E2620" opacity="0.079"/><circle cx="679.1" cy="253.0" r="0.66" fill="#2E2620" opacity="0.058"/><circle cx="600.4" cy="806.7" r="1.03" fill="#2E2620" opacity="0.052"/><circle cx="77.9" cy="604.8" r="0.75" fill="#2E2620" opacity="0.072"/><circle cx="727.6" cy="157.1" r="1.22" fill="#2E2620" opacity="0.030"/><circle cx="473.8" cy="331.7" r="1.76" fill="#2E2620" opacity="0.033"/><circle cx="562.9" cy="437.5" r="2.03" fill="#2E2620" opacity="0.039"/><circle cx="217.8" cy="758.6" r="1.25" fill="#2E2620" opacity="0.061"/><circle cx="47.4" cy="1013.3" r="0.78" fill="#2E2620" opacity="0.049"/><circle cx="213.3" cy="388.8" r="2.07" fill="#2E2620" opacity="0.039"/><circle cx="186.2" cy="52.1" r="1.15" fill="#2E2620" opacity="0.051"/><circle cx="10.4" cy="901.1" r="0.93" fill="#2E2620" opacity="0.038"/><circle cx="26.4" cy="1004.3" r="2.03" fill="#2E2620" opacity="0.038"/><circle cx="639.9" cy="213.7" r="0.87" fill="#2E2620" opacity="0.059"/><circle cx="75.6" cy="1023.2" r="1.09" fill="#2E2620" opacity="0.078"/><circle cx="297.4" cy="950.3" r="1.71" fill="#2E2620" opacity="0.070"/><circle cx="530.3" cy="272.8" r="1.85" fill="#2E2620" opacity="0.052"/><circle cx="203.6" cy="1001.2" r="2.11" fill="#2E2620" opacity="0.074"/><circle cx="344.4" cy="6.2" r="1.59" fill="#2E2620" opacity="0.059"/><circle cx="500.0" cy="774.4" r="1.89" fill="#2E2620" opacity="0.042"/><circle cx="33.0" cy="989.9" r="1.46" fill="#2E2620" opacity="0.073"/><circle cx="479.5" cy="351.0" r="0.95" fill="#2E2620" opacity="0.069"/><circle cx="569.9" cy="168.2" r="1.12" fill="#2E2620" opacity="0.038"/><circle cx="92.1" cy="678.7" r="2.06" fill="#2E2620" opacity="0.061"/><circle cx="659.2" cy="642.8" r="0.75" fill="#2E2620" opacity="0.055"/><circle cx="337.7" cy="639.3" r="1.41" fill="#2E2620" opacity="0.051"/><circle cx="10.0" cy="120.3" r="2.13" fill="#2E2620" opacity="0.039"/><circle cx="22.2" cy="324.9" r="1.44" fill="#2E2620" opacity="0.062"/><circle cx="526.7" cy="189.2" r="1.56" fill="#2E2620" opacity="0.031"/><circle cx="754.6" cy="191.4" r="1.29" fill="#2E2620" opacity="0.077"/><circle cx="81.5" cy="976.2" r="1.19" fill="#2E2620" opacity="0.042"/><circle cx="692.8" cy="647.6" r="1.17" fill="#2E2620" opacity="0.040"/></g>
<rect x="30" y="30" width="708" height="964" rx="26" fill="none" stroke="#CFA050" stroke-width="2" opacity="0.85"/><rect x="42" y="42" width="684" height="940" rx="20" fill="none" stroke="#CFA050" stroke-width="0.8" opacity="0.35"/>
</svg>