<svg xmlns="http://www.w3.org/2000/svg" width="768" height="1024" viewBox="0 0 768 1024" role="img" aria-label="Original Tome vector cover for Moby-Dick: a pale whale curve breaching a dark teal sea beneath a wide negative-space sky, gold compass star above.">
<defs><linearGradient id="moby-dick-sky" x1="0" y1="0" x2="0" y2="1"><stop offset="0" stop-color="#E9F1F2"/><stop offset="1" stop-color="#C9DDE1"/></linearGradient><linearGradient id="moby-dick-sea" x1="0" y1="0" x2="0" y2="1"><stop offset="0" stop-color="#1F6E8C"/><stop offset="1" stop-color="#082430"/></linearGradient><radialGradient id="moby-dick-vig" cx="0.5" cy="0.42" r="0.95"><stop offset="0.55" stop-color="#082430" stop-opacity="0"/><stop offset="1" stop-color="#082430" stop-opacity="0.38"/></radialGradient></defs>
<rect width="768" height="640" fill="url(#moby-dick-sky)"/><rect y="640" width="768" height="384" fill="url(#moby-dick-sea)"/><path d="M 384 140 L 392.4 161.6 L 414 170 L 392.4 178.4 L 384 200 L 375.6 178.4 L 354 170 L 375.6 161.6 Z" fill="#E8C46A" opacity="1"/><circle cx="384" cy="170" r="52" fill="none" stroke="#E8C46A" stroke-width="2" opacity="0.6"/><path d="M 180 700 Q 300 450 470 580 Q 520 610 560 680 Q 380 646 180 700 Z" fill="#082430"/><path d="M 470 580 Q 540 520 600 544 Q 560 600 540 650 Z" fill="#082430"/><path d="M 250 580 Q 300 460 330 420" fill="none" stroke="#E9F1F2" stroke-width="8" stroke-linecap="round" opacity="0.8"/><path d="M 300 600 Q 350 490 380 450" fill="none" stroke="#E9F1F2" stroke-width="5" stroke-linecap="round" opacity="0.5"/><path d="M 60 760 Q 220 734 384 760 T 708 760" fill="none" stroke="#E9F1F2" stroke-width="4" stroke-linecap="round" opacity="0.35"/><path d="M 60 850 Q 220 824 384 850 T 708 850" fill="none" stroke="#E8C46A" stroke-width="3" stroke-linecap="round" opacity="0.8"/><path d="M 60 940 Q 220 914 384 940 T 708 940" fill="none" stroke="#E9F1F2" stroke-width="4" stroke-linecap="round" opacity="0.35"/><rect width="768" height="1024" fill="url(#moby-dick-vig)"/>
<g><circle cx="267.8" cy="55.7" r="1.66" fill="#FFFFFF" opacity="0.053"/><circle cx="7.2" cy="61.5" r="1.06" fill="#FFFFFF" opacity="0.041"/><circle cx="555.1" cy="173.4" r="0.61" fill="#FFFFFF" opacity="0.075"/><circle cx="469.8" cy="332.0" r="0.65" fill="#FFFFFF" opacity="0.040"/><circle cx="37.2" cy="744.6" r="1.63" fill="#FFFFFF" opacity="0.031"/><circle cx="678.5" cy="537.7" r="1.52" fill="#FFFFFF" opacity="0.064"/><circle cx="735.4" cy="805.8" r="1.23" fill="#FFFFFF" opacity="0.078"/><circle cx="731.9" cy="660.5" r="1.46" fill="#FFFFFF" opacity="0.076"/><circle cx="722.7" cy="97.0" r="2.10" fill="#FFFFFF" opacity="0.069"/><circle cx="108.8" cy="680.8" r="2.09" fill="#FFFFFF" opacity="0.042"/><circle cx="110.0" cy="91.1" r="1.82" fill="#FFFFFF" opacity="0.054"/><circle cx="5.6" cy="758.3" r="1.20" fill="#FFFFFF" opacity="0.066"/><circle cx="245.6" cy="992.8" r="1.45" fill="#FFFFFF" opacity="0.044"/><circle cx="442.3" cy="357.8" r="1.98" fill="#FFFFFF" opacity="0.045"/><circle cx="646.5" cy="417.5" r="2.19" fill="#FFFFFF" opacity="0.035"/><circle cx="398.5" cy="298.9" r="1.28" fill="#FFFFFF" opacity="0.053"/><circle cx="106.1" cy="530.0" r="1.10" fill="#FFFFFF" opacity="0.075"/><circle cx="24.7" cy="384.9" r="0.84" fill="#FFFFFF" opacity="0.032"/><circle cx="738.4" cy="757.0" r="2.00" fill="#FFFFFF" opacity="0.064"/><circle cx="454.6" cy="698.1" r="1.60" fill="#FFFFFF" opacity="0.045"/><circle cx="171.2" cy="704.6" r="1.50" fill="#FFFFFF" opacity="0.062"/><circle cx="741.3" cy="679.5" r="1.11" fill="#FFFFFF" opacity="0.032"/><circle cx="57.7" cy="848.2" r="1.31" fill="#FFFFFF" opacity="0.062"/><circle cx="440.9" cy="398.6" r="1.86" fill="#FFFFFF" opacity="0.080"/><circle cx="353.8" cy="670.3" r="1.56" fill="#FFFFFF" opacity="0.041"/><circle cx="106.4" cy="477.2" r="1.53" fill="#FFFFFF" opacity="0.055"/><circle cx="255.8" cy="660.7" r="1.56" fill="#FFFFFF" opacity="0.060"/><circle cx="671.9" cy="771.7" r="0.86" fill="#FFFFFF" opacity="0.035"/><circle cx="462.7" cy="296.6" r="1.75" fill="#FFFFFF" opacity="0.066"/><circle cx="255.4" cy="835.9" r="1.36" fill="#FFFFFF" opacity="0.072"/><circle cx="484.4" cy="331.5" r="1.34" fill="#FFFFFF" opacity="0.051"/><circle cx="134.8" cy="160.3" r="1.98" fill="#FFFFFF" opacity="0.040"/><circle cx="116.9" cy="878.5" r="1.04" fill="#FFFFFF" opacity="0.039"/><circle cx="697.9" cy="777.3" r="2.04" fill="#FFFFFF" opacity="0.049"/><circle cx="150.6" cy="376.4" r="2.03" fill="#FFFFFF" opacity="0.032"/><circle cx="417.1" cy="770.6" r="1.59" fill="#FFFFFF" opacity="0.035"/><circle cx="208.4" cy="869.3" r="1.21" fill="#FFFFFF" opacity="0.038"/><circle cx="261.5" cy="459.4" r="1.10" fill="#FFFFFF" opacity="0.064"/><circle cx="72.0" cy="41.3" r="1.76" fill="#FFFFFF" opacity="0.069"/><circle cx="97.1" cy="65.0" r="1.17" fill="#FFFFFF" opacity="0.038"/><circle cx="708.4" cy="542.8" r="0.95" fill="#FFFFFF" opacity="0.047"/><circle cx="532.2" cy="1017.8" r="0.63" fill="#FFFFFF" opacity="0.054"/><circle cx="460.9" cy="238.8" r="0.82" fill="#FFFFFF" opacity="0.059"/><circle cx="759.3" cy="649.0" r="1.05" fill="#FFFFFF" opacity="0.036"/><circle cx="535.1" cy="6.7" r="1.55" fill="#FFFFFF" opacity="0.076"/><circle cx="542.9" cy="82.2" r="1.79" fill="#FFFFFF" opacity="0.065"/><circle cx="425.8" cy="895.3" r="1.00" fill="#FFFFFF" opacity="0.055"/><circle cx="345.6" cy="80.4" r="2.07" fill="#FFFFFF" opacity="0.038"/><circle cx="462.0" cy="646.0" r="1.03" fill="#FFFFFF" opacity="0.055"/><circle cx="311.6" cy="979.2" r="1.34" fill="#FFFFFF" opacity="0.073"/><circle cx="565.5" cy="492.6" r="0.94" fill="#FFFFFF" opacity="0.054"/><circle cx="8.2" cy="718.3" r="1.36" fill="#FFFFFF" opacity="0.055"/><circle cx="426.4" cy="251.9" r="0.76" fill="#FFFFFF" opacity="0.042"/><circle cx="243.3" cy="930.0" r="1.52" fill="#FFFFFF" opacity="0.044"/><circle cx="450.4" cy="259.6" r="0.94" fill="#FFFFFF" opacity="0.072"/><circle cx="430.3" cy="745.9" r="0.62" fill="#FFFFFF" opacity="0.063"/><circle cx="480.8" cy="545.5" r="1.78" fill="#FFFFFF" opacity="0.041"/><circle cx="471.6" cy="134.4" r="1.63" fill="#FFFFFF" opacity="0.037"/><circle cx="429.5" cy="447.3" r="2.18" fill="#FFFFFF" opacity="0.052"/><circle cx="647.5" cy="688.1" r="0.84" fill="#FFFFFF" opacity="0.052"/><circle cx="435.6" cy="254.3" r="2.06" fill="#FFFFFF" opacity="0.035"/><circle cx="406.6" cy="204.6" r="1.35" fill="#FFFFFF" opacity="0.070"/><circle cx="415.8" cy="804.4" r="1.97" fill="#FFFFFF" opacity="0.046"/><circle cx="614.7" cy="302.5" r="2.14" fill="#FFFFFF" opacity="0.042"/><circle cx="510.6" cy="45.6" r="1.24" fill="#FFFFFF" opacity="0.031"/><circle cx="324.4" cy="970.8" r="0.78" fill="#FFFFFF" opacity="0.055"/><circle cx="664.2" cy="353.4" r="0.81" fill="#FFFFFF" opacity="0.042"/><circle cx="301.2" cy="774.4" r="0.96" fill="#FFFFFF" opacity="0.031"/><circle cx="359.5" cy="142.0" r="1.64" fill="#FFFFFF" opacity="0.072"/><circle cx="46.3" cy="506.3" r="2.08" fill="#FFFFFF" opacity="0.078"/><circle cx="376.9" cy="737.4" r="1.10" fill="#FFFFFF" opacity="0.059"/><circle cx="317.2" cy="399.0" r="1.69" fill="#FFFFFF" opacity="0.061"/><circle cx="668.3" cy="390.4" r="0.86" fill="#FFFFFF" opacity="0.038"/><circle cx="701.4" cy="765.7" r="1.02" fill="#FFFFFF" opacity="0.051"/><circle cx="691.6" cy="379.9" r="1.94" fill="#FFFFFF" opacity="0.050"/><circle cx="75.8" cy="298.7" r="1.83" fill="#FFFFFF" opacity="0.035"/><circle cx="520.6" cy="155.7" r="0.92" fill="#FFFFFF" opacity="0.078"/><circle cx="353.7" cy="347.9" r="1.31" fill="#FFFFFF" opacity="0.056"/><circle cx="216.1" cy="822.0" r="0.64" fill="#FFFFFF" opacity="0.066"/><circle cx="284.6" cy="5.8" r="0.61" fill="#FFFFFF" opacity="0.040"/><circle cx="320.6" cy="320.8" r="2.09" fill="#FFFFFF" opacity="0.033"/><circle cx="320.9" cy="232.9" r="1.53" fill="#FFFFFF" opacity="0.046"/><circle cx="216.5" cy="854.6" r="1.31" fill="#FFFFFF" opacity="0.071"/><circle cx="557.6" cy="122.8" r="1.02" fill="#FFFFFF" opacity="0.040"/><circle cx="568.2" cy="141.0" r="2.14" fill="#FFFFFF" opacity="0.059"/><circle cx="539.7" cy="671.9" r="1.56" fill="#FFFFFF" opacity="0.055"/><circle cx="28.9" cy="912.8" r="1.40" fill="#FFFFFF" opacity="0.049"/><circle cx="676.3" cy="234.7" r="2.07" fill="#FFFFFF" opacity="0.066"/><circle cx="382.2" cy="576.8" r="0.96" fill="#FFFFFF" opacity="0.063"/><circle cx="409.5" cy="871.6" r="0.72" fill="#FFFFFF" opacity="0.045"/><circle cx="449.8" cy="137.8" r="1.34" fill="#FFFFFF" opacity="0.036"/><circle cx="635.3" cy="969.4" r="1.82" fill="#FFFFFF" opacity="0.043"/><circle cx="423.5" cy="183.2" r="1.20" fill="#FFFFFF" opacity="0.064"/><circle cx="610.6" cy="571.0" r="1.05" fill="#FFFFFF" opacity="0.048"/><circle cx="382.9" cy="315.5" r="1.96" fill="#FFFFFF" opacity="0.039"/><circle cx="399.3" cy="716.6" r="1.32" fill="#FFFFFF" opacity="0.054"/><circle cx="331.3" cy="94.1" r="2.03" fill="#FFFFFF" opacity="0.059"/><circle cx="267.9" cy="711.9" r="1.87" fill="#FFFFFF" opacity="0.063"/><circle cx="240.2" cy="671.8" r="1.87" fill="#FFFFFF" opacity="0.074"/><circle cx="739.5" cy="219.0" r="1.43" fill="#FFFFFF" opacity="0.060"/><circle cx="670.9" cy="935.7" r="2.18" fill="#FFFFFF" opacity="0.066"/><circle cx="125.0" cy="522.4" r="1.54" fill="#FFFFFF" opacity="0.032"/><circle cx="582.2" cy="112.4" r="1.80" fill="#FFFFFF" opacity="0.054"/><circle cx="54.5" cy="137.7" r="1.55" fill="#FFFFFF" opacity="0.064"/><circle cx="179.3" cy="365.7" r="1.31" fill="#FFFFFF" opacity="0.056"/><circle cx="163.1" cy="555.8" r="1.40" fill="#FFFFFF" opacity="0.073"/><circle cx="465.3" cy="262.3" r="0.64" fill="#FFFFFF" opacity="0.044"/><circle cx="209.2" cy="153.3" r="0.72" fill="#FFFFFF" opacity="0.047"/><circle cx="413.8" cy="128.5" r="0.71" fill="#FFFFFF" opacity="0.033"/><circle cx="369.2" cy="384.4" r="1.44" fill="#FFFFFF" opacity="0.058"/><circle cx="621.6" cy="343.0" r="1.87" fill="#FFFFFF" opacity="0.066"/><circle cx="537.0" cy="219.9" r="2.02" fill="#FFFFFF" opacity="0.057"/><circle cx="44.2" cy="339.3" r="1.47" fill="#FFFFFF" opacity="0.052"/><circle cx="171.2" cy="294.4" r="2.18" fill="#FFFFFF" opacity="0.068"/><circle cx="644.2" cy="804.2" r="0.71" fill="#FFFFFF" opacity="0.039"/><circle cx="314.6" cy="31.4" r="1.96" fill="#FFFFFF" opacity="0.060"/><circle cx="511.1" cy="551.1" r="1.95" fill="#FFFFFF" opacity="0.064"/><circle cx="706.1" cy="386.3" r="1.06" fill="#FFFFFF" opacity="0.031"/><circle cx="306.2" cy="957.3" r="1.08" fill="#FFFFFF" opacity="0.061"/><circle cx="575.6" cy="142.9" r="1.31" fill="#FFFFFF" opacity="0.060"/><circle cx="577.3" cy="995.1" r="1.15" fill="#FFFFFF" opacity="0.036"/><circle cx="698.0" cy="978.9" r="1.81" fill="#FFFFFF" opacity="0.072"/><circle cx="71.7" cy="412.1" r="0.77" fill="#FFFFFF" opacity="0.037"/><circle cx="607.3" cy="250.5" r="1.48" fill="#FFFFFF" opacity="0.033"/><circle cx="79.4" cy="386.2" r="0.74" fill="#FFFFFF" opacity="0.050"/><circle cx="300.6" cy="855.0" r="1.12" fill="#FFFFFF" opacity="0.040"/><circle cx="509.8" cy="97.2" r="1.14" fill="#FFFFFF" opacity="0.060"/><circle cx="228.8" cy="260.9" r="1.31" fill="#FFFFFF" opacity="0.049"/><circle cx="487.7" cy="655.7" r="1.27" fill="#FFFFFF" opacity="0.043"/><circle cx="589.3" cy="77.1" r="1.41" fill="#FFFFFF" opacity="0.034"/><circle cx="416.2" cy="212.2" r="1.60" fill="#FFFFFF" opacity="0.069"/><circle cx="565.2" cy="644.5" r="1.01" fill="#FFFFFF" opacity="0.038"/><circle cx="71.5" cy="308.7" r="1.75" fill="#FFFFFF" opacity="0.037"/><circle cx="678.0" cy="60.7" r="1.98" fill="#FFFFFF" opacity="0.075"/><circle cx="71.4" cy="86.4" r="1.50" fill="#FFFFFF" opacity="0.038"/><circle cx="124.5" cy="670.3" r="1.13" fill="#FFFFFF" opacity="0.034"/><circle cx="671.3" cy="342.0" r="0.88" fill="#FFFFFF" opacity="0.060"/><circle cx="335.2" cy="402.8" r="1.85" fill="#FFFFFF" opacity="0.069"/><circle cx="661.8" cy="765.6" r="0.91" fill="#FFFFFF" opacity="0.064"/><circle cx="33.6" cy="441.8" r="0.91" fill="#FFFFFF" opacity="0.060"/><circle cx="636.3" cy="100.8" r="1.15" fill="#FFFFFF" opacity="0.030"/><circle cx="219.3" cy="904.9" r="0.95" fill="#FFFFFF" opacity="0.056"/><circle cx="741.1" cy="939.5" r="1.38" fill="#FFFFFF" opacity="0.064"/><circle cx="304.6" cy="688.4" r="1.61" fill="#FFFFFF" opacity="0.060"/><circle cx="421.6" cy="246.1" r="1.77" fill="#FFFFFF" opacity="0.034"/><circle cx="508.4" cy="438.3" r="1.82" fill="#FFFFFF" opacity="0.057"/><circle cx="212.2" cy="608.6" r="1.22" fill="#FFFFFF" opacity="0.072"/><circle cx="506.3" cy="443.3" r="2.18" fill="#FFFFFF" opacity="0.049"/><circle cx="80.7" cy="524.5" r="0.65" fill="#FFFFFF" opacity="0.033"/><circle cx="498.1" cy="224.2" r="0.97" fill="#FFFFFF" opacity="0.073"/><circle cx="580.2" cy="723.3" r="2.05" fill="#FFFFFF" opacity="0.065"/><circle cx="194.5" cy="516.2" r="1.16" fill="#FFFFFF" opacity="0.052"/><circle cx="187.9" cy="50.1" r="1.79" fill="#FFFFFF" opacity="0.062"/><circle cx="308.5" cy="868.5" r="2.12" fill="#FFFFFF" opacity="0.073"/><circle cx="357.1" cy="962.3" r="0.64" fill="#FFFFFF" opacity="0.060"/><circle cx="18.3" cy="147.3" r="1.13" fill="#FFFFFF" opacity="0.033"/><circle cx="561.7" cy="888.7" r="1.33" fill="#FFFFFF" opacity="0.044"/><circle cx="48.1" cy="286.8" r="0.61" fill="#FFFFFF" opacity="0.043"/><circle cx="243.8" cy="727.6" r="0.97" fill="#FFFFFF" opacity="0.060"/><circle cx="175.9" cy="220.6" r="1.02" fill="#FFFFFF" opacity="0.067"/><circle cx="297.1" cy="225.6" r="1.19" fill="#FFFFFF" opacity="0.042"/><circle cx="740.3" cy="356.8" r="1.69" fill="#FFFFFF" opacity="0.065"/><circle cx="589.0" cy="801.3" r="1.55" fill="#FFFFFF" opacity="0.057"/><circle cx="614.8" cy="104.4" r="0.61" fill="#FFFFFF" opacity="0.045"/><circle cx="63.8" cy="315.0" r="2.05" fill="#FFFFFF" opacity="0.040"/><circle cx="68.2" cy="138.6" r="0.93" fill="#FFFFFF" opacity="0.060"/><circle cx="527.5" cy="269.1" r="0.87" fill="#FFFFFF" opacity="0.074"/><circle cx="83.0" cy="789.8" r="1.75" fill="#FFFFFF" opacity="0.056"/><circle cx="371.8" cy="62.6" r="1.32" fill="#FFFFFF" opacity="0.031"/><circle cx="704.1" cy="558.2" r="1.48" fill="#FFFFFF" opacity="0.063"/><circle cx="112.3" cy="344.4" r="1.18" fill="#FFFFFF" opacity="0.065"/><circle cx="750.3" cy="403.7" r="0.73" fill="#FFFFFF" opacity="0.055"/><circle cx="378.5" cy="395.8" r="2.08" fill="#FFFFFF" opacity="0.073"/><circle cx="304.6" cy="853.4" r="2.10" fill="#FFFFFF" opacity="0.035"/><circle cx="735.7" cy="738.5" r="2.11" fill="#FFFFFF" opacity="0.041"/><circle cx="266.6" cy="776.0" r="2.02" fill="#FFFFFF" opacity="0.062"/><circle cx="61.0" cy="969.0" r="1.98" fill="#FFFFFF" opacity="0.040"/><circle cx="736.2" cy="168.2" r="0.67" fill="#FFFFFF" opacity="0.079"/><circle cx="524.3" cy="926.1" r="1.99" fill="#FFFFFF" opacity="0.052"/><circle cx="720.5" cy="37.5" r="1.59" fill="#FFFFFF" opacity="0.056"/><circle cx="667.2" cy="813.5" r="1.45" fill="#FFFFFF" opacity="0.053"/><circle cx="731.2" cy="444.3" r="1.90" fill="#FFFFFF" opacity="0.071"/><circle cx="538.7" cy="599.1" r="1.45" fill="#FFFFFF" opacity="0.053"/><circle cx="401.9" cy="836.7" r="1.89" fill="#FFFFFF" opacity="0.077"/><circle cx="245.5" cy="563.0" r="1.31" fill="#FFFFFF" opacity="0.080"/><circle cx="563.2" cy="852.8" r="0.93" fill="#FFFFFF" opacity="0.075"/><circle cx="63.8" cy="800.1" r="0.76" fill="#FFFFFF" opacity="0.079"/><circle cx="63.1" cy="782.8" r="1.56" fill="#FFFFFF" opacity="0.035"/><circle cx="103.1" cy="56.6" r="2.12" fill="#FFFFFF" opacity="0.037"/><circle cx="50.5" cy="794.7" r="1.33" fill="#FFFFFF" opacity="0.066"/><circle cx="420.8" cy="535.4" r="1.06" fill="#FFFFFF" opacity="0.071"/><circle cx="505.1" cy="283.1" r="0.94" fill="#FFFFFF" opacity="0.074"/><circle cx="88.5" cy="977.2" r="2.13" fill="#FFFFFF" opacity="0.046"/><circle cx="356.1" cy="774.4" r="1.35" fill="#FFFFFF" opacity="0.051"/><circle cx="351.8" cy="856.8" r="1.77" fill="#FFFFFF" opacity="0.044"/><circle cx="116.9" cy="922.0" r="2.09" fill="#FFFFFF" opacity="0.051"/><circle cx="709.7" cy="966.8" r="1.80" fill="#FFFFFF" opacity="0.035"/><circle cx="72.3" cy="275.0" r="1.93" fill="#FFFFFF" opacity="0.080"/><circle cx="658.7" cy="638.1" r="0.62" fill="#FFFFFF" opacity="0.041"/><circle cx="192.8" cy="361.8" r="0.66" fill="#FFFFFF" opacity="0.051"/><circle cx="94.0" cy="671.4" r="1.42" fill="#FFFFFF" opacity="0.042"/><circle cx="315.7" cy="61.0" r="1.12" fill="#FFFFFF" opacity="0.051"/><circle cx="242.2" cy="113.9" r="2.02" fill="#FFFFFF" opacity="0.031"/><circle cx="117.4" cy="379.0" r="1.54" fill="#FFFFFF" opacity="0.058"/><circle cx="693.9" cy="599.3" r="1.91" fill="#FFFFFF" opacity="0.050"/><circle cx="58.1" cy="539.2" r="1.95" fill="#FFFFFF" opacity="0.031"/><circle cx="526.7" cy="271.4" r="1.16" fill="#FFFFFF" opacity="0.073"/><circle cx="691.6" cy="781.6" r="0.67" fill="#FFFFFF" opacity="0.058"/><circle cx="361.3" cy="583.0" r="1.58" fill="#FFFFFF" opacity="0.060"/><circle cx="724.9" cy="535.8" r="1.53" fill="#FFFFFF" opacity="0.044"/><circle cx="101.2" cy="698.7" r="1.26" fill="#FFFFFF" opacity="0.066"/><circle cx="223.7" cy="329.1" r="1.75" fill="#FFFFFF" opacity="0.080"/><circle cx="85.2" cy="517.4" r="2.14" fill="#FFFFFF" opacity="0.036"/><circle cx="716.1" cy="761.8" r="1.99" fill="#FFFFFF" opacity="0.076"/><circle cx="240.7" cy="959.4" r="1.93" fill="#FFFFFF" opacity="0.074"/><circle cx="250.0" cy="744.0" r="1.27" fill="#FFFFFF" opacity="0.060"/><circle cx="734.6" cy="860.3" r="1.06" fill="#FFFFFF" opacity="0.061"/><circle cx="59.3" cy="937.6" r="1.53" fill="#FFFFFF" opacity="0.079"/><circle cx="479.4" cy="418.5" r="0.84" fill="#FFFFFF" opacity="0.061"/><circle cx="552.8" cy="929.1" r="0.79" fill="#FFFFFF" opacity="0.053"/><circle cx="23.4" cy="380.5" r="1.55" fill="#FFFFFF" opacity="0.078"/><circle cx="156.1" cy="440.6" r="1.84" fill="#FFFFFF" opacity="0.078"/><circle cx="552.2" cy="34.9" r="1.78" fill="#FFFFFF" opacity="0.046"/><circle cx="189.3" cy="954.9" r="1.01" fill="#FFFFFF" opacity="0.057"/><circle cx="24.7" cy="23.4" r="0.97" fill="#FFFFFF" opacity="0.032"/><circle cx="604.9" cy="120.0" r="1.60" fill="#FFFFFF" opacity="0.033"/><circle cx="240.7" cy="604.7" r="0.65" fill="#FFFFFF" opacity="0.062"/><circle cx="160.6" cy="700.8" r="1.50" fill="#FFFFFF" opacity="0.050"/><circle cx="454.2" cy="219.4" r="1.31" fill="#FFFFFF" opacity="0.033"/><circle cx="744.4" cy="175.3" r="1.46" fill="#FFFFFF" opacity="0.080"/><circle cx="183.3" cy="872.7" r="1.95" fill="#FFFFFF" opacity="0.044"/><circle cx="312.9" cy="759.2" r="1.47" fill="#FFFFFF" opacity="0.036"/><circle cx="310.7" cy="987.5" r="1.91" fill="#FFFFFF" opacity="0.054"/><circle cx="500.5" cy="98.4" r="1.45" fill="#FFFFFF" opacity="0.031"/><circle cx="502.6" cy="743.1" r="1.97" fill="#FFFFFF" opacity="0.032"/><circle cx="647.9" cy="610.8" r="1.02" fill="#FFFFFF" opacity="0.043"/><circle cx="697.4" cy="295.3" r="1.12" fill="#FFFFFF" opacity="0.055"/><circle cx="764.8" cy="717.4" r="0.95" fill="#FFFFFF" opacity="0.041"/><circle cx="155.5" cy="332.4" r="1.65" fill="#FFFFFF" opacity="0.044"/><circle cx="417.9" cy="932.9" r="1.63" fill="#FFFFFF" opacity="0.046"/><circle cx="653.4" cy="810.6" r="1.83" fill="#FFFFFF" opacity="0.033"/><circle cx="589.6" cy="700.1" r="1.05" fill="#FFFFFF" opacity="0.079"/><circle cx="352.6" cy="421.5" r="2.05" fill="#FFFFFF" opacity="0.073"/><circle cx="70.7" cy="623.9" r="1.39" fill="#FFFFFF" opacity="0.030"/><circle cx="371.8" cy="724.0" r="2.16" fill="#FFFFFF" opacity="0.035"/><circle cx="382.9" cy="13.1" r="0.90" fill="#FFFFFF" opacity="0.052"/><circle cx="506.7" cy="1011.4" r="1.89" fill="#FFFFFF" opacity="0.074"/><circle cx="13.4" cy="263.2" r="1.64" fill="#FFFFFF" opacity="0.031"/><circle cx="701.0" cy="308.2" r="1.15" fill="#FFFFFF" opacity="0.040"/><circle cx="494.5" cy="100.7" r="2.18" fill="#FFFFFF" opacity="0.079"/><circle cx="324.6" cy="475.7" r="0.83" fill="#FFFFFF" opacity="0.050"/><circle cx="520.4" cy="111.5" r="1.26" fill="#FFFFFF" opacity="0.051"/><circle cx="450.9" cy="7.5" r="1.82" fill="#FFFFFF" opacity="0.071"/><circle cx="160.5" cy="70.8" r="1.27" fill="#FFFFFF" opacity="0.046"/><circle cx="338.9" cy="580.1" r="1.04" fill="#FFFFFF" opacity="0.052"/><circle cx="433.8" cy="260.4" r="1.06" fill="#FFFFFF" opacity="0.062"/><circle cx="358.7" cy="529.5" r="0.95" fill="#FFFFFF" opacity="0.036"/><circle cx="64.0" cy="442.8" r="1.76" fill="#FFFFFF" opacity="0.060"/><circle cx="321.5" cy="115.7" r="2.12" fill="#FFFFFF" opacity="0.069"/><circle cx="24.4" cy="303.4" r="1.08" fill="#FFFFFF" opacity="0.038"/><circle cx="76.2" cy="984.9" r="1.26" fill="#FFFFFF" opacity="0.079"/><circle cx="588.3" cy="566.9" r="1.73" fill="#FFFFFF" opacity="0.034"/><circle cx="366.1" cy="656.1" r="0.97" fill="#FFFFFF" opacity="0.071"/><circle cx="530.4" cy="325.2" r="1.52" fill="#FFFFFF" opacity="0.066"/><circle cx="743.1" cy="252.2" r="1.94" fill="#FFFFFF" opacity="0.048"/><circle cx="287.1" cy="640.9" r="1.54" fill="#FFFFFF" opacity="0.072"/><circle cx="317.0" cy="1022.5" r="1.59" fill="#FFFFFF" opacity="0.056"/><circle cx="349.7" cy="934.8" r="0.70" fill="#FFFFFF" opacity="0.079"/><circle cx="436.7" cy="860.8" r="0.67" fill="#FFFFFF" opacity="0.054"/><circle cx="261.6" cy="910.8" r="1.10" fill="#FFFFFF" opacity="0.038"/><circle cx="567.9" cy="494.2" r="0.76" fill="#FFFFFF" opacity="0.034"/><circle cx="627.6" cy="55.5" r="2.03" fill="#FFFFFF" opacity="0.034"/><circle cx="188.9" cy="741.1" r="2.19" fill="#FFFFFF" opacity="0.071"/><circle cx="217.7" cy="371.7" r="0.91" fill="#FFFFFF" opacity="0.032"/><circle cx="106.1" cy="917.6" r="1.54" fill="#FFFFFF" opacity="0.059"/><circle cx="305.3" cy="946.1" r="1.49" fill="#FFFFFF" opacity="0.059"/><circle cx="470.5" cy="726.3" r="1.85" fill="#FFFFFF" opacity="0.049"/><circle cx="616.0" cy="511.8" r="0.64" fill="#FFFFFF" opacity="0.070"/><circle cx="42.4" cy="370.3" r="1.84" fill="#FFFFFF" opacity="0.031"/><circle cx="707.7" cy="204.9" r="1.13" fill="#FFFFFF" opacity="0.043"/><circle cx="481.7" cy="535.7" r="1.62" fill="#FFFFFF" opacity="0.074"/><circle cx="705.2" cy="77.6" r="1.71" fill="#FFFFFF" opacity="0.070"/><circle cx="339.4" cy="592.0" r="1.76" fill="#FFFFFF" opacity="0.041"/><circle cx="687.6" cy="93.9" r="1.77" fill="#FFFFFF" opacity="0.072"/><circle cx="42.7" cy="628.9" r="1.76" fill="#FFFFFF" opacity="0.068"/><circle cx="220.3" cy="872.7" r="0.94" fill="#FFFFFF" opacity="0.042"/><circle cx="163.3" cy="917.7" r="1.15" fill="#FFFFFF" opacity="0.063"/><circle cx="581.6" cy="804.4" r="1.85" fill="#FFFFFF" opacity="0.050"/><circle cx="761.7" cy="295.8" r="0.86" fill="#FFFFFF" opacity="0.033"/><circle cx="442.6" cy="651.5" r="1.89" fill="#FFFFFF" opacity="0.054"/><circle cx="7.1" cy="320.6" r="1.49" fill="#FFFFFF" opacity="0.033"/><circle cx="589.3" cy="643.5" r="1.03" fill="#FFFFFF" opacity="0.063"/><circle cx="436.8" cy="577.6" r="1.16" fill="#FFFFFF" opacity="0.067"/><circle cx="736.5" cy="957.0" r="1.59" fill="#FFFFFF" opacity="0.074"/><circle cx="501.3" cy="562.5" r="1.47" fill="#FFFFFF" opacity="0.031"/><circle cx="397.1" cy="418.2" r="1.53" fill="#FFFFFF" opacity="0.031"/><circle cx="451.6" cy="187.7" r="2.17" fill="#FFFFFF" opacity="0.079"/><circle cx="253.7" cy="766.9" r="1.29" fill="#FFFFFF" opacity="0.078"/><circle cx="191.0" cy="945.1" r="1.99" fill="#FFFFFF" opacity="0.033"/><circle cx="110.8" cy="29.9" r="1.48" fill="#FFFFFF" opacity="0.034"/><circle cx="74.3" cy="167.2" r="1.92" fill="#FFFFFF" opacity="0.075"/><circle cx="135.3" cy="475.2" r="1.52" fill="#FFFFFF" opacity="0.033"/><circle cx="168.4" cy="605.6" r="0.87" fill="#FFFFFF" opacity="0.032"/><circle cx="355.5" cy="901.7" r="1.39" fill="#FFFFFF" opacity="0.061"/><circle cx="313.8" cy="1002.7" r="1.68" fill="#FFFFFF" opacity="0.063"/><circle cx="417.9" cy="637.2" r="1.06" fill="#FFFFFF" opacity="0.044"/><circle cx="489.0" cy="563.0" r="1.33" fill="#FFFFFF" opacity="0.059"/><circle cx="21.8" cy="544.0" r="2.02" fill="#FFFFFF" opacity="0.053"/><circle cx="188.1" cy="60.6" r="1.98" fill="#FFFFFF" opacity="0.033"/><circle cx="546.7" cy="228.5" r="1.96" fill="#FFFFFF" opacity="0.077"/><circle cx="553.9" cy="997.2" r="1.90" fill="#FFFFFF" opacity="0.065"/><circle cx="448.7" cy="853.9" r="1.86" fill="#FFFFFF" opacity="0.034"/><circle cx="658.3" cy="798.5" r="1.53" fill="#FFFFFF" opacity="0.073"/><circle cx="270.9" cy="405.2" r="0.74" fill="#FFFFFF" opacity="0.054"/><circle cx="27.5" cy="254.4" r="1.51" fill="#FFFFFF" opacity="0.074"/><circle cx="127.2" cy="935.1" r="1.24" fill="#FFFFFF" opacity="0.069"/><circle cx="176.6" cy="271.8" r="1.55" fill="#FFFFFF" opacity="0.055"/><circle cx="703.2" cy="870.8" r="1.28" fill="#FFFFFF" opacity="0.045"/><circle cx="547.7" cy="581.9" r="2.11" fill="#FFFFFF" opacity="0.051"/><circle cx="89.9" cy="187.9" r="1.14" fill="#FFFFFF" opacity="0.072"/><circle cx="106.4" cy="426.7" r="1.51" fill="#FFFFFF" opacity="0.067"/><circle cx="511.3" cy="124.4" r="1.14" fill="#FFFFFF" opacity="0.056"/><circle cx="73.8" cy="631.6" r="0.95" fill="#FFFFFF" opacity="0.047"/><circle cx="304.0" cy="655.8" r="1.24" fill="#FFFFFF" opacity="0.067"/><circle cx="15.4" cy="978.2" r="1.54" fill="#FFFFFF" opacity="0.039"/><circle cx="692.4" cy="829.7" r="0.63" fill="#FFFFFF" opacity="0.036"/><circle cx="236.0" cy="847.7" r="0.74" fill="#FFFFFF" opacity="0.062"/><circle cx="357.5" cy="694.7" r="1.24" fill="#FFFFFF" opacity="0.066"/><circle cx="1.3" cy="229.7" r="1.69" fill="#FFFFFF" opacity="0.054"/><circle cx="743.2" cy="764.0" r="1.04" fill="#FFFFFF" opacity="0.033"/><circle cx="47.7" cy="584.0" r="1.15" fill="#FFFFFF" opacity="0.070"/><circle cx="432.9" cy="863.3" r="2.03" fill="#FFFFFF" opacity="0.050"/><circle cx="425.2" cy="608.0" r="1.50" fill="#FFFFFF" opacity="0.071"/><circle cx="687.4" cy="439.6" r="1.93" fill="#FFFFFF" opacity="0.037"/><circle cx="174.8" cy="474.6" r="0.91" fill="#FFFFFF" opacity="0.043"/><circle cx="372.7" cy="249.2" r="1.22" fill="#FFFFFF" opacity="0.063"/><circle cx="534.8" cy="975.9" r="0.61" fill="#FFFFFF" opacity="0.031"/><circle cx="568.2" cy="721.2" r="0.61" fill="#FFFFFF" opacity="0.071"/><circle cx="344.8" cy="61.0" r="0.78" fill="#FFFFFF" opacity="0.048"/><circle cx="756.5" cy="193.7" r="1.43" fill="#FFFFFF" opacity="0.074"/><circle cx="530.9" cy="91.0" r="1.28" fill="#FFFFFF" opacity="0.080"/><circle cx="128.5" cy="864.2" r="0.84" fill="#FFFFFF" opacity="0.060"/><circle cx="427.7" cy="1011.2" r="1.56" fill="#FFFFFF" opacity="0.051"/><circle cx="181.5" cy="884.9" r="0.84" fill="#FFFFFF" opacity="0.041"/><circle cx="114.1" cy="238.7" r="1.94" fill="#FFFFFF" opacity="0.051"/><circle cx="396.7" cy="640.8" r="1.43" fill="#FFFFFF" opacity="0.055"/><circle cx="651.3" cy="478.5" r="1.56" fill="#FFFFFF" opacity="0.078"/><circle cx="593.2" cy="626.0" r="2.18" fill="#FFFFFF" opacity="0.052"/><circle cx="233.0" cy="20.1" r="0.73" fill="#FFFFFF" opacity="0.045"/><circle cx="748.8" cy="8.5" r="1.95" fill="#FFFFFF" opacity="0.065"/><circle cx="333.8" cy="759.1" r="1.84" fill="#FFFFFF" opacity="0.079"/><circle cx="140.4" cy="838.9" r="0.62" fill="#FFFFFF" opacity="0.059"/><circle cx="662.2" cy="847.7" r="0.98" fill="#FFFFFF" opacity="0.052"/><circle cx="594.8" cy="283.9" r="1.75" fill="#FFFFFF" opacity="0.077"/><circle cx="477.6" cy="53.4" r="1.81" fill="#FFFFFF" opacity="0.079"/><circle cx="184.5" cy="607.9" r="0.77" fill="#FFFFFF" opacity="0.034"/><circle cx="398.4" cy="385.5" r="2.08" fill="#FFFFFF" opacity="0.061"/><circle cx="296.2" cy="212.8" r="0.86" fill="#FFFFFF" opacity="0.061"/><circle cx="120.2" cy="402.0" r="1.47" fill="#FFFFFF" opacity="0.061"/><circle cx="19.7" cy="789.0" r="1.78" fill="#FFFFFF" opacity="0.041"/><circle cx="383.1" cy="588.5" r="1.72" fill="#FFFFFF" opacity="0.044"/><circle cx="751.6" cy="669.1" r="0.62" fill="#FFFFFF" opacity="0.039"/><circle cx="514.8" cy="571.7" r="1.60" fill="#FFFFFF" opacity="0.053"/><circle cx="178.2" cy="1011.5" r="2.11" fill="#FFFFFF" opacity="0.077"/><circle cx="465.0" cy="123.3" r="0.76" fill="#FFFFFF" opacity="0.073"/><circle cx="557.8" cy="419.2" r="0.97" fill="#FFFFFF" opacity="0.055"/><circle cx="512.0" cy="377.8" r="1.86" fill="#FFFFFF" opacity="0.036"/><circle cx="287.5" cy="815.0" r="1.60" fill="#FFFFFF" opacity="0.070"/><circle cx="196.4" cy="486.1" r="2.04" fill="#FFFFFF" opacity="0.034"/><circle cx="612.0" cy="977.5" r="1.28" fill="#FFFFFF" opacity="0.056"/><circle cx="191.9" cy="867.8" r="1.92" fill="#FFFFFF" opacity="0.073"/><circle cx="94.6" cy="380.7" r="2.00" fill="#FFFFFF" opacity="0.072"/><circle cx="285.3" cy="796.6" r="1.12" fill="#FFFFFF" opacity="0.077"/><circle cx="605.1" cy="816.4" r="0.84" fill="#FFFFFF" opacity="0.031"/><circle cx="594.2" cy="346.6" r="0.61" fill="#FFFFFF" opacity="0.045"/><circle cx="749.7" cy="406.3" r="0.66" fill="#FFFFFF" opacity="0.069"/><circle cx="415.2" cy="394.0" r="1.29" fill="#FFFFFF" opacity="0.048"/><circle cx="87.5" cy="956.8" r="0.72" fill="#FFFFFF" opacity="0.070"/><circle cx="240.8" cy="49.0" r="0.67" fill="#FFFFFF" opacity="0.044"/><circle cx="656.0" cy="687.6" r="1.49" fill="#FFFFFF" opacity="0.031"/><circle cx="137.4" cy="964.4" r="1.26" fill="#FFFFFF" opacity="0.050"/><circle cx="533.1" cy="563.9" r="0.85" fill="#FFFFFF" opacity="0.040"/><circle cx="737.2" cy="149.0" r="1.67" fill="#FFFFFF" opacity="0.058"/><circle cx="756.7" cy="410.4" r="1.62" fill="#FFFFFF" opacity="0.072"/><circle cx="737.5" cy="150.6" r="1.25" fill="#FFFFFF" opacity="0.070"/><circle cx="240.9" cy="377.5" r="1.67" fill="#FFFFFF" opacity="0.076"/><circle cx="626.6" cy="883.8" r="0.68" fill="#FFFFFF" opacity="0.070"/><circle cx="457.6" cy="562.9" r="0.95" fill="#FFFFFF" opacity="0.078"/><circle cx="16.0" cy="409.6" r="1.75" fill="#FFFFFF" opacity="0.080"/><circle cx="290.2" cy="905.8" r="2.11" fill="#FFFFFF" opacity="0.061"/><circle cx="193.6" cy="40.8" r="1.06" fill="#FFFFFF" opacity="0.061"/><circle cx="518.1" cy="718.5" r="2.00" fill="#FFFFFF" opacity="0.040"/><circle cx="46.0" cy="364.9" r="1.57" fill="#FFFFFF" opacity="0.034"/><circle cx="313.6" cy="683.6" r="0.93" fill="#FFFFFF" opacity="0.065"/><circle cx="608.0" cy="434.0" r="0.95" fill="#FFFFFF" opacity="0.037"/><circle cx="262.8" cy="725.7" r="0.89" fill="#FFFFFF" opacity="0.034"/><circle cx="535.7" cy="611.9" r="1.38" fill="#FFFFFF" opacity="0.072"/><circle cx="128.1" cy="723.8" r="1.52" fill="#FFFFFF" opacity="0.061"/><circle cx="23.1" cy="35.5" r="1.46" fill="#FFFFFF" opacity="0.041"/><circle cx="179.1" cy="228.5" r="1.55" fill="#FFFFFF" opacity="0.049"/><circle cx="760.4" cy="877.0" r="0.97" fill="#FFFFFF" opacity="0.055"/><circle cx="647.3" cy="598.3" r="0.64" fill="#FFFFFF" opacity="0.045"/><circle cx="471.7" cy="223.4" r="1.15" fill="#FFFFFF" opacity="0.052"/><circle cx="377.1" cy="681.7" r="0.77" fill="#FFFFFF" opacity="0.071"/><circle cx="83.0" cy="511.3" r="2.08" fill="#FFFFFF" opacity="0.073"/><circle cx="557.8" cy="79.6" r="1.31" fill="#FFFFFF" opacity="0.080"/><circle cx="491.7" cy="106.8" r="1.13" fill="#FFFFFF" opacity="0.062"/><circle cx="200.6" cy="767.9" r="2.09" fill="#FFFFFF" opacity="0.030"/><circle cx="653.4" cy="478.5" r="1.57" fill="#FFFFFF" opacity="0.076"/><circle cx="376.6" cy="139.2" r="2.02" fill="#FFFFFF" opacity="0.053"/><circle cx="633.1" cy="36.1" r="2.17" fill="#FFFFFF" opacity="0.057"/><circle cx="253.3" cy="421.0" r="1.71" fill="#FFFFFF" opacity="0.056"/><circle cx="671.5" cy="94.2" r="1.75" fill="#FFFFFF" opacity="0.054"/><circle cx="4.2" cy="485.1" r="0.73" fill="#FFFFFF" opacity="0.049"/><circle cx="555.7" cy="539.1" r="1.17" fill="#FFFFFF" opacity="0.038"/><circle cx="397.9" cy="1000.4" r="1.98" fill="#FFFFFF" opacity="0.052"/><circle cx="672.6" cy="443.3" r="1.56" fill="#FFFFFF" opacity="0.073"/><circle cx="678.8" cy="929.0" r="1.99" fill="#FFFFFF" opacity="0.077"/><circle cx="417.4" cy="606.5" r="0.71" fill="#FFFFFF" opacity="0.060"/><circle cx="706.4" cy="876.8" r="1.95" fill="#FFFFFF" opacity="0.033"/><circle cx="640.9" cy="447.9" r="0.69" fill="#FFFFFF" opacity="0.032"/><circle cx="162.2" cy="766.4" r="1.55" fill="#FFFFFF" opacity="0.054"/><circle cx="325.5" cy="644.4" r="1.12" fill="#FFFFFF" opacity="0.052"/><circle cx="641.5" cy="116.9" r="1.59" fill="#FFFFFF" opacity="0.068"/><circle cx="51.1" cy="1008.4" r="1.68" fill="#FFFFFF" opacity="0.080"/><circle cx="566.9" cy="552.4" r="0.61" fill="#FFFFFF" opacity="0.040"/><circle cx="77.8" cy="207.9" r="1.25" fill="#FFFFFF" opacity="0.038"/><circle cx="661.1" cy="908.2" r="2.01" fill="#FFFFFF" opacity="0.077"/><circle cx="611.7" cy="643.6" r="0.90" fill="#FFFFFF" opacity="0.057"/><circle cx="513.8" cy="167.7" r="1.97" fill="#FFFFFF" opacity="0.039"/><circle cx="3.4" cy="363.3" r="2.17" fill="#FFFFFF" opacity="0.059"/><circle cx="16.7" cy="653.8" r="2.12" fill="#FFFFFF" opacity="0.035"/><circle cx="159.4" cy="103.6" r="1.83" fill="#FFFFFF" opacity="0.059"/><circle cx="564.6" cy="777.4" r="2.11" fill="#FFFFFF" opacity="0.036"/><circle cx="290.7" cy="433.3" r="1.37" fill="#FFFFFF" opacity="0.072"/><circle cx="1.6" cy="402.5" r="1.34" fill="#FFFFFF" opacity="0.063"/><circle cx="27.9" cy="599.2" r="1.49" fill="#FFFFFF" opacity="0.068"/><circle cx="119.5" cy="62.7" r="1.42" fill="#FFFFFF" opacity="0.044"/><circle cx="750.0" cy="679.7" r="0.77" fill="#FFFFFF" opacity="0.062"/><circle cx="76.0" cy="951.9" r="0.99" fill="#FFFFFF" opacity="0.053"/><circle cx="611.4" cy="216.6" r="1.21" fill="#FFFFFF" opacity="0.048"/><circle cx="687.5" cy="10.2" r="1.38" fill="#FFFFFF" opacity="0.075"/><circle cx="5.8" cy="784.0" r="2.01" fill="#FFFFFF" opacity="0.063"/><circle cx="762.4" cy="151.7" r="1.05" fill="#FFFFFF" opacity="0.068"/><circle cx="298.3" cy="695.4" r="1.32" fill="#FFFFFF" opacity="0.043"/><circle cx="102.8" cy="961.8" r="0.93" fill="#FFFFFF" opacity="0.069"/><circle cx="176.2" cy="1009.2" r="0.98" fill="#FFFFFF" opacity="0.037"/><circle cx="134.3" cy="798.7" r="0.62" fill="#FFFFFF" opacity="0.038"/><circle cx="50.6" cy="532.4" r="1.52" fill="#FFFFFF" opacity="0.059"/><circle cx="233.8" cy="410.6" r="1.18" fill="#FFFFFF" opacity="0.032"/><circle cx="618.7" cy="176.8" r="1.25" fill="#FFFFFF" opacity="0.030"/><circle cx="292.0" cy="709.2" r="1.70" fill="#FFFFFF" opacity="0.031"/><circle cx="430.5" cy="900.6" r="1.29" fill="#FFFFFF" opacity="0.047"/><circle cx="378.5" cy="973.9" r="1.65" fill="#FFFFFF" opacity="0.054"/><circle cx="537.4" cy="299.7" r="1.47" fill="#FFFFFF" opacity="0.066"/><circle cx="303.5" cy="535.1" r="1.48" fill="#FFFFFF" opacity="0.047"/><circle cx="355.0" cy="418.6" r="1.41" fill="#FFFFFF" opacity="0.035"/><circle cx="375.0" cy="825.6" r="1.00" fill="#FFFFFF" opacity="0.079"/><circle cx="238.7" cy="446.1" r="1.42" fill="#FFFFFF" opacity="0.043"/><circle cx="67.8" cy="735.1" r="1.87" fill="#FFFFFF" opacity="0.034"/><circle cx="711.8" cy="572.3" r="1.44" fill="#FFFFFF" opacity="0.033"/><circle cx="153.9" cy="721.1" r="0.77" fill="#FFFFFF" opacity="0.047"/><circle cx="455.0" cy="15.9" r="0.77" fill="#FFFFFF" opacity="0.057"/><circle cx="174.1" cy="971.9" r="2.15" fill="#FFFFFF" opacity="0.041"/><circle cx="604.2" cy="374.5" r="1.25" fill="#FFFFFF" opacity="0.030"/><circle cx="594.2" cy="318.4" r="1.60" fill="#FFFFFF" opacity="0.052"/><circle cx="415.9" cy="49.1" r="1.87" fill="#FFFFFF" opacity="0.067"/><circle cx="594.7" cy="979.4" r="2.14" fill="#FFFFFF" opacity="0.044"/><circle cx="376.0" cy="731.7" r="1.50" fill="#FFFFFF" opacity="0.059"/><circle cx="479.2" cy="362.0" r="1.81" fill="#FFFFFF" opacity="0.056"/><circle cx="568.1" cy="982.6" r="0.68" fill="#FFFFFF" opacity="0.050"/><circle cx="581.4" cy="325.5" r="1.29" fill="#FFFFFF" opacity="0.042"/><circle cx="55.5" cy="528.1" r="1.34" fill="#FFFFFF" opacity="0.041"/><circle cx="461.9" cy="403.1" r="1.40" fill="#FFFFFF" opacity="0.041"/><circle cx="314.2" cy="463.3" r="1.64" fill="#FFFFFF" opacity="0.058"/><circle cx="708.6" cy="801.2" r="1.69" fill="#FFFFFF" opacity="0.079"/><circle cx="204.8" cy="667.7" r="0.88" fill="#FFFFFF" opacity="0.047"/><circle cx="516.9" cy="638.8" r="1.98" fill="#FFFFFF" opacity="0.075"/><circle cx="412.1" cy="514.3" r="1.23" fill="#FFFFFF" opacity="0.073"/><circle cx="467.6" cy="563.6" r="1.60" fill="#FFFFFF" opacity="0.040"/><circle cx="712.3" cy="531.6" r="1.01" fill="#FFFFFF" opacity="0.076"/><circle cx="524.0" cy="100.9" r="1.39" fill="#FFFFFF" opacity="0.057"/><circle cx="475.9" cy="877.6" r="0.93" fill="#FFFFFF" opacity="0.061"/><circle cx="480.3" cy="84.8" r="0.84" fill="#FFFFFF" opacity="0.040"/><circle cx="750.5" cy="564.7" r="1.87" fill="#FFFFFF" opacity="0.054"/><circle cx="167.5" cy="108.0" r="1.48" fill="#FFFFFF" opacity="0.037"/><circle cx="736.6" cy="13.6" r="1.92" fill="#FFFFFF" opacity="0.064"/><circle cx="548.8" cy="54.0" r="2.17" fill="#FFFFFF" opacity="0.043"/><circle cx="200.1" cy="766.9" r="1.36" fill="#FFFFFF" opacity="0.056"/><circle cx="222.3" cy="4.9" r="1.14" fill="#FFFFFF" opacity="0.035"/><circle cx="373.8" cy="165.9" r="1.86" fill="#FFFFFF" opacity="0.048"/><circle cx="569.2" cy="340.3" r="0.88" fill="#FFFFFF" opacity="0.032"/><circle cx="530.7" cy="49.1" r="0.76" fill="#FFFFFF" opacity="0.055"/><circle cx="575.0" cy="469.8" r="2.14" fill="#FFFFFF" opacity="0.061"/><circle cx="671.0" cy="982.7" r="1.81" fill="#FFFFFF" opacity="0.054"/><circle cx="683.7" cy="450.3" r="0.72" fill="#FFFFFF" opacity="0.054"/><circle cx="692.3" cy="47.3" r="1.08" fill="#FFFFFF" opacity="0.071"/><circle cx="595.7" cy="250.2" r="1.20" fill="#FFFFFF" opacity="0.049"/><circle cx="114.2" cy="694.9" r="1.09" fill="#FFFFFF" opacity="0.073"/><circle cx="276.2" cy="375.8" r="2.20" fill="#FFFFFF" opacity="0.035"/><circle cx="9.1" cy="212.5" r="2.11" fill="#FFFFFF" opacity="0.073"/><circle cx="242.9" cy="909.1" r="1.30" fill="#FFFFFF" opacity="0.038"/><circle cx="437.4" cy="116.0" r="2.09" fill="#FFFFFF" opacity="0.070"/><circle cx="340.3" cy="611.5" r="1.01" fill="#FFFFFF" opacity="0.037"/><circle cx="615.9" cy="567.3" r="1.40" fill="#FFFFFF" opacity="0.034"/><circle cx="76.4" cy="446.1" r="2.07" fill="#FFFFFF" opacity="0.076"/><circle cx="742.5" cy="1005.5" r="0.65" fill="#FFFFFF" opacity="0.046"/><circle cx="313.4" cy="949.6" r="1.86" fill="#FFFFFF" opacity="0.069"/><circle cx="257.7" cy="461.5" r="1.89" fill="#FFFFFF" opacity="0.061"/><circle cx="570.5" cy="977.5" r="0.70" fill="#FFFFFF" opacity="0.050"/><circle cx="603.9" cy="982.9" r="1.71" fill="#FFFFFF" opacity="0.059"/><circle cx="366.5" cy="356.3" r="1.11" fill="#FFFFFF" opacity="0.037"/><circle cx="283.5" cy="622.3" r="1.70" fill="#FFFFFF" opacity="0.051"/><circle cx="194.4" cy="449.6" r="1.94" fill="#FFFFFF" opacity="0.050"/><circle cx="122.5" cy="895.1" r="1.08" fill="#FFFFFF" opacity="0.069"/><circle cx="756.1" cy="869.8" r="1.67" fill="#FFFFFF" opacity="0.066"/><circle cx="306.0" cy="58.3" r="1.30" fill="#FFFFFF" opacity="0.048"/><circle cx="429.3" cy="591.9" r="0.78" fill="#FFFFFF" opacity="0.075"/><circle cx="200.8" cy="945.4" r="2.07" fill="#FFFFFF" opacity="0.063"/><circle cx="165.0" cy="453.3" r="1.91" fill="#FFFFFF" opacity="0.063"/></g>
<rect x="30" y="30" width="708" height="964" rx="26" fill="none" stroke="#E8C46A" stroke-width="2" opacity="0.85"/><rect x="42" y="42" width="684" height="940" rx="20" fill="none" stroke="#E8C46A" stroke-width="0.8" opacity="0.35"/>
</svg>