<svg xmlns="http://www.w3.org/2000/svg" width="768" height="1024" viewBox="0 0 768 1024" role="img" aria-label="Original Tome vector cover for The Odyssey: a dotted gold voyage path curving between small islands under stars on an indigo sea.">
<defs><radialGradient id="odyssey-vig" cx="0.5" cy="0.42" r="0.95"><stop offset="0.55" stop-color="#0A1426" stop-opacity="0"/><stop offset="1" stop-color="#0A1426" stop-opacity="0.38"/></radialGradient></defs>
<rect width="768" height="1024" fill="#14243F"/><path d="M 130 150 L 132.8 157.2 L 140 160 L 132.8 162.8 L 130 170 L 127.2 162.8 L 120 160 L 127.2 157.2 Z" fill="#EAF0F6" opacity="0.85"/><path d="M 250 233 L 251.96 238.04 L 257 240 L 251.96 241.96 L 250 247 L 248.04 241.96 L 243 240 L 248.04 238.04 Z" fill="#EAF0F6" opacity="0.85"/><path d="M 420 128 L 423.36 136.64 L 432 140 L 423.36 143.36 L 420 152 L 416.64 143.36 L 408 140 L 416.64 136.64 Z" fill="#EAF0F6" opacity="0.85"/><path d="M 560 192 L 562.24 197.76 L 568 200 L 562.24 202.24 L 560 208 L 557.76 202.24 L 552 200 L 557.76 197.76 Z" fill="#EAF0F6" opacity="0.85"/><path d="M 660 114 L 661.68 118.32 L 666 120 L 661.68 121.68 L 660 126 L 658.32 121.68 L 654 120 L 658.32 118.32 Z" fill="#EAF0F6" opacity="0.85"/><path d="M 340 314 L 341.68 318.32 L 346 320 L 341.68 321.68 L 340 326 L 338.32 321.68 L 334 320 L 338.32 318.32 Z" fill="#EAF0F6" opacity="0.85"/><ellipse cx="150" cy="700" rx="74" ry="40" fill="#2E4E86"/><ellipse cx="135.2" cy="684" rx="29.6" ry="14" fill="#0A1426" opacity="0.25"/><ellipse cx="330" cy="480" rx="56" ry="32" fill="#3FA08C"/><ellipse cx="318.8" cy="467.2" rx="22.400000000000002" ry="11.2" fill="#0A1426" opacity="0.25"/><ellipse cx="540" cy="620" rx="66" ry="36" fill="#2E4E86"/><ellipse cx="526.8" cy="605.6" rx="26.400000000000002" ry="12.6" fill="#0A1426" opacity="0.25"/><ellipse cx="600" cy="330" rx="48" ry="28" fill="#3FA08C"/><ellipse cx="590.4" cy="318.8" rx="19.200000000000003" ry="9.799999999999999" fill="#0A1426" opacity="0.25"/><path d="M 120 800 Q 200 620 330 480 T 600 330" fill="none" stroke="#E6BC58" stroke-width="5" stroke-dasharray="2 16" stroke-linecap="round"/><circle cx="120" cy="800" r="10" fill="#E6BC58"/><path d="M 600 314 L 604.48 325.52 L 616 330 L 604.48 334.48 L 600 346 L 595.52 334.48 L 584 330 L 595.52 325.52 Z" fill="#E6BC58" opacity="1"/><path d="M 70 840 Q 240 818 400 840 T 700 840" fill="none" stroke="#2E4E86" stroke-width="4" stroke-linecap="round" opacity="0.5"/><path d="M 70 900 Q 240 878 400 900 T 700 900" fill="none" stroke="#2E4E86" stroke-width="4" stroke-linecap="round" opacity="0.5"/><path d="M 70 950 Q 240 928 400 950 T 700 950" fill="none" stroke="#2E4E86" stroke-width="4" stroke-linecap="round" opacity="0.5"/><rect width="768" height="1024" fill="url(#odyssey-vig)"/>
<g><circle cx="456.8" cy="721.2" r="0.62" fill="#FFFFFF" opacity="0.062"/><circle cx="83.9" cy="919.9" r="1.14" fill="#FFFFFF" opacity="0.050"/><circle cx="714.8" cy="136.8" r="0.82" fill="#FFFFFF" opacity="0.043"/><circle cx="151.7" cy="915.8" r="1.25" fill="#FFFFFF" opacity="0.045"/><circle cx="704.0" cy="450.3" r="1.95" fill="#FFFFFF" opacity="0.053"/><circle cx="691.3" cy="180.4" r="1.73" fill="#FFFFFF" opacity="0.032"/><circle cx="566.8" cy="188.7" r="1.76" fill="#FFFFFF" opacity="0.053"/><circle cx="436.7" cy="745.1" r="1.10" fill="#FFFFFF" opacity="0.051"/><circle cx="374.3" cy="719.9" r="2.16" fill="#FFFFFF" opacity="0.064"/><circle cx="317.5" cy="263.8" r="1.68" fill="#FFFFFF" opacity="0.064"/><circle cx="624.7" cy="337.9" r="1.51" fill="#FFFFFF" opacity="0.039"/><circle cx="208.3" cy="559.9" r="1.05" fill="#FFFFFF" opacity="0.078"/><circle cx="185.8" cy="944.9" r="2.00" fill="#FFFFFF" opacity="0.047"/><circle cx="325.7" cy="232.1" r="1.18" fill="#FFFFFF" opacity="0.031"/><circle cx="753.0" cy="860.5" r="2.09" fill="#FFFFFF" opacity="0.052"/><circle cx="177.7" cy="594.8" r="1.69" fill="#FFFFFF" opacity="0.052"/><circle cx="585.5" cy="993.6" r="1.19" fill="#FFFFFF" opacity="0.055"/><circle cx="504.0" cy="945.9" r="2.17" fill="#FFFFFF" opacity="0.065"/><circle cx="484.9" cy="922.3" r="1.60" fill="#FFFFFF" opacity="0.078"/><circle cx="243.4" cy="467.2" r="0.97" fill="#FFFFFF" opacity="0.063"/><circle cx="380.0" cy="687.3" r="1.57" fill="#FFFFFF" opacity="0.049"/><circle cx="232.8" cy="300.6" r="0.75" fill="#FFFFFF" opacity="0.051"/><circle cx="351.0" cy="908.1" r="1.23" fill="#FFFFFF" opacity="0.063"/><circle cx="564.1" cy="30.7" r="2.14" fill="#FFFFFF" opacity="0.057"/><circle cx="198.2" cy="539.3" r="0.76" fill="#FFFFFF" opacity="0.049"/><circle cx="576.0" cy="733.9" r="1.73" fill="#FFFFFF" opacity="0.070"/><circle cx="704.7" cy="732.4" r="1.15" fill="#FFFFFF" opacity="0.063"/><circle cx="638.5" cy="269.2" r="1.78" fill="#FFFFFF" opacity="0.059"/><circle cx="338.3" cy="922.0" r="0.72" fill="#FFFFFF" opacity="0.039"/><circle cx="629.5" cy="468.4" r="1.67" fill="#FFFFFF" opacity="0.076"/><circle cx="83.9" cy="705.7" r="1.61" fill="#FFFFFF" opacity="0.037"/><circle cx="665.9" cy="985.9" r="1.98" fill="#FFFFFF" opacity="0.055"/><circle cx="589.3" cy="483.0" r="2.16" fill="#FFFFFF" opacity="0.058"/><circle cx="270.4" cy="12.4" r="1.51" fill="#FFFFFF" opacity="0.034"/><circle cx="15.1" cy="52.1" r="0.87" fill="#FFFFFF" opacity="0.065"/><circle cx="382.8" cy="316.4" r="1.34" fill="#FFFFFF" opacity="0.046"/><circle cx="159.8" cy="915.5" r="0.81" fill="#FFFFFF" opacity="0.080"/><circle cx="621.7" cy="495.1" r="1.64" fill="#FFFFFF" opacity="0.070"/><circle cx="18.6" cy="174.9" r="0.73" fill="#FFFFFF" opacity="0.038"/><circle cx="262.4" cy="104.0" r="0.90" fill="#FFFFFF" opacity="0.034"/><circle cx="688.7" cy="110.0" r="1.61" fill="#FFFFFF" opacity="0.037"/><circle cx="727.5" cy="217.2" r="1.19" fill="#FFFFFF" opacity="0.038"/><circle cx="70.4" cy="106.5" r="1.92" fill="#FFFFFF" opacity="0.031"/><circle cx="267.5" cy="924.5" r="1.58" fill="#FFFFFF" opacity="0.050"/><circle cx="190.3" cy="357.2" r="1.45" fill="#FFFFFF" opacity="0.044"/><circle cx="709.1" cy="580.9" r="1.25" fill="#FFFFFF" opacity="0.063"/><circle cx="236.5" cy="927.0" r="1.97" fill="#FFFFFF" opacity="0.046"/><circle cx="473.9" cy="606.4" r="1.36" fill="#FFFFFF" opacity="0.079"/><circle cx="318.3" cy="951.7" r="0.73" fill="#FFFFFF" opacity="0.071"/><circle cx="302.2" cy="9.9" r="1.88" fill="#FFFFFF" opacity="0.072"/><circle cx="216.6" cy="263.8" r="1.25" fill="#FFFFFF" opacity="0.067"/><circle cx="136.8" cy="562.0" r="1.08" fill="#FFFFFF" opacity="0.065"/><circle cx="587.2" cy="879.4" r="1.19" fill="#FFFFFF" opacity="0.068"/><circle cx="262.2" cy="64.6" r="0.94" fill="#FFFFFF" opacity="0.070"/><circle cx="432.8" cy="56.1" r="1.47" fill="#FFFFFF" opacity="0.062"/><circle cx="707.4" cy="894.1" r="1.23" fill="#FFFFFF" opacity="0.074"/><circle cx="726.2" cy="710.0" r="0.84" fill="#FFFFFF" opacity="0.053"/><circle cx="19.2" cy="787.7" r="1.59" fill="#FFFFFF" opacity="0.074"/><circle cx="678.8" cy="896.2" r="1.40" fill="#FFFFFF" opacity="0.050"/><circle cx="610.0" cy="631.3" r="2.16" fill="#FFFFFF" opacity="0.065"/><circle cx="556.4" cy="874.3" r="1.00" fill="#FFFFFF" opacity="0.036"/><circle cx="137.7" cy="188.6" r="2.13" fill="#FFFFFF" opacity="0.042"/><circle cx="56.9" cy="708.7" r="2.12" fill="#FFFFFF" opacity="0.030"/><circle cx="523.3" cy="821.7" r="2.05" fill="#FFFFFF" opacity="0.076"/><circle cx="578.8" cy="383.5" r="1.18" fill="#FFFFFF" opacity="0.033"/><circle cx="103.9" cy="243.7" r="1.44" fill="#FFFFFF" opacity="0.047"/><circle cx="430.4" cy="400.0" r="1.75" fill="#FFFFFF" opacity="0.047"/><circle cx="349.4" cy="973.6" r="1.50" fill="#FFFFFF" opacity="0.079"/><circle cx="131.8" cy="178.0" r="1.98" fill="#FFFFFF" opacity="0.053"/><circle cx="764.4" cy="642.2" r="0.65" fill="#FFFFFF" opacity="0.062"/><circle cx="291.5" cy="165.8" r="1.85" fill="#FFFFFF" opacity="0.065"/><circle cx="505.1" cy="244.7" r="0.87" fill="#FFFFFF" opacity="0.054"/><circle cx="675.5" cy="613.2" r="0.96" fill="#FFFFFF" opacity="0.043"/><circle cx="553.0" cy="560.3" r="1.43" fill="#FFFFFF" opacity="0.034"/><circle cx="354.5" cy="533.9" r="1.81" fill="#FFFFFF" opacity="0.062"/><circle cx="126.1" cy="529.5" r="1.80" fill="#FFFFFF" opacity="0.057"/><circle cx="716.6" cy="242.1" r="1.96" fill="#FFFFFF" opacity="0.064"/><circle cx="693.1" cy="14.2" r="0.86" fill="#FFFFFF" opacity="0.036"/><circle cx="144.2" cy="235.3" r="2.06" fill="#FFFFFF" opacity="0.037"/><circle cx="364.3" cy="366.6" r="0.83" fill="#FFFFFF" opacity="0.048"/><circle cx="737.0" cy="584.9" r="0.91" fill="#FFFFFF" opacity="0.032"/><circle cx="153.2" cy="299.2" r="1.01" fill="#FFFFFF" opacity="0.043"/><circle cx="446.6" cy="916.2" r="0.62" fill="#FFFFFF" opacity="0.070"/><circle cx="628.9" cy="520.5" r="0.69" fill="#FFFFFF" opacity="0.070"/><circle cx="43.1" cy="370.9" r="0.68" fill="#FFFFFF" opacity="0.044"/><circle cx="581.2" cy="253.4" r="1.00" fill="#FFFFFF" opacity="0.040"/><circle cx="366.1" cy="832.4" r="1.59" fill="#FFFFFF" opacity="0.049"/><circle cx="15.3" cy="244.3" r="1.36" fill="#FFFFFF" opacity="0.076"/><circle cx="633.4" cy="456.0" r="0.85" fill="#FFFFFF" opacity="0.053"/><circle cx="176.3" cy="888.9" r="1.59" fill="#FFFFFF" opacity="0.032"/><circle cx="559.3" cy="842.7" r="2.07" fill="#FFFFFF" opacity="0.067"/><circle cx="364.7" cy="181.2" r="1.49" fill="#FFFFFF" opacity="0.050"/><circle cx="255.5" cy="466.7" r="1.51" fill="#FFFFFF" opacity="0.035"/><circle cx="143.9" cy="883.6" r="0.92" fill="#FFFFFF" opacity="0.039"/><circle cx="297.7" cy="224.8" r="1.59" fill="#FFFFFF" opacity="0.054"/><circle cx="156.2" cy="283.0" r="1.26" fill="#FFFFFF" opacity="0.045"/><circle cx="208.1" cy="1018.8" r="1.20" fill="#FFFFFF" opacity="0.043"/><circle cx="352.3" cy="18.9" r="1.38" fill="#FFFFFF" opacity="0.042"/><circle cx="614.2" cy="516.6" r="1.86" fill="#FFFFFF" opacity="0.069"/><circle cx="395.3" cy="157.1" r="0.74" fill="#FFFFFF" opacity="0.032"/><circle cx="230.3" cy="461.9" r="1.74" fill="#FFFFFF" opacity="0.077"/><circle cx="83.6" cy="531.4" r="2.10" fill="#FFFFFF" opacity="0.035"/><circle cx="590.6" cy="402.3" r="1.60" fill="#FFFFFF" opacity="0.031"/><circle cx="517.3" cy="319.5" r="0.98" fill="#FFFFFF" opacity="0.077"/><circle cx="743.1" cy="296.8" r="1.08" fill="#FFFFFF" opacity="0.042"/><circle cx="690.5" cy="801.0" r="2.03" fill="#FFFFFF" opacity="0.034"/><circle cx="100.7" cy="454.9" r="0.83" fill="#FFFFFF" opacity="0.062"/><circle cx="612.2" cy="261.8" r="1.51" fill="#FFFFFF" opacity="0.064"/><circle cx="526.5" cy="690.8" r="1.72" fill="#FFFFFF" opacity="0.072"/><circle cx="345.6" cy="639.9" r="0.88" fill="#FFFFFF" opacity="0.073"/><circle cx="425.0" cy="68.5" r="1.40" fill="#FFFFFF" opacity="0.058"/><circle cx="730.3" cy="99.0" r="0.89" fill="#FFFFFF" opacity="0.034"/><circle cx="510.1" cy="381.3" r="1.04" fill="#FFFFFF" opacity="0.060"/><circle cx="157.6" cy="947.2" r="1.94" fill="#FFFFFF" opacity="0.057"/><circle cx="21.5" cy="897.4" r="0.78" fill="#FFFFFF" opacity="0.075"/><circle cx="69.5" cy="17.0" r="2.01" fill="#FFFFFF" opacity="0.052"/><circle cx="597.0" cy="72.4" r="2.02" fill="#FFFFFF" opacity="0.044"/><circle cx="386.3" cy="104.3" r="2.03" fill="#FFFFFF" opacity="0.033"/><circle cx="412.7" cy="961.7" r="1.94" fill="#FFFFFF" opacity="0.048"/><circle cx="164.7" cy="440.0" r="0.64" fill="#FFFFFF" opacity="0.059"/><circle cx="221.2" cy="787.9" r="1.12" fill="#FFFFFF" opacity="0.037"/><circle cx="608.1" cy="670.5" r="0.65" fill="#FFFFFF" opacity="0.064"/><circle cx="352.5" cy="192.3" r="1.68" fill="#FFFFFF" opacity="0.074"/><circle cx="555.1" cy="28.9" r="2.14" fill="#FFFFFF" opacity="0.076"/><circle cx="294.9" cy="84.5" r="1.22" fill="#FFFFFF" opacity="0.046"/><circle cx="520.5" cy="726.5" r="2.04" fill="#FFFFFF" opacity="0.064"/><circle cx="218.6" cy="548.1" r="1.90" fill="#FFFFFF" opacity="0.032"/><circle cx="556.0" cy="506.0" r="1.63" fill="#FFFFFF" opacity="0.053"/><circle cx="114.7" cy="110.2" r="0.79" fill="#FFFFFF" opacity="0.057"/><circle cx="295.8" cy="157.9" r="2.02" fill="#FFFFFF" opacity="0.045"/><circle cx="601.5" cy="346.0" r="1.85" fill="#FFFFFF" opacity="0.061"/><circle cx="621.1" cy="492.7" r="0.98" fill="#FFFFFF" opacity="0.033"/><circle cx="707.7" cy="738.4" r="0.80" fill="#FFFFFF" opacity="0.072"/><circle cx="522.1" cy="253.5" r="1.33" fill="#FFFFFF" opacity="0.049"/><circle cx="634.6" cy="569.1" r="2.08" fill="#FFFFFF" opacity="0.033"/><circle cx="545.2" cy="307.2" r="0.81" fill="#FFFFFF" opacity="0.043"/><circle cx="239.2" cy="961.6" r="0.92" fill="#FFFFFF" opacity="0.073"/><circle cx="64.4" cy="571.3" r="1.10" fill="#FFFFFF" opacity="0.069"/><circle cx="655.0" cy="298.3" r="2.10" fill="#FFFFFF" opacity="0.035"/><circle cx="133.7" cy="353.9" r="1.74" fill="#FFFFFF" opacity="0.057"/><circle cx="657.9" cy="473.1" r="1.51" fill="#FFFFFF" opacity="0.033"/><circle cx="5.9" cy="818.9" r="0.95" fill="#FFFFFF" opacity="0.053"/><circle cx="325.8" cy="637.9" r="2.10" fill="#FFFFFF" opacity="0.039"/><circle cx="641.1" cy="335.1" r="1.26" fill="#FFFFFF" opacity="0.068"/><circle cx="751.7" cy="341.6" r="1.29" fill="#FFFFFF" opacity="0.076"/><circle cx="423.9" cy="294.0" r="1.06" fill="#FFFFFF" opacity="0.069"/><circle cx="35.8" cy="539.1" r="1.39" fill="#FFFFFF" opacity="0.044"/><circle cx="614.7" cy="783.8" r="1.28" fill="#FFFFFF" opacity="0.055"/><circle cx="572.2" cy="115.6" r="1.94" fill="#FFFFFF" opacity="0.052"/><circle cx="401.3" cy="60.8" r="2.18" fill="#FFFFFF" opacity="0.077"/><circle cx="115.2" cy="1022.1" r="2.07" fill="#FFFFFF" opacity="0.036"/><circle cx="487.5" cy="623.8" r="1.40" fill="#FFFFFF" opacity="0.031"/><circle cx="110.7" cy="351.1" r="1.70" fill="#FFFFFF" opacity="0.055"/><circle cx="361.0" cy="736.0" r="1.06" fill="#FFFFFF" opacity="0.064"/><circle cx="424.2" cy="471.3" r="1.85" fill="#FFFFFF" opacity="0.039"/><circle cx="479.8" cy="395.9" r="1.30" fill="#FFFFFF" opacity="0.054"/><circle cx="410.8" cy="878.4" r="2.16" fill="#FFFFFF" opacity="0.056"/><circle cx="203.9" cy="520.6" r="1.33" fill="#FFFFFF" opacity="0.037"/><circle cx="571.0" cy="755.9" r="1.34" fill="#FFFFFF" opacity="0.045"/><circle cx="650.5" cy="498.5" r="1.86" fill="#FFFFFF" opacity="0.036"/><circle cx="180.4" cy="283.0" r="1.74" fill="#FFFFFF" opacity="0.078"/><circle cx="719.7" cy="422.1" r="1.49" fill="#FFFFFF" opacity="0.031"/><circle cx="72.0" cy="715.3" r="2.08" fill="#FFFFFF" opacity="0.069"/><circle cx="398.1" cy="897.2" r="1.45" fill="#FFFFFF" opacity="0.047"/><circle cx="115.2" cy="91.8" r="0.80" fill="#FFFFFF" opacity="0.067"/><circle cx="54.2" cy="33.5" r="0.82" fill="#FFFFFF" opacity="0.066"/><circle cx="575.0" cy="240.2" r="1.67" fill="#FFFFFF" opacity="0.043"/><circle cx="177.6" cy="57.6" r="0.98" fill="#FFFFFF" opacity="0.047"/><circle cx="418.1" cy="207.4" r="1.24" fill="#FFFFFF" opacity="0.051"/><circle cx="680.0" cy="717.4" r="2.12" fill="#FFFFFF" opacity="0.035"/><circle cx="345.1" cy="297.0" r="1.57" fill="#FFFFFF" opacity="0.056"/><circle cx="488.2" cy="368.1" r="1.83" fill="#FFFFFF" opacity="0.045"/><circle cx="668.9" cy="856.8" r="0.96" fill="#FFFFFF" opacity="0.034"/><circle cx="62.2" cy="105.5" r="1.79" fill="#FFFFFF" opacity="0.064"/><circle cx="451.2" cy="576.9" r="1.45" fill="#FFFFFF" opacity="0.042"/><circle cx="378.7" cy="824.1" r="1.47" fill="#FFFFFF" opacity="0.048"/><circle cx="202.2" cy="523.8" r="1.84" fill="#FFFFFF" opacity="0.041"/><circle cx="647.1" cy="348.0" r="1.71" fill="#FFFFFF" opacity="0.075"/><circle cx="22.1" cy="647.2" r="0.92" fill="#FFFFFF" opacity="0.075"/><circle cx="708.2" cy="144.6" r="2.08" fill="#FFFFFF" opacity="0.079"/><circle cx="563.5" cy="851.8" r="1.05" fill="#FFFFFF" opacity="0.058"/><circle cx="11.6" cy="53.0" r="0.85" fill="#FFFFFF" opacity="0.046"/><circle cx="475.7" cy="853.0" r="1.77" fill="#FFFFFF" opacity="0.055"/><circle cx="614.1" cy="567.9" r="1.34" fill="#FFFFFF" opacity="0.065"/><circle cx="262.8" cy="457.7" r="0.65" fill="#FFFFFF" opacity="0.042"/><circle cx="636.6" cy="640.9" r="0.77" fill="#FFFFFF" opacity="0.041"/><circle cx="272.7" cy="838.1" r="1.03" fill="#FFFFFF" opacity="0.067"/><circle cx="456.0" cy="579.6" r="1.02" fill="#FFFFFF" opacity="0.061"/><circle cx="579.5" cy="490.0" r="0.63" fill="#FFFFFF" opacity="0.063"/><circle cx="487.3" cy="427.3" r="0.77" fill="#FFFFFF" opacity="0.077"/><circle cx="334.4" cy="208.1" r="0.63" fill="#FFFFFF" opacity="0.073"/><circle cx="621.9" cy="490.5" r="0.89" fill="#FFFFFF" opacity="0.058"/><circle cx="516.0" cy="953.9" r="0.62" fill="#FFFFFF" opacity="0.064"/><circle cx="673.2" cy="302.9" r="1.53" fill="#FFFFFF" opacity="0.035"/><circle cx="348.9" cy="874.2" r="1.65" fill="#FFFFFF" opacity="0.056"/><circle cx="92.3" cy="27.6" r="1.22" fill="#FFFFFF" opacity="0.066"/><circle cx="568.3" cy="374.7" r="1.40" fill="#FFFFFF" opacity="0.066"/><circle cx="347.4" cy="87.6" r="1.20" fill="#FFFFFF" opacity="0.051"/><circle cx="408.0" cy="825.5" r="1.57" fill="#FFFFFF" opacity="0.079"/><circle cx="131.2" cy="620.4" r="2.04" fill="#FFFFFF" opacity="0.037"/><circle cx="67.8" cy="683.7" r="2.10" fill="#FFFFFF" opacity="0.068"/><circle cx="407.9" cy="458.7" r="1.39" fill="#FFFFFF" opacity="0.033"/><circle cx="571.7" cy="366.9" r="2.03" fill="#FFFFFF" opacity="0.080"/><circle cx="570.5" cy="670.8" r="1.23" fill="#FFFFFF" opacity="0.062"/><circle cx="164.0" cy="788.2" r="1.50" fill="#FFFFFF" opacity="0.042"/><circle cx="247.0" cy="225.8" r="1.82" fill="#FFFFFF" opacity="0.060"/><circle cx="607.1" cy="1021.5" r="1.14" fill="#FFFFFF" opacity="0.062"/><circle cx="359.3" cy="498.6" r="1.35" fill="#FFFFFF" opacity="0.077"/><circle cx="410.0" cy="854.3" r="0.97" fill="#FFFFFF" opacity="0.034"/><circle cx="151.1" cy="660.3" r="1.03" fill="#FFFFFF" opacity="0.033"/><circle cx="255.5" cy="582.6" r="1.67" fill="#FFFFFF" opacity="0.074"/><circle cx="305.0" cy="185.2" r="1.89" fill="#FFFFFF" opacity="0.060"/><circle cx="397.8" cy="924.1" r="1.56" fill="#FFFFFF" opacity="0.068"/><circle cx="25.5" cy="274.3" r="1.41" fill="#FFFFFF" opacity="0.074"/><circle cx="67.2" cy="29.4" r="1.92" fill="#FFFFFF" opacity="0.039"/><circle cx="236.4" cy="23.8" r="0.70" fill="#FFFFFF" opacity="0.064"/><circle cx="373.5" cy="407.6" r="1.57" fill="#FFFFFF" opacity="0.069"/><circle cx="720.3" cy="494.8" r="1.22" fill="#FFFFFF" opacity="0.074"/><circle cx="404.8" cy="160.1" r="0.83" fill="#FFFFFF" opacity="0.064"/><circle cx="451.2" cy="432.0" r="0.69" fill="#FFFFFF" opacity="0.041"/><circle cx="435.2" cy="947.8" r="1.12" fill="#FFFFFF" opacity="0.058"/><circle cx="1.6" cy="1019.3" r="1.20" fill="#FFFFFF" opacity="0.041"/><circle cx="103.3" cy="315.8" r="1.73" fill="#FFFFFF" opacity="0.065"/><circle cx="499.7" cy="229.4" r="0.75" fill="#FFFFFF" opacity="0.066"/><circle cx="440.1" cy="373.8" r="1.97" fill="#FFFFFF" opacity="0.046"/><circle cx="288.0" cy="551.5" r="1.92" fill="#FFFFFF" opacity="0.066"/><circle cx="738.3" cy="828.2" r="1.59" fill="#FFFFFF" opacity="0.035"/><circle cx="401.9" cy="633.1" r="1.40" fill="#FFFFFF" opacity="0.052"/><circle cx="334.9" cy="617.3" r="1.39" fill="#FFFFFF" opacity="0.038"/><circle cx="24.7" cy="621.3" r="0.91" fill="#FFFFFF" opacity="0.045"/><circle cx="685.3" cy="826.3" r="1.27" fill="#FFFFFF" opacity="0.059"/><circle cx="751.4" cy="395.5" r="1.52" fill="#FFFFFF" opacity="0.057"/><circle cx="89.3" cy="172.1" r="1.15" fill="#FFFFFF" opacity="0.047"/><circle cx="489.8" cy="340.3" r="1.21" fill="#FFFFFF" opacity="0.050"/><circle cx="663.5" cy="491.7" r="1.25" fill="#FFFFFF" opacity="0.068"/><circle cx="81.5" cy="160.7" r="1.72" fill="#FFFFFF" opacity="0.065"/><circle cx="357.9" cy="412.6" r="1.86" fill="#FFFFFF" opacity="0.047"/><circle cx="502.8" cy="98.7" r="2.14" fill="#FFFFFF" opacity="0.075"/><circle cx="673.3" cy="551.5" r="1.11" fill="#FFFFFF" opacity="0.061"/><circle cx="289.1" cy="556.0" r="2.15" fill="#FFFFFF" opacity="0.038"/><circle cx="117.7" cy="831.1" r="1.61" fill="#FFFFFF" opacity="0.077"/><circle cx="81.6" cy="870.6" r="2.13" fill="#FFFFFF" opacity="0.052"/><circle cx="523.2" cy="687.9" r="2.05" fill="#FFFFFF" opacity="0.079"/><circle cx="511.7" cy="1012.7" r="2.06" fill="#FFFFFF" opacity="0.078"/><circle cx="105.2" cy="773.0" r="1.43" fill="#FFFFFF" opacity="0.038"/><circle cx="10.8" cy="379.8" r="2.12" fill="#FFFFFF" opacity="0.065"/><circle cx="263.8" cy="692.8" r="1.66" fill="#FFFFFF" opacity="0.077"/><circle cx="738.8" cy="912.2" r="1.07" fill="#FFFFFF" opacity="0.078"/><circle cx="353.5" cy="768.9" r="1.39" fill="#FFFFFF" opacity="0.062"/><circle cx="57.8" cy="302.5" r="2.01" fill="#FFFFFF" opacity="0.060"/><circle cx="41.6" cy="675.2" r="0.85" fill="#FFFFFF" opacity="0.045"/><circle cx="588.2" cy="604.5" r="0.78" fill="#FFFFFF" opacity="0.031"/><circle cx="169.1" cy="809.1" r="2.04" fill="#FFFFFF" opacity="0.057"/><circle cx="616.4" cy="937.6" r="1.82" fill="#FFFFFF" opacity="0.078"/><circle cx="238.8" cy="1015.9" r="1.02" fill="#FFFFFF" opacity="0.052"/><circle cx="185.2" cy="45.6" r="1.81" fill="#FFFFFF" opacity="0.035"/><circle cx="684.1" cy="958.1" r="2.09" fill="#FFFFFF" opacity="0.050"/><circle cx="159.3" cy="906.8" r="0.91" fill="#FFFFFF" opacity="0.059"/><circle cx="689.3" cy="935.0" r="1.23" fill="#FFFFFF" opacity="0.054"/><circle cx="380.4" cy="154.9" r="1.97" fill="#FFFFFF" opacity="0.043"/><circle cx="415.0" cy="98.5" r="2.16" fill="#FFFFFF" opacity="0.032"/><circle cx="474.8" cy="872.6" r="1.08" fill="#FFFFFF" opacity="0.032"/><circle cx="469.7" cy="442.0" r="0.65" fill="#FFFFFF" opacity="0.069"/><circle cx="242.2" cy="301.4" r="1.39" fill="#FFFFFF" opacity="0.048"/><circle cx="214.9" cy="313.3" r="0.81" fill="#FFFFFF" opacity="0.077"/><circle cx="220.4" cy="310.2" r="0.77" fill="#FFFFFF" opacity="0.044"/><circle cx="23.2" cy="421.1" r="2.00" fill="#FFFFFF" opacity="0.065"/><circle cx="644.9" cy="91.8" r="1.35" fill="#FFFFFF" opacity="0.067"/><circle cx="389.2" cy="830.2" r="1.91" fill="#FFFFFF" opacity="0.073"/><circle cx="620.7" cy="230.4" r="1.01" fill="#FFFFFF" opacity="0.070"/><circle cx="265.2" cy="733.3" r="1.65" fill="#FFFFFF" opacity="0.052"/><circle cx="23.3" cy="131.6" r="1.42" fill="#FFFFFF" opacity="0.076"/><circle cx="199.7" cy="0.8" r="1.12" fill="#FFFFFF" opacity="0.078"/><circle cx="39.7" cy="661.7" r="1.52" fill="#FFFFFF" opacity="0.074"/><circle cx="25.6" cy="11.5" r="1.98" fill="#FFFFFF" opacity="0.079"/><circle cx="681.4" cy="71.6" r="2.19" fill="#FFFFFF" opacity="0.032"/><circle cx="237.5" cy="59.8" r="1.09" fill="#FFFFFF" opacity="0.048"/><circle cx="614.9" cy="981.6" r="1.61" fill="#FFFFFF" opacity="0.076"/><circle cx="153.5" cy="240.3" r="1.32" fill="#FFFFFF" opacity="0.069"/><circle cx="399.1" cy="782.6" r="1.80" fill="#FFFFFF" opacity="0.067"/><circle cx="196.9" cy="518.6" r="1.55" fill="#FFFFFF" opacity="0.044"/><circle cx="617.4" cy="669.1" r="1.59" fill="#FFFFFF" opacity="0.080"/><circle cx="664.2" cy="446.7" r="1.78" fill="#FFFFFF" opacity="0.067"/><circle cx="236.3" cy="346.7" r="1.88" fill="#FFFFFF" opacity="0.049"/><circle cx="473.6" cy="165.9" r="0.96" fill="#FFFFFF" opacity="0.076"/><circle cx="694.6" cy="155.4" r="0.72" fill="#FFFFFF" opacity="0.053"/><circle cx="765.2" cy="130.7" r="0.80" fill="#FFFFFF" opacity="0.053"/><circle cx="394.6" cy="673.6" r="1.38" fill="#FFFFFF" opacity="0.074"/><circle cx="98.2" cy="924.3" r="0.76" fill="#FFFFFF" opacity="0.046"/><circle cx="203.2" cy="525.9" r="1.23" fill="#FFFFFF" opacity="0.056"/><circle cx="673.0" cy="607.6" r="1.25" fill="#FFFFFF" opacity="0.072"/><circle cx="491.1" cy="758.8" r="2.06" fill="#FFFFFF" opacity="0.047"/><circle cx="277.5" cy="258.5" r="1.86" fill="#FFFFFF" opacity="0.065"/><circle cx="88.8" cy="409.3" r="0.68" fill="#FFFFFF" opacity="0.079"/><circle cx="80.9" cy="217.2" r="1.62" fill="#FFFFFF" opacity="0.056"/><circle cx="668.9" cy="873.6" r="1.05" fill="#FFFFFF" opacity="0.051"/><circle cx="516.6" cy="483.7" r="1.67" fill="#FFFFFF" opacity="0.030"/><circle cx="105.6" cy="780.0" r="1.07" fill="#FFFFFF" opacity="0.035"/><circle cx="494.2" cy="421.8" r="1.07" fill="#FFFFFF" opacity="0.070"/><circle cx="634.4" cy="540.4" r="0.75" fill="#FFFFFF" opacity="0.036"/><circle cx="181.3" cy="568.5" r="1.88" fill="#FFFFFF" opacity="0.079"/><circle cx="23.0" cy="772.0" r="0.95" fill="#FFFFFF" opacity="0.051"/><circle cx="706.5" cy="472.0" r="1.55" fill="#FFFFFF" opacity="0.062"/><circle cx="346.5" cy="67.9" r="0.64" fill="#FFFFFF" opacity="0.035"/><circle cx="245.9" cy="570.8" r="1.49" fill="#FFFFFF" opacity="0.032"/><circle cx="618.2" cy="280.7" r="1.46" fill="#FFFFFF" opacity="0.049"/><circle cx="211.0" cy="275.6" r="1.38" fill="#FFFFFF" opacity="0.060"/><circle cx="624.9" cy="953.4" r="1.00" fill="#FFFFFF" opacity="0.038"/><circle cx="456.4" cy="599.5" r="0.75" fill="#FFFFFF" opacity="0.076"/><circle cx="464.1" cy="420.3" r="0.74" fill="#FFFFFF" opacity="0.031"/><circle cx="451.0" cy="838.7" r="1.38" fill="#FFFFFF" opacity="0.037"/><circle cx="33.2" cy="788.6" r="1.53" fill="#FFFFFF" opacity="0.063"/><circle cx="382.6" cy="238.8" r="0.66" fill="#FFFFFF" opacity="0.034"/><circle cx="234.8" cy="25.9" r="0.76" fill="#FFFFFF" opacity="0.072"/><circle cx="232.6" cy="995.1" r="1.40" fill="#FFFFFF" opacity="0.068"/><circle cx="716.5" cy="816.1" r="1.25" fill="#FFFFFF" opacity="0.052"/><circle cx="440.0" cy="598.2" r="0.86" fill="#FFFFFF" opacity="0.030"/><circle cx="737.8" cy="800.2" r="1.00" fill="#FFFFFF" opacity="0.041"/><circle cx="35.2" cy="3.4" r="0.79" fill="#FFFFFF" opacity="0.059"/><circle cx="163.1" cy="105.3" r="2.10" fill="#FFFFFF" opacity="0.040"/><circle cx="442.3" cy="390.8" r="0.80" fill="#FFFFFF" opacity="0.079"/><circle cx="22.1" cy="1018.3" r="1.09" fill="#FFFFFF" opacity="0.032"/><circle cx="558.9" cy="907.8" r="1.16" fill="#FFFFFF" opacity="0.038"/><circle cx="466.5" cy="484.5" r="0.68" fill="#FFFFFF" opacity="0.054"/><circle cx="586.6" cy="781.2" r="1.74" fill="#FFFFFF" opacity="0.031"/><circle cx="454.0" cy="371.1" r="1.07" fill="#FFFFFF" opacity="0.042"/><circle cx="333.0" cy="417.6" r="2.00" fill="#FFFFFF" opacity="0.074"/><circle cx="54.1" cy="261.6" r="2.09" fill="#FFFFFF" opacity="0.071"/><circle cx="502.4" cy="62.3" r="0.84" fill="#FFFFFF" opacity="0.078"/><circle cx="532.4" cy="985.1" r="1.10" fill="#FFFFFF" opacity="0.071"/><circle cx="469.7" cy="100.5" r="1.08" fill="#FFFFFF" opacity="0.052"/><circle cx="201.0" cy="477.2" r="0.86" fill="#FFFFFF" opacity="0.034"/><circle cx="21.6" cy="911.3" r="1.26" fill="#FFFFFF" opacity="0.046"/><circle cx="642.4" cy="82.2" r="2.16" fill="#FFFFFF" opacity="0.074"/><circle cx="413.8" cy="663.1" r="1.51" fill="#FFFFFF" opacity="0.049"/><circle cx="194.6" cy="922.0" r="1.53" fill="#FFFFFF" opacity="0.054"/><circle cx="343.7" cy="579.5" r="0.70" fill="#FFFFFF" opacity="0.054"/><circle cx="462.8" cy="852.4" r="1.20" fill="#FFFFFF" opacity="0.038"/><circle cx="22.7" cy="76.5" r="1.65" fill="#FFFFFF" opacity="0.045"/><circle cx="140.2" cy="564.8" r="1.63" fill="#FFFFFF" opacity="0.067"/><circle cx="617.0" cy="324.5" r="0.69" fill="#FFFFFF" opacity="0.068"/><circle cx="106.8" cy="316.5" r="0.62" fill="#FFFFFF" opacity="0.067"/><circle cx="480.0" cy="577.3" r="1.79" fill="#FFFFFF" opacity="0.055"/><circle cx="146.9" cy="244.1" r="2.18" fill="#FFFFFF" opacity="0.033"/><circle cx="722.8" cy="877.8" r="1.94" fill="#FFFFFF" opacity="0.055"/><circle cx="434.7" cy="500.0" r="1.71" fill="#FFFFFF" opacity="0.049"/><circle cx="4.1" cy="559.5" r="1.96" fill="#FFFFFF" opacity="0.044"/><circle cx="36.7" cy="83.7" r="1.78" fill="#FFFFFF" opacity="0.072"/><circle cx="701.6" cy="970.5" r="1.24" fill="#FFFFFF" opacity="0.031"/><circle cx="263.3" cy="106.9" r="1.66" fill="#FFFFFF" opacity="0.038"/><circle cx="397.8" cy="353.9" r="1.55" fill="#FFFFFF" opacity="0.032"/><circle cx="181.6" cy="747.7" r="1.60" fill="#FFFFFF" opacity="0.067"/><circle cx="673.0" cy="30.0" r="0.79" fill="#FFFFFF" opacity="0.077"/><circle cx="617.7" cy="439.7" r="1.68" fill="#FFFFFF" opacity="0.031"/><circle cx="638.7" cy="355.4" r="1.34" fill="#FFFFFF" opacity="0.057"/><circle cx="42.4" cy="627.6" r="1.20" fill="#FFFFFF" opacity="0.068"/><circle cx="305.6" cy="694.1" r="1.78" fill="#FFFFFF" opacity="0.072"/><circle cx="509.5" cy="929.8" r="1.93" fill="#FFFFFF" opacity="0.030"/><circle cx="99.3" cy="846.6" r="1.06" fill="#FFFFFF" opacity="0.048"/><circle cx="504.8" cy="256.8" r="0.93" fill="#FFFFFF" opacity="0.066"/><circle cx="480.2" cy="825.2" r="0.64" fill="#FFFFFF" opacity="0.072"/><circle cx="304.8" cy="867.1" r="0.95" fill="#FFFFFF" opacity="0.068"/><circle cx="356.5" cy="488.7" r="1.97" fill="#FFFFFF" opacity="0.069"/><circle cx="547.7" cy="579.8" r="2.08" fill="#FFFFFF" opacity="0.039"/><circle cx="736.2" cy="504.6" r="1.96" fill="#FFFFFF" opacity="0.038"/><circle cx="279.1" cy="98.9" r="1.66" fill="#FFFFFF" opacity="0.066"/><circle cx="407.3" cy="730.9" r="1.82" fill="#FFFFFF" opacity="0.041"/><circle cx="601.3" cy="156.4" r="0.74" fill="#FFFFFF" opacity="0.035"/><circle cx="733.0" cy="877.7" r="0.86" fill="#FFFFFF" opacity="0.040"/><circle cx="340.6" cy="826.6" r="1.34" fill="#FFFFFF" opacity="0.055"/><circle cx="41.8" cy="895.8" r="0.70" fill="#FFFFFF" opacity="0.051"/><circle cx="684.0" cy="766.5" r="1.57" fill="#FFFFFF" opacity="0.078"/><circle cx="667.7" cy="451.4" r="1.28" fill="#FFFFFF" opacity="0.037"/><circle cx="685.7" cy="540.0" r="1.72" fill="#FFFFFF" opacity="0.057"/><circle cx="468.7" cy="759.2" r="0.91" fill="#FFFFFF" opacity="0.031"/><circle cx="232.6" cy="415.6" r="1.33" fill="#FFFFFF" opacity="0.031"/><circle cx="551.7" cy="19.6" r="1.05" fill="#FFFFFF" opacity="0.042"/><circle cx="758.6" cy="789.4" r="1.76" fill="#FFFFFF" opacity="0.060"/><circle cx="362.0" cy="196.2" r="0.72" fill="#FFFFFF" opacity="0.032"/><circle cx="38.0" cy="592.1" r="0.88" fill="#FFFFFF" opacity="0.057"/><circle cx="686.5" cy="344.7" r="1.27" fill="#FFFFFF" opacity="0.038"/><circle cx="97.2" cy="567.7" r="1.50" fill="#FFFFFF" opacity="0.048"/><circle cx="556.9" cy="712.5" r="0.84" fill="#FFFFFF" opacity="0.048"/><circle cx="154.6" cy="283.4" r="0.83" fill="#FFFFFF" opacity="0.064"/><circle cx="500.3" cy="777.0" r="1.28" fill="#FFFFFF" opacity="0.050"/><circle cx="737.4" cy="623.0" r="0.64" fill="#FFFFFF" opacity="0.045"/><circle cx="372.4" cy="971.5" r="1.29" fill="#FFFFFF" opacity="0.051"/><circle cx="161.6" cy="1001.8" r="2.00" fill="#FFFFFF" opacity="0.078"/><circle cx="466.0" cy="604.3" r="0.75" fill="#FFFFFF" opacity="0.063"/><circle cx="606.3" cy="440.2" r="1.84" fill="#FFFFFF" opacity="0.068"/><circle cx="565.0" cy="121.0" r="1.61" fill="#FFFFFF" opacity="0.075"/><circle cx="739.7" cy="661.5" r="0.94" fill="#FFFFFF" opacity="0.035"/><circle cx="344.9" cy="301.0" r="1.62" fill="#FFFFFF" opacity="0.033"/><circle cx="25.9" cy="415.5" r="1.09" fill="#FFFFFF" opacity="0.065"/><circle cx="600.0" cy="955.6" r="2.19" fill="#FFFFFF" opacity="0.058"/><circle cx="657.3" cy="510.7" r="1.58" fill="#FFFFFF" opacity="0.071"/><circle cx="55.4" cy="621.0" r="1.87" fill="#FFFFFF" opacity="0.074"/><circle cx="391.4" cy="64.6" r="0.68" fill="#FFFFFF" opacity="0.070"/><circle cx="137.0" cy="546.9" r="2.01" fill="#FFFFFF" opacity="0.077"/><circle cx="608.8" cy="610.7" r="1.48" fill="#FFFFFF" opacity="0.069"/><circle cx="257.6" cy="730.3" r="0.97" fill="#FFFFFF" opacity="0.051"/><circle cx="680.4" cy="148.5" r="1.45" fill="#FFFFFF" opacity="0.065"/><circle cx="625.7" cy="23.4" r="2.14" fill="#FFFFFF" opacity="0.058"/><circle cx="669.5" cy="987.8" r="0.83" fill="#FFFFFF" opacity="0.066"/><circle cx="678.2" cy="271.9" r="2.14" fill="#FFFFFF" opacity="0.076"/><circle cx="22.3" cy="336.6" r="1.33" fill="#FFFFFF" opacity="0.046"/><circle cx="334.9" cy="821.3" r="1.08" fill="#FFFFFF" opacity="0.048"/><circle cx="530.0" cy="414.0" r="0.86" fill="#FFFFFF" opacity="0.070"/><circle cx="48.9" cy="535.8" r="1.25" fill="#FFFFFF" opacity="0.059"/><circle cx="281.4" cy="310.2" r="1.54" fill="#FFFFFF" opacity="0.053"/><circle cx="395.5" cy="112.4" r="1.14" fill="#FFFFFF" opacity="0.074"/><circle cx="195.1" cy="782.7" r="2.03" fill="#FFFFFF" opacity="0.032"/><circle cx="713.8" cy="350.2" r="0.89" fill="#FFFFFF" opacity="0.072"/><circle cx="166.3" cy="441.7" r="0.98" fill="#FFFFFF" opacity="0.050"/><circle cx="93.4" cy="976.1" r="1.47" fill="#FFFFFF" opacity="0.065"/><circle cx="265.0" cy="833.8" r="1.03" fill="#FFFFFF" opacity="0.032"/><circle cx="1.1" cy="415.9" r="1.31" fill="#FFFFFF" opacity="0.042"/><circle cx="77.6" cy="984.4" r="0.68" fill="#FFFFFF" opacity="0.041"/><circle cx="83.6" cy="50.2" r="0.79" fill="#FFFFFF" opacity="0.063"/><circle cx="385.3" cy="586.0" r="1.18" fill="#FFFFFF" opacity="0.065"/><circle cx="89.4" cy="740.4" r="1.97" fill="#FFFFFF" opacity="0.070"/><circle cx="743.7" cy="937.6" r="0.64" fill="#FFFFFF" opacity="0.035"/><circle cx="428.9" cy="988.6" r="2.08" fill="#FFFFFF" opacity="0.051"/><circle cx="248.4" cy="182.3" r="1.66" fill="#FFFFFF" opacity="0.036"/><circle cx="251.0" cy="236.2" r="1.33" fill="#FFFFFF" opacity="0.038"/><circle cx="115.1" cy="167.1" r="0.99" fill="#FFFFFF" opacity="0.075"/><circle cx="337.9" cy="175.0" r="2.10" fill="#FFFFFF" opacity="0.040"/><circle cx="374.5" cy="125.5" r="2.16" fill="#FFFFFF" opacity="0.034"/><circle cx="742.7" cy="144.8" r="1.64" fill="#FFFFFF" opacity="0.077"/><circle cx="744.1" cy="598.6" r="1.27" fill="#FFFFFF" opacity="0.034"/><circle cx="359.4" cy="728.1" r="1.11" fill="#FFFFFF" opacity="0.048"/><circle cx="223.0" cy="494.4" r="0.64" fill="#FFFFFF" opacity="0.062"/><circle cx="148.5" cy="994.6" r="1.95" fill="#FFFFFF" opacity="0.049"/><circle cx="110.3" cy="276.6" r="1.82" fill="#FFFFFF" opacity="0.034"/><circle cx="712.8" cy="516.2" r="1.12" fill="#FFFFFF" opacity="0.042"/><circle cx="425.8" cy="368.6" r="2.11" fill="#FFFFFF" opacity="0.079"/><circle cx="78.6" cy="531.5" r="0.85" fill="#FFFFFF" opacity="0.080"/><circle cx="446.4" cy="583.3" r="0.68" fill="#FFFFFF" opacity="0.064"/><circle cx="723.4" cy="737.9" r="2.05" fill="#FFFFFF" opacity="0.040"/><circle cx="576.0" cy="760.3" r="1.97" fill="#FFFFFF" opacity="0.068"/><circle cx="621.3" cy="272.6" r="1.90" fill="#FFFFFF" opacity="0.042"/><circle cx="473.8" cy="793.8" r="1.37" fill="#FFFFFF" opacity="0.077"/><circle cx="39.7" cy="287.1" r="1.37" fill="#FFFFFF" opacity="0.047"/><circle cx="11.0" cy="186.7" r="1.93" fill="#FFFFFF" opacity="0.072"/><circle cx="658.1" cy="270.5" r="1.32" fill="#FFFFFF" opacity="0.073"/><circle cx="677.3" cy="396.7" r="1.72" fill="#FFFFFF" opacity="0.046"/><circle cx="121.9" cy="106.5" r="2.04" fill="#FFFFFF" opacity="0.067"/><circle cx="138.7" cy="445.2" r="1.57" fill="#FFFFFF" opacity="0.036"/><circle cx="372.9" cy="423.4" r="1.47" fill="#FFFFFF" opacity="0.034"/><circle cx="742.8" cy="476.2" r="1.41" fill="#FFFFFF" opacity="0.078"/><circle cx="173.2" cy="66.3" r="1.08" fill="#FFFFFF" opacity="0.070"/><circle cx="622.9" cy="629.7" r="0.88" fill="#FFFFFF" opacity="0.061"/><circle cx="309.3" cy="106.0" r="0.82" fill="#FFFFFF" opacity="0.054"/><circle cx="492.0" cy="97.8" r="1.39" fill="#FFFFFF" opacity="0.046"/><circle cx="372.5" cy="195.2" r="1.74" fill="#FFFFFF" opacity="0.033"/><circle cx="325.1" cy="46.1" r="0.70" fill="#FFFFFF" opacity="0.074"/><circle cx="556.7" cy="143.4" r="1.64" fill="#FFFFFF" opacity="0.063"/><circle cx="599.2" cy="302.1" r="0.91" fill="#FFFFFF" opacity="0.032"/><circle cx="274.2" cy="26.8" r="1.30" fill="#FFFFFF" opacity="0.066"/><circle cx="688.5" cy="232.2" r="1.31" fill="#FFFFFF" opacity="0.051"/><circle cx="77.3" cy="217.3" r="1.88" fill="#FFFFFF" opacity="0.043"/><circle cx="560.1" cy="448.3" r="0.81" fill="#FFFFFF" opacity="0.030"/><circle cx="90.1" cy="93.0" r="1.42" fill="#FFFFFF" opacity="0.079"/><circle cx="171.5" cy="908.5" r="1.39" fill="#FFFFFF" opacity="0.059"/><circle cx="96.6" cy="543.2" r="1.44" fill="#FFFFFF" opacity="0.046"/><circle cx="549.6" cy="230.7" r="1.02" fill="#FFFFFF" opacity="0.061"/><circle cx="33.7" cy="869.6" r="1.31" fill="#FFFFFF" opacity="0.065"/><circle cx="208.2" cy="49.3" r="0.99" fill="#FFFFFF" opacity="0.063"/><circle cx="719.5" cy="530.5" r="2.13" fill="#FFFFFF" opacity="0.068"/><circle cx="265.1" cy="979.2" r="1.78" fill="#FFFFFF" opacity="0.040"/><circle cx="367.0" cy="78.8" r="1.52" fill="#FFFFFF" opacity="0.059"/><circle cx="130.2" cy="885.7" r="1.15" fill="#FFFFFF" opacity="0.070"/><circle cx="529.6" cy="178.0" r="1.45" fill="#FFFFFF" opacity="0.060"/><circle cx="125.2" cy="553.8" r="1.99" fill="#FFFFFF" opacity="0.053"/><circle cx="757.8" cy="323.7" r="2.15" fill="#FFFFFF" opacity="0.045"/><circle cx="220.1" cy="554.8" r="1.40" fill="#FFFFFF" opacity="0.066"/><circle cx="511.0" cy="1016.9" r="0.82" fill="#FFFFFF" opacity="0.037"/><circle cx="608.7" cy="752.3" r="1.67" fill="#FFFFFF" opacity="0.052"/><circle cx="58.8" cy="767.4" r="2.12" fill="#FFFFFF" opacity="0.067"/><circle cx="338.7" cy="341.0" r="0.95" fill="#FFFFFF" opacity="0.070"/><circle cx="194.8" cy="586.0" r="0.70" fill="#FFFFFF" opacity="0.038"/><circle cx="642.3" cy="188.5" r="0.77" fill="#FFFFFF" opacity="0.055"/><circle cx="63.6" cy="55.7" r="1.81" fill="#FFFFFF" opacity="0.058"/><circle cx="228.3" cy="543.1" r="1.72" fill="#FFFFFF" opacity="0.053"/><circle cx="557.9" cy="1016.5" r="1.05" fill="#FFFFFF" opacity="0.032"/><circle cx="196.1" cy="139.5" r="1.32" fill="#FFFFFF" opacity="0.070"/><circle cx="559.6" cy="474.5" r="1.35" fill="#FFFFFF" opacity="0.069"/><circle cx="634.7" cy="522.6" r="0.64" fill="#FFFFFF" opacity="0.078"/><circle cx="235.3" cy="346.9" r="1.47" fill="#FFFFFF" opacity="0.044"/><circle cx="734.8" cy="763.0" r="1.36" fill="#FFFFFF" opacity="0.054"/><circle cx="420.6" cy="69.4" r="1.58" fill="#FFFFFF" opacity="0.078"/><circle cx="200.7" cy="706.6" r="1.37" fill="#FFFFFF" opacity="0.042"/><circle cx="346.6" cy="371.8" r="1.27" fill="#FFFFFF" opacity="0.066"/><circle cx="729.7" cy="955.3" r="2.01" fill="#FFFFFF" opacity="0.041"/><circle cx="667.7" cy="544.5" r="2.06" fill="#FFFFFF" opacity="0.069"/><circle cx="253.7" cy="526.4" r="1.19" fill="#FFFFFF" opacity="0.062"/><circle cx="646.5" cy="870.7" r="2.06" fill="#FFFFFF" opacity="0.050"/><circle cx="159.8" cy="327.2" r="0.67" fill="#FFFFFF" opacity="0.035"/><circle cx="242.5" cy="800.4" r="0.95" fill="#FFFFFF" opacity="0.034"/><circle cx="597.3" cy="734.8" r="1.03" fill="#FFFFFF" opacity="0.063"/><circle cx="269.6" cy="979.2" r="1.61" fill="#FFFFFF" opacity="0.039"/><circle cx="646.0" cy="368.1" r="1.04" fill="#FFFFFF" opacity="0.063"/><circle cx="699.8" cy="359.1" r="2.04" fill="#FFFFFF" opacity="0.034"/><circle cx="363.6" cy="188.6" r="1.87" fill="#FFFFFF" opacity="0.039"/><circle cx="612.7" cy="644.0" r="1.84" fill="#FFFFFF" opacity="0.042"/><circle cx="416.3" cy="876.2" r="1.60" fill="#FFFFFF" opacity="0.059"/><circle cx="688.6" cy="392.0" r="1.66" fill="#FFFFFF" opacity="0.063"/><circle cx="535.0" cy="341.8" r="0.94" fill="#FFFFFF" opacity="0.074"/><circle cx="414.7" cy="448.5" r="0.71" fill="#FFFFFF" opacity="0.063"/><circle cx="206.7" cy="342.1" r="1.17" fill="#FFFFFF" opacity="0.034"/><circle cx="641.9" cy="826.0" r="1.14" fill="#FFFFFF" opacity="0.043"/><circle cx="306.3" cy="854.9" r="0.96" fill="#FFFFFF" opacity="0.074"/><circle cx="739.1" cy="729.1" r="1.43" fill="#FFFFFF" opacity="0.036"/><circle cx="453.4" cy="2.8" r="1.49" fill="#FFFFFF" opacity="0.069"/><circle cx="314.6" cy="164.1" r="1.37" fill="#FFFFFF" opacity="0.059"/><circle cx="41.0" cy="709.8" r="1.84" fill="#FFFFFF" opacity="0.043"/><circle cx="189.1" cy="668.2" r="0.71" fill="#FFFFFF" opacity="0.067"/><circle cx="281.9" cy="679.2" r="0.65" fill="#FFFFFF" opacity="0.040"/><circle cx="596.9" cy="139.5" r="1.45" fill="#FFFFFF" opacity="0.033"/><circle cx="556.1" cy="877.4" r="0.91" fill="#FFFFFF" opacity="0.063"/></g>
<rect x="30" y="30" width="708" height="964" rx="26" fill="none" stroke="#E6BC58" stroke-width="2" opacity="0.85"/><rect x="42" y="42" width="684" height="940" rx="20" fill="none" stroke="#E6BC58" stroke-width="0.8" opacity="0.35"/>
</svg>