<svg xmlns="http://www.w3.org/2000/svg" width="768" height="1024" viewBox="0 0 768 1024" role="img" aria-label="Original Tome vector cover for Paradise Lost: a tall rounded gate of gold light on deep violet, a single star falling beside it.">
<defs><linearGradient id="paradise-lost-gate" x1="0" y1="0" x2="0" y2="1"><stop offset="0" stop-color="#F0C766"/><stop offset="1" stop-color="#D98E4A"/></linearGradient><radialGradient id="paradise-lost-vig" cx="0.5" cy="0.42" r="0.95"><stop offset="0.55" stop-color="#0B0817" stop-opacity="0"/><stop offset="1" stop-color="#0B0817" stop-opacity="0.38"/></radialGradient></defs>
<rect width="768" height="1024" fill="#171226"/><circle cx="384" cy="470" r="340" fill="none" stroke="#43346B" stroke-width="2" opacity="0.5"/><circle cx="384" cy="470" r="430" fill="none" stroke="#43346B" stroke-width="2" opacity="0.5"/><circle cx="384" cy="470" r="520" fill="none" stroke="#43346B" stroke-width="2" opacity="0.5"/><path d="M 274 780 L 274 430 Q 384 300 494 430 L 494 780 Z" fill="url(#paradise-lost-gate)"/><path d="M 308 780 L 308 452 Q 384 350 460 452 L 460 780 Z" fill="#171226"/><path d="M 344 780 L 344 480 Q 384 406 424 480 L 424 780 Z" fill="url(#paradise-lost-gate)" opacity="0.9"/><path d="M 618 130 L 508 420" stroke="#F0C766" stroke-width="5" stroke-linecap="round" opacity="0.9"/><path d="M 600 160 L 516 390" stroke="#F0C766" stroke-width="2" stroke-linecap="round" opacity="0.5"/><path d="M 506 410 L 511.04 422.96 L 524 428 L 511.04 433.04 L 506 446 L 500.96 433.04 L 488 428 L 500.96 422.96 Z" fill="#F0C766" opacity="1"/><path d="M 140 191 L 142.52 197.48 L 149 200 L 142.52 202.52 L 140 209 L 137.48 202.52 L 131 200 L 137.48 197.48 Z" fill="#F0C766" opacity="0.7"/><path d="M 620 633 L 621.96 638.04 L 627 640 L 621.96 641.96 L 620 647 L 618.04 641.96 L 613 640 L 618.04 638.04 Z" fill="#F0C766" opacity="0.5"/><rect width="768" height="1024" fill="url(#paradise-lost-vig)"/>
<g><circle cx="555.5" cy="96.1" r="1.45" fill="#FFFFFF" opacity="0.064"/><circle cx="414.6" cy="906.0" r="0.61" fill="#FFFFFF" opacity="0.065"/><circle cx="723.6" cy="881.4" r="2.02" fill="#FFFFFF" opacity="0.074"/><circle cx="758.2" cy="178.3" r="1.17" fill="#FFFFFF" opacity="0.079"/><circle cx="105.4" cy="998.4" r="1.36" fill="#FFFFFF" opacity="0.046"/><circle cx="541.2" cy="978.5" r="1.10" fill="#FFFFFF" opacity="0.053"/><circle cx="332.0" cy="714.8" r="1.78" fill="#FFFFFF" opacity="0.080"/><circle cx="618.0" cy="760.3" r="1.96" fill="#FFFFFF" opacity="0.077"/><circle cx="355.4" cy="444.6" r="0.80" fill="#FFFFFF" opacity="0.054"/><circle cx="86.1" cy="116.3" r="2.20" fill="#FFFFFF" opacity="0.066"/><circle cx="746.5" cy="880.6" r="1.98" fill="#FFFFFF" opacity="0.048"/><circle cx="532.6" cy="40.5" r="0.69" fill="#FFFFFF" opacity="0.063"/><circle cx="104.9" cy="618.7" r="0.77" fill="#FFFFFF" opacity="0.073"/><circle cx="176.8" cy="118.2" r="1.08" fill="#FFFFFF" opacity="0.070"/><circle cx="552.8" cy="461.3" r="0.94" fill="#FFFFFF" opacity="0.057"/><circle cx="564.8" cy="234.4" r="1.47" fill="#FFFFFF" opacity="0.063"/><circle cx="570.1" cy="361.2" r="1.86" fill="#FFFFFF" opacity="0.037"/><circle cx="277.8" cy="592.4" r="1.24" fill="#FFFFFF" opacity="0.036"/><circle cx="697.6" cy="842.8" r="2.02" fill="#FFFFFF" opacity="0.039"/><circle cx="630.4" cy="386.3" r="1.49" fill="#FFFFFF" opacity="0.050"/><circle cx="478.0" cy="348.2" r="1.45" fill="#FFFFFF" opacity="0.066"/><circle cx="367.4" cy="279.1" r="0.65" fill="#FFFFFF" opacity="0.054"/><circle cx="638.1" cy="37.6" r="0.62" fill="#FFFFFF" opacity="0.047"/><circle cx="650.6" cy="744.2" r="1.81" fill="#FFFFFF" opacity="0.037"/><circle cx="418.6" cy="897.1" r="1.60" fill="#FFFFFF" opacity="0.052"/><circle cx="716.3" cy="421.6" r="1.55" fill="#FFFFFF" opacity="0.040"/><circle cx="135.5" cy="613.5" r="1.95" fill="#FFFFFF" opacity="0.068"/><circle cx="551.9" cy="362.8" r="0.85" fill="#FFFFFF" opacity="0.075"/><circle cx="645.0" cy="964.3" r="0.92" fill="#FFFFFF" opacity="0.040"/><circle cx="272.5" cy="84.3" r="1.02" fill="#FFFFFF" opacity="0.059"/><circle cx="434.6" cy="69.3" r="1.73" fill="#FFFFFF" opacity="0.062"/><circle cx="227.9" cy="722.3" r="0.76" fill="#FFFFFF" opacity="0.054"/><circle cx="536.9" cy="149.0" r="1.73" fill="#FFFFFF" opacity="0.050"/><circle cx="527.6" cy="212.8" r="1.34" fill="#FFFFFF" opacity="0.042"/><circle cx="757.3" cy="156.3" r="1.17" fill="#FFFFFF" opacity="0.039"/><circle cx="575.7" cy="514.9" r="1.96" fill="#FFFFFF" opacity="0.063"/><circle cx="159.1" cy="411.5" r="1.72" fill="#FFFFFF" opacity="0.064"/><circle cx="652.6" cy="902.9" r="1.71" fill="#FFFFFF" opacity="0.042"/><circle cx="520.2" cy="0.2" r="1.33" fill="#FFFFFF" opacity="0.033"/><circle cx="100.6" cy="887.6" r="0.75" fill="#FFFFFF" opacity="0.043"/><circle cx="161.6" cy="749.9" r="0.92" fill="#FFFFFF" opacity="0.036"/><circle cx="373.1" cy="952.6" r="1.38" fill="#FFFFFF" opacity="0.045"/><circle cx="296.8" cy="738.5" r="1.56" fill="#FFFFFF" opacity="0.048"/><circle cx="65.1" cy="559.3" r="2.14" fill="#FFFFFF" opacity="0.066"/><circle cx="365.9" cy="426.8" r="1.47" fill="#FFFFFF" opacity="0.066"/><circle cx="709.0" cy="221.5" r="2.13" fill="#FFFFFF" opacity="0.078"/><circle cx="302.5" cy="323.4" r="2.16" fill="#FFFFFF" opacity="0.049"/><circle cx="766.8" cy="591.1" r="2.10" fill="#FFFFFF" opacity="0.052"/><circle cx="544.4" cy="318.3" r="1.37" fill="#FFFFFF" opacity="0.070"/><circle cx="596.4" cy="520.3" r="1.95" fill="#FFFFFF" opacity="0.076"/><circle cx="417.5" cy="260.9" r="1.87" fill="#FFFFFF" opacity="0.043"/><circle cx="30.7" cy="324.2" r="2.02" fill="#FFFFFF" opacity="0.039"/><circle cx="587.4" cy="756.8" r="1.34" fill="#FFFFFF" opacity="0.068"/><circle cx="95.3" cy="219.2" r="1.91" fill="#FFFFFF" opacity="0.037"/><circle cx="122.2" cy="126.7" r="1.48" fill="#FFFFFF" opacity="0.031"/><circle cx="723.6" cy="649.7" r="0.75" fill="#FFFFFF" opacity="0.050"/><circle cx="162.5" cy="525.7" r="2.17" fill="#FFFFFF" opacity="0.047"/><circle cx="270.1" cy="562.1" r="1.10" fill="#FFFFFF" opacity="0.045"/><circle cx="250.0" cy="166.7" r="1.86" fill="#FFFFFF" opacity="0.068"/><circle cx="586.6" cy="862.1" r="1.96" fill="#FFFFFF" opacity="0.062"/><circle cx="636.2" cy="205.1" r="1.57" fill="#FFFFFF" opacity="0.071"/><circle cx="34.8" cy="429.7" r="0.76" fill="#FFFFFF" opacity="0.068"/><circle cx="492.4" cy="367.4" r="0.63" fill="#FFFFFF" opacity="0.042"/><circle cx="301.4" cy="42.1" r="2.14" fill="#FFFFFF" opacity="0.036"/><circle cx="80.5" cy="181.6" r="0.70" fill="#FFFFFF" opacity="0.068"/><circle cx="424.1" cy="990.8" r="1.23" fill="#FFFFFF" opacity="0.063"/><circle cx="227.3" cy="574.4" r="1.71" fill="#FFFFFF" opacity="0.053"/><circle cx="625.4" cy="789.5" r="1.26" fill="#FFFFFF" opacity="0.039"/><circle cx="376.6" cy="217.7" r="2.06" fill="#FFFFFF" opacity="0.046"/><circle cx="502.0" cy="316.5" r="2.01" fill="#FFFFFF" opacity="0.065"/><circle cx="57.3" cy="413.2" r="2.18" fill="#FFFFFF" opacity="0.073"/><circle cx="722.6" cy="220.5" r="2.12" fill="#FFFFFF" opacity="0.056"/><circle cx="690.1" cy="77.3" r="1.38" fill="#FFFFFF" opacity="0.068"/><circle cx="312.7" cy="303.1" r="1.08" fill="#FFFFFF" opacity="0.072"/><circle cx="5.6" cy="396.6" r="0.83" fill="#FFFFFF" opacity="0.070"/><circle cx="95.1" cy="764.9" r="1.41" fill="#FFFFFF" opacity="0.049"/><circle cx="359.5" cy="745.3" r="1.19" fill="#FFFFFF" opacity="0.044"/><circle cx="348.6" cy="19.3" r="0.63" fill="#FFFFFF" opacity="0.033"/><circle cx="65.7" cy="578.4" r="1.00" fill="#FFFFFF" opacity="0.070"/><circle cx="121.9" cy="791.4" r="0.81" fill="#FFFFFF" opacity="0.063"/><circle cx="669.8" cy="444.0" r="1.11" fill="#FFFFFF" opacity="0.068"/><circle cx="625.7" cy="496.1" r="1.61" fill="#FFFFFF" opacity="0.056"/><circle cx="107.6" cy="971.6" r="1.94" fill="#FFFFFF" opacity="0.075"/><circle cx="750.3" cy="911.9" r="1.19" fill="#FFFFFF" opacity="0.040"/><circle cx="287.0" cy="829.4" r="0.75" fill="#FFFFFF" opacity="0.072"/><circle cx="37.5" cy="225.1" r="1.23" fill="#FFFFFF" opacity="0.048"/><circle cx="231.0" cy="278.7" r="0.70" fill="#FFFFFF" opacity="0.078"/><circle cx="495.5" cy="16.2" r="1.29" fill="#FFFFFF" opacity="0.044"/><circle cx="533.3" cy="598.0" r="1.48" fill="#FFFFFF" opacity="0.054"/><circle cx="428.7" cy="508.6" r="2.08" fill="#FFFFFF" opacity="0.048"/><circle cx="242.9" cy="420.6" r="1.32" fill="#FFFFFF" opacity="0.038"/><circle cx="589.9" cy="380.8" r="1.03" fill="#FFFFFF" opacity="0.039"/><circle cx="551.0" cy="791.9" r="0.95" fill="#FFFFFF" opacity="0.064"/><circle cx="501.1" cy="318.9" r="0.72" fill="#FFFFFF" opacity="0.079"/><circle cx="43.7" cy="107.5" r="0.86" fill="#FFFFFF" opacity="0.065"/><circle cx="65.9" cy="868.6" r="2.20" fill="#FFFFFF" opacity="0.055"/><circle cx="483.4" cy="233.5" r="2.13" fill="#FFFFFF" opacity="0.069"/><circle cx="667.0" cy="573.0" r="1.11" fill="#FFFFFF" opacity="0.055"/><circle cx="537.9" cy="222.3" r="0.64" fill="#FFFFFF" opacity="0.071"/><circle cx="283.4" cy="812.2" r="1.37" fill="#FFFFFF" opacity="0.051"/><circle cx="192.3" cy="309.6" r="0.95" fill="#FFFFFF" opacity="0.061"/><circle cx="254.5" cy="147.8" r="1.92" fill="#FFFFFF" opacity="0.070"/><circle cx="264.4" cy="704.6" r="2.12" fill="#FFFFFF" opacity="0.057"/><circle cx="128.1" cy="576.8" r="1.25" fill="#FFFFFF" opacity="0.069"/><circle cx="356.1" cy="984.9" r="1.58" fill="#FFFFFF" opacity="0.067"/><circle cx="126.1" cy="348.0" r="0.68" fill="#FFFFFF" opacity="0.075"/><circle cx="315.3" cy="295.1" r="1.78" fill="#FFFFFF" opacity="0.056"/><circle cx="244.8" cy="255.6" r="1.70" fill="#FFFFFF" opacity="0.045"/><circle cx="594.3" cy="142.8" r="1.36" fill="#FFFFFF" opacity="0.076"/><circle cx="282.2" cy="754.5" r="0.64" fill="#FFFFFF" opacity="0.062"/><circle cx="260.0" cy="547.9" r="1.71" fill="#FFFFFF" opacity="0.066"/><circle cx="452.1" cy="426.9" r="0.93" fill="#FFFFFF" opacity="0.032"/><circle cx="159.7" cy="889.3" r="1.38" fill="#FFFFFF" opacity="0.052"/><circle cx="560.1" cy="139.9" r="1.53" fill="#FFFFFF" opacity="0.058"/><circle cx="444.7" cy="1012.5" r="0.87" fill="#FFFFFF" opacity="0.036"/><circle cx="379.0" cy="135.2" r="2.15" fill="#FFFFFF" opacity="0.030"/><circle cx="111.5" cy="208.8" r="0.64" fill="#FFFFFF" opacity="0.037"/><circle cx="250.7" cy="387.1" r="2.03" fill="#FFFFFF" opacity="0.052"/><circle cx="104.6" cy="966.3" r="1.51" fill="#FFFFFF" opacity="0.079"/><circle cx="329.1" cy="84.6" r="1.40" fill="#FFFFFF" opacity="0.077"/><circle cx="286.8" cy="203.8" r="1.60" fill="#FFFFFF" opacity="0.067"/><circle cx="388.4" cy="422.3" r="0.72" fill="#FFFFFF" opacity="0.078"/><circle cx="235.0" cy="219.4" r="2.01" fill="#FFFFFF" opacity="0.051"/><circle cx="68.9" cy="968.5" r="1.07" fill="#FFFFFF" opacity="0.034"/><circle cx="652.5" cy="887.9" r="1.66" fill="#FFFFFF" opacity="0.075"/><circle cx="283.4" cy="219.3" r="1.25" fill="#FFFFFF" opacity="0.053"/><circle cx="21.2" cy="571.9" r="1.64" fill="#FFFFFF" opacity="0.060"/><circle cx="686.8" cy="69.3" r="1.84" fill="#FFFFFF" opacity="0.064"/><circle cx="372.5" cy="111.4" r="1.42" fill="#FFFFFF" opacity="0.061"/><circle cx="689.9" cy="582.7" r="0.66" fill="#FFFFFF" opacity="0.074"/><circle cx="592.7" cy="957.3" r="0.86" fill="#FFFFFF" opacity="0.051"/><circle cx="733.6" cy="559.4" r="0.84" fill="#FFFFFF" opacity="0.053"/><circle cx="602.7" cy="152.8" r="1.00" fill="#FFFFFF" opacity="0.077"/><circle cx="499.6" cy="574.5" r="1.68" fill="#FFFFFF" opacity="0.055"/><circle cx="398.5" cy="651.5" r="1.00" fill="#FFFFFF" opacity="0.031"/><circle cx="679.3" cy="903.5" r="2.09" fill="#FFFFFF" opacity="0.037"/><circle cx="73.3" cy="979.1" r="0.65" fill="#FFFFFF" opacity="0.046"/><circle cx="177.9" cy="492.4" r="2.00" fill="#FFFFFF" opacity="0.072"/><circle cx="521.0" cy="483.9" r="0.65" fill="#FFFFFF" opacity="0.036"/><circle cx="609.4" cy="595.7" r="0.61" fill="#FFFFFF" opacity="0.042"/><circle cx="126.2" cy="968.6" r="1.22" fill="#FFFFFF" opacity="0.037"/><circle cx="238.8" cy="449.2" r="0.92" fill="#FFFFFF" opacity="0.066"/><circle cx="536.9" cy="771.5" r="1.28" fill="#FFFFFF" opacity="0.048"/><circle cx="52.2" cy="411.3" r="2.00" fill="#FFFFFF" opacity="0.040"/><circle cx="257.5" cy="622.7" r="1.96" fill="#FFFFFF" opacity="0.035"/><circle cx="733.9" cy="600.0" r="2.07" fill="#FFFFFF" opacity="0.067"/><circle cx="414.4" cy="206.9" r="1.79" fill="#FFFFFF" opacity="0.035"/><circle cx="184.0" cy="680.2" r="1.62" fill="#FFFFFF" opacity="0.077"/><circle cx="742.6" cy="63.8" r="1.41" fill="#FFFFFF" opacity="0.068"/><circle cx="498.3" cy="62.0" r="1.24" fill="#FFFFFF" opacity="0.039"/><circle cx="427.6" cy="530.2" r="1.83" fill="#FFFFFF" opacity="0.043"/><circle cx="509.0" cy="72.4" r="1.00" fill="#FFFFFF" opacity="0.041"/><circle cx="377.5" cy="692.9" r="1.47" fill="#FFFFFF" opacity="0.038"/><circle cx="412.9" cy="637.5" r="1.06" fill="#FFFFFF" opacity="0.057"/><circle cx="462.3" cy="284.7" r="1.22" fill="#FFFFFF" opacity="0.075"/><circle cx="148.0" cy="256.8" r="1.50" fill="#FFFFFF" opacity="0.066"/><circle cx="18.6" cy="582.2" r="0.99" fill="#FFFFFF" opacity="0.033"/><circle cx="80.7" cy="418.3" r="1.44" fill="#FFFFFF" opacity="0.068"/><circle cx="66.4" cy="50.7" r="1.51" fill="#FFFFFF" opacity="0.045"/><circle cx="648.3" cy="277.7" r="0.81" fill="#FFFFFF" opacity="0.043"/><circle cx="209.7" cy="128.8" r="1.32" fill="#FFFFFF" opacity="0.044"/><circle cx="269.5" cy="392.8" r="1.70" fill="#FFFFFF" opacity="0.069"/><circle cx="532.0" cy="412.8" r="1.60" fill="#FFFFFF" opacity="0.062"/><circle cx="0.3" cy="578.4" r="2.17" fill="#FFFFFF" opacity="0.078"/><circle cx="466.5" cy="117.6" r="2.18" fill="#FFFFFF" opacity="0.033"/><circle cx="624.7" cy="311.1" r="2.15" fill="#FFFFFF" opacity="0.040"/><circle cx="175.9" cy="528.4" r="2.06" fill="#FFFFFF" opacity="0.074"/><circle cx="292.2" cy="466.3" r="1.89" fill="#FFFFFF" opacity="0.062"/><circle cx="476.6" cy="853.0" r="1.26" fill="#FFFFFF" opacity="0.051"/><circle cx="85.5" cy="988.2" r="2.11" fill="#FFFFFF" opacity="0.046"/><circle cx="367.3" cy="485.4" r="1.61" fill="#FFFFFF" opacity="0.060"/><circle cx="319.5" cy="256.8" r="1.69" fill="#FFFFFF" opacity="0.049"/><circle cx="406.7" cy="986.5" r="0.85" fill="#FFFFFF" opacity="0.072"/><circle cx="430.7" cy="316.6" r="0.64" fill="#FFFFFF" opacity="0.070"/><circle cx="351.1" cy="349.7" r="0.86" fill="#FFFFFF" opacity="0.037"/><circle cx="171.7" cy="654.6" r="1.76" fill="#FFFFFF" opacity="0.035"/><circle cx="378.1" cy="415.8" r="1.17" fill="#FFFFFF" opacity="0.051"/><circle cx="311.9" cy="942.8" r="0.66" fill="#FFFFFF" opacity="0.047"/><circle cx="349.4" cy="624.7" r="1.50" fill="#FFFFFF" opacity="0.058"/><circle cx="308.5" cy="643.5" r="1.95" fill="#FFFFFF" opacity="0.077"/><circle cx="629.7" cy="495.3" r="2.15" fill="#FFFFFF" opacity="0.059"/><circle cx="537.1" cy="637.0" r="1.15" fill="#FFFFFF" opacity="0.068"/><circle cx="329.0" cy="986.6" r="0.92" fill="#FFFFFF" opacity="0.052"/><circle cx="650.3" cy="688.9" r="1.31" fill="#FFFFFF" opacity="0.046"/><circle cx="292.0" cy="796.8" r="1.15" fill="#FFFFFF" opacity="0.080"/><circle cx="359.8" cy="630.7" r="1.15" fill="#FFFFFF" opacity="0.045"/><circle cx="117.2" cy="552.8" r="1.60" fill="#FFFFFF" opacity="0.044"/><circle cx="221.2" cy="485.8" r="1.70" fill="#FFFFFF" opacity="0.063"/><circle cx="187.9" cy="584.7" r="1.32" fill="#FFFFFF" opacity="0.039"/><circle cx="23.8" cy="750.6" r="2.18" fill="#FFFFFF" opacity="0.036"/><circle cx="13.7" cy="449.9" r="1.20" fill="#FFFFFF" opacity="0.061"/><circle cx="108.0" cy="632.0" r="1.63" fill="#FFFFFF" opacity="0.041"/><circle cx="200.7" cy="77.0" r="1.91" fill="#FFFFFF" opacity="0.045"/><circle cx="27.5" cy="794.0" r="0.63" fill="#FFFFFF" opacity="0.034"/><circle cx="169.5" cy="37.1" r="1.42" fill="#FFFFFF" opacity="0.037"/><circle cx="424.7" cy="733.6" r="1.49" fill="#FFFFFF" opacity="0.047"/><circle cx="569.2" cy="704.4" r="0.61" fill="#FFFFFF" opacity="0.078"/><circle cx="173.7" cy="152.4" r="0.78" fill="#FFFFFF" opacity="0.038"/><circle cx="192.3" cy="856.5" r="0.83" fill="#FFFFFF" opacity="0.076"/><circle cx="217.3" cy="388.3" r="2.07" fill="#FFFFFF" opacity="0.036"/><circle cx="643.3" cy="28.8" r="1.83" fill="#FFFFFF" opacity="0.061"/><circle cx="352.5" cy="815.1" r="1.12" fill="#FFFFFF" opacity="0.067"/><circle cx="9.1" cy="170.6" r="1.85" fill="#FFFFFF" opacity="0.045"/><circle cx="198.9" cy="902.9" r="0.63" fill="#FFFFFF" opacity="0.053"/><circle cx="749.6" cy="984.5" r="2.02" fill="#FFFFFF" opacity="0.077"/><circle cx="47.1" cy="938.6" r="2.04" fill="#FFFFFF" opacity="0.076"/><circle cx="482.2" cy="324.6" r="1.93" fill="#FFFFFF" opacity="0.074"/><circle cx="689.7" cy="230.5" r="2.20" fill="#FFFFFF" opacity="0.076"/><circle cx="498.6" cy="458.8" r="1.28" fill="#FFFFFF" opacity="0.046"/><circle cx="184.4" cy="534.0" r="1.65" fill="#FFFFFF" opacity="0.079"/><circle cx="193.7" cy="875.3" r="2.04" fill="#FFFFFF" opacity="0.036"/><circle cx="259.8" cy="537.6" r="0.81" fill="#FFFFFF" opacity="0.054"/><circle cx="171.4" cy="987.4" r="0.86" fill="#FFFFFF" opacity="0.077"/><circle cx="321.6" cy="704.6" r="0.89" fill="#FFFFFF" opacity="0.033"/><circle cx="577.1" cy="564.6" r="1.58" fill="#FFFFFF" opacity="0.073"/><circle cx="411.6" cy="156.9" r="0.89" fill="#FFFFFF" opacity="0.066"/><circle cx="629.0" cy="946.5" r="1.61" fill="#FFFFFF" opacity="0.078"/><circle cx="535.0" cy="1012.8" r="2.18" fill="#FFFFFF" opacity="0.063"/><circle cx="643.1" cy="936.3" r="1.78" fill="#FFFFFF" opacity="0.071"/><circle cx="8.0" cy="233.5" r="1.44" fill="#FFFFFF" opacity="0.074"/><circle cx="750.9" cy="781.7" r="1.30" fill="#FFFFFF" opacity="0.070"/><circle cx="130.9" cy="306.5" r="2.07" fill="#FFFFFF" opacity="0.041"/><circle cx="108.1" cy="415.2" r="0.65" fill="#FFFFFF" opacity="0.075"/><circle cx="220.4" cy="834.5" r="1.78" fill="#FFFFFF" opacity="0.035"/><circle cx="499.3" cy="672.2" r="1.51" fill="#FFFFFF" opacity="0.055"/><circle cx="296.1" cy="322.6" r="1.72" fill="#FFFFFF" opacity="0.073"/><circle cx="455.7" cy="910.6" r="0.67" fill="#FFFFFF" opacity="0.036"/><circle cx="48.2" cy="422.4" r="0.94" fill="#FFFFFF" opacity="0.059"/><circle cx="595.7" cy="388.9" r="1.12" fill="#FFFFFF" opacity="0.068"/><circle cx="38.0" cy="335.1" r="1.75" fill="#FFFFFF" opacity="0.049"/><circle cx="752.7" cy="896.8" r="0.98" fill="#FFFFFF" opacity="0.049"/><circle cx="483.2" cy="282.6" r="0.86" fill="#FFFFFF" opacity="0.064"/><circle cx="409.9" cy="519.8" r="1.34" fill="#FFFFFF" opacity="0.050"/><circle cx="51.9" cy="914.2" r="1.37" fill="#FFFFFF" opacity="0.055"/><circle cx="330.0" cy="428.8" r="0.77" fill="#FFFFFF" opacity="0.046"/><circle cx="657.3" cy="858.3" r="2.11" fill="#FFFFFF" opacity="0.069"/><circle cx="744.0" cy="197.6" r="1.88" fill="#FFFFFF" opacity="0.041"/><circle cx="309.8" cy="558.1" r="2.16" fill="#FFFFFF" opacity="0.074"/><circle cx="73.6" cy="80.5" r="1.04" fill="#FFFFFF" opacity="0.064"/><circle cx="330.7" cy="257.5" r="1.17" fill="#FFFFFF" opacity="0.053"/><circle cx="281.0" cy="81.4" r="1.26" fill="#FFFFFF" opacity="0.036"/><circle cx="341.6" cy="655.3" r="1.92" fill="#FFFFFF" opacity="0.070"/><circle cx="239.2" cy="863.7" r="1.77" fill="#FFFFFF" opacity="0.035"/><circle cx="31.2" cy="975.7" r="0.65" fill="#FFFFFF" opacity="0.035"/><circle cx="27.8" cy="251.7" r="2.15" fill="#FFFFFF" opacity="0.050"/><circle cx="232.4" cy="618.3" r="1.82" fill="#FFFFFF" opacity="0.062"/><circle cx="29.6" cy="106.4" r="2.00" fill="#FFFFFF" opacity="0.059"/><circle cx="622.1" cy="742.9" r="1.09" fill="#FFFFFF" opacity="0.054"/><circle cx="721.7" cy="461.4" r="2.09" fill="#FFFFFF" opacity="0.033"/><circle cx="679.0" cy="708.6" r="1.40" fill="#FFFFFF" opacity="0.052"/><circle cx="713.4" cy="378.7" r="1.15" fill="#FFFFFF" opacity="0.051"/><circle cx="407.8" cy="394.5" r="2.02" fill="#FFFFFF" opacity="0.035"/><circle cx="82.1" cy="83.7" r="1.39" fill="#FFFFFF" opacity="0.059"/><circle cx="259.5" cy="309.4" r="1.98" fill="#FFFFFF" opacity="0.055"/><circle cx="376.4" cy="294.7" r="1.76" fill="#FFFFFF" opacity="0.079"/><circle cx="421.2" cy="241.2" r="1.80" fill="#FFFFFF" opacity="0.063"/><circle cx="679.6" cy="877.9" r="1.66" fill="#FFFFFF" opacity="0.075"/><circle cx="756.5" cy="812.7" r="0.93" fill="#FFFFFF" opacity="0.041"/><circle cx="703.8" cy="688.4" r="1.37" fill="#FFFFFF" opacity="0.067"/><circle cx="606.8" cy="676.6" r="1.41" fill="#FFFFFF" opacity="0.070"/><circle cx="692.5" cy="122.2" r="0.89" fill="#FFFFFF" opacity="0.033"/><circle cx="475.4" cy="315.6" r="0.80" fill="#FFFFFF" opacity="0.076"/><circle cx="214.7" cy="21.0" r="1.59" fill="#FFFFFF" opacity="0.033"/><circle cx="663.4" cy="934.7" r="2.07" fill="#FFFFFF" opacity="0.053"/><circle cx="558.2" cy="404.9" r="2.13" fill="#FFFFFF" opacity="0.037"/><circle cx="606.1" cy="290.5" r="1.05" fill="#FFFFFF" opacity="0.047"/><circle cx="253.5" cy="653.1" r="0.61" fill="#FFFFFF" opacity="0.054"/><circle cx="274.9" cy="185.8" r="1.85" fill="#FFFFFF" opacity="0.057"/><circle cx="200.2" cy="173.2" r="1.79" fill="#FFFFFF" opacity="0.049"/><circle cx="706.4" cy="358.4" r="1.35" fill="#FFFFFF" opacity="0.037"/><circle cx="668.4" cy="647.3" r="2.08" fill="#FFFFFF" opacity="0.075"/><circle cx="140.9" cy="140.5" r="0.69" fill="#FFFFFF" opacity="0.060"/><circle cx="95.3" cy="186.5" r="1.48" fill="#FFFFFF" opacity="0.067"/><circle cx="437.4" cy="582.6" r="0.84" fill="#FFFFFF" opacity="0.075"/><circle cx="580.4" cy="964.5" r="1.36" fill="#FFFFFF" opacity="0.031"/><circle cx="127.3" cy="736.4" r="0.92" fill="#FFFFFF" opacity="0.073"/><circle cx="146.3" cy="1000.1" r="1.41" fill="#FFFFFF" opacity="0.045"/><circle cx="245.8" cy="738.5" r="2.15" fill="#FFFFFF" opacity="0.058"/><circle cx="464.3" cy="497.0" r="1.64" fill="#FFFFFF" opacity="0.054"/><circle cx="550.2" cy="79.0" r="1.19" fill="#FFFFFF" opacity="0.046"/><circle cx="206.8" cy="1014.1" r="1.24" fill="#FFFFFF" opacity="0.079"/><circle cx="119.4" cy="903.1" r="1.40" fill="#FFFFFF" opacity="0.037"/><circle cx="491.7" cy="271.8" r="2.00" fill="#FFFFFF" opacity="0.040"/><circle cx="218.5" cy="603.1" r="1.67" fill="#FFFFFF" opacity="0.059"/><circle cx="101.9" cy="887.4" r="1.35" fill="#FFFFFF" opacity="0.056"/><circle cx="513.0" cy="260.1" r="1.09" fill="#FFFFFF" opacity="0.072"/><circle cx="226.6" cy="212.1" r="1.84" fill="#FFFFFF" opacity="0.042"/><circle cx="47.8" cy="666.2" r="1.31" fill="#FFFFFF" opacity="0.069"/><circle cx="341.8" cy="588.1" r="1.29" fill="#FFFFFF" opacity="0.045"/><circle cx="598.1" cy="984.1" r="1.52" fill="#FFFFFF" opacity="0.040"/><circle cx="335.9" cy="597.5" r="1.57" fill="#FFFFFF" opacity="0.055"/><circle cx="516.2" cy="240.3" r="0.98" fill="#FFFFFF" opacity="0.031"/><circle cx="424.0" cy="817.5" r="1.11" fill="#FFFFFF" opacity="0.051"/><circle cx="278.7" cy="150.5" r="2.10" fill="#FFFFFF" opacity="0.067"/><circle cx="289.1" cy="175.0" r="0.68" fill="#FFFFFF" opacity="0.033"/><circle cx="146.9" cy="445.1" r="0.61" fill="#FFFFFF" opacity="0.064"/><circle cx="581.0" cy="82.9" r="1.89" fill="#FFFFFF" opacity="0.049"/><circle cx="490.6" cy="540.0" r="2.00" fill="#FFFFFF" opacity="0.061"/><circle cx="22.0" cy="436.6" r="1.21" fill="#FFFFFF" opacity="0.058"/><circle cx="390.3" cy="270.2" r="1.48" fill="#FFFFFF" opacity="0.077"/><circle cx="16.0" cy="199.5" r="0.82" fill="#FFFFFF" opacity="0.042"/><circle cx="712.0" cy="636.4" r="0.84" fill="#FFFFFF" opacity="0.034"/><circle cx="711.7" cy="887.3" r="0.97" fill="#FFFFFF" opacity="0.038"/><circle cx="568.1" cy="343.8" r="2.06" fill="#FFFFFF" opacity="0.043"/><circle cx="621.4" cy="1020.9" r="1.10" fill="#FFFFFF" opacity="0.072"/><circle cx="552.0" cy="113.0" r="1.91" fill="#FFFFFF" opacity="0.042"/><circle cx="340.2" cy="461.5" r="1.98" fill="#FFFFFF" opacity="0.032"/><circle cx="3.1" cy="896.4" r="1.73" fill="#FFFFFF" opacity="0.046"/><circle cx="195.8" cy="97.8" r="1.61" fill="#FFFFFF" opacity="0.035"/><circle cx="99.7" cy="192.1" r="1.86" fill="#FFFFFF" opacity="0.068"/><circle cx="49.6" cy="329.2" r="1.91" fill="#FFFFFF" opacity="0.072"/><circle cx="221.9" cy="278.3" r="0.64" fill="#FFFFFF" opacity="0.076"/><circle cx="732.0" cy="969.0" r="0.70" fill="#FFFFFF" opacity="0.067"/><circle cx="235.0" cy="893.9" r="0.95" fill="#FFFFFF" opacity="0.079"/><circle cx="241.7" cy="437.2" r="1.69" fill="#FFFFFF" opacity="0.039"/><circle cx="759.4" cy="386.6" r="0.94" fill="#FFFFFF" opacity="0.060"/><circle cx="257.0" cy="752.4" r="1.76" fill="#FFFFFF" opacity="0.074"/><circle cx="497.5" cy="541.1" r="0.89" fill="#FFFFFF" opacity="0.051"/><circle cx="452.9" cy="845.2" r="2.13" fill="#FFFFFF" opacity="0.035"/><circle cx="764.3" cy="526.2" r="1.69" fill="#FFFFFF" opacity="0.055"/><circle cx="430.0" cy="444.4" r="1.15" fill="#FFFFFF" opacity="0.062"/><circle cx="80.8" cy="977.8" r="1.09" fill="#FFFFFF" opacity="0.065"/><circle cx="186.8" cy="544.8" r="1.34" fill="#FFFFFF" opacity="0.074"/><circle cx="324.8" cy="435.5" r="1.71" fill="#FFFFFF" opacity="0.059"/><circle cx="583.9" cy="58.7" r="1.35" fill="#FFFFFF" opacity="0.072"/><circle cx="722.5" cy="770.0" r="1.12" fill="#FFFFFF" opacity="0.067"/><circle cx="57.4" cy="608.9" r="1.92" fill="#FFFFFF" opacity="0.032"/><circle cx="270.4" cy="23.7" r="1.13" fill="#FFFFFF" opacity="0.034"/><circle cx="171.3" cy="847.7" r="1.45" fill="#FFFFFF" opacity="0.041"/><circle cx="382.2" cy="342.6" r="1.26" fill="#FFFFFF" opacity="0.037"/><circle cx="307.0" cy="549.8" r="0.82" fill="#FFFFFF" opacity="0.030"/><circle cx="556.7" cy="615.5" r="0.88" fill="#FFFFFF" opacity="0.073"/><circle cx="320.5" cy="671.2" r="1.19" fill="#FFFFFF" opacity="0.058"/><circle cx="657.4" cy="516.3" r="1.78" fill="#FFFFFF" opacity="0.040"/><circle cx="462.9" cy="485.9" r="1.74" fill="#FFFFFF" opacity="0.079"/><circle cx="11.8" cy="677.8" r="0.97" fill="#FFFFFF" opacity="0.049"/><circle cx="261.2" cy="395.7" r="1.82" fill="#FFFFFF" opacity="0.057"/><circle cx="157.9" cy="332.5" r="1.79" fill="#FFFFFF" opacity="0.057"/><circle cx="610.2" cy="709.7" r="0.83" fill="#FFFFFF" opacity="0.051"/><circle cx="233.1" cy="322.5" r="2.00" fill="#FFFFFF" opacity="0.062"/><circle cx="465.9" cy="449.3" r="1.11" fill="#FFFFFF" opacity="0.030"/><circle cx="718.2" cy="148.5" r="1.45" fill="#FFFFFF" opacity="0.044"/><circle cx="219.0" cy="546.2" r="2.17" fill="#FFFFFF" opacity="0.033"/><circle cx="753.8" cy="830.1" r="1.05" fill="#FFFFFF" opacity="0.049"/><circle cx="333.6" cy="642.9" r="0.89" fill="#FFFFFF" opacity="0.067"/><circle cx="55.2" cy="964.5" r="1.14" fill="#FFFFFF" opacity="0.052"/><circle cx="282.1" cy="560.6" r="1.72" fill="#FFFFFF" opacity="0.055"/><circle cx="208.6" cy="617.8" r="2.11" fill="#FFFFFF" opacity="0.073"/><circle cx="306.9" cy="911.8" r="1.01" fill="#FFFFFF" opacity="0.074"/><circle cx="57.8" cy="540.0" r="1.58" fill="#FFFFFF" opacity="0.063"/><circle cx="591.1" cy="821.9" r="1.74" fill="#FFFFFF" opacity="0.046"/><circle cx="301.3" cy="346.1" r="1.44" fill="#FFFFFF" opacity="0.059"/><circle cx="164.5" cy="861.0" r="1.36" fill="#FFFFFF" opacity="0.040"/><circle cx="732.2" cy="934.0" r="1.53" fill="#FFFFFF" opacity="0.057"/><circle cx="615.2" cy="125.2" r="2.08" fill="#FFFFFF" opacity="0.032"/><circle cx="733.1" cy="323.0" r="1.09" fill="#FFFFFF" opacity="0.066"/><circle cx="436.5" cy="186.1" r="1.28" fill="#FFFFFF" opacity="0.058"/><circle cx="261.8" cy="243.1" r="1.54" fill="#FFFFFF" opacity="0.045"/><circle cx="459.3" cy="549.4" r="0.94" fill="#FFFFFF" opacity="0.076"/><circle cx="67.2" cy="619.0" r="1.35" fill="#FFFFFF" opacity="0.037"/><circle cx="435.7" cy="616.1" r="1.48" fill="#FFFFFF" opacity="0.051"/><circle cx="352.6" cy="217.2" r="1.20" fill="#FFFFFF" opacity="0.048"/><circle cx="362.1" cy="876.1" r="1.20" fill="#FFFFFF" opacity="0.037"/><circle cx="641.0" cy="621.7" r="1.72" fill="#FFFFFF" opacity="0.073"/><circle cx="644.0" cy="371.2" r="1.12" fill="#FFFFFF" opacity="0.062"/><circle cx="750.8" cy="685.1" r="2.05" fill="#FFFFFF" opacity="0.032"/><circle cx="296.1" cy="886.3" r="1.18" fill="#FFFFFF" opacity="0.035"/><circle cx="69.2" cy="976.1" r="2.03" fill="#FFFFFF" opacity="0.068"/><circle cx="456.5" cy="567.0" r="0.62" fill="#FFFFFF" opacity="0.065"/><circle cx="761.1" cy="919.7" r="0.83" fill="#FFFFFF" opacity="0.048"/><circle cx="208.2" cy="716.5" r="0.91" fill="#FFFFFF" opacity="0.049"/><circle cx="59.5" cy="128.1" r="1.43" fill="#FFFFFF" opacity="0.069"/><circle cx="10.0" cy="591.2" r="1.83" fill="#FFFFFF" opacity="0.046"/><circle cx="281.6" cy="735.9" r="0.94" fill="#FFFFFF" opacity="0.063"/><circle cx="240.0" cy="441.0" r="1.16" fill="#FFFFFF" opacity="0.037"/><circle cx="758.6" cy="394.7" r="1.03" fill="#FFFFFF" opacity="0.040"/><circle cx="300.8" cy="65.1" r="1.30" fill="#FFFFFF" opacity="0.075"/><circle cx="707.2" cy="41.1" r="0.84" fill="#FFFFFF" opacity="0.080"/><circle cx="373.2" cy="878.4" r="0.62" fill="#FFFFFF" opacity="0.072"/><circle cx="106.1" cy="232.7" r="1.11" fill="#FFFFFF" opacity="0.075"/><circle cx="161.4" cy="578.9" r="0.95" fill="#FFFFFF" opacity="0.060"/><circle cx="659.3" cy="812.9" r="1.05" fill="#FFFFFF" opacity="0.066"/><circle cx="453.0" cy="1015.4" r="0.87" fill="#FFFFFF" opacity="0.073"/><circle cx="693.5" cy="273.6" r="1.67" fill="#FFFFFF" opacity="0.053"/><circle cx="742.3" cy="896.2" r="1.09" fill="#FFFFFF" opacity="0.043"/><circle cx="658.7" cy="329.3" r="1.25" fill="#FFFFFF" opacity="0.058"/><circle cx="623.7" cy="83.9" r="0.78" fill="#FFFFFF" opacity="0.045"/><circle cx="455.3" cy="715.4" r="1.02" fill="#FFFFFF" opacity="0.052"/><circle cx="240.6" cy="353.6" r="1.77" fill="#FFFFFF" opacity="0.055"/><circle cx="578.2" cy="979.3" r="2.06" fill="#FFFFFF" opacity="0.063"/><circle cx="421.5" cy="408.7" r="0.84" fill="#FFFFFF" opacity="0.064"/><circle cx="180.7" cy="954.0" r="2.05" fill="#FFFFFF" opacity="0.043"/><circle cx="600.3" cy="875.5" r="0.80" fill="#FFFFFF" opacity="0.074"/><circle cx="29.1" cy="473.3" r="1.26" fill="#FFFFFF" opacity="0.080"/><circle cx="529.1" cy="1000.1" r="1.71" fill="#FFFFFF" opacity="0.049"/><circle cx="638.7" cy="82.0" r="2.13" fill="#FFFFFF" opacity="0.066"/><circle cx="216.9" cy="602.0" r="2.16" fill="#FFFFFF" opacity="0.049"/><circle cx="406.0" cy="873.1" r="0.85" fill="#FFFFFF" opacity="0.040"/><circle cx="765.2" cy="661.8" r="1.41" fill="#FFFFFF" opacity="0.041"/><circle cx="610.6" cy="280.1" r="1.51" fill="#FFFFFF" opacity="0.076"/><circle cx="646.4" cy="770.3" r="0.71" fill="#FFFFFF" opacity="0.074"/><circle cx="488.8" cy="636.9" r="0.79" fill="#FFFFFF" opacity="0.035"/><circle cx="205.8" cy="92.9" r="0.87" fill="#FFFFFF" opacity="0.071"/><circle cx="323.6" cy="397.5" r="0.86" fill="#FFFFFF" opacity="0.070"/><circle cx="490.3" cy="883.7" r="1.50" fill="#FFFFFF" opacity="0.033"/><circle cx="554.3" cy="471.9" r="2.10" fill="#FFFFFF" opacity="0.047"/><circle cx="685.6" cy="256.7" r="1.50" fill="#FFFFFF" opacity="0.045"/><circle cx="652.3" cy="128.8" r="0.65" fill="#FFFFFF" opacity="0.044"/><circle cx="147.6" cy="167.3" r="2.02" fill="#FFFFFF" opacity="0.057"/><circle cx="722.1" cy="433.6" r="0.87" fill="#FFFFFF" opacity="0.071"/><circle cx="127.1" cy="145.0" r="1.16" fill="#FFFFFF" opacity="0.063"/><circle cx="730.8" cy="923.6" r="1.16" fill="#FFFFFF" opacity="0.033"/><circle cx="452.8" cy="824.2" r="1.95" fill="#FFFFFF" opacity="0.064"/><circle cx="138.8" cy="54.1" r="1.42" fill="#FFFFFF" opacity="0.037"/><circle cx="11.4" cy="484.1" r="2.07" fill="#FFFFFF" opacity="0.078"/><circle cx="48.7" cy="485.8" r="1.92" fill="#FFFFFF" opacity="0.055"/><circle cx="367.8" cy="443.2" r="1.57" fill="#FFFFFF" opacity="0.074"/><circle cx="709.8" cy="331.0" r="2.10" fill="#FFFFFF" opacity="0.040"/><circle cx="102.1" cy="227.9" r="1.56" fill="#FFFFFF" opacity="0.030"/><circle cx="136.1" cy="808.2" r="1.47" fill="#FFFFFF" opacity="0.052"/><circle cx="137.1" cy="166.0" r="0.95" fill="#FFFFFF" opacity="0.054"/><circle cx="213.0" cy="795.1" r="1.72" fill="#FFFFFF" opacity="0.059"/><circle cx="28.7" cy="796.1" r="1.96" fill="#FFFFFF" opacity="0.030"/><circle cx="617.1" cy="664.1" r="1.91" fill="#FFFFFF" opacity="0.037"/><circle cx="711.7" cy="567.3" r="0.91" fill="#FFFFFF" opacity="0.076"/><circle cx="744.1" cy="723.7" r="1.45" fill="#FFFFFF" opacity="0.049"/><circle cx="663.4" cy="738.1" r="1.87" fill="#FFFFFF" opacity="0.038"/><circle cx="454.9" cy="379.8" r="1.43" fill="#FFFFFF" opacity="0.030"/><circle cx="759.6" cy="297.5" r="1.68" fill="#FFFFFF" opacity="0.061"/><circle cx="481.3" cy="6.2" r="1.19" fill="#FFFFFF" opacity="0.042"/><circle cx="663.5" cy="64.2" r="2.04" fill="#FFFFFF" opacity="0.053"/><circle cx="310.8" cy="487.0" r="0.66" fill="#FFFFFF" opacity="0.058"/><circle cx="296.7" cy="852.3" r="1.79" fill="#FFFFFF" opacity="0.077"/><circle cx="656.3" cy="873.0" r="1.02" fill="#FFFFFF" opacity="0.047"/><circle cx="179.6" cy="419.4" r="1.50" fill="#FFFFFF" opacity="0.071"/><circle cx="75.1" cy="285.7" r="1.24" fill="#FFFFFF" opacity="0.040"/><circle cx="750.8" cy="769.7" r="0.77" fill="#FFFFFF" opacity="0.066"/><circle cx="177.6" cy="750.3" r="0.92" fill="#FFFFFF" opacity="0.057"/><circle cx="714.3" cy="580.5" r="0.93" fill="#FFFFFF" opacity="0.049"/><circle cx="24.5" cy="941.3" r="1.94" fill="#FFFFFF" opacity="0.039"/><circle cx="177.7" cy="743.9" r="1.15" fill="#FFFFFF" opacity="0.056"/><circle cx="694.3" cy="370.2" r="0.76" fill="#FFFFFF" opacity="0.079"/><circle cx="364.2" cy="117.0" r="2.17" fill="#FFFFFF" opacity="0.041"/><circle cx="675.3" cy="594.6" r="0.77" fill="#FFFFFF" opacity="0.043"/><circle cx="372.8" cy="1003.6" r="1.57" fill="#FFFFFF" opacity="0.032"/><circle cx="339.8" cy="621.3" r="2.03" fill="#FFFFFF" opacity="0.060"/><circle cx="295.9" cy="742.4" r="0.66" fill="#FFFFFF" opacity="0.074"/><circle cx="750.9" cy="36.7" r="0.84" fill="#FFFFFF" opacity="0.058"/><circle cx="325.5" cy="899.1" r="1.96" fill="#FFFFFF" opacity="0.066"/><circle cx="629.1" cy="217.2" r="1.47" fill="#FFFFFF" opacity="0.045"/><circle cx="594.1" cy="209.8" r="1.67" fill="#FFFFFF" opacity="0.055"/><circle cx="213.7" cy="6.9" r="1.08" fill="#FFFFFF" opacity="0.071"/><circle cx="337.6" cy="312.9" r="0.86" fill="#FFFFFF" opacity="0.075"/><circle cx="222.5" cy="227.8" r="1.20" fill="#FFFFFF" opacity="0.073"/><circle cx="385.4" cy="462.6" r="2.01" fill="#FFFFFF" opacity="0.068"/><circle cx="474.0" cy="730.6" r="1.75" fill="#FFFFFF" opacity="0.048"/><circle cx="585.9" cy="852.9" r="2.15" fill="#FFFFFF" opacity="0.050"/><circle cx="588.1" cy="391.6" r="0.76" fill="#FFFFFF" opacity="0.034"/><circle cx="357.9" cy="541.2" r="1.70" fill="#FFFFFF" opacity="0.043"/><circle cx="164.9" cy="458.2" r="1.86" fill="#FFFFFF" opacity="0.037"/><circle cx="641.9" cy="142.4" r="1.80" fill="#FFFFFF" opacity="0.032"/><circle cx="161.9" cy="977.9" r="1.25" fill="#FFFFFF" opacity="0.063"/><circle cx="193.5" cy="134.1" r="1.11" fill="#FFFFFF" opacity="0.037"/><circle cx="60.8" cy="836.3" r="1.04" fill="#FFFFFF" opacity="0.037"/><circle cx="555.3" cy="469.1" r="1.98" fill="#FFFFFF" opacity="0.053"/><circle cx="467.3" cy="101.7" r="1.59" fill="#FFFFFF" opacity="0.046"/><circle cx="422.8" cy="1018.6" r="1.70" fill="#FFFFFF" opacity="0.063"/><circle cx="722.4" cy="433.4" r="0.84" fill="#FFFFFF" opacity="0.041"/><circle cx="328.6" cy="201.8" r="0.80" fill="#FFFFFF" opacity="0.037"/><circle cx="576.7" cy="647.1" r="2.02" fill="#FFFFFF" opacity="0.043"/><circle cx="398.7" cy="628.2" r="1.18" fill="#FFFFFF" opacity="0.075"/><circle cx="55.9" cy="71.2" r="1.36" fill="#FFFFFF" opacity="0.043"/><circle cx="116.3" cy="21.7" r="1.99" fill="#FFFFFF" opacity="0.034"/><circle cx="301.4" cy="285.3" r="0.82" fill="#FFFFFF" opacity="0.062"/><circle cx="428.4" cy="301.8" r="1.09" fill="#FFFFFF" opacity="0.031"/><circle cx="485.7" cy="809.8" r="1.75" fill="#FFFFFF" opacity="0.079"/><circle cx="292.1" cy="664.8" r="1.07" fill="#FFFFFF" opacity="0.047"/><circle cx="181.8" cy="878.1" r="1.83" fill="#FFFFFF" opacity="0.076"/><circle cx="445.4" cy="236.3" r="0.73" fill="#FFFFFF" opacity="0.051"/><circle cx="660.4" cy="542.4" r="0.88" fill="#FFFFFF" opacity="0.036"/><circle cx="422.8" cy="103.1" r="1.56" fill="#FFFFFF" opacity="0.073"/><circle cx="386.4" cy="670.5" r="0.63" fill="#FFFFFF" opacity="0.034"/><circle cx="766.9" cy="613.2" r="0.97" fill="#FFFFFF" opacity="0.047"/><circle cx="247.0" cy="710.3" r="0.76" fill="#FFFFFF" opacity="0.059"/><circle cx="66.7" cy="328.7" r="1.14" fill="#FFFFFF" opacity="0.046"/><circle cx="99.7" cy="276.1" r="1.53" fill="#FFFFFF" opacity="0.051"/><circle cx="396.8" cy="429.8" r="0.88" fill="#FFFFFF" opacity="0.071"/><circle cx="36.2" cy="166.0" r="1.03" fill="#FFFFFF" opacity="0.039"/><circle cx="514.3" cy="568.4" r="0.93" fill="#FFFFFF" opacity="0.066"/><circle cx="715.5" cy="358.1" r="0.65" fill="#FFFFFF" opacity="0.048"/><circle cx="516.9" cy="683.9" r="0.85" fill="#FFFFFF" opacity="0.061"/><circle cx="602.7" cy="1004.8" r="1.25" fill="#FFFFFF" opacity="0.041"/><circle cx="72.0" cy="222.3" r="1.56" fill="#FFFFFF" opacity="0.064"/><circle cx="608.4" cy="273.7" r="1.90" fill="#FFFFFF" opacity="0.031"/><circle cx="191.7" cy="167.3" r="2.09" fill="#FFFFFF" opacity="0.037"/><circle cx="747.7" cy="543.2" r="1.17" fill="#FFFFFF" opacity="0.059"/><circle cx="742.1" cy="92.6" r="2.14" fill="#FFFFFF" opacity="0.066"/><circle cx="323.7" cy="443.9" r="2.07" fill="#FFFFFF" opacity="0.078"/><circle cx="36.7" cy="32.4" r="2.10" fill="#FFFFFF" opacity="0.077"/><circle cx="563.5" cy="483.8" r="1.51" fill="#FFFFFF" opacity="0.048"/><circle cx="742.3" cy="251.0" r="0.68" fill="#FFFFFF" opacity="0.031"/><circle cx="306.2" cy="251.6" r="1.45" fill="#FFFFFF" opacity="0.051"/><circle cx="596.1" cy="1017.4" r="0.86" fill="#FFFFFF" opacity="0.079"/><circle cx="668.6" cy="178.0" r="2.01" fill="#FFFFFF" opacity="0.048"/><circle cx="37.1" cy="812.0" r="2.16" fill="#FFFFFF" opacity="0.073"/><circle cx="603.3" cy="47.0" r="0.89" fill="#FFFFFF" opacity="0.051"/><circle cx="315.4" cy="331.6" r="0.65" fill="#FFFFFF" opacity="0.031"/><circle cx="149.3" cy="54.3" r="0.74" fill="#FFFFFF" opacity="0.072"/><circle cx="297.2" cy="738.3" r="0.72" fill="#FFFFFF" opacity="0.060"/><circle cx="4.9" cy="193.0" r="2.18" fill="#FFFFFF" opacity="0.044"/><circle cx="254.7" cy="47.9" r="0.70" fill="#FFFFFF" opacity="0.042"/><circle cx="760.3" cy="959.7" r="1.75" fill="#FFFFFF" opacity="0.074"/><circle cx="25.9" cy="917.4" r="1.56" fill="#FFFFFF" opacity="0.040"/><circle cx="169.9" cy="237.7" r="1.60" fill="#FFFFFF" opacity="0.043"/><circle cx="765.1" cy="50.8" r="1.41" fill="#FFFFFF" opacity="0.061"/><circle cx="217.8" cy="612.7" r="0.77" fill="#FFFFFF" opacity="0.065"/><circle cx="474.6" cy="1010.5" r="0.99" fill="#FFFFFF" opacity="0.049"/><circle cx="666.9" cy="761.9" r="1.69" fill="#FFFFFF" opacity="0.038"/><circle cx="502.5" cy="837.6" r="1.76" fill="#FFFFFF" opacity="0.067"/><circle cx="19.5" cy="207.0" r="0.78" fill="#FFFFFF" opacity="0.071"/></g>
<rect x="30" y="30" width="708" height="964" rx="26" fill="none" stroke="#F0C766" stroke-width="2" opacity="0.85"/><rect x="42" y="42" width="684" height="940" rx="20" fill="none" stroke="#F0C766" stroke-width="0.8" opacity="0.35"/>
</svg>