<svg xmlns="http://www.w3.org/2000/svg" width="768" height="1024" viewBox="0 0 768 1024" role="img" aria-label="Original Tome vector cover for Pride and Prejudice: overlapping circles, a ribbon curve, and a small letter on warm cream with garden-green accents.">
<rect width="768" height="1024" fill="#F4EBDD"/><circle cx="130" cy="860" r="6" fill="#5E7D4F" opacity="0.6"/><circle cx="230" cy="860" r="6" fill="#5E7D4F" opacity="0.6"/><circle cx="330" cy="860" r="6" fill="#5E7D4F" opacity="0.6"/><circle cx="430" cy="860" r="6" fill="#5E7D4F" opacity="0.6"/><circle cx="530" cy="860" r="6" fill="#5E7D4F" opacity="0.6"/><circle cx="630" cy="860" r="6" fill="#5E7D4F" opacity="0.6"/><circle cx="300" cy="360" r="150" fill="none" stroke="#5E7D4F" stroke-width="7"/><circle cx="450" cy="360" r="150" fill="none" stroke="#8C6A4F" stroke-width="7"/><circle cx="375" cy="490" r="150" fill="none" stroke="#D9A94E" stroke-width="7"/><circle cx="375" cy="416" r="12" fill="#3A2E2A"/><path d="M 120 700 Q 300 620 420 700 T 660 660" fill="none" stroke="#5E7D4F" stroke-width="12" stroke-linecap="round"/><path d="M 120 740 Q 300 660 420 740 T 660 700" fill="none" stroke="#D9A94E" stroke-width="6" stroke-linecap="round" opacity="0.8"/><rect x="309" y="560" width="150" height="104" rx="10" fill="#FBF6EC" stroke="#3A2E2A" stroke-width="3"/><path d="M 309 570 L 384 626 L 459 570" fill="none" stroke="#3A2E2A" stroke-width="3"/><circle cx="384" cy="616" r="13" fill="#5E7D4F"/>
<g><circle cx="445.5" cy="214.3" r="0.78" fill="#3A2E2A" opacity="0.074"/><circle cx="652.3" cy="444.2" r="2.06" fill="#3A2E2A" opacity="0.040"/><circle cx="622.2" cy="607.5" r="0.94" fill="#3A2E2A" opacity="0.035"/><circle cx="642.1" cy="717.8" r="1.58" fill="#3A2E2A" opacity="0.037"/><circle cx="624.6" cy="486.1" r="1.79" fill="#3A2E2A" opacity="0.053"/><circle cx="668.3" cy="890.6" r="1.31" fill="#3A2E2A" opacity="0.036"/><circle cx="55.6" cy="310.9" r="2.17" fill="#3A2E2A" opacity="0.044"/><circle cx="458.8" cy="546.2" r="1.03" fill="#3A2E2A" opacity="0.055"/><circle cx="90.3" cy="12.4" r="1.92" fill="#3A2E2A" opacity="0.059"/><circle cx="120.9" cy="206.0" r="2.06" fill="#3A2E2A" opacity="0.033"/><circle cx="302.0" cy="132.9" r="1.85" fill="#3A2E2A" opacity="0.039"/><circle cx="589.3" cy="416.5" r="2.04" fill="#3A2E2A" opacity="0.043"/><circle cx="119.6" cy="294.9" r="1.79" fill="#3A2E2A" opacity="0.042"/><circle cx="568.5" cy="814.7" r="1.10" fill="#3A2E2A" opacity="0.061"/><circle cx="494.1" cy="879.2" r="2.12" fill="#3A2E2A" opacity="0.075"/><circle cx="357.1" cy="505.0" r="1.11" fill="#3A2E2A" opacity="0.054"/><circle cx="444.5" cy="26.6" r="1.43" fill="#3A2E2A" opacity="0.057"/><circle cx="27.2" cy="240.7" r="1.74" fill="#3A2E2A" opacity="0.056"/><circle cx="463.6" cy="358.6" r="1.40" fill="#3A2E2A" opacity="0.069"/><circle cx="42.6" cy="884.1" r="0.66" fill="#3A2E2A" opacity="0.043"/><circle cx="703.9" cy="945.8" r="1.03" fill="#3A2E2A" opacity="0.070"/><circle cx="528.3" cy="316.0" r="1.08" fill="#3A2E2A" opacity="0.032"/><circle cx="60.3" cy="859.1" r="1.69" fill="#3A2E2A" opacity="0.063"/><circle cx="357.8" cy="927.9" r="1.64" fill="#3A2E2A" opacity="0.059"/><circle cx="114.6" cy="354.1" r="0.97" fill="#3A2E2A" opacity="0.054"/><circle cx="475.4" cy="581.7" r="1.11" fill="#3A2E2A" opacity="0.071"/><circle cx="743.9" cy="670.6" r="2.14" fill="#3A2E2A" opacity="0.050"/><circle cx="41.4" cy="207.0" r="1.12" fill="#3A2E2A" opacity="0.037"/><circle cx="64.5" cy="483.0" r="0.68" fill="#3A2E2A" opacity="0.049"/><circle cx="529.7" cy="467.3" r="1.85" fill="#3A2E2A" opacity="0.050"/><circle cx="286.2" cy="768.8" r="1.80" fill="#3A2E2A" opacity="0.032"/><circle cx="321.6" cy="599.5" r="1.15" fill="#3A2E2A" opacity="0.035"/><circle cx="155.6" cy="510.9" r="1.35" fill="#3A2E2A" opacity="0.039"/><circle cx="0.7" cy="762.3" r="1.05" fill="#3A2E2A" opacity="0.049"/><circle cx="481.7" cy="977.7" r="2.03" fill="#3A2E2A" opacity="0.075"/><circle cx="352.9" cy="589.4" r="0.82" fill="#3A2E2A" opacity="0.063"/><circle cx="623.3" cy="220.1" r="2.08" fill="#3A2E2A" opacity="0.078"/><circle cx="23.2" cy="181.7" r="1.22" fill="#3A2E2A" opacity="0.080"/><circle cx="379.3" cy="658.4" r="1.63" fill="#3A2E2A" opacity="0.073"/><circle cx="629.6" cy="712.3" r="1.99" fill="#3A2E2A" opacity="0.051"/><circle cx="714.4" cy="484.8" r="1.93" fill="#3A2E2A" opacity="0.067"/><circle cx="362.3" cy="716.3" r="0.89" fill="#3A2E2A" opacity="0.069"/><circle cx="444.6" cy="436.4" r="0.71" fill="#3A2E2A" opacity="0.031"/><circle cx="701.8" cy="561.0" r="1.39" fill="#3A2E2A" opacity="0.033"/><circle cx="443.2" cy="471.4" r="1.59" fill="#3A2E2A" opacity="0.041"/><circle cx="474.9" cy="164.6" r="0.67" fill="#3A2E2A" opacity="0.076"/><circle cx="244.0" cy="721.9" r="2.13" fill="#3A2E2A" opacity="0.078"/><circle cx="415.0" cy="275.2" r="1.22" fill="#3A2E2A" opacity="0.063"/><circle cx="468.0" cy="559.2" r="1.56" fill="#3A2E2A" opacity="0.060"/><circle cx="6.2" cy="15.7" r="1.88" fill="#3A2E2A" opacity="0.044"/><circle cx="557.4" cy="25.6" r="1.10" fill="#3A2E2A" opacity="0.044"/><circle cx="623.2" cy="813.6" r="2.15" fill="#3A2E2A" opacity="0.052"/><circle cx="160.9" cy="130.6" r="1.06" fill="#3A2E2A" opacity="0.037"/><circle cx="589.3" cy="145.1" r="0.61" fill="#3A2E2A" opacity="0.036"/><circle cx="334.2" cy="306.0" r="1.86" fill="#3A2E2A" opacity="0.057"/><circle cx="11.8" cy="476.8" r="0.87" fill="#3A2E2A" opacity="0.041"/><circle cx="127.6" cy="54.7" r="0.92" fill="#3A2E2A" opacity="0.055"/><circle cx="294.4" cy="886.2" r="1.22" fill="#3A2E2A" opacity="0.031"/><circle cx="596.6" cy="928.7" r="0.88" fill="#3A2E2A" opacity="0.033"/><circle cx="759.1" cy="586.5" r="1.77" fill="#3A2E2A" opacity="0.075"/><circle cx="244.2" cy="74.5" r="1.12" fill="#3A2E2A" opacity="0.075"/><circle cx="683.5" cy="301.4" r="1.30" fill="#3A2E2A" opacity="0.079"/><circle cx="221.5" cy="323.9" r="1.22" fill="#3A2E2A" opacity="0.055"/><circle cx="541.2" cy="783.5" r="1.11" fill="#3A2E2A" opacity="0.059"/><circle cx="550.0" cy="1015.0" r="1.48" fill="#3A2E2A" opacity="0.066"/><circle cx="30.7" cy="343.1" r="0.85" fill="#3A2E2A" opacity="0.064"/><circle cx="516.2" cy="842.5" r="1.67" fill="#3A2E2A" opacity="0.047"/><circle cx="193.5" cy="937.5" r="1.02" fill="#3A2E2A" opacity="0.051"/><circle cx="713.7" cy="727.6" r="0.74" fill="#3A2E2A" opacity="0.060"/><circle cx="205.4" cy="468.6" r="1.44" fill="#3A2E2A" opacity="0.035"/><circle cx="461.8" cy="481.6" r="0.87" fill="#3A2E2A" opacity="0.067"/><circle cx="56.7" cy="628.3" r="2.16" fill="#3A2E2A" opacity="0.032"/><circle cx="567.1" cy="183.9" r="1.50" fill="#3A2E2A" opacity="0.080"/><circle cx="746.4" cy="243.7" r="1.89" fill="#3A2E2A" opacity="0.051"/><circle cx="369.5" cy="94.5" r="2.10" fill="#3A2E2A" opacity="0.035"/><circle cx="458.0" cy="617.1" r="1.65" fill="#3A2E2A" opacity="0.045"/><circle cx="203.6" cy="964.2" r="1.19" fill="#3A2E2A" opacity="0.041"/><circle cx="125.2" cy="915.7" r="1.21" fill="#3A2E2A" opacity="0.042"/><circle cx="664.7" cy="398.8" r="1.79" fill="#3A2E2A" opacity="0.054"/><circle cx="354.6" cy="359.3" r="1.59" fill="#3A2E2A" opacity="0.044"/><circle cx="53.2" cy="923.0" r="1.85" fill="#3A2E2A" opacity="0.042"/><circle cx="413.7" cy="501.0" r="1.30" fill="#3A2E2A" opacity="0.056"/><circle cx="176.3" cy="48.6" r="1.90" fill="#3A2E2A" opacity="0.035"/><circle cx="396.4" cy="197.6" r="1.24" fill="#3A2E2A" opacity="0.074"/><circle cx="739.7" cy="1008.5" r="0.73" fill="#3A2E2A" opacity="0.073"/><circle cx="273.9" cy="328.8" r="2.08" fill="#3A2E2A" opacity="0.060"/><circle cx="684.6" cy="918.4" r="2.00" fill="#3A2E2A" opacity="0.059"/><circle cx="610.6" cy="945.5" r="1.82" fill="#3A2E2A" opacity="0.078"/><circle cx="108.9" cy="556.2" r="0.72" fill="#3A2E2A" opacity="0.073"/><circle cx="398.8" cy="838.9" r="2.00" fill="#3A2E2A" opacity="0.040"/><circle cx="23.4" cy="624.5" r="2.09" fill="#3A2E2A" opacity="0.051"/><circle cx="520.8" cy="882.3" r="1.95" fill="#3A2E2A" opacity="0.035"/><circle cx="437.7" cy="501.4" r="1.79" fill="#3A2E2A" opacity="0.069"/><circle cx="693.5" cy="785.7" r="0.94" fill="#3A2E2A" opacity="0.041"/><circle cx="349.2" cy="40.5" r="2.12" fill="#3A2E2A" opacity="0.051"/><circle cx="235.5" cy="845.5" r="1.72" fill="#3A2E2A" opacity="0.076"/><circle cx="338.2" cy="680.4" r="1.34" fill="#3A2E2A" opacity="0.040"/><circle cx="154.8" cy="667.5" r="1.77" fill="#3A2E2A" opacity="0.074"/><circle cx="216.4" cy="740.8" r="0.70" fill="#3A2E2A" opacity="0.060"/><circle cx="438.4" cy="980.5" r="0.76" fill="#3A2E2A" opacity="0.048"/><circle cx="294.8" cy="165.9" r="0.90" fill="#3A2E2A" opacity="0.034"/><circle cx="296.0" cy="111.9" r="1.49" fill="#3A2E2A" opacity="0.075"/><circle cx="170.4" cy="482.8" r="0.84" fill="#3A2E2A" opacity="0.073"/><circle cx="379.1" cy="951.4" r="1.70" fill="#3A2E2A" opacity="0.047"/><circle cx="680.5" cy="649.8" r="1.02" fill="#3A2E2A" opacity="0.036"/><circle cx="405.4" cy="107.9" r="1.62" fill="#3A2E2A" opacity="0.064"/><circle cx="196.7" cy="601.2" r="1.86" fill="#3A2E2A" opacity="0.062"/><circle cx="479.6" cy="942.3" r="1.58" fill="#3A2E2A" opacity="0.055"/><circle cx="411.7" cy="734.8" r="1.80" fill="#3A2E2A" opacity="0.040"/><circle cx="655.9" cy="790.5" r="0.62" fill="#3A2E2A" opacity="0.043"/><circle cx="484.7" cy="207.6" r="1.41" fill="#3A2E2A" opacity="0.080"/><circle cx="436.8" cy="318.4" r="0.68" fill="#3A2E2A" opacity="0.038"/><circle cx="696.4" cy="734.4" r="1.94" fill="#3A2E2A" opacity="0.067"/><circle cx="214.9" cy="47.0" r="1.91" fill="#3A2E2A" opacity="0.071"/><circle cx="659.5" cy="93.3" r="0.81" fill="#3A2E2A" opacity="0.039"/><circle cx="199.4" cy="475.0" r="0.90" fill="#3A2E2A" opacity="0.071"/><circle cx="92.2" cy="14.5" r="1.51" fill="#3A2E2A" opacity="0.074"/><circle cx="242.3" cy="214.5" r="0.79" fill="#3A2E2A" opacity="0.053"/><circle cx="383.1" cy="319.5" r="1.75" fill="#3A2E2A" opacity="0.034"/><circle cx="746.6" cy="714.2" r="1.19" fill="#3A2E2A" opacity="0.063"/><circle cx="761.8" cy="659.5" r="1.71" fill="#3A2E2A" opacity="0.035"/><circle cx="105.1" cy="946.3" r="2.19" fill="#3A2E2A" opacity="0.050"/><circle cx="136.9" cy="882.5" r="1.09" fill="#3A2E2A" opacity="0.054"/><circle cx="710.7" cy="437.5" r="0.88" fill="#3A2E2A" opacity="0.071"/><circle cx="330.1" cy="361.4" r="1.14" fill="#3A2E2A" opacity="0.075"/><circle cx="706.4" cy="210.5" r="2.02" fill="#3A2E2A" opacity="0.045"/><circle cx="200.7" cy="19.1" r="0.89" fill="#3A2E2A" opacity="0.077"/><circle cx="103.0" cy="265.2" r="1.64" fill="#3A2E2A" opacity="0.031"/><circle cx="532.3" cy="592.1" r="1.94" fill="#3A2E2A" opacity="0.041"/><circle cx="470.1" cy="485.0" r="2.15" fill="#3A2E2A" opacity="0.069"/><circle cx="348.5" cy="0.9" r="2.07" fill="#3A2E2A" opacity="0.045"/><circle cx="140.3" cy="1023.3" r="1.31" fill="#3A2E2A" opacity="0.043"/><circle cx="12.5" cy="535.6" r="1.00" fill="#3A2E2A" opacity="0.037"/><circle cx="95.4" cy="772.4" r="0.61" fill="#3A2E2A" opacity="0.049"/><circle cx="718.9" cy="469.4" r="1.91" fill="#3A2E2A" opacity="0.041"/><circle cx="487.0" cy="59.8" r="0.88" fill="#3A2E2A" opacity="0.044"/><circle cx="267.7" cy="116.4" r="1.73" fill="#3A2E2A" opacity="0.072"/><circle cx="627.4" cy="764.9" r="1.65" fill="#3A2E2A" opacity="0.043"/><circle cx="425.4" cy="841.7" r="1.91" fill="#3A2E2A" opacity="0.062"/><circle cx="607.0" cy="450.7" r="1.89" fill="#3A2E2A" opacity="0.069"/><circle cx="322.9" cy="925.2" r="1.21" fill="#3A2E2A" opacity="0.032"/><circle cx="138.7" cy="924.2" r="1.64" fill="#3A2E2A" opacity="0.051"/><circle cx="99.6" cy="1021.7" r="2.17" fill="#3A2E2A" opacity="0.038"/><circle cx="32.8" cy="915.4" r="1.56" fill="#3A2E2A" opacity="0.071"/><circle cx="675.0" cy="535.5" r="2.01" fill="#3A2E2A" opacity="0.057"/><circle cx="547.9" cy="711.6" r="1.12" fill="#3A2E2A" opacity="0.031"/><circle cx="102.4" cy="345.8" r="0.78" fill="#3A2E2A" opacity="0.079"/><circle cx="435.0" cy="207.2" r="2.14" fill="#3A2E2A" opacity="0.053"/><circle cx="194.8" cy="467.2" r="0.83" fill="#3A2E2A" opacity="0.069"/><circle cx="667.9" cy="233.1" r="2.07" fill="#3A2E2A" opacity="0.055"/><circle cx="576.8" cy="962.4" r="1.60" fill="#3A2E2A" opacity="0.073"/><circle cx="79.0" cy="317.0" r="1.38" fill="#3A2E2A" opacity="0.035"/><circle cx="686.6" cy="264.1" r="1.82" fill="#3A2E2A" opacity="0.061"/><circle cx="206.8" cy="501.2" r="2.05" fill="#3A2E2A" opacity="0.067"/><circle cx="154.3" cy="258.3" r="1.47" fill="#3A2E2A" opacity="0.074"/><circle cx="334.6" cy="149.8" r="0.94" fill="#3A2E2A" opacity="0.054"/><circle cx="378.1" cy="137.0" r="1.81" fill="#3A2E2A" opacity="0.066"/><circle cx="761.5" cy="827.6" r="1.18" fill="#3A2E2A" opacity="0.080"/><circle cx="345.6" cy="216.0" r="0.85" fill="#3A2E2A" opacity="0.044"/><circle cx="290.3" cy="237.3" r="0.76" fill="#3A2E2A" opacity="0.075"/><circle cx="150.7" cy="548.7" r="1.11" fill="#3A2E2A" opacity="0.047"/><circle cx="575.4" cy="573.6" r="0.74" fill="#3A2E2A" opacity="0.034"/><circle cx="605.7" cy="998.3" r="1.07" fill="#3A2E2A" opacity="0.053"/><circle cx="707.3" cy="477.2" r="2.00" fill="#3A2E2A" opacity="0.055"/><circle cx="602.1" cy="168.9" r="2.06" fill="#3A2E2A" opacity="0.077"/><circle cx="447.9" cy="90.5" r="1.47" fill="#3A2E2A" opacity="0.078"/><circle cx="453.7" cy="927.5" r="1.35" fill="#3A2E2A" opacity="0.077"/><circle cx="681.9" cy="417.9" r="0.86" fill="#3A2E2A" opacity="0.041"/><circle cx="356.0" cy="726.8" r="0.62" fill="#3A2E2A" opacity="0.055"/><circle cx="268.2" cy="917.0" r="0.66" fill="#3A2E2A" opacity="0.063"/><circle cx="183.8" cy="282.9" r="1.20" fill="#3A2E2A" opacity="0.077"/><circle cx="336.4" cy="484.6" r="1.43" fill="#3A2E2A" opacity="0.070"/><circle cx="85.6" cy="461.3" r="0.91" fill="#3A2E2A" opacity="0.044"/><circle cx="501.2" cy="798.9" r="0.87" fill="#3A2E2A" opacity="0.057"/><circle cx="329.3" cy="456.6" r="1.04" fill="#3A2E2A" opacity="0.063"/><circle cx="654.5" cy="113.6" r="1.56" fill="#3A2E2A" opacity="0.046"/><circle cx="401.9" cy="88.8" r="1.01" fill="#3A2E2A" opacity="0.077"/><circle cx="695.1" cy="592.6" r="1.47" fill="#3A2E2A" opacity="0.072"/><circle cx="123.1" cy="695.1" r="0.91" fill="#3A2E2A" opacity="0.044"/><circle cx="663.6" cy="3.7" r="1.36" fill="#3A2E2A" opacity="0.069"/><circle cx="438.7" cy="454.9" r="1.40" fill="#3A2E2A" opacity="0.069"/><circle cx="354.3" cy="924.1" r="1.32" fill="#3A2E2A" opacity="0.067"/><circle cx="165.4" cy="796.0" r="2.05" fill="#3A2E2A" opacity="0.065"/><circle cx="492.2" cy="588.5" r="1.90" fill="#3A2E2A" opacity="0.074"/><circle cx="348.1" cy="443.4" r="2.05" fill="#3A2E2A" opacity="0.064"/><circle cx="547.2" cy="976.0" r="1.67" fill="#3A2E2A" opacity="0.037"/><circle cx="547.0" cy="417.2" r="0.74" fill="#3A2E2A" opacity="0.036"/><circle cx="677.8" cy="743.0" r="0.85" fill="#3A2E2A" opacity="0.076"/><circle cx="488.3" cy="979.3" r="0.92" fill="#3A2E2A" opacity="0.055"/><circle cx="48.3" cy="368.4" r="0.77" fill="#3A2E2A" opacity="0.042"/><circle cx="360.0" cy="884.0" r="0.63" fill="#3A2E2A" opacity="0.068"/><circle cx="351.8" cy="644.4" r="1.03" fill="#3A2E2A" opacity="0.056"/><circle cx="341.8" cy="665.1" r="1.37" fill="#3A2E2A" opacity="0.057"/><circle cx="724.5" cy="558.4" r="1.60" fill="#3A2E2A" opacity="0.061"/><circle cx="256.2" cy="3.3" r="1.46" fill="#3A2E2A" opacity="0.053"/><circle cx="49.7" cy="254.1" r="1.21" fill="#3A2E2A" opacity="0.064"/><circle cx="359.8" cy="4.7" r="1.00" fill="#3A2E2A" opacity="0.073"/><circle cx="532.2" cy="506.6" r="1.64" fill="#3A2E2A" opacity="0.035"/><circle cx="663.3" cy="289.6" r="1.94" fill="#3A2E2A" opacity="0.063"/><circle cx="104.2" cy="543.6" r="1.65" fill="#3A2E2A" opacity="0.051"/><circle cx="670.6" cy="1014.3" r="1.70" fill="#3A2E2A" opacity="0.043"/><circle cx="665.9" cy="300.5" r="1.74" fill="#3A2E2A" opacity="0.056"/><circle cx="123.5" cy="733.8" r="2.09" fill="#3A2E2A" opacity="0.055"/><circle cx="518.9" cy="937.2" r="1.27" fill="#3A2E2A" opacity="0.069"/><circle cx="181.8" cy="355.4" r="0.66" fill="#3A2E2A" opacity="0.078"/><circle cx="449.1" cy="91.6" r="1.88" fill="#3A2E2A" opacity="0.036"/><circle cx="592.3" cy="31.4" r="1.86" fill="#3A2E2A" opacity="0.031"/><circle cx="231.1" cy="689.6" r="2.12" fill="#3A2E2A" opacity="0.050"/><circle cx="359.9" cy="204.3" r="0.90" fill="#3A2E2A" opacity="0.036"/><circle cx="625.3" cy="557.3" r="0.82" fill="#3A2E2A" opacity="0.069"/><circle cx="646.1" cy="750.7" r="2.19" fill="#3A2E2A" opacity="0.053"/><circle cx="350.8" cy="113.1" r="0.79" fill="#3A2E2A" opacity="0.073"/><circle cx="549.4" cy="382.8" r="0.68" fill="#3A2E2A" opacity="0.061"/><circle cx="104.9" cy="751.9" r="1.58" fill="#3A2E2A" opacity="0.046"/><circle cx="245.7" cy="517.5" r="1.65" fill="#3A2E2A" opacity="0.042"/><circle cx="602.5" cy="101.9" r="1.11" fill="#3A2E2A" opacity="0.069"/><circle cx="421.7" cy="1010.8" r="0.96" fill="#3A2E2A" opacity="0.044"/><circle cx="302.3" cy="590.1" r="1.38" fill="#3A2E2A" opacity="0.059"/><circle cx="411.4" cy="244.1" r="1.61" fill="#3A2E2A" opacity="0.057"/><circle cx="51.5" cy="998.2" r="0.89" fill="#3A2E2A" opacity="0.075"/><circle cx="454.1" cy="396.0" r="1.23" fill="#3A2E2A" opacity="0.038"/><circle cx="492.5" cy="812.4" r="2.19" fill="#3A2E2A" opacity="0.074"/><circle cx="539.0" cy="351.7" r="1.73" fill="#3A2E2A" opacity="0.065"/><circle cx="337.7" cy="380.2" r="0.78" fill="#3A2E2A" opacity="0.042"/><circle cx="227.6" cy="542.2" r="1.41" fill="#3A2E2A" opacity="0.079"/><circle cx="685.4" cy="176.8" r="0.86" fill="#3A2E2A" opacity="0.051"/><circle cx="512.0" cy="766.0" r="1.81" fill="#3A2E2A" opacity="0.060"/><circle cx="99.9" cy="699.8" r="1.25" fill="#3A2E2A" opacity="0.079"/><circle cx="42.2" cy="160.8" r="2.04" fill="#3A2E2A" opacity="0.062"/><circle cx="99.5" cy="307.7" r="2.11" fill="#3A2E2A" opacity="0.033"/><circle cx="685.7" cy="658.5" r="2.17" fill="#3A2E2A" opacity="0.053"/><circle cx="535.6" cy="649.6" r="1.09" fill="#3A2E2A" opacity="0.051"/><circle cx="690.7" cy="290.5" r="1.21" fill="#3A2E2A" opacity="0.070"/><circle cx="125.7" cy="643.9" r="1.40" fill="#3A2E2A" opacity="0.068"/><circle cx="128.0" cy="253.3" r="1.54" fill="#3A2E2A" opacity="0.063"/><circle cx="386.2" cy="512.9" r="1.95" fill="#3A2E2A" opacity="0.051"/><circle cx="449.2" cy="270.9" r="2.17" fill="#3A2E2A" opacity="0.035"/><circle cx="4.4" cy="341.6" r="1.44" fill="#3A2E2A" opacity="0.030"/><circle cx="265.7" cy="121.8" r="0.95" fill="#3A2E2A" opacity="0.034"/><circle cx="292.1" cy="28.1" r="1.30" fill="#3A2E2A" opacity="0.062"/><circle cx="342.4" cy="802.6" r="0.82" fill="#3A2E2A" opacity="0.067"/><circle cx="562.8" cy="22.8" r="2.17" fill="#3A2E2A" opacity="0.041"/><circle cx="61.6" cy="160.5" r="0.81" fill="#3A2E2A" opacity="0.071"/><circle cx="562.4" cy="622.1" r="1.66" fill="#3A2E2A" opacity="0.046"/><circle cx="465.1" cy="689.6" r="2.16" fill="#3A2E2A" opacity="0.033"/><circle cx="9.5" cy="623.6" r="0.95" fill="#3A2E2A" opacity="0.060"/><circle cx="25.1" cy="870.5" r="1.73" fill="#3A2E2A" opacity="0.075"/><circle cx="247.6" cy="1022.9" r="0.73" fill="#3A2E2A" opacity="0.034"/><circle cx="727.9" cy="968.6" r="0.97" fill="#3A2E2A" opacity="0.050"/><circle cx="209.3" cy="1017.9" r="1.77" fill="#3A2E2A" opacity="0.079"/><circle cx="559.0" cy="796.2" r="1.83" fill="#3A2E2A" opacity="0.050"/><circle cx="763.5" cy="579.9" r="1.37" fill="#3A2E2A" opacity="0.080"/><circle cx="525.4" cy="548.0" r="2.10" fill="#3A2E2A" opacity="0.061"/><circle cx="59.6" cy="990.7" r="0.76" fill="#3A2E2A" opacity="0.040"/><circle cx="393.9" cy="787.7" r="1.43" fill="#3A2E2A" opacity="0.051"/><circle cx="606.8" cy="949.6" r="2.08" fill="#3A2E2A" opacity="0.059"/><circle cx="171.2" cy="190.7" r="1.60" fill="#3A2E2A" opacity="0.057"/><circle cx="407.7" cy="834.5" r="1.87" fill="#3A2E2A" opacity="0.048"/><circle cx="355.1" cy="886.3" r="1.02" fill="#3A2E2A" opacity="0.033"/><circle cx="596.7" cy="243.8" r="1.23" fill="#3A2E2A" opacity="0.061"/><circle cx="482.8" cy="577.8" r="1.84" fill="#3A2E2A" opacity="0.059"/><circle cx="499.8" cy="829.7" r="1.97" fill="#3A2E2A" opacity="0.042"/><circle cx="658.6" cy="24.7" r="2.10" fill="#3A2E2A" opacity="0.072"/><circle cx="738.7" cy="569.9" r="1.05" fill="#3A2E2A" opacity="0.060"/><circle cx="693.1" cy="63.3" r="1.50" fill="#3A2E2A" opacity="0.054"/><circle cx="365.3" cy="256.1" r="0.75" fill="#3A2E2A" opacity="0.070"/><circle cx="121.2" cy="919.8" r="0.99" fill="#3A2E2A" opacity="0.064"/><circle cx="239.6" cy="528.2" r="1.51" fill="#3A2E2A" opacity="0.070"/><circle cx="707.4" cy="514.0" r="1.43" fill="#3A2E2A" opacity="0.066"/><circle cx="255.3" cy="626.8" r="2.07" fill="#3A2E2A" opacity="0.042"/><circle cx="109.8" cy="709.2" r="2.07" fill="#3A2E2A" opacity="0.061"/><circle cx="359.4" cy="159.3" r="0.73" fill="#3A2E2A" opacity="0.079"/><circle cx="714.6" cy="978.2" r="1.97" fill="#3A2E2A" opacity="0.064"/><circle cx="113.8" cy="143.8" r="0.76" fill="#3A2E2A" opacity="0.049"/><circle cx="76.8" cy="670.7" r="0.94" fill="#3A2E2A" opacity="0.062"/><circle cx="375.4" cy="98.3" r="1.74" fill="#3A2E2A" opacity="0.038"/><circle cx="592.4" cy="744.7" r="1.00" fill="#3A2E2A" opacity="0.073"/><circle cx="650.9" cy="200.8" r="1.35" fill="#3A2E2A" opacity="0.038"/><circle cx="632.8" cy="951.3" r="1.18" fill="#3A2E2A" opacity="0.059"/><circle cx="377.5" cy="34.4" r="1.31" fill="#3A2E2A" opacity="0.061"/><circle cx="52.4" cy="260.8" r="1.05" fill="#3A2E2A" opacity="0.032"/><circle cx="183.0" cy="821.0" r="1.11" fill="#3A2E2A" opacity="0.037"/><circle cx="50.7" cy="194.6" r="1.27" fill="#3A2E2A" opacity="0.047"/><circle cx="114.7" cy="640.7" r="2.14" fill="#3A2E2A" opacity="0.051"/><circle cx="365.4" cy="633.7" r="0.70" fill="#3A2E2A" opacity="0.069"/><circle cx="581.8" cy="721.8" r="1.58" fill="#3A2E2A" opacity="0.033"/><circle cx="407.7" cy="917.9" r="2.05" fill="#3A2E2A" opacity="0.040"/><circle cx="496.5" cy="741.5" r="1.42" fill="#3A2E2A" opacity="0.079"/><circle cx="537.3" cy="251.9" r="0.63" fill="#3A2E2A" opacity="0.040"/><circle cx="95.8" cy="485.2" r="1.72" fill="#3A2E2A" opacity="0.032"/><circle cx="591.9" cy="83.7" r="2.15" fill="#3A2E2A" opacity="0.043"/><circle cx="352.5" cy="944.8" r="2.07" fill="#3A2E2A" opacity="0.053"/><circle cx="93.1" cy="38.0" r="0.88" fill="#3A2E2A" opacity="0.036"/><circle cx="87.8" cy="389.1" r="1.01" fill="#3A2E2A" opacity="0.073"/><circle cx="2.0" cy="671.4" r="0.68" fill="#3A2E2A" opacity="0.036"/><circle cx="617.7" cy="353.4" r="0.84" fill="#3A2E2A" opacity="0.073"/><circle cx="43.2" cy="13.9" r="1.99" fill="#3A2E2A" opacity="0.032"/><circle cx="519.7" cy="78.1" r="1.92" fill="#3A2E2A" opacity="0.062"/><circle cx="588.2" cy="837.6" r="1.52" fill="#3A2E2A" opacity="0.038"/><circle cx="633.4" cy="924.3" r="0.96" fill="#3A2E2A" opacity="0.053"/><circle cx="478.5" cy="313.5" r="0.88" fill="#3A2E2A" opacity="0.037"/><circle cx="430.2" cy="673.2" r="1.49" fill="#3A2E2A" opacity="0.066"/><circle cx="110.4" cy="104.5" r="0.66" fill="#3A2E2A" opacity="0.073"/><circle cx="62.2" cy="862.5" r="0.94" fill="#3A2E2A" opacity="0.059"/><circle cx="361.0" cy="839.0" r="0.82" fill="#3A2E2A" opacity="0.045"/><circle cx="12.3" cy="326.2" r="1.89" fill="#3A2E2A" opacity="0.073"/><circle cx="718.8" cy="515.9" r="1.09" fill="#3A2E2A" opacity="0.045"/><circle cx="36.6" cy="41.4" r="1.86" fill="#3A2E2A" opacity="0.059"/><circle cx="378.0" cy="630.6" r="1.67" fill="#3A2E2A" opacity="0.068"/><circle cx="537.6" cy="200.7" r="0.74" fill="#3A2E2A" opacity="0.059"/><circle cx="269.3" cy="139.3" r="0.63" fill="#3A2E2A" opacity="0.077"/><circle cx="642.3" cy="396.9" r="0.62" fill="#3A2E2A" opacity="0.063"/><circle cx="521.2" cy="574.3" r="2.13" fill="#3A2E2A" opacity="0.049"/><circle cx="83.6" cy="312.6" r="0.91" fill="#3A2E2A" opacity="0.048"/><circle cx="132.4" cy="594.1" r="1.53" fill="#3A2E2A" opacity="0.068"/><circle cx="474.2" cy="36.4" r="1.90" fill="#3A2E2A" opacity="0.040"/><circle cx="592.0" cy="774.0" r="2.18" fill="#3A2E2A" opacity="0.041"/><circle cx="627.6" cy="946.3" r="1.50" fill="#3A2E2A" opacity="0.053"/><circle cx="165.7" cy="667.2" r="1.46" fill="#3A2E2A" opacity="0.068"/><circle cx="520.7" cy="875.9" r="1.20" fill="#3A2E2A" opacity="0.033"/><circle cx="140.6" cy="356.6" r="1.80" fill="#3A2E2A" opacity="0.057"/><circle cx="648.6" cy="465.7" r="1.72" fill="#3A2E2A" opacity="0.048"/><circle cx="554.1" cy="651.7" r="1.43" fill="#3A2E2A" opacity="0.046"/><circle cx="163.2" cy="298.2" r="2.12" fill="#3A2E2A" opacity="0.049"/><circle cx="701.0" cy="936.3" r="0.90" fill="#3A2E2A" opacity="0.064"/><circle cx="125.8" cy="43.4" r="0.77" fill="#3A2E2A" opacity="0.067"/><circle cx="593.9" cy="731.7" r="0.77" fill="#3A2E2A" opacity="0.071"/><circle cx="214.8" cy="67.5" r="2.11" fill="#3A2E2A" opacity="0.060"/><circle cx="393.4" cy="154.8" r="0.62" fill="#3A2E2A" opacity="0.058"/><circle cx="400.7" cy="32.8" r="1.02" fill="#3A2E2A" opacity="0.037"/><circle cx="97.0" cy="2.3" r="1.67" fill="#3A2E2A" opacity="0.073"/><circle cx="508.8" cy="949.9" r="0.92" fill="#3A2E2A" opacity="0.074"/><circle cx="135.6" cy="302.8" r="1.07" fill="#3A2E2A" opacity="0.077"/><circle cx="203.5" cy="420.1" r="2.19" fill="#3A2E2A" opacity="0.068"/><circle cx="739.8" cy="195.4" r="1.67" fill="#3A2E2A" opacity="0.056"/><circle cx="262.8" cy="924.6" r="1.80" fill="#3A2E2A" opacity="0.061"/><circle cx="480.4" cy="658.6" r="2.14" fill="#3A2E2A" opacity="0.073"/><circle cx="347.4" cy="567.1" r="0.99" fill="#3A2E2A" opacity="0.073"/><circle cx="367.5" cy="381.6" r="0.63" fill="#3A2E2A" opacity="0.065"/><circle cx="318.5" cy="360.5" r="2.18" fill="#3A2E2A" opacity="0.056"/><circle cx="65.6" cy="103.9" r="0.97" fill="#3A2E2A" opacity="0.033"/><circle cx="542.3" cy="799.3" r="1.84" fill="#3A2E2A" opacity="0.074"/><circle cx="120.7" cy="260.9" r="1.78" fill="#3A2E2A" opacity="0.040"/><circle cx="451.1" cy="700.9" r="1.59" fill="#3A2E2A" opacity="0.067"/><circle cx="275.3" cy="168.3" r="1.41" fill="#3A2E2A" opacity="0.034"/><circle cx="583.9" cy="806.5" r="1.73" fill="#3A2E2A" opacity="0.065"/><circle cx="414.5" cy="561.2" r="1.90" fill="#3A2E2A" opacity="0.054"/><circle cx="85.5" cy="590.1" r="1.18" fill="#3A2E2A" opacity="0.078"/><circle cx="578.5" cy="237.6" r="1.15" fill="#3A2E2A" opacity="0.050"/><circle cx="327.7" cy="263.6" r="1.93" fill="#3A2E2A" opacity="0.071"/><circle cx="538.4" cy="829.7" r="1.46" fill="#3A2E2A" opacity="0.035"/><circle cx="77.9" cy="917.9" r="1.58" fill="#3A2E2A" opacity="0.050"/><circle cx="32.1" cy="122.2" r="1.07" fill="#3A2E2A" opacity="0.035"/><circle cx="28.7" cy="89.0" r="1.46" fill="#3A2E2A" opacity="0.057"/><circle cx="637.9" cy="927.6" r="1.12" fill="#3A2E2A" opacity="0.038"/><circle cx="248.8" cy="178.0" r="1.83" fill="#3A2E2A" opacity="0.052"/><circle cx="717.2" cy="708.1" r="1.14" fill="#3A2E2A" opacity="0.065"/><circle cx="475.1" cy="662.9" r="0.75" fill="#3A2E2A" opacity="0.069"/><circle cx="633.0" cy="735.3" r="1.42" fill="#3A2E2A" opacity="0.054"/><circle cx="139.5" cy="209.7" r="2.12" fill="#3A2E2A" opacity="0.045"/><circle cx="560.2" cy="73.3" r="1.23" fill="#3A2E2A" opacity="0.072"/><circle cx="375.6" cy="533.9" r="2.16" fill="#3A2E2A" opacity="0.073"/><circle cx="177.0" cy="464.2" r="1.42" fill="#3A2E2A" opacity="0.049"/><circle cx="729.1" cy="987.3" r="1.16" fill="#3A2E2A" opacity="0.058"/><circle cx="528.2" cy="799.1" r="0.62" fill="#3A2E2A" opacity="0.066"/><circle cx="266.7" cy="284.8" r="1.38" fill="#3A2E2A" opacity="0.077"/><circle cx="355.2" cy="290.4" r="1.38" fill="#3A2E2A" opacity="0.058"/><circle cx="380.4" cy="237.5" r="2.15" fill="#3A2E2A" opacity="0.038"/><circle cx="603.6" cy="112.5" r="0.89" fill="#3A2E2A" opacity="0.041"/><circle cx="547.1" cy="533.1" r="0.70" fill="#3A2E2A" opacity="0.055"/><circle cx="541.5" cy="785.8" r="1.16" fill="#3A2E2A" opacity="0.053"/><circle cx="98.1" cy="107.7" r="1.44" fill="#3A2E2A" opacity="0.032"/><circle cx="511.9" cy="885.7" r="1.23" fill="#3A2E2A" opacity="0.056"/><circle cx="702.9" cy="300.8" r="1.66" fill="#3A2E2A" opacity="0.065"/><circle cx="223.5" cy="741.2" r="1.69" fill="#3A2E2A" opacity="0.069"/><circle cx="297.7" cy="555.9" r="1.32" fill="#3A2E2A" opacity="0.051"/><circle cx="0.6" cy="683.5" r="1.51" fill="#3A2E2A" opacity="0.071"/><circle cx="697.6" cy="986.8" r="0.74" fill="#3A2E2A" opacity="0.071"/><circle cx="424.5" cy="364.9" r="0.97" fill="#3A2E2A" opacity="0.075"/><circle cx="763.0" cy="1014.9" r="0.89" fill="#3A2E2A" opacity="0.032"/><circle cx="265.2" cy="692.7" r="2.03" fill="#3A2E2A" opacity="0.050"/><circle cx="289.7" cy="555.7" r="0.76" fill="#3A2E2A" opacity="0.064"/><circle cx="717.7" cy="735.2" r="1.00" fill="#3A2E2A" opacity="0.072"/><circle cx="633.6" cy="829.1" r="1.28" fill="#3A2E2A" opacity="0.060"/><circle cx="522.5" cy="1003.1" r="1.83" fill="#3A2E2A" opacity="0.068"/><circle cx="230.4" cy="538.1" r="1.10" fill="#3A2E2A" opacity="0.048"/><circle cx="750.5" cy="1006.0" r="1.27" fill="#3A2E2A" opacity="0.030"/><circle cx="327.5" cy="536.4" r="1.36" fill="#3A2E2A" opacity="0.052"/><circle cx="342.6" cy="663.2" r="1.42" fill="#3A2E2A" opacity="0.044"/><circle cx="235.0" cy="189.6" r="2.15" fill="#3A2E2A" opacity="0.043"/><circle cx="362.6" cy="665.8" r="1.52" fill="#3A2E2A" opacity="0.038"/><circle cx="660.8" cy="803.6" r="1.48" fill="#3A2E2A" opacity="0.072"/><circle cx="766.2" cy="452.0" r="1.07" fill="#3A2E2A" opacity="0.043"/><circle cx="120.1" cy="466.5" r="1.72" fill="#3A2E2A" opacity="0.034"/><circle cx="280.1" cy="498.6" r="2.18" fill="#3A2E2A" opacity="0.076"/><circle cx="742.3" cy="643.5" r="1.48" fill="#3A2E2A" opacity="0.064"/><circle cx="130.2" cy="801.0" r="1.69" fill="#3A2E2A" opacity="0.061"/><circle cx="79.7" cy="604.1" r="2.12" fill="#3A2E2A" opacity="0.043"/><circle cx="596.0" cy="704.6" r="2.09" fill="#3A2E2A" opacity="0.078"/><circle cx="598.2" cy="697.7" r="2.00" fill="#3A2E2A" opacity="0.055"/><circle cx="37.2" cy="45.2" r="0.90" fill="#3A2E2A" opacity="0.049"/><circle cx="210.3" cy="514.7" r="1.39" fill="#3A2E2A" opacity="0.062"/><circle cx="148.2" cy="510.8" r="1.31" fill="#3A2E2A" opacity="0.044"/><circle cx="23.9" cy="942.6" r="0.68" fill="#3A2E2A" opacity="0.031"/><circle cx="72.2" cy="975.5" r="1.54" fill="#3A2E2A" opacity="0.058"/><circle cx="672.6" cy="461.3" r="1.61" fill="#3A2E2A" opacity="0.062"/><circle cx="20.3" cy="552.6" r="2.08" fill="#3A2E2A" opacity="0.036"/><circle cx="450.3" cy="907.7" r="1.64" fill="#3A2E2A" opacity="0.064"/><circle cx="8.4" cy="30.1" r="0.74" fill="#3A2E2A" opacity="0.047"/><circle cx="602.1" cy="298.3" r="1.86" fill="#3A2E2A" opacity="0.050"/><circle cx="760.9" cy="590.4" r="1.04" fill="#3A2E2A" opacity="0.060"/><circle cx="377.4" cy="880.4" r="1.42" fill="#3A2E2A" opacity="0.072"/><circle cx="157.3" cy="864.7" r="1.74" fill="#3A2E2A" opacity="0.065"/><circle cx="534.9" cy="566.5" r="1.88" fill="#3A2E2A" opacity="0.037"/><circle cx="320.3" cy="538.5" r="1.41" fill="#3A2E2A" opacity="0.061"/><circle cx="733.8" cy="122.2" r="1.58" fill="#3A2E2A" opacity="0.035"/><circle cx="753.3" cy="383.9" r="1.33" fill="#3A2E2A" opacity="0.044"/><circle cx="298.3" cy="241.3" r="0.68" fill="#3A2E2A" opacity="0.033"/><circle cx="246.2" cy="718.5" r="1.98" fill="#3A2E2A" opacity="0.042"/><circle cx="722.4" cy="516.7" r="1.34" fill="#3A2E2A" opacity="0.057"/><circle cx="641.6" cy="814.6" r="1.21" fill="#3A2E2A" opacity="0.049"/><circle cx="732.7" cy="776.4" r="2.05" fill="#3A2E2A" opacity="0.052"/><circle cx="591.2" cy="884.0" r="0.83" fill="#3A2E2A" opacity="0.073"/><circle cx="536.2" cy="737.1" r="2.07" fill="#3A2E2A" opacity="0.064"/><circle cx="5.5" cy="868.3" r="1.27" fill="#3A2E2A" opacity="0.049"/><circle cx="627.5" cy="198.0" r="1.34" fill="#3A2E2A" opacity="0.052"/><circle cx="288.3" cy="468.1" r="1.92" fill="#3A2E2A" opacity="0.078"/><circle cx="761.3" cy="216.4" r="1.11" fill="#3A2E2A" opacity="0.040"/><circle cx="227.8" cy="96.9" r="1.46" fill="#3A2E2A" opacity="0.072"/><circle cx="241.8" cy="818.4" r="2.17" fill="#3A2E2A" opacity="0.033"/><circle cx="584.4" cy="618.3" r="1.26" fill="#3A2E2A" opacity="0.047"/><circle cx="332.2" cy="293.6" r="1.26" fill="#3A2E2A" opacity="0.033"/><circle cx="143.0" cy="362.2" r="0.63" fill="#3A2E2A" opacity="0.045"/><circle cx="67.0" cy="584.2" r="1.52" fill="#3A2E2A" opacity="0.048"/><circle cx="642.5" cy="256.7" r="0.79" fill="#3A2E2A" opacity="0.039"/><circle cx="236.0" cy="540.2" r="1.31" fill="#3A2E2A" opacity="0.050"/><circle cx="713.8" cy="196.9" r="0.80" fill="#3A2E2A" opacity="0.038"/><circle cx="607.7" cy="191.0" r="2.02" fill="#3A2E2A" opacity="0.073"/><circle cx="530.0" cy="959.2" r="1.58" fill="#3A2E2A" opacity="0.073"/><circle cx="656.2" cy="987.3" r="1.90" fill="#3A2E2A" opacity="0.057"/><circle cx="369.3" cy="165.1" r="0.92" fill="#3A2E2A" opacity="0.045"/><circle cx="528.8" cy="577.7" r="0.80" fill="#3A2E2A" opacity="0.077"/><circle cx="204.3" cy="96.0" r="1.93" fill="#3A2E2A" opacity="0.047"/><circle cx="680.0" cy="862.2" r="1.80" fill="#3A2E2A" opacity="0.076"/><circle cx="626.2" cy="910.9" r="0.96" fill="#3A2E2A" opacity="0.064"/><circle cx="582.1" cy="183.4" r="1.89" fill="#3A2E2A" opacity="0.067"/><circle cx="50.3" cy="717.2" r="2.07" fill="#3A2E2A" opacity="0.053"/><circle cx="500.1" cy="799.1" r="1.88" fill="#3A2E2A" opacity="0.051"/><circle cx="269.4" cy="332.1" r="0.79" fill="#3A2E2A" opacity="0.074"/><circle cx="417.6" cy="278.3" r="0.89" fill="#3A2E2A" opacity="0.044"/><circle cx="684.2" cy="849.1" r="1.69" fill="#3A2E2A" opacity="0.063"/><circle cx="615.2" cy="192.9" r="1.75" fill="#3A2E2A" opacity="0.044"/><circle cx="343.6" cy="649.8" r="0.85" fill="#3A2E2A" opacity="0.076"/><circle cx="545.0" cy="271.5" r="1.55" fill="#3A2E2A" opacity="0.077"/><circle cx="742.4" cy="169.1" r="1.34" fill="#3A2E2A" opacity="0.068"/><circle cx="308.2" cy="575.0" r="1.64" fill="#3A2E2A" opacity="0.051"/><circle cx="205.1" cy="608.2" r="1.18" fill="#3A2E2A" opacity="0.044"/><circle cx="161.7" cy="670.7" r="1.35" fill="#3A2E2A" opacity="0.030"/><circle cx="4.7" cy="237.5" r="0.63" fill="#3A2E2A" opacity="0.069"/><circle cx="747.1" cy="504.4" r="1.93" fill="#3A2E2A" opacity="0.049"/><circle cx="310.6" cy="323.7" r="2.11" fill="#3A2E2A" opacity="0.063"/><circle cx="481.8" cy="62.1" r="0.92" fill="#3A2E2A" opacity="0.062"/><circle cx="56.8" cy="1010.8" r="1.71" fill="#3A2E2A" opacity="0.063"/><circle cx="642.9" cy="211.5" r="0.65" fill="#3A2E2A" opacity="0.064"/><circle cx="512.4" cy="976.4" r="0.64" fill="#3A2E2A" opacity="0.046"/><circle cx="420.9" cy="112.7" r="1.99" fill="#3A2E2A" opacity="0.033"/><circle cx="93.9" cy="456.2" r="1.76" fill="#3A2E2A" opacity="0.071"/><circle cx="684.8" cy="56.3" r="1.33" fill="#3A2E2A" opacity="0.057"/><circle cx="491.0" cy="478.5" r="0.67" fill="#3A2E2A" opacity="0.059"/><circle cx="203.5" cy="851.1" r="1.04" fill="#3A2E2A" opacity="0.072"/><circle cx="705.5" cy="368.8" r="1.77" fill="#3A2E2A" opacity="0.042"/><circle cx="238.6" cy="464.8" r="1.25" fill="#3A2E2A" opacity="0.057"/><circle cx="457.9" cy="465.0" r="1.36" fill="#3A2E2A" opacity="0.054"/><circle cx="311.8" cy="210.9" r="0.90" fill="#3A2E2A" opacity="0.051"/><circle cx="569.8" cy="222.1" r="1.29" fill="#3A2E2A" opacity="0.064"/><circle cx="273.6" cy="347.8" r="1.41" fill="#3A2E2A" opacity="0.068"/><circle cx="252.1" cy="0.9" r="1.86" fill="#3A2E2A" opacity="0.034"/><circle cx="547.6" cy="306.6" r="1.86" fill="#3A2E2A" opacity="0.079"/><circle cx="271.5" cy="537.2" r="1.74" fill="#3A2E2A" opacity="0.037"/><circle cx="575.7" cy="723.6" r="0.93" fill="#3A2E2A" opacity="0.073"/><circle cx="612.9" cy="757.6" r="2.07" fill="#3A2E2A" opacity="0.063"/><circle cx="689.8" cy="424.4" r="2.14" fill="#3A2E2A" opacity="0.033"/><circle cx="338.5" cy="19.3" r="2.02" fill="#3A2E2A" opacity="0.048"/><circle cx="647.7" cy="82.7" r="1.86" fill="#3A2E2A" opacity="0.033"/><circle cx="276.8" cy="987.4" r="1.98" fill="#3A2E2A" opacity="0.077"/><circle cx="457.1" cy="921.5" r="0.82" fill="#3A2E2A" opacity="0.064"/><circle cx="225.2" cy="582.1" r="0.84" fill="#3A2E2A" opacity="0.062"/><circle cx="72.7" cy="178.7" r="2.00" fill="#3A2E2A" opacity="0.040"/><circle cx="218.4" cy="139.6" r="1.73" fill="#3A2E2A" opacity="0.048"/><circle cx="106.1" cy="175.7" r="2.06" fill="#3A2E2A" opacity="0.030"/><circle cx="736.6" cy="430.8" r="1.57" fill="#3A2E2A" opacity="0.064"/><circle cx="50.9" cy="641.2" r="1.01" fill="#3A2E2A" opacity="0.030"/><circle cx="53.7" cy="971.8" r="0.69" fill="#3A2E2A" opacity="0.071"/><circle cx="88.0" cy="52.4" r="1.60" fill="#3A2E2A" opacity="0.052"/><circle cx="765.6" cy="50.6" r="2.06" fill="#3A2E2A" opacity="0.068"/><circle cx="231.8" cy="535.0" r="1.65" fill="#3A2E2A" opacity="0.061"/><circle cx="125.9" cy="455.9" r="1.81" fill="#3A2E2A" opacity="0.057"/><circle cx="62.6" cy="547.6" r="1.91" fill="#3A2E2A" opacity="0.035"/><circle cx="431.9" cy="225.1" r="1.96" fill="#3A2E2A" opacity="0.048"/><circle cx="441.0" cy="886.7" r="1.35" fill="#3A2E2A" opacity="0.067"/><circle cx="375.3" cy="688.7" r="1.82" fill="#3A2E2A" opacity="0.060"/><circle cx="317.3" cy="557.4" r="1.78" fill="#3A2E2A" opacity="0.067"/><circle cx="429.3" cy="21.5" r="1.66" fill="#3A2E2A" opacity="0.041"/><circle cx="527.9" cy="16.3" r="1.67" fill="#3A2E2A" opacity="0.056"/><circle cx="184.2" cy="729.4" r="1.05" fill="#3A2E2A" opacity="0.066"/><circle cx="579.1" cy="90.4" r="1.83" fill="#3A2E2A" opacity="0.066"/><circle cx="260.8" cy="488.6" r="0.81" fill="#3A2E2A" opacity="0.059"/><circle cx="763.2" cy="424.2" r="0.62" fill="#3A2E2A" opacity="0.066"/><circle cx="388.0" cy="310.0" r="1.99" fill="#3A2E2A" opacity="0.053"/><circle cx="175.9" cy="121.0" r="1.61" fill="#3A2E2A" opacity="0.072"/><circle cx="584.7" cy="299.6" r="1.15" fill="#3A2E2A" opacity="0.042"/><circle cx="170.8" cy="973.1" r="0.78" fill="#3A2E2A" opacity="0.041"/><circle cx="89.7" cy="381.0" r="1.25" fill="#3A2E2A" opacity="0.046"/><circle cx="339.0" cy="28.7" r="1.02" fill="#3A2E2A" opacity="0.071"/><circle cx="362.8" cy="714.8" r="1.85" fill="#3A2E2A" opacity="0.035"/><circle cx="465.0" cy="736.9" r="0.88" fill="#3A2E2A" opacity="0.059"/><circle cx="480.6" cy="175.9" r="1.99" fill="#3A2E2A" opacity="0.048"/><circle cx="161.6" cy="459.5" r="1.21" fill="#3A2E2A" opacity="0.057"/><circle cx="754.1" cy="528.5" r="1.73" fill="#3A2E2A" opacity="0.063"/><circle cx="368.7" cy="401.6" r="1.64" fill="#3A2E2A" opacity="0.043"/></g>
<rect x="30" y="30" width="708" height="964" rx="26" fill="none" stroke="#D9A94E" stroke-width="2" opacity="0.85"/><rect x="42" y="42" width="684" height="940" rx="20" fill="none" stroke="#D9A94E" stroke-width="0.8" opacity="0.35"/>
</svg>