<svg xmlns="http://www.w3.org/2000/svg" width="768" height="1024" viewBox="0 0 768 1024" role="img" aria-label="Original Tome vector cover for The Republic: a geometric cobalt city above a dark cave opening, with a beam of gold light from a low sun.">
<defs><linearGradient id="republic-beam" x1="0" y1="0" x2="0" y2="1"><stop offset="0" stop-color="#EAC35E" stop-opacity="0.85"/><stop offset="1" stop-color="#EAC35E" stop-opacity="0"/></linearGradient><radialGradient id="republic-vig" cx="0.5" cy="0.42" r="0.95"><stop offset="0.55" stop-color="#0B1322" stop-opacity="0"/><stop offset="1" stop-color="#0B1322" stop-opacity="0.38"/></radialGradient></defs>
<rect width="768" height="1024" fill="#16233D"/><path d="M 314 210 L 454 210 L 594 760 L 174 760 Z" fill="url(#republic-beam)" opacity="0.35"/><circle cx="384" cy="150" r="66" fill="#EAC35E"/><circle cx="384" cy="150" r="96" fill="none" stroke="#EAC35E" stroke-width="2" opacity="0.5"/><rect x="200" y="500" width="70" height="150" rx="8" fill="#3FA08C"/><rect x="212" y="516" width="46" height="16" rx="4" fill="#EAC35E" opacity="0.5"/><rect x="212" y="558" width="46" height="16" rx="4" fill="#EAC35E" opacity="0.65"/><rect x="212" y="600" width="46" height="16" rx="4" fill="#EAC35E" opacity="0.8"/><rect x="290" y="440" width="84" height="210" rx="8" fill="#2C4A7C"/><rect x="302" y="456" width="60" height="16" rx="4" fill="#EAC35E" opacity="0.5"/><rect x="302" y="498" width="60" height="16" rx="4" fill="#EAC35E" opacity="0.65"/><rect x="302" y="540" width="60" height="16" rx="4" fill="#EAC35E" opacity="0.8"/><rect x="394" y="470" width="70" height="180" rx="8" fill="#3FA08C"/><rect x="406" y="486" width="46" height="16" rx="4" fill="#EAC35E" opacity="0.5"/><rect x="406" y="528" width="46" height="16" rx="4" fill="#EAC35E" opacity="0.65"/><rect x="406" y="570" width="46" height="16" rx="4" fill="#EAC35E" opacity="0.8"/><rect x="484" y="420" width="88" height="230" rx="8" fill="#2C4A7C"/><rect x="496" y="436" width="64" height="16" rx="4" fill="#EAC35E" opacity="0.5"/><rect x="496" y="478" width="64" height="16" rx="4" fill="#EAC35E" opacity="0.65"/><rect x="496" y="520" width="64" height="16" rx="4" fill="#EAC35E" opacity="0.8"/><rect x="592" y="500" width="64" height="150" rx="8" fill="#3FA08C"/><rect x="604" y="516" width="40" height="16" rx="4" fill="#EAC35E" opacity="0.5"/><rect x="604" y="558" width="40" height="16" rx="4" fill="#EAC35E" opacity="0.65"/><rect x="604" y="600" width="40" height="16" rx="4" fill="#EAC35E" opacity="0.8"/><path d="M 0 1024 L 0 760 Q 384 620 768 760 L 768 1024 Z" fill="#0B1322"/><path d="M 0 800 Q 384 668 768 800" fill="none" stroke="#EAC35E" stroke-width="3" opacity="0.6"/><path d="M 250 880 q 20 -34 44 0 q -22 12 -44 0 Z" fill="#16233D" opacity="0.7"/><path d="M 340 904 q 20 -34 44 0 q -22 12 -44 0 Z" fill="#16233D" opacity="0.7"/><path d="M 430 880 q 20 -34 44 0 q -22 12 -44 0 Z" fill="#16233D" opacity="0.7"/><rect width="768" height="1024" fill="url(#republic-vig)"/>
<g><circle cx="231.0" cy="51.0" r="0.78" fill="#FFFFFF" opacity="0.071"/><circle cx="174.0" cy="359.1" r="1.78" fill="#FFFFFF" opacity="0.046"/><circle cx="277.7" cy="430.9" r="1.93" fill="#FFFFFF" opacity="0.044"/><circle cx="507.3" cy="629.9" r="1.61" fill="#FFFFFF" opacity="0.077"/><circle cx="495.1" cy="520.5" r="2.20" fill="#FFFFFF" opacity="0.054"/><circle cx="185.5" cy="906.6" r="2.16" fill="#FFFFFF" opacity="0.061"/><circle cx="661.3" cy="909.1" r="1.17" fill="#FFFFFF" opacity="0.050"/><circle cx="562.8" cy="944.0" r="0.85" fill="#FFFFFF" opacity="0.030"/><circle cx="75.9" cy="1008.2" r="1.89" fill="#FFFFFF" opacity="0.034"/><circle cx="236.7" cy="888.0" r="2.02" fill="#FFFFFF" opacity="0.071"/><circle cx="95.7" cy="426.2" r="1.92" fill="#FFFFFF" opacity="0.050"/><circle cx="433.3" cy="839.0" r="1.18" fill="#FFFFFF" opacity="0.053"/><circle cx="407.7" cy="798.4" r="0.83" fill="#FFFFFF" opacity="0.042"/><circle cx="355.5" cy="131.6" r="1.59" fill="#FFFFFF" opacity="0.070"/><circle cx="576.3" cy="431.4" r="1.87" fill="#FFFFFF" opacity="0.051"/><circle cx="109.2" cy="824.6" r="1.80" fill="#FFFFFF" opacity="0.052"/><circle cx="117.6" cy="663.1" r="1.48" fill="#FFFFFF" opacity="0.034"/><circle cx="119.6" cy="72.2" r="1.53" fill="#FFFFFF" opacity="0.061"/><circle cx="410.5" cy="706.3" r="1.68" fill="#FFFFFF" opacity="0.044"/><circle cx="462.9" cy="736.3" r="1.61" fill="#FFFFFF" opacity="0.038"/><circle cx="600.1" cy="579.8" r="1.42" fill="#FFFFFF" opacity="0.030"/><circle cx="476.4" cy="709.4" r="0.82" fill="#FFFFFF" opacity="0.060"/><circle cx="232.1" cy="597.1" r="1.30" fill="#FFFFFF" opacity="0.077"/><circle cx="377.4" cy="614.1" r="0.65" fill="#FFFFFF" opacity="0.052"/><circle cx="115.3" cy="193.6" r="0.83" fill="#FFFFFF" opacity="0.063"/><circle cx="536.5" cy="427.1" r="1.44" fill="#FFFFFF" opacity="0.057"/><circle cx="447.4" cy="484.5" r="0.81" fill="#FFFFFF" opacity="0.045"/><circle cx="321.2" cy="522.0" r="1.73" fill="#FFFFFF" opacity="0.073"/><circle cx="41.7" cy="239.4" r="1.23" fill="#FFFFFF" opacity="0.069"/><circle cx="514.6" cy="267.0" r="1.62" fill="#FFFFFF" opacity="0.049"/><circle cx="707.6" cy="388.8" r="1.69" fill="#FFFFFF" opacity="0.077"/><circle cx="749.8" cy="735.6" r="0.69" fill="#FFFFFF" opacity="0.059"/><circle cx="577.9" cy="56.5" r="0.69" fill="#FFFFFF" opacity="0.037"/><circle cx="364.2" cy="230.5" r="1.02" fill="#FFFFFF" opacity="0.031"/><circle cx="294.7" cy="348.4" r="1.03" fill="#FFFFFF" opacity="0.072"/><circle cx="292.4" cy="592.9" r="0.83" fill="#FFFFFF" opacity="0.073"/><circle cx="728.3" cy="99.3" r="2.03" fill="#FFFFFF" opacity="0.047"/><circle cx="334.7" cy="871.0" r="2.14" fill="#FFFFFF" opacity="0.062"/><circle cx="132.4" cy="448.9" r="1.32" fill="#FFFFFF" opacity="0.079"/><circle cx="721.3" cy="902.1" r="2.17" fill="#FFFFFF" opacity="0.077"/><circle cx="191.0" cy="957.2" r="1.15" fill="#FFFFFF" opacity="0.039"/><circle cx="667.6" cy="687.9" r="1.57" fill="#FFFFFF" opacity="0.048"/><circle cx="659.7" cy="334.6" r="1.33" fill="#FFFFFF" opacity="0.067"/><circle cx="335.6" cy="87.7" r="1.34" fill="#FFFFFF" opacity="0.063"/><circle cx="110.8" cy="466.7" r="0.67" fill="#FFFFFF" opacity="0.053"/><circle cx="54.1" cy="265.1" r="2.01" fill="#FFFFFF" opacity="0.042"/><circle cx="740.4" cy="267.2" r="1.67" fill="#FFFFFF" opacity="0.049"/><circle cx="451.5" cy="367.9" r="0.85" fill="#FFFFFF" opacity="0.030"/><circle cx="478.3" cy="629.6" r="0.85" fill="#FFFFFF" opacity="0.063"/><circle cx="289.0" cy="278.8" r="2.14" fill="#FFFFFF" opacity="0.031"/><circle cx="170.1" cy="42.1" r="0.73" fill="#FFFFFF" opacity="0.034"/><circle cx="313.4" cy="454.4" r="1.79" fill="#FFFFFF" opacity="0.072"/><circle cx="155.7" cy="574.2" r="1.40" fill="#FFFFFF" opacity="0.061"/><circle cx="160.6" cy="476.2" r="1.10" fill="#FFFFFF" opacity="0.055"/><circle cx="303.7" cy="30.8" r="2.17" fill="#FFFFFF" opacity="0.075"/><circle cx="125.6" cy="706.2" r="1.87" fill="#FFFFFF" opacity="0.052"/><circle cx="217.0" cy="632.1" r="1.19" fill="#FFFFFF" opacity="0.068"/><circle cx="258.3" cy="328.5" r="1.39" fill="#FFFFFF" opacity="0.073"/><circle cx="479.9" cy="397.1" r="1.23" fill="#FFFFFF" opacity="0.064"/><circle cx="145.3" cy="251.1" r="0.83" fill="#FFFFFF" opacity="0.071"/><circle cx="41.3" cy="367.5" r="0.85" fill="#FFFFFF" opacity="0.036"/><circle cx="288.9" cy="570.6" r="1.01" fill="#FFFFFF" opacity="0.030"/><circle cx="486.5" cy="399.2" r="0.69" fill="#FFFFFF" opacity="0.058"/><circle cx="701.6" cy="162.5" r="1.11" fill="#FFFFFF" opacity="0.050"/><circle cx="288.7" cy="135.0" r="1.34" fill="#FFFFFF" opacity="0.034"/><circle cx="453.5" cy="883.8" r="2.01" fill="#FFFFFF" opacity="0.062"/><circle cx="262.8" cy="100.0" r="1.29" fill="#FFFFFF" opacity="0.039"/><circle cx="284.7" cy="14.8" r="1.73" fill="#FFFFFF" opacity="0.063"/><circle cx="589.1" cy="226.1" r="1.03" fill="#FFFFFF" opacity="0.031"/><circle cx="132.0" cy="91.3" r="1.88" fill="#FFFFFF" opacity="0.069"/><circle cx="18.4" cy="179.3" r="0.90" fill="#FFFFFF" opacity="0.076"/><circle cx="627.4" cy="1000.3" r="1.63" fill="#FFFFFF" opacity="0.075"/><circle cx="177.2" cy="315.4" r="0.89" fill="#FFFFFF" opacity="0.061"/><circle cx="306.8" cy="774.7" r="1.67" fill="#FFFFFF" opacity="0.056"/><circle cx="87.7" cy="998.5" r="1.83" fill="#FFFFFF" opacity="0.071"/><circle cx="407.8" cy="822.7" r="1.07" fill="#FFFFFF" opacity="0.054"/><circle cx="294.1" cy="755.9" r="2.09" fill="#FFFFFF" opacity="0.056"/><circle cx="483.4" cy="105.2" r="1.89" fill="#FFFFFF" opacity="0.075"/><circle cx="167.4" cy="942.0" r="1.04" fill="#FFFFFF" opacity="0.064"/><circle cx="565.3" cy="194.9" r="1.31" fill="#FFFFFF" opacity="0.049"/><circle cx="588.2" cy="373.3" r="1.54" fill="#FFFFFF" opacity="0.071"/><circle cx="414.1" cy="486.4" r="2.10" fill="#FFFFFF" opacity="0.048"/><circle cx="316.6" cy="23.0" r="1.71" fill="#FFFFFF" opacity="0.077"/><circle cx="282.9" cy="649.8" r="2.00" fill="#FFFFFF" opacity="0.043"/><circle cx="284.2" cy="247.8" r="0.90" fill="#FFFFFF" opacity="0.037"/><circle cx="594.9" cy="209.4" r="1.33" fill="#FFFFFF" opacity="0.036"/><circle cx="384.3" cy="922.5" r="1.95" fill="#FFFFFF" opacity="0.035"/><circle cx="137.9" cy="981.9" r="0.80" fill="#FFFFFF" opacity="0.062"/><circle cx="414.1" cy="174.6" r="2.16" fill="#FFFFFF" opacity="0.045"/><circle cx="313.2" cy="292.9" r="0.80" fill="#FFFFFF" opacity="0.043"/><circle cx="127.2" cy="758.0" r="1.34" fill="#FFFFFF" opacity="0.061"/><circle cx="306.7" cy="897.5" r="0.89" fill="#FFFFFF" opacity="0.073"/><circle cx="140.1" cy="48.0" r="0.69" fill="#FFFFFF" opacity="0.041"/><circle cx="691.4" cy="27.0" r="1.05" fill="#FFFFFF" opacity="0.031"/><circle cx="411.2" cy="414.5" r="1.29" fill="#FFFFFF" opacity="0.032"/><circle cx="307.5" cy="953.9" r="1.90" fill="#FFFFFF" opacity="0.052"/><circle cx="279.0" cy="599.8" r="1.16" fill="#FFFFFF" opacity="0.080"/><circle cx="26.8" cy="401.9" r="1.89" fill="#FFFFFF" opacity="0.060"/><circle cx="579.8" cy="907.6" r="1.43" fill="#FFFFFF" opacity="0.035"/><circle cx="224.9" cy="859.0" r="2.02" fill="#FFFFFF" opacity="0.044"/><circle cx="759.8" cy="905.7" r="0.89" fill="#FFFFFF" opacity="0.077"/><circle cx="604.1" cy="7.3" r="0.96" fill="#FFFFFF" opacity="0.072"/><circle cx="5.1" cy="198.9" r="1.67" fill="#FFFFFF" opacity="0.047"/><circle cx="514.7" cy="858.8" r="1.56" fill="#FFFFFF" opacity="0.059"/><circle cx="112.0" cy="262.8" r="1.08" fill="#FFFFFF" opacity="0.044"/><circle cx="562.4" cy="876.1" r="1.94" fill="#FFFFFF" opacity="0.037"/><circle cx="324.8" cy="704.3" r="0.70" fill="#FFFFFF" opacity="0.033"/><circle cx="149.4" cy="537.5" r="0.68" fill="#FFFFFF" opacity="0.054"/><circle cx="171.3" cy="852.1" r="1.65" fill="#FFFFFF" opacity="0.077"/><circle cx="123.5" cy="737.1" r="1.88" fill="#FFFFFF" opacity="0.037"/><circle cx="452.5" cy="689.4" r="1.14" fill="#FFFFFF" opacity="0.077"/><circle cx="514.0" cy="977.3" r="1.15" fill="#FFFFFF" opacity="0.055"/><circle cx="631.3" cy="915.5" r="0.69" fill="#FFFFFF" opacity="0.056"/><circle cx="716.0" cy="302.8" r="1.87" fill="#FFFFFF" opacity="0.058"/><circle cx="206.2" cy="79.8" r="1.69" fill="#FFFFFF" opacity="0.065"/><circle cx="153.8" cy="971.6" r="1.74" fill="#FFFFFF" opacity="0.078"/><circle cx="305.0" cy="965.8" r="1.90" fill="#FFFFFF" opacity="0.065"/><circle cx="305.2" cy="621.8" r="2.19" fill="#FFFFFF" opacity="0.045"/><circle cx="415.7" cy="697.0" r="2.07" fill="#FFFFFF" opacity="0.034"/><circle cx="293.3" cy="616.5" r="1.33" fill="#FFFFFF" opacity="0.040"/><circle cx="604.1" cy="12.5" r="1.35" fill="#FFFFFF" opacity="0.053"/><circle cx="599.8" cy="589.9" r="1.96" fill="#FFFFFF" opacity="0.076"/><circle cx="293.4" cy="513.4" r="1.81" fill="#FFFFFF" opacity="0.031"/><circle cx="594.1" cy="97.7" r="2.02" fill="#FFFFFF" opacity="0.068"/><circle cx="286.5" cy="918.1" r="0.75" fill="#FFFFFF" opacity="0.049"/><circle cx="757.6" cy="956.4" r="1.29" fill="#FFFFFF" opacity="0.047"/><circle cx="183.7" cy="153.8" r="1.21" fill="#FFFFFF" opacity="0.060"/><circle cx="109.4" cy="48.4" r="2.02" fill="#FFFFFF" opacity="0.078"/><circle cx="523.4" cy="333.0" r="2.14" fill="#FFFFFF" opacity="0.075"/><circle cx="725.5" cy="368.3" r="1.90" fill="#FFFFFF" opacity="0.070"/><circle cx="606.7" cy="557.9" r="1.46" fill="#FFFFFF" opacity="0.035"/><circle cx="710.7" cy="345.3" r="1.61" fill="#FFFFFF" opacity="0.050"/><circle cx="730.5" cy="663.0" r="1.53" fill="#FFFFFF" opacity="0.072"/><circle cx="44.0" cy="710.9" r="2.16" fill="#FFFFFF" opacity="0.047"/><circle cx="400.4" cy="540.0" r="1.23" fill="#FFFFFF" opacity="0.066"/><circle cx="49.9" cy="118.0" r="1.01" fill="#FFFFFF" opacity="0.062"/><circle cx="221.6" cy="223.3" r="2.06" fill="#FFFFFF" opacity="0.061"/><circle cx="65.4" cy="436.1" r="2.10" fill="#FFFFFF" opacity="0.067"/><circle cx="662.3" cy="937.2" r="1.41" fill="#FFFFFF" opacity="0.063"/><circle cx="152.2" cy="335.3" r="1.66" fill="#FFFFFF" opacity="0.057"/><circle cx="711.4" cy="113.3" r="1.75" fill="#FFFFFF" opacity="0.068"/><circle cx="187.6" cy="62.3" r="1.44" fill="#FFFFFF" opacity="0.041"/><circle cx="455.3" cy="862.2" r="1.00" fill="#FFFFFF" opacity="0.071"/><circle cx="357.3" cy="971.5" r="1.49" fill="#FFFFFF" opacity="0.055"/><circle cx="246.3" cy="910.5" r="1.01" fill="#FFFFFF" opacity="0.059"/><circle cx="182.8" cy="564.3" r="1.06" fill="#FFFFFF" opacity="0.066"/><circle cx="364.3" cy="886.2" r="0.93" fill="#FFFFFF" opacity="0.067"/><circle cx="316.2" cy="30.5" r="0.76" fill="#FFFFFF" opacity="0.077"/><circle cx="333.6" cy="408.1" r="0.85" fill="#FFFFFF" opacity="0.036"/><circle cx="378.7" cy="757.6" r="1.80" fill="#FFFFFF" opacity="0.050"/><circle cx="24.3" cy="458.6" r="1.42" fill="#FFFFFF" opacity="0.068"/><circle cx="569.5" cy="422.6" r="1.54" fill="#FFFFFF" opacity="0.072"/><circle cx="414.5" cy="54.0" r="1.89" fill="#FFFFFF" opacity="0.071"/><circle cx="231.0" cy="175.3" r="0.88" fill="#FFFFFF" opacity="0.047"/><circle cx="137.2" cy="961.3" r="2.12" fill="#FFFFFF" opacity="0.080"/><circle cx="144.6" cy="429.1" r="0.76" fill="#FFFFFF" opacity="0.033"/><circle cx="43.3" cy="154.1" r="1.42" fill="#FFFFFF" opacity="0.049"/><circle cx="19.4" cy="575.9" r="1.94" fill="#FFFFFF" opacity="0.035"/><circle cx="656.2" cy="560.6" r="0.79" fill="#FFFFFF" opacity="0.045"/><circle cx="15.5" cy="710.9" r="1.12" fill="#FFFFFF" opacity="0.036"/><circle cx="596.2" cy="366.9" r="1.63" fill="#FFFFFF" opacity="0.057"/><circle cx="492.5" cy="692.1" r="0.89" fill="#FFFFFF" opacity="0.069"/><circle cx="658.5" cy="164.5" r="2.04" fill="#FFFFFF" opacity="0.035"/><circle cx="195.6" cy="587.0" r="2.19" fill="#FFFFFF" opacity="0.059"/><circle cx="213.0" cy="209.7" r="1.75" fill="#FFFFFF" opacity="0.031"/><circle cx="746.3" cy="935.6" r="1.89" fill="#FFFFFF" opacity="0.072"/><circle cx="187.7" cy="426.8" r="2.01" fill="#FFFFFF" opacity="0.049"/><circle cx="655.9" cy="878.2" r="2.16" fill="#FFFFFF" opacity="0.044"/><circle cx="79.7" cy="466.3" r="0.69" fill="#FFFFFF" opacity="0.067"/><circle cx="627.1" cy="142.6" r="0.88" fill="#FFFFFF" opacity="0.072"/><circle cx="164.9" cy="1010.5" r="0.95" fill="#FFFFFF" opacity="0.059"/><circle cx="696.1" cy="946.7" r="0.81" fill="#FFFFFF" opacity="0.072"/><circle cx="215.1" cy="631.9" r="0.76" fill="#FFFFFF" opacity="0.066"/><circle cx="8.9" cy="48.3" r="1.55" fill="#FFFFFF" opacity="0.076"/><circle cx="36.6" cy="370.3" r="1.80" fill="#FFFFFF" opacity="0.042"/><circle cx="656.6" cy="75.9" r="0.96" fill="#FFFFFF" opacity="0.062"/><circle cx="748.5" cy="773.7" r="1.54" fill="#FFFFFF" opacity="0.041"/><circle cx="620.1" cy="781.1" r="1.69" fill="#FFFFFF" opacity="0.066"/><circle cx="60.6" cy="44.1" r="0.70" fill="#FFFFFF" opacity="0.060"/><circle cx="745.2" cy="17.4" r="0.78" fill="#FFFFFF" opacity="0.055"/><circle cx="421.1" cy="531.7" r="1.82" fill="#FFFFFF" opacity="0.043"/><circle cx="105.7" cy="314.6" r="2.17" fill="#FFFFFF" opacity="0.070"/><circle cx="284.2" cy="580.8" r="0.60" fill="#FFFFFF" opacity="0.038"/><circle cx="715.4" cy="491.1" r="1.69" fill="#FFFFFF" opacity="0.034"/><circle cx="357.4" cy="1005.5" r="0.82" fill="#FFFFFF" opacity="0.046"/><circle cx="41.1" cy="824.6" r="1.15" fill="#FFFFFF" opacity="0.035"/><circle cx="336.6" cy="644.9" r="1.21" fill="#FFFFFF" opacity="0.079"/><circle cx="423.0" cy="175.5" r="1.16" fill="#FFFFFF" opacity="0.037"/><circle cx="137.7" cy="897.9" r="1.55" fill="#FFFFFF" opacity="0.055"/><circle cx="174.5" cy="447.8" r="1.97" fill="#FFFFFF" opacity="0.061"/><circle cx="530.0" cy="841.3" r="1.00" fill="#FFFFFF" opacity="0.035"/><circle cx="247.0" cy="1014.8" r="1.24" fill="#FFFFFF" opacity="0.079"/><circle cx="138.4" cy="6.4" r="1.04" fill="#FFFFFF" opacity="0.072"/><circle cx="190.5" cy="890.8" r="0.98" fill="#FFFFFF" opacity="0.061"/><circle cx="618.4" cy="588.6" r="2.19" fill="#FFFFFF" opacity="0.037"/><circle cx="461.7" cy="611.8" r="1.43" fill="#FFFFFF" opacity="0.038"/><circle cx="174.1" cy="803.3" r="2.03" fill="#FFFFFF" opacity="0.062"/><circle cx="72.8" cy="0.4" r="1.11" fill="#FFFFFF" opacity="0.065"/><circle cx="651.3" cy="235.0" r="1.82" fill="#FFFFFF" opacity="0.070"/><circle cx="88.6" cy="670.2" r="2.15" fill="#FFFFFF" opacity="0.067"/><circle cx="74.6" cy="376.0" r="1.50" fill="#FFFFFF" opacity="0.052"/><circle cx="283.7" cy="700.1" r="1.66" fill="#FFFFFF" opacity="0.037"/><circle cx="693.8" cy="842.1" r="1.15" fill="#FFFFFF" opacity="0.049"/><circle cx="649.7" cy="832.1" r="0.92" fill="#FFFFFF" opacity="0.050"/><circle cx="109.4" cy="134.4" r="1.40" fill="#FFFFFF" opacity="0.061"/><circle cx="177.7" cy="375.5" r="1.78" fill="#FFFFFF" opacity="0.075"/><circle cx="307.5" cy="200.9" r="1.09" fill="#FFFFFF" opacity="0.069"/><circle cx="1.1" cy="926.6" r="1.18" fill="#FFFFFF" opacity="0.077"/><circle cx="155.3" cy="344.1" r="2.18" fill="#FFFFFF" opacity="0.063"/><circle cx="489.1" cy="897.1" r="1.44" fill="#FFFFFF" opacity="0.061"/><circle cx="396.8" cy="676.4" r="0.76" fill="#FFFFFF" opacity="0.062"/><circle cx="120.9" cy="971.0" r="1.85" fill="#FFFFFF" opacity="0.063"/><circle cx="480.8" cy="988.1" r="1.81" fill="#FFFFFF" opacity="0.057"/><circle cx="374.7" cy="719.0" r="1.59" fill="#FFFFFF" opacity="0.055"/><circle cx="235.5" cy="44.5" r="1.66" fill="#FFFFFF" opacity="0.040"/><circle cx="738.6" cy="288.7" r="1.88" fill="#FFFFFF" opacity="0.055"/><circle cx="309.0" cy="275.1" r="0.92" fill="#FFFFFF" opacity="0.051"/><circle cx="212.0" cy="395.4" r="0.61" fill="#FFFFFF" opacity="0.072"/><circle cx="390.6" cy="362.5" r="0.91" fill="#FFFFFF" opacity="0.055"/><circle cx="379.2" cy="361.1" r="1.28" fill="#FFFFFF" opacity="0.079"/><circle cx="292.2" cy="948.9" r="0.85" fill="#FFFFFF" opacity="0.077"/><circle cx="213.0" cy="1000.3" r="2.14" fill="#FFFFFF" opacity="0.038"/><circle cx="23.7" cy="605.5" r="0.63" fill="#FFFFFF" opacity="0.031"/><circle cx="389.7" cy="1007.1" r="1.51" fill="#FFFFFF" opacity="0.076"/><circle cx="143.1" cy="981.4" r="0.66" fill="#FFFFFF" opacity="0.052"/><circle cx="726.6" cy="465.7" r="1.87" fill="#FFFFFF" opacity="0.061"/><circle cx="52.6" cy="86.6" r="1.69" fill="#FFFFFF" opacity="0.039"/><circle cx="253.9" cy="670.1" r="1.79" fill="#FFFFFF" opacity="0.050"/><circle cx="586.3" cy="143.2" r="1.09" fill="#FFFFFF" opacity="0.068"/><circle cx="590.9" cy="310.2" r="1.55" fill="#FFFFFF" opacity="0.075"/><circle cx="537.6" cy="685.9" r="2.08" fill="#FFFFFF" opacity="0.075"/><circle cx="640.8" cy="334.5" r="1.39" fill="#FFFFFF" opacity="0.078"/><circle cx="546.0" cy="256.3" r="0.80" fill="#FFFFFF" opacity="0.035"/><circle cx="427.4" cy="657.5" r="0.77" fill="#FFFFFF" opacity="0.032"/><circle cx="723.4" cy="475.6" r="1.88" fill="#FFFFFF" opacity="0.037"/><circle cx="261.3" cy="301.4" r="1.77" fill="#FFFFFF" opacity="0.052"/><circle cx="767.2" cy="385.3" r="2.01" fill="#FFFFFF" opacity="0.059"/><circle cx="89.1" cy="1011.9" r="1.61" fill="#FFFFFF" opacity="0.053"/><circle cx="487.0" cy="733.6" r="1.14" fill="#FFFFFF" opacity="0.062"/><circle cx="566.7" cy="110.7" r="1.40" fill="#FFFFFF" opacity="0.037"/><circle cx="682.2" cy="592.4" r="2.01" fill="#FFFFFF" opacity="0.071"/><circle cx="367.1" cy="5.6" r="1.60" fill="#FFFFFF" opacity="0.062"/><circle cx="51.7" cy="775.9" r="2.18" fill="#FFFFFF" opacity="0.068"/><circle cx="683.5" cy="107.7" r="1.18" fill="#FFFFFF" opacity="0.078"/><circle cx="624.1" cy="993.1" r="2.14" fill="#FFFFFF" opacity="0.033"/><circle cx="713.5" cy="292.5" r="1.74" fill="#FFFFFF" opacity="0.050"/><circle cx="544.6" cy="495.4" r="0.95" fill="#FFFFFF" opacity="0.038"/><circle cx="443.9" cy="161.0" r="1.62" fill="#FFFFFF" opacity="0.034"/><circle cx="355.7" cy="239.2" r="1.72" fill="#FFFFFF" opacity="0.046"/><circle cx="79.6" cy="168.3" r="2.08" fill="#FFFFFF" opacity="0.076"/><circle cx="748.1" cy="414.9" r="1.13" fill="#FFFFFF" opacity="0.043"/><circle cx="606.3" cy="326.5" r="1.26" fill="#FFFFFF" opacity="0.073"/><circle cx="121.3" cy="88.5" r="1.53" fill="#FFFFFF" opacity="0.078"/><circle cx="59.6" cy="629.0" r="0.80" fill="#FFFFFF" opacity="0.067"/><circle cx="540.4" cy="736.4" r="1.67" fill="#FFFFFF" opacity="0.055"/><circle cx="303.4" cy="1012.2" r="0.95" fill="#FFFFFF" opacity="0.064"/><circle cx="499.5" cy="322.2" r="1.35" fill="#FFFFFF" opacity="0.032"/><circle cx="327.6" cy="211.8" r="0.99" fill="#FFFFFF" opacity="0.037"/><circle cx="6.7" cy="343.5" r="1.64" fill="#FFFFFF" opacity="0.068"/><circle cx="672.2" cy="323.0" r="1.46" fill="#FFFFFF" opacity="0.056"/><circle cx="667.5" cy="535.9" r="2.15" fill="#FFFFFF" opacity="0.057"/><circle cx="238.7" cy="183.6" r="1.13" fill="#FFFFFF" opacity="0.076"/><circle cx="146.6" cy="762.9" r="1.38" fill="#FFFFFF" opacity="0.058"/><circle cx="293.0" cy="732.3" r="1.87" fill="#FFFFFF" opacity="0.067"/><circle cx="729.4" cy="313.2" r="1.80" fill="#FFFFFF" opacity="0.036"/><circle cx="703.3" cy="853.9" r="1.88" fill="#FFFFFF" opacity="0.059"/><circle cx="112.9" cy="427.3" r="1.61" fill="#FFFFFF" opacity="0.042"/><circle cx="252.5" cy="201.1" r="2.12" fill="#FFFFFF" opacity="0.052"/><circle cx="723.9" cy="608.0" r="1.88" fill="#FFFFFF" opacity="0.050"/><circle cx="138.1" cy="218.2" r="1.56" fill="#FFFFFF" opacity="0.059"/><circle cx="320.2" cy="722.8" r="1.14" fill="#FFFFFF" opacity="0.049"/><circle cx="624.9" cy="500.1" r="2.19" fill="#FFFFFF" opacity="0.066"/><circle cx="463.6" cy="144.0" r="1.03" fill="#FFFFFF" opacity="0.033"/><circle cx="284.8" cy="870.5" r="0.90" fill="#FFFFFF" opacity="0.038"/><circle cx="604.3" cy="567.9" r="0.63" fill="#FFFFFF" opacity="0.065"/><circle cx="571.6" cy="728.9" r="0.95" fill="#FFFFFF" opacity="0.077"/><circle cx="738.4" cy="191.1" r="1.89" fill="#FFFFFF" opacity="0.032"/><circle cx="196.3" cy="999.2" r="0.89" fill="#FFFFFF" opacity="0.034"/><circle cx="476.6" cy="410.2" r="1.35" fill="#FFFFFF" opacity="0.041"/><circle cx="307.5" cy="785.4" r="0.93" fill="#FFFFFF" opacity="0.079"/><circle cx="444.4" cy="224.3" r="1.64" fill="#FFFFFF" opacity="0.053"/><circle cx="232.4" cy="803.6" r="2.08" fill="#FFFFFF" opacity="0.054"/><circle cx="531.0" cy="907.1" r="1.57" fill="#FFFFFF" opacity="0.078"/><circle cx="136.9" cy="17.8" r="1.83" fill="#FFFFFF" opacity="0.057"/><circle cx="214.0" cy="327.3" r="0.92" fill="#FFFFFF" opacity="0.066"/><circle cx="244.3" cy="318.7" r="1.35" fill="#FFFFFF" opacity="0.078"/><circle cx="754.6" cy="403.2" r="2.11" fill="#FFFFFF" opacity="0.063"/><circle cx="192.1" cy="604.7" r="1.59" fill="#FFFFFF" opacity="0.047"/><circle cx="206.3" cy="543.4" r="1.11" fill="#FFFFFF" opacity="0.077"/><circle cx="737.5" cy="981.0" r="1.51" fill="#FFFFFF" opacity="0.030"/><circle cx="481.2" cy="97.3" r="2.17" fill="#FFFFFF" opacity="0.078"/><circle cx="677.1" cy="637.4" r="1.41" fill="#FFFFFF" opacity="0.061"/><circle cx="490.6" cy="665.9" r="1.54" fill="#FFFFFF" opacity="0.076"/><circle cx="652.5" cy="177.8" r="0.96" fill="#FFFFFF" opacity="0.067"/><circle cx="509.1" cy="692.3" r="1.14" fill="#FFFFFF" opacity="0.069"/><circle cx="98.7" cy="281.7" r="1.93" fill="#FFFFFF" opacity="0.036"/><circle cx="60.9" cy="914.9" r="0.64" fill="#FFFFFF" opacity="0.063"/><circle cx="51.9" cy="799.0" r="1.47" fill="#FFFFFF" opacity="0.065"/><circle cx="495.2" cy="926.3" r="0.74" fill="#FFFFFF" opacity="0.069"/><circle cx="5.7" cy="527.2" r="0.86" fill="#FFFFFF" opacity="0.063"/><circle cx="293.2" cy="397.8" r="0.93" fill="#FFFFFF" opacity="0.058"/><circle cx="252.9" cy="257.2" r="1.40" fill="#FFFFFF" opacity="0.043"/><circle cx="237.7" cy="459.7" r="1.31" fill="#FFFFFF" opacity="0.078"/><circle cx="487.1" cy="176.9" r="0.75" fill="#FFFFFF" opacity="0.072"/><circle cx="7.3" cy="385.8" r="2.17" fill="#FFFFFF" opacity="0.078"/><circle cx="668.3" cy="935.9" r="2.20" fill="#FFFFFF" opacity="0.036"/><circle cx="759.3" cy="273.0" r="1.94" fill="#FFFFFF" opacity="0.064"/><circle cx="647.4" cy="896.9" r="1.09" fill="#FFFFFF" opacity="0.071"/><circle cx="281.8" cy="616.4" r="1.17" fill="#FFFFFF" opacity="0.077"/><circle cx="659.4" cy="658.1" r="1.20" fill="#FFFFFF" opacity="0.042"/><circle cx="765.0" cy="243.3" r="0.77" fill="#FFFFFF" opacity="0.030"/><circle cx="357.6" cy="404.3" r="1.49" fill="#FFFFFF" opacity="0.052"/><circle cx="78.0" cy="51.6" r="1.38" fill="#FFFFFF" opacity="0.059"/><circle cx="368.1" cy="61.2" r="1.03" fill="#FFFFFF" opacity="0.063"/><circle cx="101.7" cy="122.3" r="1.64" fill="#FFFFFF" opacity="0.043"/><circle cx="593.7" cy="259.2" r="1.94" fill="#FFFFFF" opacity="0.076"/><circle cx="178.1" cy="540.7" r="1.96" fill="#FFFFFF" opacity="0.063"/><circle cx="658.5" cy="536.1" r="1.12" fill="#FFFFFF" opacity="0.067"/><circle cx="454.4" cy="554.7" r="1.87" fill="#FFFFFF" opacity="0.074"/><circle cx="94.9" cy="635.9" r="2.17" fill="#FFFFFF" opacity="0.032"/><circle cx="731.5" cy="870.9" r="2.04" fill="#FFFFFF" opacity="0.044"/><circle cx="486.0" cy="479.1" r="1.94" fill="#FFFFFF" opacity="0.040"/><circle cx="548.0" cy="885.5" r="1.88" fill="#FFFFFF" opacity="0.043"/><circle cx="170.3" cy="1015.3" r="1.41" fill="#FFFFFF" opacity="0.060"/><circle cx="267.3" cy="793.0" r="1.86" fill="#FFFFFF" opacity="0.040"/><circle cx="291.5" cy="828.4" r="0.89" fill="#FFFFFF" opacity="0.071"/><circle cx="502.5" cy="269.2" r="1.49" fill="#FFFFFF" opacity="0.038"/><circle cx="648.0" cy="865.5" r="1.03" fill="#FFFFFF" opacity="0.050"/><circle cx="289.4" cy="447.9" r="1.12" fill="#FFFFFF" opacity="0.031"/><circle cx="716.3" cy="399.7" r="0.72" fill="#FFFFFF" opacity="0.065"/><circle cx="51.0" cy="457.5" r="0.62" fill="#FFFFFF" opacity="0.068"/><circle cx="145.2" cy="80.8" r="1.31" fill="#FFFFFF" opacity="0.068"/><circle cx="174.7" cy="800.9" r="1.46" fill="#FFFFFF" opacity="0.056"/><circle cx="115.2" cy="919.0" r="1.78" fill="#FFFFFF" opacity="0.057"/><circle cx="503.2" cy="161.9" r="1.80" fill="#FFFFFF" opacity="0.036"/><circle cx="63.3" cy="1007.9" r="0.84" fill="#FFFFFF" opacity="0.050"/><circle cx="598.5" cy="1021.4" r="0.84" fill="#FFFFFF" opacity="0.078"/><circle cx="32.3" cy="138.1" r="1.49" fill="#FFFFFF" opacity="0.064"/><circle cx="203.6" cy="894.5" r="2.17" fill="#FFFFFF" opacity="0.074"/><circle cx="736.3" cy="503.9" r="1.64" fill="#FFFFFF" opacity="0.037"/><circle cx="159.1" cy="667.7" r="0.75" fill="#FFFFFF" opacity="0.040"/><circle cx="7.2" cy="916.4" r="0.77" fill="#FFFFFF" opacity="0.042"/><circle cx="677.3" cy="306.6" r="1.10" fill="#FFFFFF" opacity="0.048"/><circle cx="100.5" cy="484.4" r="1.70" fill="#FFFFFF" opacity="0.038"/><circle cx="540.8" cy="513.7" r="0.79" fill="#FFFFFF" opacity="0.034"/><circle cx="339.6" cy="472.0" r="0.97" fill="#FFFFFF" opacity="0.071"/><circle cx="337.7" cy="989.7" r="0.65" fill="#FFFFFF" opacity="0.044"/><circle cx="507.6" cy="533.6" r="1.89" fill="#FFFFFF" opacity="0.053"/><circle cx="590.9" cy="939.9" r="0.97" fill="#FFFFFF" opacity="0.053"/><circle cx="536.8" cy="291.2" r="0.94" fill="#FFFFFF" opacity="0.072"/><circle cx="262.3" cy="665.5" r="0.71" fill="#FFFFFF" opacity="0.041"/><circle cx="91.6" cy="244.2" r="1.22" fill="#FFFFFF" opacity="0.056"/><circle cx="183.1" cy="716.1" r="1.19" fill="#FFFFFF" opacity="0.045"/><circle cx="167.3" cy="538.9" r="2.05" fill="#FFFFFF" opacity="0.032"/><circle cx="254.3" cy="449.9" r="1.45" fill="#FFFFFF" opacity="0.050"/><circle cx="286.9" cy="991.8" r="1.58" fill="#FFFFFF" opacity="0.048"/><circle cx="579.8" cy="596.3" r="1.56" fill="#FFFFFF" opacity="0.077"/><circle cx="417.0" cy="683.4" r="0.69" fill="#FFFFFF" opacity="0.067"/><circle cx="568.4" cy="853.4" r="1.92" fill="#FFFFFF" opacity="0.051"/><circle cx="696.4" cy="175.7" r="0.77" fill="#FFFFFF" opacity="0.041"/><circle cx="31.5" cy="259.3" r="1.29" fill="#FFFFFF" opacity="0.041"/><circle cx="362.5" cy="457.2" r="1.91" fill="#FFFFFF" opacity="0.042"/><circle cx="566.2" cy="395.8" r="0.64" fill="#FFFFFF" opacity="0.036"/><circle cx="366.8" cy="855.2" r="1.73" fill="#FFFFFF" opacity="0.050"/><circle cx="270.0" cy="486.4" r="1.09" fill="#FFFFFF" opacity="0.072"/><circle cx="158.6" cy="748.3" r="1.45" fill="#FFFFFF" opacity="0.075"/><circle cx="536.6" cy="285.9" r="0.74" fill="#FFFFFF" opacity="0.039"/><circle cx="739.7" cy="280.5" r="0.91" fill="#FFFFFF" opacity="0.051"/><circle cx="287.5" cy="254.2" r="2.09" fill="#FFFFFF" opacity="0.035"/><circle cx="752.1" cy="476.9" r="2.13" fill="#FFFFFF" opacity="0.035"/><circle cx="36.9" cy="646.6" r="1.08" fill="#FFFFFF" opacity="0.054"/><circle cx="509.3" cy="672.8" r="0.70" fill="#FFFFFF" opacity="0.037"/><circle cx="247.1" cy="867.7" r="0.88" fill="#FFFFFF" opacity="0.052"/><circle cx="306.0" cy="395.3" r="0.66" fill="#FFFFFF" opacity="0.059"/><circle cx="8.8" cy="5.9" r="1.23" fill="#FFFFFF" opacity="0.037"/><circle cx="174.8" cy="311.6" r="1.68" fill="#FFFFFF" opacity="0.048"/><circle cx="312.1" cy="694.6" r="1.26" fill="#FFFFFF" opacity="0.050"/><circle cx="573.3" cy="824.8" r="2.07" fill="#FFFFFF" opacity="0.079"/><circle cx="273.7" cy="328.1" r="1.91" fill="#FFFFFF" opacity="0.066"/><circle cx="312.3" cy="696.6" r="1.35" fill="#FFFFFF" opacity="0.052"/><circle cx="114.2" cy="890.7" r="1.70" fill="#FFFFFF" opacity="0.049"/><circle cx="665.0" cy="855.0" r="1.63" fill="#FFFFFF" opacity="0.046"/><circle cx="575.7" cy="410.7" r="1.60" fill="#FFFFFF" opacity="0.043"/><circle cx="215.6" cy="977.3" r="2.05" fill="#FFFFFF" opacity="0.041"/><circle cx="530.0" cy="994.8" r="1.50" fill="#FFFFFF" opacity="0.047"/><circle cx="751.8" cy="900.6" r="1.58" fill="#FFFFFF" opacity="0.077"/><circle cx="767.5" cy="689.8" r="1.45" fill="#FFFFFF" opacity="0.075"/><circle cx="349.3" cy="680.8" r="1.33" fill="#FFFFFF" opacity="0.043"/><circle cx="179.9" cy="909.9" r="1.25" fill="#FFFFFF" opacity="0.075"/><circle cx="12.9" cy="859.8" r="1.24" fill="#FFFFFF" opacity="0.077"/><circle cx="273.5" cy="105.2" r="2.17" fill="#FFFFFF" opacity="0.077"/><circle cx="45.5" cy="2.7" r="1.58" fill="#FFFFFF" opacity="0.050"/><circle cx="170.0" cy="604.6" r="1.04" fill="#FFFFFF" opacity="0.054"/><circle cx="215.9" cy="767.1" r="0.65" fill="#FFFFFF" opacity="0.058"/><circle cx="643.2" cy="804.1" r="0.84" fill="#FFFFFF" opacity="0.058"/><circle cx="78.9" cy="89.6" r="1.85" fill="#FFFFFF" opacity="0.041"/><circle cx="61.7" cy="411.7" r="1.57" fill="#FFFFFF" opacity="0.058"/><circle cx="63.0" cy="25.1" r="1.12" fill="#FFFFFF" opacity="0.055"/><circle cx="42.9" cy="681.8" r="1.36" fill="#FFFFFF" opacity="0.064"/><circle cx="167.9" cy="769.9" r="0.89" fill="#FFFFFF" opacity="0.042"/><circle cx="733.0" cy="988.0" r="0.64" fill="#FFFFFF" opacity="0.069"/><circle cx="321.4" cy="142.6" r="1.63" fill="#FFFFFF" opacity="0.056"/><circle cx="155.9" cy="685.7" r="1.42" fill="#FFFFFF" opacity="0.074"/><circle cx="429.2" cy="794.2" r="2.00" fill="#FFFFFF" opacity="0.034"/><circle cx="90.8" cy="1012.6" r="1.11" fill="#FFFFFF" opacity="0.069"/><circle cx="468.4" cy="24.8" r="1.01" fill="#FFFFFF" opacity="0.079"/><circle cx="473.5" cy="865.9" r="1.87" fill="#FFFFFF" opacity="0.046"/><circle cx="589.7" cy="601.1" r="1.83" fill="#FFFFFF" opacity="0.078"/><circle cx="392.6" cy="208.3" r="1.02" fill="#FFFFFF" opacity="0.031"/><circle cx="602.3" cy="202.5" r="1.20" fill="#FFFFFF" opacity="0.073"/><circle cx="86.8" cy="582.3" r="1.96" fill="#FFFFFF" opacity="0.072"/><circle cx="399.5" cy="319.5" r="1.00" fill="#FFFFFF" opacity="0.074"/><circle cx="284.9" cy="426.4" r="1.93" fill="#FFFFFF" opacity="0.049"/><circle cx="574.7" cy="314.6" r="1.53" fill="#FFFFFF" opacity="0.052"/><circle cx="113.1" cy="272.7" r="1.10" fill="#FFFFFF" opacity="0.038"/><circle cx="316.4" cy="677.5" r="0.77" fill="#FFFFFF" opacity="0.043"/><circle cx="224.8" cy="988.6" r="0.85" fill="#FFFFFF" opacity="0.071"/><circle cx="754.8" cy="353.3" r="0.96" fill="#FFFFFF" opacity="0.050"/><circle cx="544.2" cy="70.7" r="2.06" fill="#FFFFFF" opacity="0.059"/><circle cx="625.0" cy="728.5" r="1.49" fill="#FFFFFF" opacity="0.052"/><circle cx="234.5" cy="573.8" r="0.70" fill="#FFFFFF" opacity="0.032"/><circle cx="340.3" cy="875.3" r="1.93" fill="#FFFFFF" opacity="0.073"/><circle cx="460.4" cy="982.3" r="2.02" fill="#FFFFFF" opacity="0.037"/><circle cx="50.8" cy="985.2" r="1.92" fill="#FFFFFF" opacity="0.053"/><circle cx="294.8" cy="161.7" r="1.75" fill="#FFFFFF" opacity="0.049"/><circle cx="618.8" cy="97.3" r="0.80" fill="#FFFFFF" opacity="0.070"/><circle cx="254.9" cy="349.3" r="1.86" fill="#FFFFFF" opacity="0.060"/><circle cx="105.2" cy="141.9" r="0.66" fill="#FFFFFF" opacity="0.033"/><circle cx="161.4" cy="753.9" r="1.93" fill="#FFFFFF" opacity="0.078"/><circle cx="503.1" cy="416.1" r="1.06" fill="#FFFFFF" opacity="0.077"/><circle cx="530.5" cy="816.7" r="1.08" fill="#FFFFFF" opacity="0.046"/><circle cx="159.5" cy="813.4" r="1.58" fill="#FFFFFF" opacity="0.039"/><circle cx="162.6" cy="273.1" r="1.63" fill="#FFFFFF" opacity="0.045"/><circle cx="547.9" cy="537.8" r="1.12" fill="#FFFFFF" opacity="0.080"/><circle cx="100.2" cy="615.7" r="1.96" fill="#FFFFFF" opacity="0.037"/><circle cx="727.1" cy="271.6" r="2.00" fill="#FFFFFF" opacity="0.073"/><circle cx="484.8" cy="760.6" r="0.65" fill="#FFFFFF" opacity="0.040"/><circle cx="508.8" cy="942.5" r="1.21" fill="#FFFFFF" opacity="0.076"/><circle cx="240.8" cy="695.3" r="1.54" fill="#FFFFFF" opacity="0.068"/><circle cx="384.0" cy="799.5" r="1.12" fill="#FFFFFF" opacity="0.034"/><circle cx="443.7" cy="189.1" r="1.66" fill="#FFFFFF" opacity="0.033"/><circle cx="522.9" cy="803.1" r="1.95" fill="#FFFFFF" opacity="0.056"/><circle cx="155.9" cy="487.7" r="1.11" fill="#FFFFFF" opacity="0.069"/><circle cx="542.8" cy="354.6" r="1.06" fill="#FFFFFF" opacity="0.056"/><circle cx="548.0" cy="373.1" r="1.09" fill="#FFFFFF" opacity="0.063"/><circle cx="641.1" cy="1020.3" r="1.91" fill="#FFFFFF" opacity="0.050"/><circle cx="189.5" cy="92.8" r="1.00" fill="#FFFFFF" opacity="0.036"/><circle cx="369.4" cy="201.0" r="1.52" fill="#FFFFFF" opacity="0.071"/><circle cx="1.4" cy="117.8" r="1.98" fill="#FFFFFF" opacity="0.049"/><circle cx="138.5" cy="760.8" r="0.78" fill="#FFFFFF" opacity="0.040"/><circle cx="698.6" cy="499.9" r="1.97" fill="#FFFFFF" opacity="0.045"/><circle cx="546.9" cy="558.2" r="0.92" fill="#FFFFFF" opacity="0.060"/><circle cx="469.3" cy="115.1" r="1.53" fill="#FFFFFF" opacity="0.031"/><circle cx="753.0" cy="184.5" r="1.71" fill="#FFFFFF" opacity="0.053"/><circle cx="430.7" cy="716.7" r="0.92" fill="#FFFFFF" opacity="0.064"/><circle cx="384.6" cy="58.5" r="0.70" fill="#FFFFFF" opacity="0.039"/><circle cx="329.8" cy="945.1" r="0.71" fill="#FFFFFF" opacity="0.047"/><circle cx="684.6" cy="279.0" r="1.36" fill="#FFFFFF" opacity="0.079"/><circle cx="493.1" cy="464.2" r="1.37" fill="#FFFFFF" opacity="0.068"/><circle cx="295.4" cy="693.1" r="1.16" fill="#FFFFFF" opacity="0.034"/><circle cx="659.0" cy="36.5" r="2.15" fill="#FFFFFF" opacity="0.046"/><circle cx="152.5" cy="448.9" r="1.09" fill="#FFFFFF" opacity="0.039"/><circle cx="45.3" cy="44.6" r="2.16" fill="#FFFFFF" opacity="0.032"/><circle cx="312.1" cy="328.2" r="1.01" fill="#FFFFFF" opacity="0.030"/><circle cx="669.6" cy="746.5" r="2.19" fill="#FFFFFF" opacity="0.060"/><circle cx="181.3" cy="13.4" r="1.30" fill="#FFFFFF" opacity="0.067"/><circle cx="161.7" cy="249.3" r="0.61" fill="#FFFFFF" opacity="0.054"/><circle cx="92.8" cy="19.2" r="0.83" fill="#FFFFFF" opacity="0.075"/><circle cx="257.0" cy="381.3" r="0.92" fill="#FFFFFF" opacity="0.042"/><circle cx="510.9" cy="122.1" r="1.41" fill="#FFFFFF" opacity="0.073"/><circle cx="215.2" cy="331.1" r="1.65" fill="#FFFFFF" opacity="0.035"/><circle cx="587.1" cy="815.2" r="0.93" fill="#FFFFFF" opacity="0.053"/><circle cx="142.5" cy="824.1" r="0.73" fill="#FFFFFF" opacity="0.043"/><circle cx="560.0" cy="156.4" r="1.10" fill="#FFFFFF" opacity="0.033"/><circle cx="188.8" cy="812.6" r="1.00" fill="#FFFFFF" opacity="0.036"/><circle cx="233.4" cy="180.7" r="1.61" fill="#FFFFFF" opacity="0.076"/><circle cx="57.5" cy="190.9" r="0.95" fill="#FFFFFF" opacity="0.067"/><circle cx="487.9" cy="369.3" r="1.02" fill="#FFFFFF" opacity="0.058"/><circle cx="739.2" cy="915.9" r="2.11" fill="#FFFFFF" opacity="0.076"/><circle cx="295.6" cy="685.0" r="1.87" fill="#FFFFFF" opacity="0.035"/><circle cx="490.8" cy="689.6" r="2.13" fill="#FFFFFF" opacity="0.072"/><circle cx="718.0" cy="387.0" r="1.70" fill="#FFFFFF" opacity="0.067"/><circle cx="330.6" cy="588.9" r="1.42" fill="#FFFFFF" opacity="0.059"/><circle cx="359.5" cy="708.8" r="0.89" fill="#FFFFFF" opacity="0.077"/><circle cx="563.0" cy="722.8" r="1.88" fill="#FFFFFF" opacity="0.072"/><circle cx="701.4" cy="527.3" r="1.95" fill="#FFFFFF" opacity="0.049"/><circle cx="726.4" cy="273.2" r="1.36" fill="#FFFFFF" opacity="0.033"/><circle cx="664.2" cy="97.6" r="1.22" fill="#FFFFFF" opacity="0.079"/><circle cx="325.3" cy="759.0" r="1.59" fill="#FFFFFF" opacity="0.038"/><circle cx="553.7" cy="175.2" r="2.11" fill="#FFFFFF" opacity="0.051"/><circle cx="151.0" cy="917.5" r="1.16" fill="#FFFFFF" opacity="0.058"/><circle cx="76.4" cy="242.8" r="0.71" fill="#FFFFFF" opacity="0.047"/><circle cx="312.2" cy="679.2" r="0.82" fill="#FFFFFF" opacity="0.064"/><circle cx="245.8" cy="525.5" r="2.05" fill="#FFFFFF" opacity="0.050"/><circle cx="187.8" cy="582.0" r="1.70" fill="#FFFFFF" opacity="0.052"/><circle cx="106.1" cy="372.4" r="1.41" fill="#FFFFFF" opacity="0.069"/><circle cx="470.2" cy="800.1" r="1.64" fill="#FFFFFF" opacity="0.071"/><circle cx="484.8" cy="821.7" r="0.95" fill="#FFFFFF" opacity="0.064"/><circle cx="405.1" cy="871.6" r="0.86" fill="#FFFFFF" opacity="0.062"/><circle cx="310.3" cy="633.3" r="1.35" fill="#FFFFFF" opacity="0.052"/><circle cx="483.7" cy="915.4" r="1.66" fill="#FFFFFF" opacity="0.057"/><circle cx="690.0" cy="446.1" r="0.83" fill="#FFFFFF" opacity="0.040"/><circle cx="103.6" cy="170.8" r="0.74" fill="#FFFFFF" opacity="0.034"/><circle cx="325.4" cy="920.7" r="1.07" fill="#FFFFFF" opacity="0.050"/><circle cx="169.5" cy="785.4" r="1.33" fill="#FFFFFF" opacity="0.048"/><circle cx="638.1" cy="743.6" r="2.17" fill="#FFFFFF" opacity="0.079"/><circle cx="5.4" cy="249.7" r="1.50" fill="#FFFFFF" opacity="0.061"/><circle cx="307.6" cy="902.9" r="0.75" fill="#FFFFFF" opacity="0.042"/><circle cx="55.0" cy="949.0" r="1.07" fill="#FFFFFF" opacity="0.047"/><circle cx="559.0" cy="1004.6" r="0.79" fill="#FFFFFF" opacity="0.067"/><circle cx="222.7" cy="1003.5" r="0.80" fill="#FFFFFF" opacity="0.077"/><circle cx="189.6" cy="293.9" r="0.68" fill="#FFFFFF" opacity="0.057"/><circle cx="420.7" cy="947.7" r="1.97" fill="#FFFFFF" opacity="0.048"/><circle cx="331.9" cy="590.5" r="0.69" fill="#FFFFFF" opacity="0.073"/><circle cx="405.7" cy="888.8" r="0.66" fill="#FFFFFF" opacity="0.050"/><circle cx="721.6" cy="715.3" r="0.75" fill="#FFFFFF" opacity="0.044"/><circle cx="671.8" cy="895.3" r="1.71" fill="#FFFFFF" opacity="0.075"/><circle cx="50.7" cy="973.6" r="1.58" fill="#FFFFFF" opacity="0.035"/><circle cx="390.6" cy="350.2" r="1.00" fill="#FFFFFF" opacity="0.073"/><circle cx="745.0" cy="543.0" r="1.20" fill="#FFFFFF" opacity="0.047"/></g>
<rect x="30" y="30" width="708" height="964" rx="26" fill="none" stroke="#EAC35E" stroke-width="2" opacity="0.85"/><rect x="42" y="42" width="684" height="940" rx="20" fill="none" stroke="#EAC35E" stroke-width="0.8" opacity="0.35"/>
</svg>