<svg xmlns="http://www.w3.org/2000/svg" width="1160" height="560" viewBox="0 0 1160 560"><rect width="100%" height="100%" fill="#F5EFE0"/><line x1="20" y1="70" x2="1140" y2="70" stroke="#D9CFB4" stroke-width="0.6"/><line x1="20" y1="130" x2="1140" y2="130" stroke="#D9CFB4" stroke-width="0.6"/><line x1="20" y1="190" x2="1140" y2="190" stroke="#D9CFB4" stroke-width="0.6"/><line x1="20" y1="250" x2="1140" y2="250" stroke="#D9CFB4" stroke-width="0.6"/><line x1="20" y1="310" x2="1140" y2="310" stroke="#D9CFB4" stroke-width="0.6"/><line x1="20" y1="370" x2="1140" y2="370" stroke="#D9CFB4" stroke-width="0.6"/><line x1="20" y1="430" x2="1140" y2="430" stroke="#D9CFB4" stroke-width="0.6"/><line x1="20" y1="490" x2="1140" y2="490" stroke="#D9CFB4" stroke-width="0.6"/><text x="20" y="30" text-anchor="start" font-size="13" fill="#232A38" font-family="ui-monospace, SFMono-Regular, Menlo, monospace">VIRGIL · TURNAROUND — front and 3/4 from the component system; side and back as construction schematics</text><text x="20" y="48" text-anchor="middle" font-size="10" fill="#6B6556" font-family="ui-monospace, SFMono-Regular, Menlo, monospace">proportion grid: hood peak to hem = 5 heads</text><svg x="30" y="70" width="240" height="320" viewBox="0 0 240 320"><defs><radialGradient id="virgil-glow-_R_0_" cx="50%" cy="50%" r="50%"><stop offset="0%" stop-color="#F2C14E" stop-opacity="0.85"></stop><stop offset="55%" stop-color="#F2C14E" stop-opacity="0.32"></stop><stop offset="100%" stop-color="#F2C14E" stop-opacity="0"></stop></radialGradient></defs><g data-part="figure" transform="translate(0 0) rotate(0 120 300) translate(0 0) scale(1 1)"><ellipse cx="120" cy="306" rx="78" ry="9" fill="#1F2430" opacity="0.1"></ellipse><g data-part="glow-wrap" opacity="0.72"><g transform="translate(0 0) rotate(0 186 164)"><g transform="rotate(0 191 186)"><g data-part="glow"><circle cx="190" cy="216" r="54" fill="url(#virgil-glow-_R_0_)"></circle><circle cx="190" cy="216" r="26" fill="#F2C14E" opacity="0.28"></circle></g></g></g></g><g data-part="cloak"><path d="M120 18
           C148 22 168 44 172 74
           C196 96 206 130 208 168
           C210 220 212 262 212 296
           Q181 306 150 298
           Q120 308 90 298
           Q59 306 28 296
           C28 262 30 220 32 168
           C34 130 44 96 68 74
           C72 44 92 22 120 18 Z" fill="#2F3E66"></path><path d="M68 74 C44 96 34 130 32 168 C30 220 28 262 28 296 Q59 306 90 298
           C78 240 66 150 68 74 Z" fill="#232F4E" opacity="0.45"></path><path d="M28 296 Q59 306 90 298 Q120 308 150 298 Q181 306 212 296
           L212 288 Q181 297 150 289 Q120 299 90 289 Q59 297 28 288 Z" fill="#C8A24B" opacity="0.9"></path><ellipse cx="120" cy="112" rx="47" ry="52" fill="#232F4E"></ellipse></g><g data-part="satchel-wrap" transform="rotate(0 57 208)"><g data-part="satchel"><path d="M170 128 C130 160 92 190 60 214" stroke="#6F4527" stroke-width="7" stroke-linecap="round" fill="none" opacity="0.85"></path><rect x="40" y="198" width="32" height="13" rx="3" fill="#E07856" transform="rotate(-7 56 204)"></rect><rect x="43" y="201" width="26" height="3" rx="1.5" fill="#F4E9D3" transform="rotate(-7 56 204)"></rect><rect x="34" y="208" width="46" height="42" rx="11" fill="#8A5A3B"></rect><path d="M34 219 Q57 232 80 219 L80 214 Q57 226 34 214 Z" fill="#6F4527"></path><circle cx="57" cy="228" r="3.5" fill="#C8A24B"></circle></g></g><g data-part="head" transform="translate(0 0) rotate(0 120 150)"><g data-part="face"><ellipse cx="120" cy="114" rx="38" ry="40" fill="#F7EBD4"></ellipse><path d="M88 126 Q120 156 152 126 Q152 148 120 152 Q88 148 88 126 Z" fill="#E9D6B4" opacity="0.5"></path><g fill="#E0A27E" opacity="0.55"><ellipse cx="96" cy="126" rx="6" ry="3.4"></ellipse><ellipse cx="144" cy="126" rx="6" ry="3.4"></ellipse></g><g data-part="pupil-wrap" transform="translate(0 0)"><g data-part="pupils"><g><ellipse cx="104" cy="108" rx="5.5" ry="7" fill="#232A38"></ellipse><circle cx="102.4" cy="105.4" r="1.8" fill="#F7EBD4" opacity="0.95"></circle></g><g><ellipse cx="136" cy="108" rx="5.5" ry="7" fill="#232A38"></ellipse><circle cx="134.4" cy="105.4" r="1.8" fill="#F7EBD4" opacity="0.95"></circle></g></g></g><g data-part="eyelids" style="transform:scaleY(0);transform-box:fill-box;transform-origin:top"><rect x="97" y="99" width="14" height="19" rx="7" fill="#F7EBD4"></rect><rect x="129" y="99" width="14" height="19" rx="7" fill="#F7EBD4"></rect></g><g data-part="brows" stroke="#232A38" stroke-width="3" stroke-linecap="round" fill="none"><path d="M98 93 Q104 90 110 92" transform="translate(0 0) rotate(0 104 92)"></path><path d="M130 92 Q136 90 142 93" transform="translate(0 0) rotate(0 136 92)"></path></g><path d="M112 132 Q120 139 128 132" stroke="#232A38" stroke-width="3" stroke-linecap="round" fill="none"></path></g></g><g data-part="motif" stroke="#C8A24B" stroke-width="2.4" stroke-linecap="round" stroke-linejoin="round" fill="none"><path d="M113 186 Q108 174 114 165"></path><path d="M127 186 Q132 174 126 165"></path><path d="M113 180 L108 178 M113 173 L109 170 M114 167 L111 163" stroke-width="2"></path><path d="M127 180 L132 178 M127 173 L131 170 M126 167 L129 163" stroke-width="2"></path></g><g data-part="arm" transform="translate(0 0) rotate(0 186 164)"><g data-part="lantern-swing" transform="rotate(0 191 186)"><g data-part="lantern-arm"><path d="M172 154 Q196 158 198 180 Q198 188 190 190 Q178 190 176 178 Q172 166 172 154 Z" fill="#2F3E66"></path><path d="M172 154 Q196 158 198 180 Q190 176 182 170 Q176 162 172 154 Z" fill="#232F4E" opacity="0.5"></path><circle cx="191" cy="186" r="7" fill="#F7EBD4"></circle><path d="M183 200 Q191 188 199 200" stroke="#7A5B2A" stroke-width="3" stroke-linecap="round" fill="none"></path><path d="M177 200 L205 200 L211 216 L205 238 L177 238 L171 216 Z" fill="#7A5B2A"></path><path d="M181 206 L201 206 L205 216 L201 232 L181 232 L177 216 Z" fill="#F7D98A"></path><ellipse cx="191" cy="220" rx="4.5" ry="6.5" fill="#F7EBD4" opacity="0.95"></ellipse><ellipse cx="191" cy="222" rx="2.4" ry="3.6" fill="#F2C14E"></ellipse><rect x="184" y="195" width="14" height="6" rx="2" fill="#7A5B2A"></rect><rect x="181" y="238" width="20" height="6" rx="2.5" fill="#7A5B2A"></rect></g></g></g></g></svg><svg x="320" y="70" width="240" height="320" viewBox="0 0 240 320"><defs><radialGradient id="virgil-glow-_R_0_" cx="50%" cy="50%" r="50%"><stop offset="0%" stop-color="#F2C14E" stop-opacity="0.85"></stop><stop offset="55%" stop-color="#F2C14E" stop-opacity="0.32"></stop><stop offset="100%" stop-color="#F2C14E" stop-opacity="0"></stop></radialGradient></defs><g data-part="figure" transform="translate(0 0) rotate(-8 120 300) translate(0 0) scale(1 1)"><ellipse cx="120" cy="306" rx="78" ry="9" fill="#1F2430" opacity="0.1"></ellipse><g data-part="glow-wrap" opacity="0.72"><g transform="translate(0 0) rotate(-10 186 164)"><g transform="rotate(0 191 186)"><g data-part="glow"><circle cx="190" cy="216" r="54" fill="url(#virgil-glow-_R_0_)"></circle><circle cx="190" cy="216" r="26" fill="#F2C14E" opacity="0.28"></circle></g></g></g></g><g data-part="cloak"><path d="M120 18
           C148 22 168 44 172 74
           C196 96 206 130 208 168
           C210 220 212 262 212 296
           Q181 306 150 298
           Q120 308 90 298
           Q59 306 28 296
           C28 262 30 220 32 168
           C34 130 44 96 68 74
           C72 44 92 22 120 18 Z" fill="#2F3E66"></path><path d="M68 74 C44 96 34 130 32 168 C30 220 28 262 28 296 Q59 306 90 298
           C78 240 66 150 68 74 Z" fill="#232F4E" opacity="0.45"></path><path d="M28 296 Q59 306 90 298 Q120 308 150 298 Q181 306 212 296
           L212 288 Q181 297 150 289 Q120 299 90 289 Q59 297 28 288 Z" fill="#C8A24B" opacity="0.9"></path><ellipse cx="120" cy="112" rx="47" ry="52" fill="#232F4E"></ellipse></g><g data-part="satchel-wrap" transform="rotate(0 57 208)"><g data-part="satchel"><path d="M170 128 C130 160 92 190 60 214" stroke="#6F4527" stroke-width="7" stroke-linecap="round" fill="none" opacity="0.85"></path><rect x="40" y="198" width="32" height="13" rx="3" fill="#E07856" transform="rotate(-7 56 204)"></rect><rect x="43" y="201" width="26" height="3" rx="1.5" fill="#F4E9D3" transform="rotate(-7 56 204)"></rect><rect x="34" y="208" width="46" height="42" rx="11" fill="#8A5A3B"></rect><path d="M34 219 Q57 232 80 219 L80 214 Q57 226 34 214 Z" fill="#6F4527"></path><circle cx="57" cy="228" r="3.5" fill="#C8A24B"></circle></g></g><g data-part="head" transform="translate(0 0) rotate(-12 120 150)"><g data-part="face"><ellipse cx="120" cy="114" rx="38" ry="40" fill="#F7EBD4"></ellipse><path d="M88 126 Q120 156 152 126 Q152 148 120 152 Q88 148 88 126 Z" fill="#E9D6B4" opacity="0.5"></path><g fill="#E0A27E" opacity="0.55"><ellipse cx="96" cy="126" rx="6" ry="3.4"></ellipse><ellipse cx="144" cy="126" rx="6" ry="3.4"></ellipse></g><g data-part="pupil-wrap" transform="translate(-5 0)"><g data-part="pupils"><g><ellipse cx="104" cy="108" rx="5.5" ry="7" fill="#232A38"></ellipse><circle cx="102.4" cy="105.4" r="1.8" fill="#F7EBD4" opacity="0.95"></circle></g><g><ellipse cx="136" cy="108" rx="5.5" ry="7" fill="#232A38"></ellipse><circle cx="134.4" cy="105.4" r="1.8" fill="#F7EBD4" opacity="0.95"></circle></g></g></g><g data-part="eyelids" style="transform:scaleY(0);transform-box:fill-box;transform-origin:top"><rect x="97" y="99" width="14" height="19" rx="7" fill="#F7EBD4"></rect><rect x="129" y="99" width="14" height="19" rx="7" fill="#F7EBD4"></rect></g><g data-part="brows" stroke="#232A38" stroke-width="3" stroke-linecap="round" fill="none"><path d="M98 93 Q104 90 110 92" transform="translate(0 0) rotate(0 104 92)"></path><path d="M130 92 Q136 90 142 93" transform="translate(0 0) rotate(0 136 92)"></path></g><path d="M112 132 Q120 139 128 132" stroke="#232A38" stroke-width="3" stroke-linecap="round" fill="none"></path></g></g><g data-part="motif" stroke="#C8A24B" stroke-width="2.4" stroke-linecap="round" stroke-linejoin="round" fill="none"><path d="M113 186 Q108 174 114 165"></path><path d="M127 186 Q132 174 126 165"></path><path d="M113 180 L108 178 M113 173 L109 170 M114 167 L111 163" stroke-width="2"></path><path d="M127 180 L132 178 M127 173 L131 170 M126 167 L129 163" stroke-width="2"></path></g><g data-part="arm" transform="translate(0 0) rotate(-10 186 164)"><g data-part="lantern-swing" transform="rotate(0 191 186)"><g data-part="lantern-arm"><path d="M172 154 Q196 158 198 180 Q198 188 190 190 Q178 190 176 178 Q172 166 172 154 Z" fill="#2F3E66"></path><path d="M172 154 Q196 158 198 180 Q190 176 182 170 Q176 162 172 154 Z" fill="#232F4E" opacity="0.5"></path><circle cx="191" cy="186" r="7" fill="#F7EBD4"></circle><path d="M183 200 Q191 188 199 200" stroke="#7A5B2A" stroke-width="3" stroke-linecap="round" fill="none"></path><path d="M177 200 L205 200 L211 216 L205 238 L177 238 L171 216 Z" fill="#7A5B2A"></path><path d="M181 206 L201 206 L205 216 L201 232 L181 232 L177 216 Z" fill="#F7D98A"></path><ellipse cx="191" cy="220" rx="4.5" ry="6.5" fill="#F7EBD4" opacity="0.95"></ellipse><ellipse cx="191" cy="222" rx="2.4" ry="3.6" fill="#F2C14E"></ellipse><rect x="184" y="195" width="14" height="6" rx="2" fill="#7A5B2A"></rect><rect x="181" y="238" width="20" height="6" rx="2.5" fill="#7A5B2A"></rect></g></g></g></g></svg>
    <g transform="translate(640 70)">
      <path d="M120 18 C150 24 166 50 168 80 C186 110 192 150 193 200 C194 250 196 280 196 300 Q150 312 104 300 C100 250 98 200 100 150 C102 100 106 40 120 18 Z" fill="#2F3E66"/>
      <ellipse cx="126" cy="112" rx="34" ry="40" fill="#F7EBD4"/>
      <ellipse cx="150" cy="108" rx="5" ry="7" fill="#232A38"/>
      <path d="M150 134 Q156 137 150 140" stroke="#232A38" stroke-width="3" fill="none" stroke-linecap="round"/>
      <path d="M170 160 Q192 166 192 186" stroke="#2F3E66" stroke-width="14" fill="none" stroke-linecap="round"/>
      <circle cx="192" cy="188" r="7" fill="#F7EBD4"/>
      <path d="M186 202 L198 202 L202 216 L198 238 L186 238 L182 216 Z" fill="#7A5B2A"/>
      <path d="M189 207 L195 207 L197 216 L195 231 L189 231 L187 216 Z" fill="#F7D98A"/>
      <rect x="96" y="206" width="16" height="44" rx="7" fill="#8A5A3B"/>
    </g>
    <g transform="translate(900 70)">
      <path d="M120 18 C148 22 168 44 172 74 C196 96 206 130 208 168 C210 220 212 262 212 296 Q181 306 150 298 Q120 308 90 298 Q59 306 28 296 C28 262 30 220 32 168 C34 130 44 96 68 74 C72 44 92 22 120 18 Z" fill="#2F3E66"/>
      <path d="M120 18 C100 60 96 140 100 220" stroke="#232F4E" stroke-width="5" fill="none" opacity="0.6"/>
      <path d="M170 128 C130 160 92 190 60 214" stroke="#6F4527" stroke-width="7" fill="none" stroke-linecap="round" opacity="0.9"/>
      <path d="M28 296 Q59 306 90 298 Q120 308 150 298 Q181 306 212 296 L212 288 Q181 297 150 289 Q120 299 90 289 Q59 297 28 288 Z" fill="#C8A24B"/>
    </g><text x="150" y="540" text-anchor="middle" font-size="11" fill="#232A38" font-family="ui-monospace, SFMono-Regular, Menlo, monospace">front</text><text x="440" y="540" text-anchor="middle" font-size="11" fill="#232A38" font-family="ui-monospace, SFMono-Regular, Menlo, monospace">three-quarter</text><text x="760" y="540" text-anchor="middle" font-size="11" fill="#232A38" font-family="ui-monospace, SFMono-Regular, Menlo, monospace">side (schematic)</text><text x="1020" y="540" text-anchor="middle" font-size="11" fill="#232A38" font-family="ui-monospace, SFMono-Regular, Menlo, monospace">back (schematic)</text></svg>